0
SECTION
2
HEADER
9
$INSUNITS
70
4
9
$ACADVER
1
AC1014
9
$HANDSEED
5
FFFF
0
ENDSEC
0
SECTION
2
TABLES
0
TABLE
2
VPORT
5
8
100
AcDbSymbolTable
0
ENDTAB
0
TABLE
2
LTYPE
5
5
100
AcDbSymbolTable
0
LTYPE
5
14
100
AcDbSymbolTableRecord
100
AcDbLinetypeTableRecord
2
BYBLOCK
70
0
0
LTYPE
5
15
100
AcDbSymbolTableRecord
100
AcDbLinetypeTableRecord
2
BYLAYER
70
0
0
ENDTAB
0
TABLE
2
LAYER
5
2
100
AcDbSymbolTable
70
2
0
LAYER
5
50
100
AcDbSymbolTableRecord
100
AcDbLayerTableRecord
2
0
70
0
6
CONTINUOUS
0
ENDTAB
0
TABLE
2
STYLE
5
3
100
AcDbSymbolTable
70
1
0
STYLE
5
11
100
AcDbSymbolTableRecord
100
AcDbTextStyleTableRecord
2
STANDARD
70
0
0
ENDTAB
0
TABLE
2
VIEW
5
6
100
AcDbSymbolTable
70
0
0
ENDTAB
0
TABLE
2
UCS
5
7
100
AcDbSymbolTable
70
0
0
ENDTAB
0
TABLE
2
APPID
5
9
100
AcDbSymbolTable
70
2
0
APPID
5
12
100
AcDbSymbolTableRecord
100
AcDbRegAppTableRecord
2
ACAD
70
0
0
ENDTAB
0
TABLE
2
DIMSTYLE
5
A
100
AcDbSymbolTable
70
1
0
ENDTAB
0
TABLE
2
BLOCK_RECORD
5
1
100
AcDbSymbolTable
70
1
0
BLOCK_RECORD
5
1F
100
AcDbSymbolTableRecord
100
AcDbBlockTableRecord
2
*MODEL_SPACE
0
BLOCK_RECORD
5
1B
100
AcDbSymbolTableRecord
100
AcDbBlockTableRecord
2
*PAPER_SPACE
0
ENDTAB
0
ENDSEC
0
SECTION
2
BLOCKS
0
BLOCK
5
20
100
AcDbEntity
100
AcDbBlockBegin
2
*MODEL_SPACE
0
ENDBLK
5
21
100
AcDbEntity
100
AcDbBlockEnd
0
BLOCK
5
1C
100
AcDbEntity
100
AcDbBlockBegin
2
*PAPER_SPACE
0
ENDBLK
5
1D
100
AcDbEntity
100
AcDbBlockEnd
0
ENDSEC
0
SECTION
2
ENTITIES
0
CIRCLE
5
100
100
AcDbEntity
8
0
100
AcDbCircle
10
-146.05806857740635
20
108.40971859576001
30
0
40
1.6000000000000014
0
CIRCLE
5
101
100
AcDbEntity
8
0
100
AcDbCircle
10
-176.05806857741354
20
-6.5902814042379063
30
0
40
1.6000000000000014
0
LINE
5
102
100
AcDbEntity
8
0
100
AcDbLine
10
-173.55806863328584
20
105.9097186516412
30
0
11
-178.55806852153444
21
105.9097186516388
31
2.7117093616554133e-30
0
LINE
5
103
100
AcDbEntity
8
0
100
AcDbLine
10
-178.55806852153444
20
105.9097186516388
30
2.7117093616554133e-30
11
-178.55806852153444
21
-10.090281460117101
31
0
0
LINE
5
104
100
AcDbEntity
8
0
100
AcDbLine
10
-178.55806852153444
20
-10.090281460117101
30
0
11
-173.55806863329315
21
-10.090281460117103
31
1.9243888277137428e-48
0
LINE
5
105
100
AcDbEntity
8
0
100
AcDbLine
10
-142.55806852153444
20
-10.090281460117103
30
0
11
-137.73327149763961
21
-10.090281460117103
31
-8.4031287072074601e-49
0
LINE
5
106
100
AcDbEntity
8
0
100
AcDbLine
10
-137.73327149763961
20
-10.090281460117103
30
-8.4031287072074601e-49
11
-137.73327149763961
21
105.9097186516388
31
0
0
LINE
5
107
100
AcDbEntity
8
0
100
AcDbLine
10
-137.73327149763961
20
105.9097186516388
30
0
11
-142.55806852152719
21
105.90971865163911
31
-2.4651903288100865e-30
0
LINE
5
108
100
AcDbEntity
8
0
100
AcDbLine
10
-142.55806852152719
20
105.90971865163911
30
-2.4651903288100865e-30
11
-142.55806852152688
21
110.8818069699299
31
0
0
LINE
5
109
100
AcDbEntity
8
0
100
AcDbLine
10
-142.55806852152688
20
110.8818069699299
30
0
11
-173.55806863328553
21
110.88180696993194
31
-8.8746851837004535e-30
0
LINE
5
110
100
AcDbEntity
8
0
100
AcDbLine
10
-173.55806863328553
20
110.88180696993194
30
-8.8746851837004535e-30
11
-173.55806863328584
21
105.9097186516412
31
0
0
CIRCLE
5
111
100
AcDbEntity
8
0
100
AcDbCircle
10
-146.05806857740635
20
108.40971859576001
30
0
40
1.6000000000000014
0
CIRCLE
5
112
100
AcDbEntity
8
0
100
AcDbCircle
10
-176.05806857741354
20
-6.5902814042379063
30
0
40
1.6000000000000014
0
LWPOLYLINE
5
113
100
AcDbEntity
8
0
100
AcDbPolyline
90
12
70
1
43
0.0
10
-173.55806863328584
20
105.9097186516412
10
-178.55806852153444
20
105.9097186516388
10
-178.55806852153444
20
-10.090281460117103
10
-173.55806863329315
20
-10.090281460117108
10
-173.55806863329346
20
-15.090270720105503
10
-142.55806852153478
20
-15.09027072010756
10
-142.55806852153444
20
-10.090281460117108
10
-137.73327149763961
20
-10.090281460117101
10
-137.73327149763961
20
105.9097186516388
10
-142.55806852152719
20
105.90971865163911
10
-142.55806852152688
20
110.8818069699299
10
-173.55806863328553
20
110.88180696993194
0
LWPOLYLINE
5
114
100
AcDbEntity
8
0
100
AcDbPolyline
90
20
70
1
43
0.0
10
-176.75806852153443
20
-9.5902814601171045
10
-173.05806863329309
20
-9.590281460117108
10
-173.05806863329335
20
-13.290270720105539
42
0.41421356237309104
10
-171.75806863329339
20
-14.590270720105622
10
-144.35806852153473
20
-14.59027072010743
42
0.41421356237310003
10
-143.05806852153464
20
-13.290270720107525
10
-143.05806852153441
20
-9.590281460117108
10
-139.53327149763962
20
-9.5902814601171098
42
0.4142135623730866
10
-138.23327149763963
20
-8.2902814601171038
10
-138.23327149763963
20
104.1097186516389
42
0.414213562373063
10
-139.53327149763953
20
105.40971865163891
10
-143.05806852152725
20
105.40971865163914
10
-143.05806852152702
20
109.08180696992991
42
0.41421356237309903
10
-144.35806852152692
20
110.38180696993001
10
-171.75806863328552
20
110.38180696993182
42
0.41421356237309903
10
-173.05806863328564
20
109.08180696993192
10
-173.05806863328587
20
105.40971865164144
10
-176.75806852153505
20
105.40971865163965
42
0.41421356237296303
10
-178.05806852153441
20
104.10971865163967
10
-178.05806852153441
20
-8.2902814601171038
42
0.41421356237311058
0
ENDSEC
0
SECTION
2
OBJECTS
0
DICTIONARY
5
C
100
AcDbDictionary
3
ACAD_GROUP
350
D
3
ACAD_MLINESTYLE
350
17
0
DICTIONARY
5
D
100
AcDbDictionary
0
DICTIONARY
5
1A
330
C
100
AcDbDictionary
0
DICTIONARY
5
17
100
AcDbDictionary
0
ENDSEC
0
EOF
