%TF.GenerationSoftware,Novarm,DipTrace,3.2.0.1*%
%TF.CreationDate,2018-04-10T13:15:36+00:00*%
%FSLAX35Y35*%
%MOMM*%
%TF.FileFunction,Copper,L2,Bot*%
%TF.Part,Single*%
%TA.AperFunction,Conductor*%
%ADD14C,1.0*%
%ADD15C,4.0*%
%ADD16C,1.27*%
%ADD17C,2.54*%
%ADD19C,0.33*%
%TA.AperFunction,CopperBalancing*%
%ADD20C,0.635*%
%TA.AperFunction,ComponentPad*%
%ADD23R,1.5X1.5*%
%ADD24C,1.5*%
%ADD25C,1.6*%
%ADD26R,1.6X1.6*%
%ADD27R,1.8X1.8*%
%ADD28C,1.8*%
%ADD29R,2.5X2.5*%
%ADD30C,2.5*%
%ADD31R,2.4X1.7*%
%ADD32O,2.4X1.7*%
%ADD33R,1.9X1.9*%
%ADD34C,1.9*%
%ADD35O,1.0X2.0*%
%ADD69C,4.0*%
%TA.AperFunction,CopperBalancing*%
%ADD70C,0.33*%
G75*
G01*
%LPD*%
X6334000Y4175000D2*
D15*
X7350000D1*
Y4937000D1*
X6867500D1*
X5191000Y3032000D2*
D16*
X7350000D1*
D15*
Y4175000D1*
Y3032000D2*
D16*
D3*
D17*
Y4175000D1*
X3667000Y11795000D2*
D16*
X4048000D1*
X4175000Y11668000D1*
Y10525000D1*
D14*
X4048000D1*
X3667000Y12303000D2*
D16*
X3286000D1*
X3159000Y12176000D1*
Y10525000D1*
D14*
X3286000D1*
X4810000Y7477000D2*
D19*
Y6715000D1*
X5064000Y6461000D1*
X7858000D1*
X7985000Y6334000D1*
Y4048000D1*
X8366000Y3667000D1*
X10779000D1*
X11033000Y3413000D1*
Y2397000D1*
X4556000Y7477000D2*
Y6588000D1*
X4937000Y6207000D1*
X7604000D1*
X7731000Y6080000D1*
Y3794000D1*
X8112000Y3413000D1*
X10652000D1*
X10779000Y3286000D1*
Y2397000D1*
X8112000Y11795000D2*
D16*
X8493000D1*
X8633170Y11654830D1*
Y10779000D1*
D14*
X8620000D1*
X8112000Y12303000D2*
D16*
X7858000D1*
X7604000Y12049000D1*
Y10779000D1*
D14*
X7858000D1*
X13065000Y9255000D2*
D16*
X13192000D1*
X13319000Y9382000D1*
Y11160000D1*
D14*
X13192000D1*
X13065000Y8747000D2*
D16*
X12430000D1*
X12303000Y8874000D1*
Y11160000D1*
D14*
X12430000D1*
X14589000Y4048000D2*
D16*
X14081000D1*
X13065000Y5064000D1*
Y6080000D1*
D14*
X13192000D1*
X14589000Y4556000D2*
D16*
X14081000Y5064000D1*
Y6080000D1*
D14*
X13954000D1*
X10017000Y5318000D2*
D16*
X9636000D1*
X9255000Y5699000D1*
Y7350000D1*
D14*
X9128000D1*
X10017000Y4810000D2*
D16*
X8747000D1*
X8239000Y5318000D1*
Y7350000D1*
D14*
X8366000D1*
X13573000Y1762000D2*
D16*
X10525000D1*
X10398000Y1889000D1*
Y2397000D1*
D14*
X10525000D1*
X13573000Y2270000D2*
D16*
X11414000D1*
Y2397000D1*
D14*
X11287000D1*
X4048000Y7477000D2*
D19*
X4556000Y7985000D1*
X8620000D1*
X8874000Y7731000D1*
Y7350000D1*
X3794000Y7477000D2*
X4429000Y8112000D1*
X13065000D1*
X13446000Y7731000D1*
Y6080000D1*
X3032000Y7477000D2*
X4048000Y8493000D1*
X10525000D1*
X10906000Y8874000D1*
Y11287000D1*
X11287000Y11668000D1*
X12684000D1*
X12938000Y11414000D1*
Y11160000D1*
X8366000Y10779000D2*
Y9001000D1*
X7985000Y8620000D1*
X3921000D1*
X2778000Y7477000D1*
X2524000D2*
Y7096000D1*
X2397000Y6969000D1*
X1762000D1*
X1635000Y7096000D1*
Y7350000D1*
X3794000Y9509000D1*
Y10525000D1*
X4302000Y7477000D2*
X4556000Y7731000D1*
X8366000D1*
X8620000Y7477000D1*
Y7350000D1*
X3540000Y7477000D2*
X4302000Y8239000D1*
X13319000D1*
X13700000Y7858000D1*
Y6080000D1*
X3286000Y7477000D2*
X4175000Y8366000D1*
X10779000D1*
X11160000Y8747000D1*
Y11160000D1*
X11414000Y11414000D1*
X12557000D1*
X12684000Y11287000D1*
Y11160000D1*
X2270000Y7477000D2*
X3540000Y8747000D1*
X7731000D1*
X8112000Y9128000D1*
Y10779000D1*
X3032000Y5953000D2*
Y6207000D1*
X2905000Y6334000D1*
X2143000D1*
X1508000Y6969000D1*
Y7477000D1*
X3540000Y9509000D1*
Y10525000D1*
Y4937000D2*
Y4810000D1*
X2905000Y4175000D1*
Y3921000D1*
X2555500Y3571500D1*
X2594500D1*
X3540000Y5953000D2*
Y4937000D1*
X3794000D2*
Y4810000D1*
X3032000Y4048000D1*
Y3159000D1*
X2778000Y2905000D1*
X2594500D1*
Y2936500D1*
X3794000Y4937000D2*
Y5953000D1*
X4048000Y4937000D2*
Y5953000D1*
Y4937000D2*
Y4206500D1*
X3864500D1*
X4302000Y4937000D2*
Y4009000D1*
X3864500Y3571500D1*
X4302000Y5953000D2*
Y4937000D1*
X4556000D2*
Y3628000D1*
X3864500Y2936500D1*
X4556000Y4937000D2*
Y5953000D1*
X4810000Y4937000D2*
X4937000Y4810000D1*
Y4404000D1*
X5134500Y4206500D1*
X4810000Y5953000D2*
Y4937000D1*
X5064000Y5953000D2*
Y4937000D1*
X2270000Y5953000D2*
Y5826000D1*
X1889000Y5445000D1*
Y2016000D1*
X6461000D1*
Y2270000D2*
D16*
X5191000D1*
Y2524000D1*
X5826000Y5953000D2*
D19*
Y4937000D1*
X5762500D1*
X3286000Y5953000D2*
Y4937000D1*
Y4898000D1*
X2594500Y4206500D1*
X1288146Y12655083D2*
D20*
X16711904D1*
X1288146Y12591917D2*
X16711904D1*
X1288146Y12528750D2*
X16711904D1*
X1288146Y12465583D2*
X3451370D1*
X3882612D2*
X7896370D1*
X8327612D2*
X16711904D1*
X1288146Y12402417D2*
X3170094D1*
X3882612D2*
X7742060D1*
X8327612D2*
X16711904D1*
X1288146Y12339250D2*
X3106930D1*
X3882612D2*
X7678896D1*
X8327612D2*
X16711904D1*
X1288146Y12276083D2*
X3043948D1*
X3882612D2*
X7615732D1*
X8327612D2*
X16711904D1*
X1288146Y12212917D2*
X3009586D1*
X3882612D2*
X7552568D1*
X8327612D2*
X16711904D1*
X1288146Y12149750D2*
X3004847D1*
X3348133D2*
X3451370D1*
X3882612D2*
X7489495D1*
X8327612D2*
X16711904D1*
X1288146Y12086583D2*
X3004847D1*
X3313133D2*
X7454677D1*
X7856935D2*
X16711904D1*
X1288146Y12023417D2*
X3004847D1*
X3313133D2*
X7449847D1*
X7793771D2*
X16711904D1*
X1288146Y11960250D2*
X3004847D1*
X3313133D2*
X3532216D1*
X3801765D2*
X7449847D1*
X7758133D2*
X7977216D1*
X8246765D2*
X16711904D1*
X1288146Y11897083D2*
X3004847D1*
X3313133D2*
X3477985D1*
X4161245D2*
X7449847D1*
X7758133D2*
X7922985D1*
X8606245D2*
X16711904D1*
X1288146Y11833917D2*
X3004847D1*
X3313133D2*
X3455016D1*
X4224409D2*
X7449847D1*
X7758133D2*
X7900016D1*
X8669409D2*
X16711904D1*
X1288146Y11770750D2*
X3004847D1*
X3313133D2*
X3452737D1*
X4287573D2*
X7449847D1*
X7758133D2*
X7897737D1*
X8732573D2*
X16711904D1*
X1288146Y11707583D2*
X3004847D1*
X3313133D2*
X3470511D1*
X4323758D2*
X7449847D1*
X7758133D2*
X7915511D1*
X8777599D2*
X11177711D1*
X12793302D2*
X16711904D1*
X1288146Y11644417D2*
X3004847D1*
X3313133D2*
X3515263D1*
X3818718D2*
X3983206D1*
X4329135D2*
X7449847D1*
X7758133D2*
X7960263D1*
X8263718D2*
X8428206D1*
X8787351D2*
X11114547D1*
X12856466D2*
X16711904D1*
X1288146Y11581250D2*
X3004847D1*
X3313133D2*
X4020849D1*
X4329135D2*
X7449847D1*
X7758133D2*
X8479065D1*
X8787351D2*
X11051383D1*
X12919630D2*
X16711904D1*
X1288146Y11518083D2*
X3004847D1*
X3313133D2*
X4020849D1*
X4329135D2*
X7449847D1*
X7758133D2*
X8479065D1*
X8787351D2*
X10988219D1*
X11285932D2*
X12684990D1*
X12982794D2*
X16711904D1*
X1288146Y11454917D2*
X3004847D1*
X3313133D2*
X4020849D1*
X4329135D2*
X7449847D1*
X7758133D2*
X8479065D1*
X8787351D2*
X10925055D1*
X11222768D2*
X11306045D1*
X12664968D2*
X12748154D1*
X13036479D2*
X16711904D1*
X1288146Y11391750D2*
X3004847D1*
X3313133D2*
X4020849D1*
X4329135D2*
X7449847D1*
X7758133D2*
X8479065D1*
X8787351D2*
X10861891D1*
X11159604D2*
X11242880D1*
X12728133D2*
X12811318D1*
X13045138D2*
X16711904D1*
X1288146Y11328583D2*
X3004847D1*
X3313133D2*
X4020849D1*
X4329135D2*
X7449847D1*
X7758133D2*
X8479065D1*
X8787351D2*
X10807841D1*
X11096440D2*
X11179716D1*
X13261336D2*
X16711904D1*
X1288146Y11265417D2*
X3004847D1*
X3313133D2*
X4020849D1*
X4329135D2*
X7449847D1*
X7758133D2*
X8479065D1*
X8787351D2*
X10798818D1*
X11033276D2*
X11116552D1*
X11414265D2*
X12193076D1*
X13428953D2*
X16711904D1*
X1288146Y11202250D2*
X3004847D1*
X3313133D2*
X4020849D1*
X4329135D2*
X7449847D1*
X7758133D2*
X8479065D1*
X8787351D2*
X10798818D1*
X11013133D2*
X11062138D1*
X11351101D2*
X12155068D1*
X13466961D2*
X16711904D1*
X1288146Y11139083D2*
X3004847D1*
X3313133D2*
X4020849D1*
X4329135D2*
X7449847D1*
X7758133D2*
X8479065D1*
X8787351D2*
X10798818D1*
X11013133D2*
X11052841D1*
X11287937D2*
X12148870D1*
X13473159D2*
X16711904D1*
X1288146Y11075917D2*
X3004847D1*
X3313133D2*
X4020849D1*
X4329135D2*
X7449847D1*
X7758133D2*
X8479065D1*
X8787351D2*
X10798818D1*
X11013133D2*
X11052841D1*
X11267156D2*
X11431461D1*
X11650515D2*
X12148870D1*
X13473159D2*
X13971513D1*
X14190476D2*
X16711904D1*
X1288146Y11012750D2*
X3004847D1*
X3313133D2*
X4020849D1*
X4329135D2*
X7449847D1*
X7758133D2*
X8479065D1*
X8787351D2*
X10798818D1*
X11013133D2*
X11052841D1*
X11267156D2*
X11334391D1*
X11747677D2*
X12148870D1*
X13473159D2*
X13874352D1*
X14287638D2*
X16711904D1*
X1288146Y10949583D2*
X3004847D1*
X3313133D2*
X4020849D1*
X4329135D2*
X7449847D1*
X7758133D2*
X7792555D1*
X8787351D2*
X10798818D1*
X11013133D2*
X11052841D1*
X11267156D2*
X11286448D1*
X11795620D2*
X12148870D1*
X12457156D2*
X13164873D1*
X13473159D2*
X13826409D1*
X14335580D2*
X16711904D1*
X1288146Y10886417D2*
X3004847D1*
X3313133D2*
X4020849D1*
X4329135D2*
X7449847D1*
X8787351D2*
X10798818D1*
X11013133D2*
X11052841D1*
X11821414D2*
X12148870D1*
X12457156D2*
X13164873D1*
X13473159D2*
X13800524D1*
X14361466D2*
X16711904D1*
X1288146Y10823250D2*
X3004847D1*
X3313133D2*
X4020849D1*
X4329135D2*
X7449847D1*
X8787351D2*
X10798818D1*
X11013133D2*
X11052841D1*
X11831349D2*
X12148870D1*
X12457156D2*
X13164873D1*
X13473159D2*
X13790589D1*
X14371401D2*
X16711904D1*
X1288146Y10760083D2*
X3004847D1*
X3313133D2*
X4020849D1*
X4329135D2*
X7451032D1*
X8786075D2*
X10798818D1*
X11013133D2*
X11052841D1*
X11827065D2*
X12148870D1*
X12457156D2*
X13164873D1*
X13473159D2*
X13794964D1*
X14367026D2*
X16711904D1*
X1288146Y10696917D2*
X3004847D1*
X4329135D2*
X6864782D1*
X7073172D2*
X7474729D1*
X8762377D2*
X9404834D1*
X9613224D2*
X10798818D1*
X11013133D2*
X11052841D1*
X11807742D2*
X12148870D1*
X12457156D2*
X13164873D1*
X13473159D2*
X13814287D1*
X14347703D2*
X16711904D1*
X1288146Y10633750D2*
X3004847D1*
X4329135D2*
X6764430D1*
X7173614D2*
X7570341D1*
X7637638D2*
X7757008D1*
X8720997D2*
X9304391D1*
X9713575D2*
X10798818D1*
X11013133D2*
X11052841D1*
X11267156D2*
X11312425D1*
X11769643D2*
X12148870D1*
X12457156D2*
X13164873D1*
X13473159D2*
X13852386D1*
X14309604D2*
X16711904D1*
X1288146Y10570583D2*
X3004847D1*
X4329135D2*
X6715576D1*
X7222468D2*
X8004834D1*
X8219148D2*
X8258857D1*
X8473172D2*
X9255537D1*
X9762429D2*
X10798818D1*
X11013133D2*
X11052841D1*
X11267156D2*
X11382880D1*
X11699096D2*
X12148870D1*
X12457156D2*
X13164873D1*
X13473159D2*
X13922933D1*
X14239057D2*
X16711904D1*
X1288146Y10507417D2*
X3005940D1*
X4328133D2*
X6689143D1*
X7248901D2*
X8004834D1*
X8219148D2*
X8258857D1*
X8473172D2*
X9229104D1*
X9788862D2*
X10798818D1*
X11013133D2*
X11052841D1*
X11267156D2*
X12148870D1*
X12457156D2*
X13164873D1*
X13473159D2*
X16711904D1*
X1288146Y10444250D2*
X2296552D1*
X2497468D2*
X3028909D1*
X4305164D2*
X4836513D1*
X5037521D2*
X6678753D1*
X7259291D2*
X8004834D1*
X8219148D2*
X8258857D1*
X8473172D2*
X9218714D1*
X9799252D2*
X10798818D1*
X11013133D2*
X11052841D1*
X11267156D2*
X12148870D1*
X12457156D2*
X13164873D1*
X13473159D2*
X16711904D1*
X1288146Y10381083D2*
X2193740D1*
X2600190D2*
X3119052D1*
X4214929D2*
X4733792D1*
X5140242D2*
X6682581D1*
X7255372D2*
X8004834D1*
X8219148D2*
X8258857D1*
X8473172D2*
X9222633D1*
X9795424D2*
X10798818D1*
X11013133D2*
X11052841D1*
X11267156D2*
X12148870D1*
X12457156D2*
X13164873D1*
X13473159D2*
X16711904D1*
X1288146Y10317917D2*
X2144339D1*
X2649682D2*
X3432867D1*
X3647182D2*
X3686891D1*
X3901114D2*
X4684300D1*
X5189643D2*
X6701357D1*
X7236596D2*
X8004834D1*
X8219148D2*
X8258857D1*
X8473172D2*
X9241409D1*
X9776648D2*
X10798818D1*
X11013133D2*
X11052841D1*
X11267156D2*
X12148870D1*
X12457156D2*
X13164873D1*
X13473159D2*
X16711904D1*
X1288146Y10254750D2*
X2117451D1*
X2676479D2*
X3432867D1*
X3647182D2*
X3686891D1*
X3901114D2*
X4657503D1*
X5216531D2*
X6738818D1*
X7199226D2*
X8004834D1*
X8219148D2*
X8258857D1*
X8473172D2*
X9278779D1*
X9739187D2*
X10798818D1*
X11013133D2*
X11052841D1*
X11267156D2*
X12148870D1*
X12457156D2*
X13164873D1*
X13473159D2*
X16711904D1*
X1288146Y10191583D2*
X2106787D1*
X2687234D2*
X3432867D1*
X3647182D2*
X3686891D1*
X3901114D2*
X4646748D1*
X5227195D2*
X6807815D1*
X7130229D2*
X8004834D1*
X8219148D2*
X8258857D1*
X8473172D2*
X9347776D1*
X9670190D2*
X10798818D1*
X11013133D2*
X11052841D1*
X11267156D2*
X12148870D1*
X12457156D2*
X13164873D1*
X13473159D2*
X16711904D1*
X1288146Y10128417D2*
X2110341D1*
X2683588D2*
X3432867D1*
X3647182D2*
X3686891D1*
X3901114D2*
X4650393D1*
X5223640D2*
X8004834D1*
X8219148D2*
X8258857D1*
X8473172D2*
X10798818D1*
X11013133D2*
X11052841D1*
X11267156D2*
X12148870D1*
X12457156D2*
X13164873D1*
X13473159D2*
X16711904D1*
X1288146Y10065250D2*
X2128844D1*
X2665177D2*
X3432867D1*
X3647182D2*
X3686891D1*
X3901114D2*
X4668805D1*
X5205138D2*
X8004834D1*
X8219148D2*
X8258857D1*
X8473172D2*
X10798818D1*
X11013133D2*
X11052841D1*
X11267156D2*
X12148870D1*
X12457156D2*
X13164873D1*
X13473159D2*
X16711904D1*
X1288146Y10002083D2*
X2165758D1*
X2628263D2*
X3432867D1*
X3647182D2*
X3686891D1*
X3901114D2*
X4705719D1*
X5168224D2*
X8004834D1*
X8219148D2*
X8258857D1*
X8473172D2*
X10798818D1*
X11013133D2*
X11052841D1*
X11267156D2*
X12148870D1*
X12457156D2*
X13164873D1*
X13473159D2*
X16711904D1*
X1288146Y9938917D2*
X2233753D1*
X2560268D2*
X3432867D1*
X3647182D2*
X3686891D1*
X3901114D2*
X4773805D1*
X5100229D2*
X8004834D1*
X8219148D2*
X8258857D1*
X8473172D2*
X10798818D1*
X11013133D2*
X11052841D1*
X11267156D2*
X12148870D1*
X12457156D2*
X13164873D1*
X13473159D2*
X16711904D1*
X1288146Y9875750D2*
X3432867D1*
X3647182D2*
X3686891D1*
X3901114D2*
X8004834D1*
X8219148D2*
X8258857D1*
X8473172D2*
X10798818D1*
X11013133D2*
X11052841D1*
X11267156D2*
X12148870D1*
X12457156D2*
X13164873D1*
X13473159D2*
X16711904D1*
X1288146Y9812583D2*
X3432867D1*
X3647182D2*
X3686891D1*
X3901114D2*
X8004834D1*
X8219148D2*
X8258857D1*
X8473172D2*
X10798818D1*
X11013133D2*
X11052841D1*
X11267156D2*
X12148870D1*
X12457156D2*
X13164873D1*
X13473159D2*
X16711904D1*
X1288146Y9749417D2*
X3432867D1*
X3647182D2*
X3686891D1*
X3901114D2*
X8004834D1*
X8219148D2*
X8258857D1*
X8473172D2*
X10798818D1*
X11013133D2*
X11052841D1*
X11267156D2*
X12148870D1*
X12457156D2*
X13164873D1*
X13473159D2*
X16711904D1*
X1288146Y9686250D2*
X3432867D1*
X3647182D2*
X3686891D1*
X3901114D2*
X8004834D1*
X8219148D2*
X8258857D1*
X8473172D2*
X10798818D1*
X11013133D2*
X11052841D1*
X11267156D2*
X12148870D1*
X12457156D2*
X13164873D1*
X13473159D2*
X16711904D1*
X1288146Y9623083D2*
X3432867D1*
X3647182D2*
X3686891D1*
X3901114D2*
X8004834D1*
X8219148D2*
X8258857D1*
X8473172D2*
X10798818D1*
X11013133D2*
X11052841D1*
X11267156D2*
X12148870D1*
X12457156D2*
X13164873D1*
X13473159D2*
X16711904D1*
X1288146Y9559917D2*
X3432867D1*
X3647182D2*
X3686891D1*
X3901114D2*
X8004834D1*
X8219148D2*
X8258857D1*
X8473172D2*
X10798818D1*
X11013133D2*
X11052841D1*
X11267156D2*
X12148870D1*
X12457156D2*
X13164873D1*
X13473159D2*
X16711904D1*
X1288146Y9496750D2*
X3378818D1*
X3900385D2*
X8004834D1*
X8219148D2*
X8258857D1*
X8473172D2*
X10798818D1*
X11013133D2*
X11052841D1*
X11267156D2*
X12148870D1*
X12457156D2*
X13164873D1*
X13473159D2*
X16711904D1*
X1288146Y9433583D2*
X3315654D1*
X3867482D2*
X8004834D1*
X8219148D2*
X8258857D1*
X8473172D2*
X10798818D1*
X11013133D2*
X11052841D1*
X11267156D2*
X12148870D1*
X12457156D2*
X12949495D1*
X13473159D2*
X16711904D1*
X1288146Y9370417D2*
X3252490D1*
X3804317D2*
X8004834D1*
X8219148D2*
X8258857D1*
X8473172D2*
X10798818D1*
X11013133D2*
X11052841D1*
X11267156D2*
X12148870D1*
X12457156D2*
X12884052D1*
X13472703D2*
X16711904D1*
X1288146Y9307250D2*
X3189326D1*
X3741153D2*
X8004834D1*
X8219148D2*
X8258857D1*
X8473172D2*
X10798818D1*
X11013133D2*
X11052841D1*
X11267156D2*
X12148870D1*
X12457156D2*
X12855979D1*
X13452833D2*
X16711904D1*
X1288146Y9244083D2*
X3126162D1*
X3677989D2*
X8004834D1*
X8219148D2*
X8258857D1*
X8473172D2*
X10798818D1*
X11013133D2*
X11052841D1*
X11267156D2*
X12148870D1*
X12457156D2*
X12849690D1*
X13396414D2*
X16711904D1*
X1288146Y9180917D2*
X3062998D1*
X3614825D2*
X8004834D1*
X8219148D2*
X8258857D1*
X8473172D2*
X10798818D1*
X11013133D2*
X11052841D1*
X11267156D2*
X12148870D1*
X12457156D2*
X12862907D1*
X13333250D2*
X16711904D1*
X1288146Y9117750D2*
X2999834D1*
X3551661D2*
X7952880D1*
X8218601D2*
X8258857D1*
X8473172D2*
X10798818D1*
X11013133D2*
X11052841D1*
X11267156D2*
X12148870D1*
X12457156D2*
X12900641D1*
X13253133D2*
X16711904D1*
X1288146Y9054583D2*
X2936670D1*
X3488497D2*
X7889716D1*
X8187429D2*
X8258857D1*
X8473172D2*
X10798818D1*
X11013133D2*
X11052841D1*
X11267156D2*
X12148870D1*
X12457156D2*
X12998349D1*
X13131635D2*
X16711904D1*
X1288146Y8991417D2*
X2873505D1*
X3425333D2*
X7826552D1*
X8124265D2*
X8207542D1*
X8472716D2*
X10798818D1*
X11013133D2*
X11052841D1*
X11267156D2*
X12148870D1*
X12457156D2*
X16711904D1*
X1288146Y8928250D2*
X2810341D1*
X3362169D2*
X7763388D1*
X8061101D2*
X8144378D1*
X8442182D2*
X10798818D1*
X11013133D2*
X11052841D1*
X11267156D2*
X12148870D1*
X12464083D2*
X12849326D1*
X13280659D2*
X16711904D1*
X1288146Y8865083D2*
X2747177D1*
X3299005D2*
X7700224D1*
X7997937D2*
X8081214D1*
X8378927D2*
X10748232D1*
X11012768D2*
X11052841D1*
X11267156D2*
X12149143D1*
X13280659D2*
X16711904D1*
X1288146Y8801917D2*
X2684013D1*
X3235841D2*
X3445992D1*
X7934773D2*
X8018050D1*
X8315763D2*
X10685068D1*
X10982781D2*
X11052841D1*
X11267156D2*
X12167646D1*
X13280659D2*
X16711904D1*
X1288146Y8738750D2*
X2620849D1*
X3172677D2*
X3382828D1*
X7871609D2*
X7954886D1*
X8252599D2*
X10621904D1*
X10919617D2*
X11002893D1*
X11266791D2*
X12222880D1*
X13280659D2*
X16711904D1*
X1288146Y8675583D2*
X2557685D1*
X3109513D2*
X3319664D1*
X8189435D2*
X10558740D1*
X10856453D2*
X10939729D1*
X11237442D2*
X12286045D1*
X13280659D2*
X16711904D1*
X1288146Y8612417D2*
X2494521D1*
X3046349D2*
X3256500D1*
X3554304D2*
X3764547D1*
X8126271D2*
X10495485D1*
X10793289D2*
X10876565D1*
X11174278D2*
X12362607D1*
X13280659D2*
X16711904D1*
X1288146Y8549250D2*
X2431357D1*
X2983185D2*
X3193336D1*
X3491140D2*
X3701383D1*
X10730125D2*
X10813401D1*
X11111114D2*
X12849326D1*
X13280659D2*
X16711904D1*
X1288146Y8486083D2*
X2368193D1*
X2919929D2*
X3130172D1*
X3427976D2*
X3638219D1*
X10666961D2*
X10750237D1*
X11047950D2*
X16711904D1*
X1288146Y8422917D2*
X2305029D1*
X2856765D2*
X3067008D1*
X3364812D2*
X3575055D1*
X10984786D2*
X16711904D1*
X1288146Y8359750D2*
X2241865D1*
X2793601D2*
X3003844D1*
X3301648D2*
X3511891D1*
X10921622D2*
X16711904D1*
X1288146Y8296583D2*
X2178701D1*
X2730437D2*
X2940680D1*
X3238484D2*
X3448727D1*
X13410268D2*
X16711904D1*
X1288146Y8233417D2*
X2115537D1*
X2667273D2*
X2877516D1*
X3175320D2*
X3385563D1*
X13473432D2*
X16711904D1*
X1288146Y8170250D2*
X2052373D1*
X2604109D2*
X2814352D1*
X3112156D2*
X3322399D1*
X13536596D2*
X16711904D1*
X1288146Y8107083D2*
X1989209D1*
X2540945D2*
X2751188D1*
X3048992D2*
X3259235D1*
X13218771D2*
X13302047D1*
X13599760D2*
X16711904D1*
X1288146Y8043917D2*
X1926045D1*
X2477781D2*
X2688024D1*
X2985828D2*
X3196071D1*
X13281935D2*
X13365211D1*
X13663015D2*
X16711904D1*
X1288146Y7980750D2*
X1862880D1*
X2414617D2*
X2624860D1*
X2922664D2*
X3132907D1*
X8773133D2*
X13047386D1*
X13345099D2*
X13428375D1*
X13726179D2*
X16711904D1*
X1288146Y7917583D2*
X1799716D1*
X2351453D2*
X2561696D1*
X2859500D2*
X3069651D1*
X8836297D2*
X13110550D1*
X13408263D2*
X13491539D1*
X13787612D2*
X16711904D1*
X1288146Y7854417D2*
X1736552D1*
X2288289D2*
X2498532D1*
X2796336D2*
X3006487D1*
X4574317D2*
X8601657D1*
X8899461D2*
X13173714D1*
X13471518D2*
X13554703D1*
X13807117D2*
X16711904D1*
X1288146Y7791250D2*
X1673388D1*
X2225125D2*
X2435367D1*
X2733172D2*
X2943323D1*
X8454669D2*
X8664821D1*
X8961166D2*
X13236878D1*
X13533133D2*
X13592893D1*
X13807117D2*
X16711904D1*
X1288146Y7728083D2*
X1610224D1*
X2161961D2*
X2372203D1*
X2670008D2*
X2880159D1*
X8517833D2*
X8727985D1*
X8981127D2*
X13300042D1*
X13553185D2*
X13592893D1*
X13807117D2*
X16711904D1*
X1288146Y7664917D2*
X1547060D1*
X2098797D2*
X2309039D1*
X2606843D2*
X2816995D1*
X8580997D2*
X8766904D1*
X8981127D2*
X13338870D1*
X13553185D2*
X13592893D1*
X13807117D2*
X16711904D1*
X1288146Y7601750D2*
X1483896D1*
X2133159D2*
X2164573D1*
X2629357D2*
X2672620D1*
X4661362D2*
X4704625D1*
X4915385D2*
X4958558D1*
X5169409D2*
X5212581D1*
X5423432D2*
X5466604D1*
X6197169D2*
X8346357D1*
X8644161D2*
X8766904D1*
X8981127D2*
X13338870D1*
X13553185D2*
X13592893D1*
X13807117D2*
X16711904D1*
X1288146Y7538583D2*
X1421826D1*
X6241375D2*
X8409521D1*
X8706140D2*
X8766904D1*
X8981127D2*
X13338870D1*
X13553185D2*
X13592893D1*
X13807117D2*
X16711904D1*
X1288146Y7475417D2*
X1400862D1*
X6253224D2*
X8154495D1*
X9339513D2*
X13338870D1*
X13553185D2*
X13592893D1*
X13807117D2*
X16711904D1*
X1288146Y7412250D2*
X1400862D1*
X6240099D2*
X8098623D1*
X9395385D2*
X13338870D1*
X13553185D2*
X13592893D1*
X13807117D2*
X16711904D1*
X1288146Y7349083D2*
X1400862D1*
X1782976D2*
X1902529D1*
X2129422D2*
X2168766D1*
X2371232D2*
X2416865D1*
X2631179D2*
X2676722D1*
X2879278D2*
X2930745D1*
X3133302D2*
X3184768D1*
X3387234D2*
X3438701D1*
X3641258D2*
X3692724D1*
X3895281D2*
X3946748D1*
X4149304D2*
X4200771D1*
X4403237D2*
X4448870D1*
X4663185D2*
X4702893D1*
X4917117D2*
X4962750D1*
X5165307D2*
X5216683D1*
X5419239D2*
X5470706D1*
X6193432D2*
X8084860D1*
X9409148D2*
X13338870D1*
X13553185D2*
X13592893D1*
X13807117D2*
X16711904D1*
X1288146Y7285917D2*
X1400862D1*
X1742143D2*
X2416865D1*
X2631179D2*
X4448870D1*
X4663185D2*
X4702893D1*
X4917117D2*
X8084860D1*
X9409148D2*
X13338870D1*
X13553185D2*
X13592893D1*
X13807117D2*
X16711904D1*
X1288146Y7222750D2*
X1400862D1*
X1742143D2*
X2416865D1*
X2631179D2*
X4448870D1*
X4663185D2*
X4702893D1*
X4917117D2*
X7292711D1*
X7661245D2*
X8084860D1*
X9409148D2*
X9832763D1*
X10201205D2*
X13338870D1*
X13553185D2*
X13592893D1*
X13807117D2*
X16711904D1*
X1288146Y7159583D2*
X1400862D1*
X1742143D2*
X2416865D1*
X2631179D2*
X4448870D1*
X4663185D2*
X4702893D1*
X4917117D2*
X7234742D1*
X7719304D2*
X8084860D1*
X8393146D2*
X9100862D1*
X9409148D2*
X9774703D1*
X10259265D2*
X13338870D1*
X13553185D2*
X13592893D1*
X13807117D2*
X16711904D1*
X1288146Y7096417D2*
X1400862D1*
X1783432D2*
X2375485D1*
X2631179D2*
X4448870D1*
X4663185D2*
X4702893D1*
X4917117D2*
X7202841D1*
X7751114D2*
X8084860D1*
X8393146D2*
X9100862D1*
X9409148D2*
X9742893D1*
X10291166D2*
X13338870D1*
X13553185D2*
X13592893D1*
X13807117D2*
X16711904D1*
X1288146Y7033250D2*
X1400862D1*
X2609213D2*
X4448870D1*
X4663185D2*
X4702893D1*
X4917117D2*
X7188167D1*
X7765789D2*
X8084860D1*
X8393146D2*
X9100862D1*
X9409148D2*
X9728219D1*
X10305841D2*
X13338870D1*
X13553185D2*
X13592893D1*
X13807117D2*
X16711904D1*
X1288146Y6970083D2*
X1400862D1*
X2546961D2*
X4448870D1*
X4663185D2*
X4702893D1*
X4917117D2*
X7188076D1*
X7765971D2*
X8084860D1*
X8393146D2*
X9100862D1*
X9409148D2*
X9728037D1*
X10305932D2*
X13338870D1*
X13553185D2*
X13592893D1*
X13807117D2*
X16711904D1*
X1288146Y6906917D2*
X1422282D1*
X2483797D2*
X4448870D1*
X4663185D2*
X4702893D1*
X4917117D2*
X7202386D1*
X7751661D2*
X8084860D1*
X8393146D2*
X9100862D1*
X9409148D2*
X9742347D1*
X10291622D2*
X13338870D1*
X13553185D2*
X13592893D1*
X13807117D2*
X16711904D1*
X1288146Y6843750D2*
X1484352D1*
X1782156D2*
X4448870D1*
X4663185D2*
X4702893D1*
X4917117D2*
X7233831D1*
X7720216D2*
X8084860D1*
X8393146D2*
X9100862D1*
X9409148D2*
X9773792D1*
X10260177D2*
X13338870D1*
X13553185D2*
X13592893D1*
X13807117D2*
X16711904D1*
X1288146Y6780583D2*
X1547516D1*
X1845320D2*
X4448870D1*
X4663185D2*
X4702893D1*
X4917117D2*
X7291071D1*
X7662885D2*
X8084860D1*
X8393146D2*
X9100862D1*
X9409148D2*
X9831123D1*
X10202937D2*
X13338870D1*
X13553185D2*
X13592893D1*
X13807117D2*
X16711904D1*
X1288146Y6717417D2*
X1610680D1*
X1908484D2*
X4448870D1*
X4663185D2*
X4702893D1*
X4956492D2*
X7450576D1*
X7503380D2*
X8084860D1*
X8393146D2*
X9100862D1*
X9409148D2*
X9990628D1*
X10043341D2*
X13338870D1*
X13553185D2*
X13592893D1*
X13807117D2*
X16711904D1*
X1288146Y6654250D2*
X1673844D1*
X1971648D2*
X4448870D1*
X4663185D2*
X4723219D1*
X5019656D2*
X8084860D1*
X8393146D2*
X9100862D1*
X9409148D2*
X12123167D1*
X12482768D2*
X13338870D1*
X13553185D2*
X13592893D1*
X13807117D2*
X14663219D1*
X15022820D2*
X16711904D1*
X1288146Y6591083D2*
X1737008D1*
X2034812D2*
X4448870D1*
X4701830D2*
X4785016D1*
X5082820D2*
X8084860D1*
X8393146D2*
X9100862D1*
X9409148D2*
X12063102D1*
X12542924D2*
X13338870D1*
X13553185D2*
X13592893D1*
X13807117D2*
X14603063D1*
X15082885D2*
X16711904D1*
X1288146Y6527917D2*
X1800172D1*
X2097976D2*
X4468740D1*
X4764995D2*
X4848180D1*
X7939968D2*
X8084860D1*
X8393146D2*
X9100862D1*
X9409148D2*
X12030107D1*
X12575919D2*
X13338870D1*
X13553185D2*
X13592893D1*
X13807117D2*
X14570159D1*
X15115880D2*
X16711904D1*
X1288146Y6464750D2*
X1863336D1*
X2161140D2*
X4530354D1*
X4828159D2*
X4911344D1*
X8003133D2*
X8084860D1*
X8393146D2*
X9100862D1*
X9409148D2*
X12014612D1*
X12591414D2*
X13338870D1*
X13553185D2*
X13592893D1*
X13807117D2*
X14554573D1*
X15131375D2*
X16711904D1*
X1288146Y6401583D2*
X1926500D1*
X2986284D2*
X4593518D1*
X4891323D2*
X4974508D1*
X8393146D2*
X9100862D1*
X9409148D2*
X12013701D1*
X12592325D2*
X13338870D1*
X13553185D2*
X13592893D1*
X13807117D2*
X14553662D1*
X15132286D2*
X16711904D1*
X1288146Y6338417D2*
X1989664D1*
X3049448D2*
X4656683D1*
X4954487D2*
X7831657D1*
X8393146D2*
X9100862D1*
X9409148D2*
X12027190D1*
X12578836D2*
X13338870D1*
X13553185D2*
X13592893D1*
X13807117D2*
X14567151D1*
X15118797D2*
X16711904D1*
X1288146Y6275250D2*
X2052828D1*
X3112521D2*
X4719847D1*
X7684669D2*
X7877867D1*
X8393146D2*
X9100862D1*
X9409148D2*
X12057542D1*
X12548484D2*
X13338870D1*
X13553185D2*
X13592893D1*
X13807117D2*
X14597503D1*
X15088445D2*
X16711904D1*
X1288146Y6212083D2*
X2878063D1*
X3139044D2*
X4783011D1*
X7747833D2*
X7877867D1*
X8393146D2*
X9100862D1*
X9409148D2*
X12112867D1*
X12493067D2*
X12992334D1*
X14153653D2*
X14652920D1*
X15033120D2*
X16711904D1*
X1288146Y6148917D2*
X2924821D1*
X3139135D2*
X4846175D1*
X7810906D2*
X7877867D1*
X8393146D2*
X9100862D1*
X9409148D2*
X12247946D1*
X12358080D2*
X12927893D1*
X14218093D2*
X14787907D1*
X14898041D2*
X16711904D1*
X1288146Y6085750D2*
X1908636D1*
X2123406D2*
X2175602D1*
X2364396D2*
X2429625D1*
X2618419D2*
X2683649D1*
X2872351D2*
X2924821D1*
X3139135D2*
X3191604D1*
X3380398D2*
X3445628D1*
X3634422D2*
X3699651D1*
X3888354D2*
X3953584D1*
X4142377D2*
X4207607D1*
X4396401D2*
X4461630D1*
X4650424D2*
X4715654D1*
X4904357D2*
X4969586D1*
X5158380D2*
X5223610D1*
X5412403D2*
X5477633D1*
X5666427D2*
X5731657D1*
X5920359D2*
X5972555D1*
X6187416D2*
X7576357D1*
X7837976D2*
X7877867D1*
X8393146D2*
X9100862D1*
X9409148D2*
X12910940D1*
X14235047D2*
X16711904D1*
X1288146Y6022583D2*
X1858050D1*
X6238002D2*
X7623844D1*
X7838159D2*
X7877867D1*
X8393146D2*
X9100862D1*
X9409148D2*
X12910849D1*
X14235138D2*
X16711904D1*
X1288146Y5959417D2*
X1842920D1*
X6253041D2*
X7623844D1*
X7838159D2*
X7877867D1*
X8393146D2*
X9100862D1*
X9409148D2*
X12910849D1*
X14235138D2*
X16711904D1*
X1288146Y5896250D2*
X1852763D1*
X6243198D2*
X7623844D1*
X7838159D2*
X7877867D1*
X8393146D2*
X9100862D1*
X9409148D2*
X12910849D1*
X13219135D2*
X13300589D1*
X13337353D2*
X13427646D1*
X13464360D2*
X13554612D1*
X13591450D2*
X13681578D1*
X13718395D2*
X13808636D1*
X13845341D2*
X13926852D1*
X14235138D2*
X16711904D1*
X1288146Y5833083D2*
X1893688D1*
X2381166D2*
X2412763D1*
X2635190D2*
X2666787D1*
X2889213D2*
X2920810D1*
X3143237D2*
X3174834D1*
X3397169D2*
X3428766D1*
X3651192D2*
X3682789D1*
X3905216D2*
X3936813D1*
X4159239D2*
X4190733D1*
X4413172D2*
X4444768D1*
X4667195D2*
X4698792D1*
X4921218D2*
X4952815D1*
X5175242D2*
X5206839D1*
X5429174D2*
X5460771D1*
X5683198D2*
X5714795D1*
X5937221D2*
X5957655D1*
X6202364D2*
X7623844D1*
X7838159D2*
X7877867D1*
X8393146D2*
X9100862D1*
X9409148D2*
X12910849D1*
X13219135D2*
X13926852D1*
X14235138D2*
X16711904D1*
X1288146Y5769917D2*
X2065042D1*
X2360112D2*
X3178844D1*
X3393159D2*
X3432867D1*
X3647182D2*
X3686891D1*
X3901114D2*
X3940823D1*
X4155138D2*
X4194847D1*
X4409161D2*
X4448870D1*
X4663185D2*
X4702893D1*
X4917117D2*
X4956826D1*
X5171140D2*
X5718896D1*
X5933120D2*
X7623844D1*
X7838159D2*
X7877867D1*
X8393146D2*
X9100862D1*
X9409148D2*
X12910849D1*
X13219135D2*
X13926852D1*
X14235138D2*
X16711904D1*
X1288146Y5706750D2*
X2001878D1*
X2299682D2*
X3178844D1*
X3393159D2*
X3432867D1*
X3647182D2*
X3686891D1*
X3901114D2*
X3940823D1*
X4155138D2*
X4194847D1*
X4409161D2*
X4448870D1*
X4663185D2*
X4702893D1*
X4917117D2*
X4956826D1*
X5171140D2*
X5718896D1*
X5933120D2*
X7623844D1*
X7838159D2*
X7877867D1*
X8393146D2*
X9100862D1*
X9462651D2*
X12910849D1*
X13219135D2*
X13926852D1*
X14235138D2*
X16711904D1*
X1288146Y5643583D2*
X1938714D1*
X2236427D2*
X3178844D1*
X3393159D2*
X3432867D1*
X3647182D2*
X3686891D1*
X3901114D2*
X3940823D1*
X4155138D2*
X4194847D1*
X4409161D2*
X4448870D1*
X4663185D2*
X4702893D1*
X4917117D2*
X4956826D1*
X5171140D2*
X5718896D1*
X5933120D2*
X7623844D1*
X7838159D2*
X7877867D1*
X8393146D2*
X9111617D1*
X9525815D2*
X12910849D1*
X13219135D2*
X13926852D1*
X14235138D2*
X16711904D1*
X1288146Y5580417D2*
X1875550D1*
X2173263D2*
X3178844D1*
X3393159D2*
X3432867D1*
X3647182D2*
X3686891D1*
X3901114D2*
X3940823D1*
X4155138D2*
X4194847D1*
X4409161D2*
X4448870D1*
X4663185D2*
X4702893D1*
X4917117D2*
X4956826D1*
X5171140D2*
X5718896D1*
X5933120D2*
X7623844D1*
X7838159D2*
X7877867D1*
X8393146D2*
X9158193D1*
X9588979D2*
X12910849D1*
X13219135D2*
X13926852D1*
X14235138D2*
X16711904D1*
X1288146Y5517250D2*
X1812386D1*
X2110099D2*
X3178844D1*
X3393159D2*
X3432867D1*
X3647182D2*
X3686891D1*
X3901114D2*
X3940823D1*
X4155138D2*
X4194847D1*
X4409161D2*
X4448870D1*
X4663185D2*
X4702893D1*
X4917117D2*
X4956826D1*
X5171140D2*
X5718896D1*
X5933120D2*
X7623844D1*
X7838159D2*
X7877867D1*
X8393146D2*
X9221357D1*
X9652143D2*
X9946604D1*
X10087364D2*
X12910849D1*
X13219135D2*
X13926852D1*
X14235138D2*
X16711904D1*
X1288146Y5454083D2*
X1782308D1*
X2046935D2*
X3178844D1*
X3393159D2*
X3432867D1*
X3647182D2*
X3686891D1*
X3901114D2*
X3940823D1*
X4155138D2*
X4194847D1*
X4409161D2*
X4448870D1*
X4663185D2*
X4702893D1*
X4917117D2*
X4956826D1*
X5171140D2*
X5718896D1*
X5933120D2*
X7623844D1*
X7838159D2*
X7877867D1*
X8393146D2*
X9284521D1*
X10182338D2*
X12910849D1*
X13219135D2*
X13926852D1*
X14235138D2*
X16711904D1*
X1288146Y5390917D2*
X1781852D1*
X1996166D2*
X3178844D1*
X3393159D2*
X3432867D1*
X3647182D2*
X3686891D1*
X3901114D2*
X3940823D1*
X4155138D2*
X4194847D1*
X4409161D2*
X4448870D1*
X4663185D2*
X4702893D1*
X4917117D2*
X4956826D1*
X5171140D2*
X5718896D1*
X5933120D2*
X7623844D1*
X7838159D2*
X7877867D1*
X8393146D2*
X9347685D1*
X10219526D2*
X12910849D1*
X13219135D2*
X13926852D1*
X14235138D2*
X16711904D1*
X1288146Y5327750D2*
X1781852D1*
X1996166D2*
X3178844D1*
X3393159D2*
X3432867D1*
X3647182D2*
X3686891D1*
X3901114D2*
X3940823D1*
X4155138D2*
X4194847D1*
X4409161D2*
X4448870D1*
X4663185D2*
X4702893D1*
X4917117D2*
X4956826D1*
X5171140D2*
X5718896D1*
X5933120D2*
X7623844D1*
X7838159D2*
X7877867D1*
X8444643D2*
X9410849D1*
X10232377D2*
X12910849D1*
X13219135D2*
X13926852D1*
X14235138D2*
X16711904D1*
X1288146Y5264583D2*
X1781852D1*
X1996166D2*
X3178844D1*
X3393159D2*
X3432867D1*
X3647182D2*
X3686891D1*
X3901114D2*
X3940823D1*
X4155138D2*
X4194847D1*
X4409161D2*
X4448870D1*
X4663185D2*
X4702893D1*
X4917117D2*
X4956826D1*
X5171140D2*
X5718896D1*
X5933120D2*
X7623844D1*
X7838159D2*
X7877867D1*
X8507807D2*
X9474104D1*
X10225724D2*
X12910849D1*
X13219135D2*
X13926852D1*
X14235138D2*
X16711904D1*
X1288146Y5201417D2*
X1781852D1*
X1996166D2*
X3178844D1*
X3393159D2*
X3432867D1*
X3647182D2*
X3686891D1*
X3901114D2*
X3940823D1*
X4155138D2*
X4194847D1*
X4409161D2*
X4448870D1*
X4663185D2*
X4702893D1*
X4917117D2*
X4956826D1*
X5171140D2*
X5718896D1*
X5933120D2*
X6756683D1*
X7460815D2*
X7623844D1*
X7838159D2*
X7877867D1*
X8092182D2*
X8140185D1*
X8570971D2*
X9538818D1*
X10197195D2*
X12910849D1*
X13219135D2*
X13926852D1*
X14235138D2*
X16711904D1*
X1288146Y5138250D2*
X1781852D1*
X1996166D2*
X3178844D1*
X3393159D2*
X3432867D1*
X3647182D2*
X3686891D1*
X3901114D2*
X3940823D1*
X4155138D2*
X4194847D1*
X4409161D2*
X4448870D1*
X4663185D2*
X4702893D1*
X4917117D2*
X4956826D1*
X5171140D2*
X5718896D1*
X5933120D2*
X6660341D1*
X7557156D2*
X7623844D1*
X7838159D2*
X7877867D1*
X8092182D2*
X8203349D1*
X8634135D2*
X9903492D1*
X10130567D2*
X12910849D1*
X13219135D2*
X13926852D1*
X14235138D2*
X16711904D1*
X1288146Y5075083D2*
X1781852D1*
X1996166D2*
X3178844D1*
X3393159D2*
X3432867D1*
X3647182D2*
X3686891D1*
X3901114D2*
X3940823D1*
X4155138D2*
X4194847D1*
X4409161D2*
X4448870D1*
X4663185D2*
X4702893D1*
X5229656D2*
X5581904D1*
X5943146D2*
X6612672D1*
X7838159D2*
X7877867D1*
X8092182D2*
X8266604D1*
X8697299D2*
X12910849D1*
X13269265D2*
X13926852D1*
X14285268D2*
X16711904D1*
X1288146Y5011917D2*
X1781852D1*
X1996166D2*
X3139104D1*
X5229656D2*
X5581904D1*
X5943146D2*
X6586878D1*
X7838159D2*
X7877867D1*
X8092182D2*
X8329768D1*
X8760463D2*
X9801318D1*
X10232651D2*
X12920328D1*
X13332429D2*
X13936331D1*
X14348432D2*
X16711904D1*
X1288146Y4948750D2*
X1781852D1*
X1996166D2*
X3120784D1*
X5229656D2*
X5581904D1*
X5943146D2*
X6577125D1*
X7838159D2*
X7877867D1*
X8092182D2*
X8392933D1*
X10232651D2*
X12964899D1*
X13395593D2*
X13980901D1*
X14411596D2*
X16711904D1*
X1288146Y4885583D2*
X1781852D1*
X1996166D2*
X3124703D1*
X5229656D2*
X5581904D1*
X5943146D2*
X6581591D1*
X7838159D2*
X7877867D1*
X8092182D2*
X8456097D1*
X10232651D2*
X13028063D1*
X13458758D2*
X14044065D1*
X14474760D2*
X16711904D1*
X1288146Y4822417D2*
X1781852D1*
X1996166D2*
X3061539D1*
X3910958D2*
X3930975D1*
X4164982D2*
X4184995D1*
X4419005D2*
X4439038D1*
X4673028D2*
X4692988D1*
X5229656D2*
X5581904D1*
X5943146D2*
X6601005D1*
X7838159D2*
X7877867D1*
X8092182D2*
X8519261D1*
X10232651D2*
X13091227D1*
X13521922D2*
X14107229D1*
X14537924D2*
X16711904D1*
X1288146Y4759250D2*
X1781852D1*
X1996166D2*
X2998375D1*
X3296179D2*
X3340354D1*
X3887442D2*
X3940823D1*
X4155138D2*
X4194847D1*
X4409161D2*
X4448870D1*
X4663185D2*
X4829860D1*
X5044174D2*
X6639287D1*
X7838159D2*
X7877867D1*
X8092182D2*
X8582425D1*
X10232651D2*
X13154391D1*
X13585086D2*
X14170393D1*
X14804617D2*
X16711904D1*
X1288146Y4696083D2*
X1781852D1*
X1996166D2*
X2935211D1*
X3233015D2*
X3277190D1*
X3828927D2*
X3940823D1*
X4155138D2*
X4194847D1*
X4409161D2*
X4448870D1*
X4663185D2*
X4829860D1*
X5044174D2*
X6710198D1*
X7838159D2*
X7877867D1*
X8092182D2*
X8646500D1*
X10232651D2*
X13217555D1*
X13648250D2*
X14233558D1*
X14804617D2*
X16711904D1*
X1288146Y4632917D2*
X1781852D1*
X1996166D2*
X2872047D1*
X3169760D2*
X3214026D1*
X3765763D2*
X3940823D1*
X4155138D2*
X4194847D1*
X4409161D2*
X4448870D1*
X4663185D2*
X4829860D1*
X5044174D2*
X7059378D1*
X7838159D2*
X7877867D1*
X8092182D2*
X9801318D1*
X10232651D2*
X13280719D1*
X13711414D2*
X14296722D1*
X14804617D2*
X16711904D1*
X1288146Y4569750D2*
X1781852D1*
X1996166D2*
X2808883D1*
X3106596D2*
X3150862D1*
X3702599D2*
X3940823D1*
X4155138D2*
X4194847D1*
X4409161D2*
X4448870D1*
X4663185D2*
X4829860D1*
X5044174D2*
X7059378D1*
X7838159D2*
X7877867D1*
X8092182D2*
X13343883D1*
X13774578D2*
X14359886D1*
X14804617D2*
X16711904D1*
X1288146Y4506583D2*
X1781852D1*
X1996166D2*
X2745719D1*
X3043432D2*
X3087698D1*
X3639435D2*
X3940823D1*
X4155138D2*
X4194847D1*
X4409161D2*
X4448870D1*
X4663185D2*
X4829860D1*
X5044174D2*
X7059378D1*
X7838159D2*
X7877867D1*
X8092182D2*
X13407047D1*
X13837742D2*
X14373375D1*
X14804617D2*
X16711904D1*
X1288146Y4443417D2*
X1781852D1*
X1996166D2*
X2682555D1*
X2980268D2*
X3024534D1*
X3576271D2*
X3940823D1*
X4155138D2*
X4194847D1*
X4409161D2*
X4448870D1*
X4663185D2*
X4829860D1*
X5046453D2*
X6233961D1*
X7838159D2*
X7877867D1*
X8092182D2*
X13470211D1*
X13900906D2*
X14373375D1*
X14804617D2*
X16711904D1*
X1288146Y4380250D2*
X1781852D1*
X1996166D2*
X2619391D1*
X2917104D2*
X2961370D1*
X3513107D2*
X3940823D1*
X4155138D2*
X4194847D1*
X4409161D2*
X4448870D1*
X4663185D2*
X4832685D1*
X5109617D2*
X6118388D1*
X7838159D2*
X7877867D1*
X8092182D2*
X13533375D1*
X13964070D2*
X14373375D1*
X14804617D2*
X16711904D1*
X1288146Y4317083D2*
X1781852D1*
X1996166D2*
X2249430D1*
X2853940D2*
X2898206D1*
X3449942D2*
X3519456D1*
X4155138D2*
X4194847D1*
X4409161D2*
X4448870D1*
X4663185D2*
X4789482D1*
X5345138D2*
X6081383D1*
X7838159D2*
X7877867D1*
X8092182D2*
X13596539D1*
X14027234D2*
X16711904D1*
X1288146Y4253917D2*
X1781852D1*
X1996166D2*
X2203219D1*
X2805177D2*
X2835029D1*
X3386778D2*
X3473154D1*
X4155138D2*
X4194847D1*
X4409161D2*
X4448870D1*
X4663185D2*
X4743180D1*
X5345138D2*
X6054495D1*
X7838159D2*
X7877867D1*
X8092182D2*
X13659703D1*
X14090398D2*
X14545185D1*
X14632807D2*
X16711904D1*
X1288146Y4190750D2*
X1781852D1*
X1996166D2*
X2195745D1*
X3323614D2*
X3465771D1*
X4153862D2*
X4194847D1*
X4409161D2*
X4448870D1*
X4663185D2*
X4735797D1*
X5345138D2*
X6043831D1*
X7838159D2*
X7877867D1*
X8092182D2*
X13722867D1*
X14748380D2*
X16711904D1*
X1288146Y4127583D2*
X1781852D1*
X1996166D2*
X2219352D1*
X3260450D2*
X3489378D1*
X4117039D2*
X4194847D1*
X4409161D2*
X4448870D1*
X4663185D2*
X4759404D1*
X5345138D2*
X6047386D1*
X7838159D2*
X7877867D1*
X8092182D2*
X13786032D1*
X14788940D2*
X16711904D1*
X1288146Y4064417D2*
X1781852D1*
X1996166D2*
X2251253D1*
X3197286D2*
X3521188D1*
X4075112D2*
X4194847D1*
X4409161D2*
X4448870D1*
X4663185D2*
X4791214D1*
X5345138D2*
X6065706D1*
X7838159D2*
X7877867D1*
X8117429D2*
X13849196D1*
X14803979D2*
X16711904D1*
X1288146Y4001250D2*
X1781852D1*
X1996166D2*
X2203675D1*
X3139135D2*
X3473701D1*
X4068002D2*
X4145354D1*
X4408797D2*
X4448870D1*
X4663185D2*
X4743636D1*
X5337937D2*
X6102620D1*
X7838159D2*
X7889352D1*
X8180593D2*
X13912360D1*
X14799330D2*
X16711904D1*
X1288146Y3938083D2*
X1781852D1*
X1996166D2*
X2195563D1*
X3139135D2*
X3465589D1*
X4379995D2*
X4448870D1*
X4663185D2*
X4735615D1*
X5344500D2*
X6170524D1*
X7838159D2*
X7946045D1*
X8243849D2*
X13975888D1*
X14773445D2*
X16711904D1*
X1288146Y3874917D2*
X1781852D1*
X1996166D2*
X2218440D1*
X3139135D2*
X3488466D1*
X4316830D2*
X4448870D1*
X4663185D2*
X4758492D1*
X5326271D2*
X6303688D1*
X6364330D2*
X7059378D1*
X7838159D2*
X8009209D1*
X8307013D2*
X14464977D1*
X14713015D2*
X16711904D1*
X1288146Y3811750D2*
X1781852D1*
X1996166D2*
X2459065D1*
X3139135D2*
X3729091D1*
X4253666D2*
X4448870D1*
X4663185D2*
X4999117D1*
X5269942D2*
X6176448D1*
X6491479D2*
X7059378D1*
X7862130D2*
X8072373D1*
X8370177D2*
X16711904D1*
X1288146Y3748583D2*
X1781852D1*
X1996166D2*
X2583662D1*
X2881466D2*
X2924821D1*
X3139135D2*
X3892698D1*
X4190502D2*
X4448870D1*
X4663185D2*
X6134886D1*
X6533041D2*
X7059378D1*
X7925294D2*
X8135537D1*
X10844513D2*
X16711904D1*
X1288146Y3685417D2*
X1781852D1*
X1996166D2*
X2253987D1*
X2818302D2*
X2924821D1*
X3139135D2*
X3524013D1*
X4127338D2*
X4448870D1*
X4663185D2*
X6119209D1*
X6548810D2*
X7059378D1*
X7640646D2*
X7690654D1*
X7988458D2*
X8198701D1*
X10909500D2*
X16711904D1*
X1288146Y3622250D2*
X1781852D1*
X1996166D2*
X2204404D1*
X2805177D2*
X2924821D1*
X3139135D2*
X3474430D1*
X4075112D2*
X4401383D1*
X4663002D2*
X6123219D1*
X6544799D2*
X7059378D1*
X7640646D2*
X7753818D1*
X8051622D2*
X8261865D1*
X10972664D2*
X16711904D1*
X1288146Y3559083D2*
X1781852D1*
X1996166D2*
X2195380D1*
X2805177D2*
X2924821D1*
X3139135D2*
X3465407D1*
X4075112D2*
X4338219D1*
X4635932D2*
X6148284D1*
X6519643D2*
X7059378D1*
X7640646D2*
X7817073D1*
X8114786D2*
X10738024D1*
X11035828D2*
X16711904D1*
X1288146Y3495917D2*
X1781852D1*
X1996166D2*
X2217164D1*
X2805177D2*
X2924821D1*
X3139135D2*
X3487190D1*
X4075112D2*
X4275055D1*
X4572768D2*
X6207073D1*
X6460945D2*
X7059378D1*
X7640646D2*
X7880237D1*
X10715633D2*
X10801188D1*
X11098992D2*
X16711904D1*
X1288146Y3432750D2*
X1781852D1*
X1996166D2*
X2255901D1*
X2805177D2*
X2924821D1*
X3139135D2*
X3525927D1*
X4075112D2*
X4211891D1*
X4509604D2*
X7059378D1*
X7640646D2*
X7943401D1*
X10781166D2*
X10864352D1*
X11138185D2*
X16711904D1*
X1288146Y3369583D2*
X1781852D1*
X1996166D2*
X2204951D1*
X2796974D2*
X2924821D1*
X3139135D2*
X3474977D1*
X4066909D2*
X4148727D1*
X4446440D2*
X7059378D1*
X7640646D2*
X8006565D1*
X10844330D2*
X10925875D1*
X11140099D2*
X16711904D1*
X1288146Y3306417D2*
X1781852D1*
X1996166D2*
X2195289D1*
X2804812D2*
X2924821D1*
X3139135D2*
X3465315D1*
X4383276D2*
X7059378D1*
X7640646D2*
X10609690D1*
X10884070D2*
X10925875D1*
X11140099D2*
X16711904D1*
X1288146Y3243250D2*
X1781852D1*
X1996166D2*
X2216344D1*
X2787950D2*
X2924821D1*
X3139135D2*
X3486279D1*
X4320112D2*
X7059378D1*
X7640646D2*
X10671852D1*
X10886166D2*
X10925875D1*
X11140099D2*
X16711904D1*
X1288146Y3180083D2*
X1781852D1*
X1996166D2*
X2311409D1*
X2369591D2*
X2454235D1*
X2734721D2*
X2904222D1*
X3139135D2*
X3581344D1*
X3639617D2*
X3724261D1*
X4256948D2*
X5036761D1*
X5345229D2*
X7059378D1*
X7640646D2*
X10671852D1*
X10886166D2*
X10925875D1*
X11140099D2*
X16711904D1*
X1288146Y3116917D2*
X1781852D1*
X1996166D2*
X2841058D1*
X3129929D2*
X3896071D1*
X4193784D2*
X4993375D1*
X7640646D2*
X10671852D1*
X10886166D2*
X10925875D1*
X11140099D2*
X16711904D1*
X1288146Y3053750D2*
X1781852D1*
X1996166D2*
X2259000D1*
X3075607D2*
X3528935D1*
X4130620D2*
X4976513D1*
X7640646D2*
X10671852D1*
X10886166D2*
X10925875D1*
X11140099D2*
X16711904D1*
X1288146Y2990583D2*
X1781852D1*
X1996166D2*
X2205771D1*
X3012442D2*
X3475797D1*
X4075112D2*
X4979521D1*
X7637638D2*
X9484768D1*
X9787221D2*
X10671852D1*
X10886166D2*
X10925875D1*
X11140099D2*
X12024729D1*
X12327273D2*
X16711904D1*
X1288146Y2927417D2*
X1781852D1*
X1996166D2*
X2195198D1*
X2949278D2*
X3465133D1*
X4075112D2*
X5003401D1*
X7620685D2*
X9410758D1*
X9861232D2*
X10671852D1*
X10886166D2*
X10925875D1*
X11140099D2*
X11950810D1*
X12401192D2*
X16711904D1*
X1288146Y2864250D2*
X1781852D1*
X1996166D2*
X2215068D1*
X2886114D2*
X3485094D1*
X4075112D2*
X5059456D1*
X5322534D2*
X7114157D1*
X7585867D2*
X9371110D1*
X9900880D2*
X10671852D1*
X10886166D2*
X10925875D1*
X11140099D2*
X11911162D1*
X12440841D2*
X16711904D1*
X1288146Y2801083D2*
X1781852D1*
X1996166D2*
X2261097D1*
X2805177D2*
X3531032D1*
X4075112D2*
X7177867D1*
X7522156D2*
X9350784D1*
X9921297D2*
X10671852D1*
X10886166D2*
X10925875D1*
X11140099D2*
X11890745D1*
X12461258D2*
X16711904D1*
X1288146Y2737917D2*
X1781852D1*
X1996166D2*
X2206318D1*
X2795789D2*
X3476344D1*
X4065815D2*
X9345498D1*
X9926492D2*
X10671852D1*
X10886166D2*
X10925875D1*
X11140099D2*
X11885459D1*
X12466544D2*
X16711904D1*
X1288146Y2674750D2*
X1781852D1*
X1996166D2*
X2195107D1*
X2804995D2*
X3465042D1*
X4074929D2*
X4975328D1*
X5406661D2*
X6357555D1*
X6564396D2*
X7278310D1*
X7421622D2*
X9354430D1*
X9917560D2*
X10671852D1*
X10886166D2*
X10925875D1*
X11140099D2*
X11894391D1*
X12457612D2*
X16711904D1*
X1288146Y2611583D2*
X1781852D1*
X1996166D2*
X2214248D1*
X2789591D2*
X3484274D1*
X4059526D2*
X4975328D1*
X5406661D2*
X6298219D1*
X6623823D2*
X7204664D1*
X7495359D2*
X9379130D1*
X9892859D2*
X10671852D1*
X10886166D2*
X10925875D1*
X11140099D2*
X11919183D1*
X12432820D2*
X16711904D1*
X1288146Y2548417D2*
X1781852D1*
X1996166D2*
X2296461D1*
X2384539D2*
X2449768D1*
X2739187D2*
X3566396D1*
X3654565D2*
X3719795D1*
X4009213D2*
X4975328D1*
X5406661D2*
X6277073D1*
X6644968D2*
X7181149D1*
X7518784D2*
X9425250D1*
X9846739D2*
X10430589D1*
X11381362D2*
X11965211D1*
X12386791D2*
X16711904D1*
X1288146Y2485250D2*
X1781852D1*
X1996166D2*
X4975328D1*
X5406661D2*
X6279625D1*
X6642416D2*
X7183974D1*
X7516049D2*
X9516396D1*
X9755593D2*
X10273089D1*
X11538862D2*
X12056357D1*
X12295646D2*
X16711904D1*
X1288146Y2422083D2*
X1781852D1*
X1996166D2*
X4975328D1*
X5406661D2*
X6307151D1*
X6614890D2*
X7214782D1*
X7485242D2*
X10246018D1*
X11566023D2*
X13357373D1*
X13788614D2*
X16711904D1*
X1288146Y2358917D2*
X1781852D1*
X1996166D2*
X4975328D1*
X6623002D2*
X10243831D1*
X13788614D2*
X16711904D1*
X1288146Y2295750D2*
X1781852D1*
X1996166D2*
X5036852D1*
X6644786D2*
X10243831D1*
X13788614D2*
X16711904D1*
X1288146Y2232583D2*
X1781852D1*
X1996166D2*
X5041683D1*
X6642690D2*
X10243831D1*
X13788614D2*
X16711904D1*
X1288146Y2169417D2*
X1781852D1*
X1996166D2*
X5076409D1*
X6646609D2*
X10243831D1*
X10552117D2*
X11299391D1*
X13788614D2*
X16711904D1*
X1288146Y2106250D2*
X1781852D1*
X6646609D2*
X10243831D1*
X10552117D2*
X13357373D1*
X13788614D2*
X16711904D1*
X1288146Y2043083D2*
X1781852D1*
X6646609D2*
X10243831D1*
X10552117D2*
X16711904D1*
X1288146Y1979917D2*
X1788505D1*
X6646609D2*
X10243831D1*
X10552117D2*
X16711904D1*
X1288146Y1916750D2*
X1865068D1*
X6646609D2*
X10243831D1*
X10585567D2*
X13425732D1*
X13720255D2*
X16711904D1*
X1288146Y1853583D2*
X6275341D1*
X6646609D2*
X10248206D1*
X13767560D2*
X16711904D1*
X1288146Y1790417D2*
X10281565D1*
X13786700D2*
X16711904D1*
X1288146Y1727250D2*
X10344365D1*
X13785698D2*
X16711904D1*
X1288146Y1664083D2*
X10407529D1*
X13764278D2*
X16711904D1*
X1288146Y1600917D2*
X13433024D1*
X13712963D2*
X16711904D1*
X1288146Y1537750D2*
X16711904D1*
X1288146Y1474583D2*
X16711904D1*
X1288146Y1411417D2*
X16711904D1*
X1288146Y1348250D2*
X16711904D1*
X1288146Y1285083D2*
X16711904D1*
X5985290Y7339610D2*
Y7317710D1*
X5666710D1*
Y7348973D1*
X5655229Y7341183D1*
X5632958Y7329835D1*
X5609186Y7322111D1*
X5584498Y7318201D1*
X5559502D1*
X5534814Y7322111D1*
X5511042Y7329835D1*
X5488771Y7341183D1*
X5468549Y7355875D1*
X5450875Y7373549D1*
X5445037Y7380954D1*
X5430635Y7364365D1*
X5411628Y7348132D1*
X5390316Y7335072D1*
X5367223Y7325506D1*
X5342918Y7319671D1*
X5318000Y7317710D1*
X5293082Y7319671D1*
X5268777Y7325506D1*
X5245684Y7335072D1*
X5224372Y7348132D1*
X5205365Y7364365D1*
X5191037Y7380954D1*
X5179271Y7367064D1*
X5165627Y7354341D1*
X5150589Y7343300D1*
X5134363Y7334093D1*
X5117172Y7326846D1*
X5099251Y7321660D1*
X5080847Y7318603D1*
X5062212Y7317720D1*
X5043602Y7319021D1*
X5025271Y7322490D1*
X5007471Y7328078D1*
X4990447Y7335708D1*
X4974432Y7345277D1*
X4959646Y7356653D1*
X4946291Y7369679D1*
X4937010Y7380851D1*
X4922635Y7364365D1*
X4910803Y7353788D1*
X4910790Y6756674D1*
X5105748Y6561791D1*
X7865908Y6561479D1*
X7881529Y6559005D1*
X7896571Y6554118D1*
X7910663Y6546938D1*
X7923458Y6537641D1*
X7995266Y6466273D1*
X8061641Y6399458D1*
X8070938Y6386663D1*
X8078118Y6372571D1*
X8083005Y6357529D1*
X8085479Y6341908D1*
X8085790Y6240667D1*
Y4089716D1*
X8407714Y3767824D1*
X10786908Y3767479D1*
X10802529Y3765005D1*
X10817571Y3760118D1*
X10831663Y3752938D1*
X10844458Y3743641D1*
X10916266Y3672273D1*
X11109641Y3478458D1*
X11118938Y3465663D1*
X11126118Y3451571D1*
X11131005Y3436529D1*
X11133479Y3420908D1*
X11133790Y3319667D1*
Y2578742D1*
X11149464Y2580876D1*
X11170536D1*
X11191349Y2577580D1*
X11211391Y2571068D1*
X11223446Y2565265D1*
X11235609Y2571068D1*
X11255651Y2577580D1*
X11276464Y2580876D1*
X11297536D1*
X11318349Y2577580D1*
X11338391Y2571068D1*
X11357166Y2561501D1*
X11374214Y2549115D1*
X11382489Y2541383D1*
X11402405Y2544335D1*
X11425595D1*
X11448501Y2540707D1*
X11470557Y2533540D1*
X11491220Y2523012D1*
X11509982Y2509381D1*
X11526381Y2492982D1*
X11540012Y2474220D1*
X11550540Y2453557D1*
X11557707Y2431501D1*
X11560242Y2417824D1*
X13363701Y2417790D1*
X13363710Y2479290D1*
X13782290D1*
Y2060710D1*
X13363710D1*
Y2122233D1*
X11402405Y2122665D1*
X11379499Y2126293D1*
X11357443Y2133460D1*
X11336780Y2143988D1*
X11318018Y2157619D1*
X11301619Y2174018D1*
X11287988Y2192780D1*
X11276464Y2213124D1*
X11255651Y2216420D1*
X11235609Y2222932D1*
X11223554Y2228735D1*
X11211391Y2222932D1*
X11191349Y2216420D1*
X11170536Y2213124D1*
X11149464D1*
X11128651Y2216420D1*
X11108609Y2222932D1*
X11096554Y2228735D1*
X11084391Y2222932D1*
X11064349Y2216420D1*
X11043536Y2213124D1*
X11022464D1*
X11001651Y2216420D1*
X10981609Y2222932D1*
X10969554Y2228735D1*
X10952618Y2221061D1*
X10934719Y2215817D1*
X10916266Y2213103D1*
X10897614Y2212972D1*
X10879125Y2215427D1*
X10861154Y2220419D1*
X10844048Y2227854D1*
X10842526Y2228679D1*
X10830391Y2222932D1*
X10810349Y2216420D1*
X10789536Y2213124D1*
X10768464D1*
X10747651Y2216420D1*
X10727609Y2222932D1*
X10715554Y2228735D1*
X10703391Y2222932D1*
X10683349Y2216420D1*
X10662536Y2213124D1*
X10641464D1*
X10620651Y2216420D1*
X10600609Y2222932D1*
X10588554Y2228735D1*
X10576391Y2222932D1*
X10556349Y2216420D1*
X10545803Y2214339D1*
X10545790Y1950294D1*
X10586224Y1909783D1*
X13425010Y1909990D1*
X13437077Y1921145D1*
X13449982Y1931319D1*
X13463646Y1940449D1*
X13477984Y1948479D1*
X13492908Y1955359D1*
X13508326Y1961047D1*
X13524142Y1965507D1*
X13540260Y1968713D1*
X13556579Y1970645D1*
X13573000Y1971290D1*
X13589421Y1970645D1*
X13605740Y1968713D1*
X13621858Y1965507D1*
X13637674Y1961047D1*
X13653092Y1955359D1*
X13668016Y1948479D1*
X13682354Y1940449D1*
X13696018Y1931319D1*
X13708923Y1921145D1*
X13720990Y1909990D1*
X13732145Y1897923D1*
X13742319Y1885018D1*
X13751449Y1871354D1*
X13759479Y1857016D1*
X13766359Y1842092D1*
X13772047Y1826674D1*
X13776507Y1810858D1*
X13779713Y1794740D1*
X13781645Y1778421D1*
X13782290Y1762000D1*
X13781645Y1745579D1*
X13779713Y1729260D1*
X13776507Y1713142D1*
X13772047Y1697326D1*
X13766359Y1681908D1*
X13759479Y1666984D1*
X13751449Y1652646D1*
X13742319Y1638982D1*
X13732145Y1626077D1*
X13720990Y1614010D1*
X13708923Y1602855D1*
X13696018Y1592681D1*
X13682354Y1583551D1*
X13668016Y1575521D1*
X13653092Y1568641D1*
X13637674Y1562953D1*
X13621858Y1558493D1*
X13605740Y1555287D1*
X13589421Y1553355D1*
X13573000Y1552710D1*
X13556579Y1553355D1*
X13540260Y1555287D1*
X13524142Y1558493D1*
X13508326Y1562953D1*
X13492908Y1568641D1*
X13477984Y1575521D1*
X13463646Y1583551D1*
X13449982Y1592681D1*
X13437077Y1602855D1*
X13424792Y1614245D1*
X10525000Y1614210D1*
X10501881Y1616029D1*
X10479330Y1621443D1*
X10457905Y1630318D1*
X10438131Y1642435D1*
X10420497Y1657497D1*
X10285619Y1793018D1*
X10271988Y1811780D1*
X10261460Y1832443D1*
X10254293Y1854499D1*
X10250665Y1877405D1*
X10250210Y1935667D1*
X10250665Y2408595D1*
X10254293Y2431501D1*
X10261460Y2453557D1*
X10271988Y2474220D1*
X10285619Y2492982D1*
X10302018Y2509381D1*
X10320780Y2523012D1*
X10341443Y2533540D1*
X10363499Y2540707D1*
X10386405Y2544335D1*
X10409595D1*
X10429433Y2541317D1*
X10446066Y2555643D1*
X10464034Y2566653D1*
X10483502Y2574717D1*
X10503992Y2579637D1*
X10525000Y2581290D1*
X10546008Y2579637D1*
X10566498Y2574717D1*
X10585966Y2566653D1*
X10588446Y2565265D1*
X10600609Y2571068D1*
X10620651Y2577580D1*
X10641464Y2580876D1*
X10662536D1*
X10678219Y2578600D1*
X10678210Y3244201D1*
X10610218Y3312243D1*
X8104092Y3312520D1*
X8088471Y3314995D1*
X8073429Y3319882D1*
X8059337Y3327062D1*
X8046542Y3336358D1*
X7974734Y3407727D1*
X7654358Y3728542D1*
X7645062Y3741337D1*
X7637882Y3755429D1*
X7635134Y3762884D1*
X7634290Y3755000D1*
Y3032000D1*
X7633414Y3009695D1*
X7630790Y2987527D1*
X7626435Y2965634D1*
X7620376Y2944149D1*
X7612650Y2923207D1*
X7603304Y2902935D1*
X7592397Y2883459D1*
X7579996Y2864898D1*
X7566176Y2847368D1*
X7551024Y2830976D1*
X7534632Y2815824D1*
X7517102Y2802004D1*
X7498541Y2789603D1*
X7479065Y2778696D1*
X7458793Y2769350D1*
X7437851Y2761624D1*
X7416366Y2755565D1*
X7394473Y2751210D1*
X7372305Y2748586D1*
X7350000Y2747710D1*
X7327695Y2748586D1*
X7305527Y2751210D1*
X7283634Y2755565D1*
X7262149Y2761624D1*
X7241207Y2769350D1*
X7220935Y2778696D1*
X7201459Y2789603D1*
X7182898Y2802004D1*
X7165368Y2815824D1*
X7148976Y2830976D1*
X7133824Y2847368D1*
X7120004Y2864898D1*
X7107219Y2884143D1*
X5338990Y2884010D1*
X5326923Y2872855D1*
X5314018Y2862681D1*
X5300354Y2853551D1*
X5286016Y2845521D1*
X5271092Y2838641D1*
X5255674Y2832953D1*
X5239858Y2828493D1*
X5223740Y2825287D1*
X5207421Y2823355D1*
X5191000Y2822710D1*
X5174579Y2823355D1*
X5158260Y2825287D1*
X5142142Y2828493D1*
X5126326Y2832953D1*
X5110908Y2838641D1*
X5095984Y2845521D1*
X5081646Y2853551D1*
X5067982Y2862681D1*
X5055077Y2872855D1*
X5043010Y2884010D1*
X5031855Y2896077D1*
X5021681Y2908982D1*
X5012551Y2922646D1*
X5004521Y2936984D1*
X4997641Y2951908D1*
X4991953Y2967326D1*
X4987493Y2983142D1*
X4984287Y2999260D1*
X4982355Y3015579D1*
X4981710Y3032000D1*
X4982355Y3048421D1*
X4984287Y3064740D1*
X4987493Y3080858D1*
X4991953Y3096674D1*
X4997641Y3112092D1*
X5004521Y3127016D1*
X5012551Y3141354D1*
X5021681Y3155018D1*
X5031855Y3167923D1*
X5043010Y3179990D1*
X5055077Y3191145D1*
X5067982Y3201319D1*
X5081646Y3210449D1*
X5095984Y3218479D1*
X5110908Y3225359D1*
X5126326Y3231047D1*
X5142142Y3235507D1*
X5158260Y3238713D1*
X5174579Y3240645D1*
X5191000Y3241290D1*
X5207421Y3240645D1*
X5223740Y3238713D1*
X5239858Y3235507D1*
X5255674Y3231047D1*
X5271092Y3225359D1*
X5286016Y3218479D1*
X5300354Y3210449D1*
X5314018Y3201319D1*
X5326923Y3191145D1*
X5339208Y3179755D1*
X7065779Y3179790D1*
X7065710Y3890685D1*
X6334000Y3890710D1*
X6311695Y3891586D1*
X6289527Y3894210D1*
X6267634Y3898565D1*
X6246150Y3904624D1*
X6225207Y3912350D1*
X6204935Y3921696D1*
X6185459Y3932603D1*
X6166898Y3945004D1*
X6141877Y3965749D1*
X6124710Y3965710D1*
Y3982572D1*
X6104004Y4007898D1*
X6091603Y4026459D1*
X6080696Y4045935D1*
X6071350Y4066207D1*
X6063624Y4087150D1*
X6057565Y4108634D1*
X6053210Y4130527D1*
X6050586Y4152695D1*
X6049710Y4175000D1*
X6050586Y4197305D1*
X6053210Y4219473D1*
X6057565Y4241366D1*
X6063624Y4262850D1*
X6071350Y4283793D1*
X6080696Y4304065D1*
X6091603Y4323541D1*
X6104004Y4342102D1*
X6124749Y4367123D1*
X6124710Y4384290D1*
X6141572D1*
X6166898Y4404996D1*
X6185459Y4417397D1*
X6204935Y4428304D1*
X6225207Y4437650D1*
X6246150Y4445376D1*
X6267634Y4451435D1*
X6289527Y4455790D1*
X6311695Y4458414D1*
X6357333Y4459290D1*
X7065628D1*
X7065710Y4652695D1*
X6867500Y4652710D1*
X6845195Y4653586D1*
X6823027Y4656210D1*
X6801134Y4660565D1*
X6779650Y4666624D1*
X6758707Y4674350D1*
X6738435Y4683696D1*
X6718959Y4694603D1*
X6700398Y4707004D1*
X6682868Y4720824D1*
X6666476Y4735976D1*
X6651324Y4752368D1*
X6637504Y4769898D1*
X6625103Y4788459D1*
X6614196Y4807935D1*
X6604850Y4828207D1*
X6597124Y4849150D1*
X6591065Y4870634D1*
X6586710Y4892527D1*
X6584086Y4914695D1*
X6583210Y4937000D1*
X6584086Y4959305D1*
X6586710Y4981473D1*
X6591065Y5003366D1*
X6597124Y5024850D1*
X6604850Y5045793D1*
X6614196Y5066065D1*
X6625103Y5085541D1*
X6637504Y5104102D1*
X6651324Y5121632D1*
X6666476Y5138024D1*
X6682868Y5153176D1*
X6700398Y5166996D1*
X6718959Y5179397D1*
X6738435Y5190304D1*
X6758707Y5199650D1*
X6779650Y5207376D1*
X6801134Y5213435D1*
X6823027Y5217790D1*
X6845195Y5220414D1*
X6890833Y5221290D1*
X7350000D1*
X7372305Y5220414D1*
X7394473Y5217790D1*
X7416366Y5213435D1*
X7437850Y5207376D1*
X7458793Y5199650D1*
X7479065Y5190304D1*
X7498541Y5179397D1*
X7517102Y5166996D1*
X7534632Y5153176D1*
X7551024Y5138024D1*
X7566176Y5121632D1*
X7579996Y5104102D1*
X7592397Y5085541D1*
X7603304Y5066065D1*
X7612650Y5045793D1*
X7620376Y5024850D1*
X7626452Y5003281D1*
X7630210Y5007333D1*
Y6038284D1*
X7562218Y6106243D1*
X6146122Y6106210D1*
X6167174Y6095254D1*
X6188354Y6079866D1*
X6206866Y6061354D1*
X6222254Y6040174D1*
X6234140Y6016847D1*
X6242230Y5991948D1*
X6246326Y5966090D1*
Y5939910D1*
X6242230Y5914052D1*
X6234140Y5889153D1*
X6222254Y5865826D1*
X6206866Y5844646D1*
X6188354Y5826134D1*
X6167174Y5810746D1*
X6143847Y5798860D1*
X6118948Y5790770D1*
X6093090Y5786674D1*
X6066910D1*
X6041052Y5790770D1*
X6016153Y5798860D1*
X5992826Y5810746D1*
X5971646Y5826134D1*
X5953134Y5844646D1*
X5948223Y5850875D1*
X5938635Y5840365D1*
X5926803Y5829788D1*
X5926790Y5111268D1*
X5936790Y5111290D1*
Y4762710D1*
X5588210D1*
Y5111290D1*
X5725202D1*
X5725210Y5829591D1*
X5713365Y5840365D1*
X5699037Y5856954D1*
X5687271Y5843064D1*
X5673627Y5830341D1*
X5658589Y5819300D1*
X5642363Y5810093D1*
X5625172Y5802846D1*
X5607251Y5797660D1*
X5588847Y5794603D1*
X5570212Y5793720D1*
X5551602Y5795021D1*
X5533271Y5798490D1*
X5515471Y5804078D1*
X5498447Y5811708D1*
X5482432Y5821277D1*
X5467646Y5832653D1*
X5454291Y5845679D1*
X5445010Y5856851D1*
X5430635Y5840365D1*
X5411628Y5824132D1*
X5390316Y5811072D1*
X5367223Y5801506D1*
X5342918Y5795671D1*
X5318000Y5793710D1*
X5293082Y5795671D1*
X5268777Y5801506D1*
X5245684Y5811072D1*
X5224372Y5824132D1*
X5205365Y5840365D1*
X5191037Y5856954D1*
X5176635Y5840365D1*
X5164803Y5829788D1*
X5164790Y5096320D1*
X5223290Y5096290D1*
Y4777710D1*
X5037808D1*
X5037790Y4445690D1*
X5107716Y4375823D1*
X5338790Y4375790D1*
Y4037210D1*
X5316256Y4036891D1*
X5324651Y4020230D1*
X5331162Y4002745D1*
X5335709Y3984651D1*
X5338238Y3966166D1*
X5338726Y3947834D1*
X5337185Y3929240D1*
X5333607Y3910930D1*
X5328036Y3893124D1*
X5320539Y3876039D1*
X5311208Y3859883D1*
X5300155Y3844851D1*
X5287516Y3831128D1*
X5273444Y3818878D1*
X5258108Y3808251D1*
X5241697Y3799377D1*
X5224409Y3792362D1*
X5206454Y3787292D1*
X5188049Y3784229D1*
X5169500Y3783210D1*
X5085436Y3783795D1*
X5066957Y3786367D1*
X5048873Y3790957D1*
X5031405Y3797509D1*
X5014763Y3805944D1*
X4999150Y3816158D1*
X4984756Y3828029D1*
X4971756Y3841411D1*
X4968872Y3844822D1*
X4953279Y3833736D1*
X4933804Y3823813D1*
X4913017Y3817059D1*
X4891429Y3813639D1*
X4869571D1*
X4847983Y3817059D1*
X4827196Y3823813D1*
X4807721Y3833736D1*
X4790038Y3846583D1*
X4774583Y3862038D1*
X4761736Y3879721D1*
X4751813Y3899196D1*
X4745059Y3919983D1*
X4741639Y3941571D1*
Y3963429D1*
X4745059Y3985017D1*
X4751813Y4005804D1*
X4761736Y4025279D1*
X4774583Y4042962D1*
X4790038Y4058417D1*
X4807721Y4071264D1*
X4823433Y4079452D1*
X4807721Y4087736D1*
X4790038Y4100583D1*
X4774583Y4116038D1*
X4761736Y4133721D1*
X4751813Y4153196D1*
X4745059Y4173983D1*
X4741639Y4195571D1*
Y4217429D1*
X4745059Y4239017D1*
X4751813Y4259804D1*
X4761736Y4279279D1*
X4774583Y4296962D1*
X4790038Y4312417D1*
X4807721Y4325264D1*
X4827196Y4335187D1*
X4847983Y4341941D1*
X4856322Y4343600D1*
X4847195Y4358242D1*
X4841143Y4372854D1*
X4837451Y4388233D1*
X4836211Y4404031D1*
X4836210Y4768310D1*
X4825965Y4778496D1*
X4810000Y4777710D1*
X4785082Y4779671D1*
X4760777Y4785506D1*
X4737684Y4795072D1*
X4716372Y4808132D1*
X4697365Y4824365D1*
X4683037Y4840954D1*
X4668635Y4824365D1*
X4656803Y4813788D1*
X4656479Y3620092D1*
X4654005Y3604471D1*
X4649118Y3589429D1*
X4641938Y3575337D1*
X4632641Y3562542D1*
X4561273Y3490734D1*
X4068812Y2998273D1*
X4068791Y2767209D1*
X4046256Y2766891D1*
X4054651Y2750230D1*
X4061162Y2732745D1*
X4065709Y2714651D1*
X4068238Y2696166D1*
X4068726Y2677834D1*
X4067185Y2659240D1*
X4063607Y2640930D1*
X4058036Y2623124D1*
X4050539Y2606039D1*
X4041208Y2589883D1*
X4030155Y2574851D1*
X4017516Y2561128D1*
X4003444Y2548878D1*
X3988108Y2538251D1*
X3971697Y2529377D1*
X3954409Y2522362D1*
X3936454Y2517292D1*
X3918049Y2514229D1*
X3899500Y2513210D1*
X3815436Y2513795D1*
X3796957Y2516367D1*
X3778873Y2520957D1*
X3761405Y2527509D1*
X3744763Y2535944D1*
X3729150Y2546158D1*
X3714756Y2558029D1*
X3701756Y2571411D1*
X3698872Y2574822D1*
X3683279Y2563736D1*
X3663804Y2553813D1*
X3643017Y2547059D1*
X3621429Y2543639D1*
X3599571D1*
X3577983Y2547059D1*
X3557196Y2553813D1*
X3537721Y2563736D1*
X3520038Y2576583D1*
X3504583Y2592038D1*
X3491736Y2609721D1*
X3481813Y2629196D1*
X3475059Y2649983D1*
X3471639Y2671571D1*
Y2693429D1*
X3475059Y2715017D1*
X3481813Y2735804D1*
X3491736Y2755279D1*
X3504583Y2772962D1*
X3520038Y2788417D1*
X3537721Y2801264D1*
X3553433Y2809452D1*
X3537721Y2817736D1*
X3520038Y2830583D1*
X3504583Y2846038D1*
X3491736Y2863721D1*
X3481813Y2883196D1*
X3475059Y2903983D1*
X3471639Y2925571D1*
Y2947429D1*
X3475059Y2969017D1*
X3481813Y2989804D1*
X3491736Y3009279D1*
X3504583Y3026962D1*
X3520038Y3042417D1*
X3537721Y3055264D1*
X3557196Y3065187D1*
X3577983Y3071941D1*
X3599571Y3075361D1*
X3621429D1*
X3643017Y3071941D1*
X3660237Y3066503D1*
X3660211Y3105789D1*
X3891265D1*
X3938178Y3152717D1*
X3918049Y3149229D1*
X3899501Y3148209D1*
X3815436Y3148795D1*
X3796957Y3151367D1*
X3778873Y3155957D1*
X3761405Y3162509D1*
X3744763Y3170944D1*
X3729150Y3181158D1*
X3714756Y3193029D1*
X3701756Y3206411D1*
X3698872Y3209822D1*
X3683279Y3198736D1*
X3663804Y3188813D1*
X3643017Y3182059D1*
X3621429Y3178639D1*
X3599571D1*
X3577983Y3182059D1*
X3557196Y3188813D1*
X3537721Y3198736D1*
X3520038Y3211583D1*
X3504583Y3227038D1*
X3491736Y3244721D1*
X3481813Y3264196D1*
X3475059Y3284983D1*
X3471639Y3306571D1*
Y3328429D1*
X3475059Y3350017D1*
X3481813Y3370804D1*
X3491736Y3390279D1*
X3504583Y3407962D1*
X3520038Y3423417D1*
X3537721Y3436264D1*
X3553433Y3444452D1*
X3537721Y3452736D1*
X3520038Y3465583D1*
X3504583Y3481038D1*
X3491736Y3498721D1*
X3481813Y3518196D1*
X3475059Y3538983D1*
X3471639Y3560571D1*
Y3582429D1*
X3475059Y3604017D1*
X3481813Y3624804D1*
X3491736Y3644279D1*
X3504583Y3661962D1*
X3520038Y3677417D1*
X3537721Y3690264D1*
X3557196Y3700187D1*
X3577983Y3706941D1*
X3599571Y3710361D1*
X3621429D1*
X3643017Y3706941D1*
X3660237Y3701503D1*
X3660211Y3740789D1*
X3891265D1*
X3938178Y3787717D1*
X3918049Y3784229D1*
X3899501Y3783209D1*
X3815436Y3783795D1*
X3796957Y3786367D1*
X3778873Y3790957D1*
X3761405Y3797509D1*
X3744763Y3805944D1*
X3729150Y3816158D1*
X3714756Y3828029D1*
X3701756Y3841411D1*
X3698872Y3844822D1*
X3683279Y3833736D1*
X3663804Y3823813D1*
X3643017Y3817059D1*
X3621429Y3813639D1*
X3599571D1*
X3577983Y3817059D1*
X3557196Y3823813D1*
X3537721Y3833736D1*
X3520038Y3846583D1*
X3504583Y3862038D1*
X3491736Y3879721D1*
X3481813Y3899196D1*
X3475059Y3919983D1*
X3471639Y3941571D1*
Y3963429D1*
X3475059Y3985017D1*
X3481813Y4005804D1*
X3491736Y4025279D1*
X3504583Y4042962D1*
X3520038Y4058417D1*
X3537721Y4071264D1*
X3553433Y4079452D1*
X3537721Y4087736D1*
X3520038Y4100583D1*
X3504583Y4116038D1*
X3491736Y4133721D1*
X3481813Y4153196D1*
X3475059Y4173983D1*
X3471639Y4195571D1*
Y4217429D1*
X3475059Y4239017D1*
X3481813Y4259804D1*
X3491736Y4279279D1*
X3504583Y4296962D1*
X3520038Y4312417D1*
X3537721Y4325264D1*
X3557196Y4335187D1*
X3577983Y4341941D1*
X3599571Y4345361D1*
X3621429D1*
X3643017Y4341941D1*
X3660237Y4336503D1*
X3660211Y4375789D1*
X3947229D1*
X3947210Y4813622D1*
X3935365Y4824365D1*
X3921037Y4840954D1*
X3906635Y4824365D1*
X3894803Y4813788D1*
X3893549Y4794233D1*
X3889857Y4778854D1*
X3883805Y4764242D1*
X3875541Y4750757D1*
X3865269Y4738731D1*
X3132797Y4006258D1*
X3132480Y3151092D1*
X3130005Y3135471D1*
X3125118Y3120429D1*
X3117938Y3106337D1*
X3108642Y3093542D1*
X3037273Y3021734D1*
X2843458Y2828358D1*
X2830663Y2819062D1*
X2816571Y2811882D1*
X2801499Y2806989D1*
X2798791Y2802456D1*
Y2767209D1*
X2776256Y2766891D1*
X2784651Y2750230D1*
X2791162Y2732745D1*
X2795709Y2714651D1*
X2798238Y2696166D1*
X2798726Y2677834D1*
X2797185Y2659240D1*
X2793607Y2640930D1*
X2788036Y2623124D1*
X2780539Y2606039D1*
X2771208Y2589883D1*
X2760155Y2574851D1*
X2747516Y2561128D1*
X2733444Y2548878D1*
X2718108Y2538251D1*
X2701697Y2529377D1*
X2684409Y2522362D1*
X2666454Y2517292D1*
X2648049Y2514229D1*
X2629501Y2513209D1*
X2545436Y2513795D1*
X2526957Y2516367D1*
X2508873Y2520957D1*
X2491405Y2527509D1*
X2474763Y2535944D1*
X2459150Y2546158D1*
X2444756Y2558029D1*
X2431756Y2571411D1*
X2428872Y2574822D1*
X2413279Y2563736D1*
X2393804Y2553813D1*
X2373017Y2547059D1*
X2351429Y2543639D1*
X2329571D1*
X2307983Y2547059D1*
X2287196Y2553813D1*
X2267721Y2563736D1*
X2250038Y2576583D1*
X2234583Y2592038D1*
X2221736Y2609721D1*
X2211813Y2629196D1*
X2205059Y2649983D1*
X2201639Y2671571D1*
Y2693429D1*
X2205059Y2715017D1*
X2211813Y2735804D1*
X2221736Y2755279D1*
X2234583Y2772962D1*
X2250038Y2788417D1*
X2267721Y2801264D1*
X2283433Y2809452D1*
X2267721Y2817736D1*
X2250038Y2830583D1*
X2234583Y2846038D1*
X2221736Y2863721D1*
X2211813Y2883196D1*
X2205059Y2903983D1*
X2201639Y2925571D1*
Y2947429D1*
X2205059Y2969017D1*
X2211813Y2989804D1*
X2221736Y3009279D1*
X2234583Y3026962D1*
X2250038Y3042417D1*
X2267721Y3055264D1*
X2287196Y3065187D1*
X2307983Y3071941D1*
X2329571Y3075361D1*
X2351429D1*
X2373017Y3071941D1*
X2390237Y3066503D1*
X2390211Y3105789D1*
X2798791D1*
Y3068329D1*
X2931209Y3200748D1*
X2931210Y3804586D1*
X2798839Y3672300D1*
X2798790Y3402210D1*
X2776256Y3401891D1*
X2784651Y3385230D1*
X2791162Y3367745D1*
X2795709Y3349651D1*
X2798238Y3331166D1*
X2798726Y3312834D1*
X2797185Y3294240D1*
X2793607Y3275930D1*
X2788036Y3258124D1*
X2780539Y3241039D1*
X2771208Y3224883D1*
X2760155Y3209851D1*
X2747516Y3196128D1*
X2733444Y3183878D1*
X2718108Y3173251D1*
X2701697Y3164377D1*
X2684409Y3157362D1*
X2666454Y3152292D1*
X2648049Y3149229D1*
X2629501Y3148209D1*
X2545436Y3148795D1*
X2526957Y3151367D1*
X2508873Y3155957D1*
X2491405Y3162509D1*
X2474763Y3170944D1*
X2459150Y3181158D1*
X2444756Y3193029D1*
X2431756Y3206411D1*
X2428872Y3209822D1*
X2413279Y3198736D1*
X2393804Y3188813D1*
X2373017Y3182059D1*
X2351429Y3178639D1*
X2329571D1*
X2307983Y3182059D1*
X2287196Y3188813D1*
X2267721Y3198736D1*
X2250038Y3211583D1*
X2234583Y3227038D1*
X2221736Y3244721D1*
X2211813Y3264196D1*
X2205059Y3284983D1*
X2201639Y3306571D1*
Y3328429D1*
X2205059Y3350017D1*
X2211813Y3370804D1*
X2221736Y3390279D1*
X2234583Y3407962D1*
X2250038Y3423417D1*
X2267721Y3436264D1*
X2283433Y3444452D1*
X2267721Y3452736D1*
X2250038Y3465583D1*
X2234583Y3481038D1*
X2221736Y3498721D1*
X2211813Y3518196D1*
X2205059Y3538983D1*
X2201639Y3560571D1*
Y3582429D1*
X2205059Y3604017D1*
X2211813Y3624804D1*
X2221736Y3644279D1*
X2234583Y3661962D1*
X2250038Y3677417D1*
X2267721Y3690264D1*
X2287196Y3700187D1*
X2307983Y3706941D1*
X2329571Y3710361D1*
X2351429D1*
X2373017Y3706941D1*
X2390237Y3701503D1*
X2390210Y3740790D1*
X2582255D1*
X2624667Y3783206D1*
X2545436Y3783795D1*
X2526957Y3786367D1*
X2508873Y3790957D1*
X2491405Y3797509D1*
X2474763Y3805944D1*
X2459150Y3816158D1*
X2444756Y3828029D1*
X2431756Y3841411D1*
X2428872Y3844822D1*
X2413279Y3833736D1*
X2393804Y3823813D1*
X2373017Y3817059D1*
X2351429Y3813639D1*
X2329571D1*
X2307983Y3817059D1*
X2287196Y3823813D1*
X2267721Y3833736D1*
X2250038Y3846583D1*
X2234583Y3862038D1*
X2221736Y3879721D1*
X2211813Y3899196D1*
X2205059Y3919983D1*
X2201639Y3941571D1*
Y3963429D1*
X2205059Y3985017D1*
X2211813Y4005804D1*
X2221736Y4025279D1*
X2234583Y4042962D1*
X2250038Y4058417D1*
X2267721Y4071264D1*
X2283433Y4079452D1*
X2267721Y4087736D1*
X2250038Y4100583D1*
X2234583Y4116038D1*
X2221736Y4133721D1*
X2211813Y4153196D1*
X2205059Y4173983D1*
X2201639Y4195571D1*
Y4217429D1*
X2205059Y4239017D1*
X2211813Y4259804D1*
X2221736Y4279279D1*
X2234583Y4296962D1*
X2250038Y4312417D1*
X2267721Y4325264D1*
X2287196Y4335187D1*
X2307983Y4341941D1*
X2329571Y4345361D1*
X2351429D1*
X2373017Y4341941D1*
X2390237Y4336503D1*
X2390210Y4375790D1*
X2621265D1*
X3134151Y4888689D1*
X3128671Y4912082D1*
X3126710Y4937000D1*
X3128671Y4961918D1*
X3134506Y4986223D1*
X3144072Y5009316D1*
X3157132Y5030628D1*
X3173365Y5049635D1*
X3185197Y5060212D1*
X3185210Y5829591D1*
X3173365Y5840365D1*
X3159037Y5856954D1*
X3144635Y5840365D1*
X3125628Y5824132D1*
X3104316Y5811072D1*
X3081223Y5801506D1*
X3056918Y5795671D1*
X3032000Y5793710D1*
X3007082Y5795671D1*
X2982777Y5801506D1*
X2959684Y5811072D1*
X2938372Y5824132D1*
X2919365Y5840365D1*
X2905037Y5856954D1*
X2890635Y5840365D1*
X2871628Y5824132D1*
X2850316Y5811072D1*
X2827223Y5801506D1*
X2802918Y5795671D1*
X2778000Y5793710D1*
X2753082Y5795671D1*
X2728777Y5801506D1*
X2705684Y5811072D1*
X2684372Y5824132D1*
X2665365Y5840365D1*
X2651037Y5856954D1*
X2636635Y5840365D1*
X2617628Y5824132D1*
X2596316Y5811072D1*
X2573223Y5801506D1*
X2548918Y5795671D1*
X2524000Y5793710D1*
X2499082Y5795671D1*
X2474777Y5801506D1*
X2451684Y5811072D1*
X2430372Y5824132D1*
X2411365Y5840365D1*
X2397037Y5856954D1*
X2382635Y5840365D1*
X2370803Y5829788D1*
X2369549Y5810233D1*
X2365857Y5794854D1*
X2359805Y5780242D1*
X2351541Y5766757D1*
X2341269Y5754731D1*
X1989825Y5403286D1*
X1989790Y2116810D1*
X6281773Y2116790D1*
X6274333Y2122210D1*
X5179405Y2122665D1*
X5156499Y2126293D1*
X5134443Y2133460D1*
X5113780Y2143988D1*
X5095018Y2157619D1*
X5078619Y2174018D1*
X5064988Y2192780D1*
X5054460Y2213443D1*
X5047293Y2235499D1*
X5043665Y2258405D1*
X5043210Y2314753D1*
X4981710Y2314710D1*
Y2733290D1*
X5400290D1*
Y2417834D1*
X6316560Y2417790D1*
X6304763Y2436052D1*
X6296469Y2452765D1*
X6289957Y2470250D1*
X6285297Y2488317D1*
X6282540Y2506770D1*
X6281716Y2525411D1*
X6282833Y2544035D1*
X6285880Y2562443D1*
X6290823Y2580434D1*
X6297610Y2597815D1*
X6306166Y2614396D1*
X6316399Y2629997D1*
X6328198Y2644451D1*
X6341435Y2657601D1*
X6355967Y2669303D1*
X6371637Y2679432D1*
X6388274Y2687878D1*
X6405699Y2694548D1*
X6423723Y2699372D1*
X6442151Y2702296D1*
X6460782Y2703290D1*
X6479417Y2702342D1*
X6497851Y2699462D1*
X6515887Y2694682D1*
X6533328Y2688054D1*
X6549986Y2679648D1*
X6565680Y2669558D1*
X6580240Y2657890D1*
X6593509Y2644773D1*
X6605343Y2630348D1*
X6615614Y2614771D1*
X6624210Y2598211D1*
X6631039Y2580847D1*
X6636026Y2562868D1*
X6639118Y2544468D1*
X6640290Y2524000D1*
X6639319Y2505367D1*
X6636417Y2486936D1*
X6631615Y2468906D1*
X6624966Y2451473D1*
X6616540Y2434825D1*
X6606430Y2419144D1*
X6594746Y2404597D1*
X6587777Y2396777D1*
X6606049Y2375384D1*
X6620749Y2351396D1*
X6631515Y2325404D1*
X6638083Y2298047D1*
X6640290Y2270000D1*
X6638083Y2241953D1*
X6631515Y2214596D1*
X6623811Y2195246D1*
X6640290Y2195290D1*
Y1836710D1*
X6281710D1*
Y1915186D1*
X1881092Y1915520D1*
X1865471Y1917995D1*
X1850429Y1922882D1*
X1836337Y1930062D1*
X1823542Y1939358D1*
X1812358Y1950542D1*
X1803062Y1963337D1*
X1795882Y1977429D1*
X1790995Y1992471D1*
X1788520Y2008092D1*
X1788210Y2109333D1*
X1788520Y5452908D1*
X1790995Y5468529D1*
X1795882Y5483571D1*
X1803062Y5497663D1*
X1812358Y5510458D1*
X1883727Y5582266D1*
X2149841Y5848379D1*
X2147877Y5850816D1*
X2133974Y5835026D1*
X2114066Y5818024D1*
X2091744Y5804344D1*
X2067556Y5794326D1*
X2042100Y5788214D1*
X2016000Y5786160D1*
X1989900Y5788214D1*
X1964444Y5794326D1*
X1940256Y5804344D1*
X1917934Y5818024D1*
X1898026Y5835026D1*
X1881024Y5854934D1*
X1867344Y5877256D1*
X1857326Y5901444D1*
X1851214Y5926900D1*
X1849160Y5953000D1*
X1851214Y5979100D1*
X1857326Y6004556D1*
X1867344Y6028744D1*
X1881024Y6051066D1*
X1898026Y6070974D1*
X1917934Y6087976D1*
X1940256Y6101656D1*
X1964444Y6111674D1*
X1989900Y6117786D1*
X2016000Y6119840D1*
X2042100Y6117786D1*
X2067556Y6111674D1*
X2091744Y6101656D1*
X2114066Y6087976D1*
X2133974Y6070974D1*
X2147777Y6055125D1*
X2157365Y6065635D1*
X2176372Y6081868D1*
X2197684Y6094928D1*
X2220777Y6104494D1*
X2245082Y6110329D1*
X2270000Y6112290D1*
X2294918Y6110329D1*
X2319223Y6104494D1*
X2342316Y6094928D1*
X2363628Y6081868D1*
X2382635Y6065635D1*
X2396963Y6049046D1*
X2411365Y6065635D1*
X2430372Y6081868D1*
X2451684Y6094928D1*
X2474777Y6104494D1*
X2499082Y6110329D1*
X2524000Y6112290D1*
X2548918Y6110329D1*
X2573223Y6104494D1*
X2596316Y6094928D1*
X2617628Y6081868D1*
X2636635Y6065635D1*
X2650963Y6049046D1*
X2665365Y6065635D1*
X2684372Y6081868D1*
X2705684Y6094928D1*
X2728777Y6104494D1*
X2753082Y6110329D1*
X2778000Y6112290D1*
X2802918Y6110329D1*
X2827223Y6104494D1*
X2850316Y6094928D1*
X2871628Y6081868D1*
X2890635Y6065635D1*
X2904963Y6049046D1*
X2919365Y6065635D1*
X2931197Y6076212D1*
X2931210Y6165279D1*
X2863218Y6233243D1*
X2135092Y6233521D1*
X2119471Y6235995D1*
X2104429Y6240882D1*
X2090337Y6248062D1*
X2077542Y6257359D1*
X2005734Y6328727D1*
X1431359Y6903542D1*
X1422062Y6916337D1*
X1414882Y6930429D1*
X1409995Y6945471D1*
X1407521Y6961092D1*
X1407210Y7062333D1*
X1407521Y7484908D1*
X1409995Y7500529D1*
X1414882Y7515571D1*
X1422062Y7529663D1*
X1431359Y7542458D1*
X1502727Y7614266D1*
X3439252Y9550790D1*
X3439210Y10343258D1*
X3423536Y10341124D1*
X3402464D1*
X3381651Y10344420D1*
X3361609Y10350932D1*
X3349554Y10356735D1*
X3337391Y10350932D1*
X3317349Y10344420D1*
X3296536Y10341124D1*
X3275464D1*
X3254651Y10344420D1*
X3234609Y10350932D1*
X3215834Y10360499D1*
X3198786Y10372885D1*
X3190511Y10380617D1*
X3170595Y10377665D1*
X3147405D1*
X3124499Y10381293D1*
X3102443Y10388459D1*
X3081780Y10398988D1*
X3063018Y10412619D1*
X3046619Y10429018D1*
X3032988Y10447780D1*
X3022459Y10468443D1*
X3015293Y10490499D1*
X3011665Y10513405D1*
X3011210Y10571667D1*
X3011665Y12187595D1*
X3015293Y12210501D1*
X3022459Y12232557D1*
X3032988Y12253220D1*
X3046619Y12271982D1*
X3087495Y12313502D1*
X3190018Y12415381D1*
X3208780Y12429012D1*
X3229443Y12439540D1*
X3251499Y12446707D1*
X3274405Y12450335D1*
X3332667Y12450790D1*
X3457628D1*
X3457710Y12512290D1*
X3876290D1*
Y12093710D1*
X3457710D1*
Y12155233D1*
X3347169Y12155210D1*
X3306783Y12114776D1*
X3307008Y10707637D1*
X3327498Y10702717D1*
X3346966Y10694653D1*
X3349446Y10693265D1*
X3361609Y10699068D1*
X3381651Y10705580D1*
X3402464Y10708876D1*
X3423536D1*
X3444349Y10705580D1*
X3464391Y10699068D1*
X3476446Y10693265D1*
X3488609Y10699068D1*
X3508651Y10705580D1*
X3529464Y10708876D1*
X3550536D1*
X3571349Y10705580D1*
X3591391Y10699068D1*
X3603446Y10693265D1*
X3618620Y10700272D1*
X3636443Y10705767D1*
X3654857Y10708740D1*
X3673504Y10709132D1*
X3692026Y10706937D1*
X3710065Y10702197D1*
X3727274Y10695004D1*
X3730487Y10693319D1*
X3742609Y10699068D1*
X3762651Y10705580D1*
X3783464Y10708876D1*
X3804536D1*
X3825349Y10705580D1*
X3845391Y10699068D1*
X3857446Y10693265D1*
X3869609Y10699068D1*
X3889651Y10705580D1*
X3910464Y10708876D1*
X3931536D1*
X3952349Y10705580D1*
X3972391Y10699068D1*
X3984446Y10693265D1*
X3996609Y10699068D1*
X4016651Y10705580D1*
X4027197Y10707661D1*
X4027210Y11606810D1*
X3986776Y11647217D1*
X3814990Y11647010D1*
X3802923Y11635855D1*
X3790018Y11625681D1*
X3776354Y11616551D1*
X3762016Y11608521D1*
X3747092Y11601641D1*
X3731674Y11595953D1*
X3715858Y11591493D1*
X3699740Y11588287D1*
X3683421Y11586355D1*
X3667000Y11585710D1*
X3650579Y11586355D1*
X3634260Y11588287D1*
X3618142Y11591493D1*
X3602326Y11595953D1*
X3586908Y11601641D1*
X3571984Y11608521D1*
X3557646Y11616551D1*
X3543982Y11625681D1*
X3531077Y11635855D1*
X3519010Y11647010D1*
X3507855Y11659077D1*
X3497681Y11671982D1*
X3488551Y11685646D1*
X3480521Y11699984D1*
X3473641Y11714908D1*
X3467953Y11730326D1*
X3463493Y11746142D1*
X3460287Y11762260D1*
X3458355Y11778579D1*
X3457710Y11795000D1*
X3458355Y11811421D1*
X3460287Y11827740D1*
X3463493Y11843858D1*
X3467953Y11859674D1*
X3473641Y11875092D1*
X3480521Y11890016D1*
X3488551Y11904354D1*
X3497681Y11918018D1*
X3507855Y11930923D1*
X3519010Y11942990D1*
X3531077Y11954145D1*
X3543982Y11964319D1*
X3557646Y11973449D1*
X3571984Y11981479D1*
X3586908Y11988359D1*
X3602326Y11994047D1*
X3618142Y11998507D1*
X3634260Y12001713D1*
X3650579Y12003645D1*
X3667000Y12004290D1*
X3683421Y12003645D1*
X3699740Y12001713D1*
X3715858Y11998507D1*
X3731674Y11994047D1*
X3747092Y11988359D1*
X3762016Y11981479D1*
X3776354Y11973449D1*
X3790018Y11964319D1*
X3802923Y11954145D1*
X3815208Y11942755D1*
X4059595Y11942335D1*
X4082501Y11938707D1*
X4104557Y11931540D1*
X4125220Y11921012D1*
X4143982Y11907381D1*
X4185502Y11866505D1*
X4287381Y11763982D1*
X4301012Y11745220D1*
X4311540Y11724557D1*
X4318707Y11702501D1*
X4322335Y11679595D1*
X4322790Y11621333D1*
X4322335Y10513405D1*
X4318707Y10490499D1*
X4311540Y10468443D1*
X4301012Y10447780D1*
X4287381Y10429018D1*
X4270982Y10412619D1*
X4252220Y10398988D1*
X4231557Y10388460D1*
X4209501Y10381293D1*
X4186595Y10377665D1*
X4163405D1*
X4143567Y10380683D1*
X4126934Y10366357D1*
X4108966Y10355347D1*
X4089498Y10347283D1*
X4069008Y10342363D1*
X4048000Y10340710D1*
X4026992Y10342363D1*
X4006502Y10347283D1*
X3987034Y10355347D1*
X3984554Y10356735D1*
X3972391Y10350932D1*
X3952349Y10344420D1*
X3931536Y10341124D1*
X3910464D1*
X3894781Y10343400D1*
X3894480Y9501092D1*
X3892006Y9485471D1*
X3887118Y9470429D1*
X3879938Y9456337D1*
X3870642Y9443542D1*
X3799273Y9371734D1*
X2064219Y7636680D1*
X2079847Y7631140D1*
X2103174Y7619254D1*
X2124354Y7603866D1*
X2142866Y7585354D1*
X2147777Y7579125D1*
X2157365Y7589635D1*
X2176372Y7605868D1*
X2197684Y7618928D1*
X2220777Y7628494D1*
X2245082Y7634329D1*
X2270000Y7636290D1*
X2285846Y7635403D1*
X3474542Y8823642D1*
X3487337Y8832938D1*
X3501429Y8840118D1*
X3516471Y8845005D1*
X3532092Y8847480D1*
X3633333Y8847790D1*
X7689232D1*
X8011175Y9169714D1*
X8011210Y10597362D1*
X7995536Y10595124D1*
X7974464D1*
X7953651Y10598420D1*
X7933609Y10604932D1*
X7921554Y10610735D1*
X7909391Y10604932D1*
X7889349Y10598420D1*
X7868536Y10595124D1*
X7847464D1*
X7826651Y10598420D1*
X7806609Y10604932D1*
X7787834Y10614499D1*
X7770786Y10626885D1*
X7755885Y10641786D1*
X7753565Y10644729D1*
X7665773Y10644710D1*
X7649670Y10638443D1*
X7627119Y10633029D1*
X7604000Y10631210D1*
X7580881Y10633029D1*
X7558330Y10638443D1*
X7536905Y10647318D1*
X7517131Y10659435D1*
X7499497Y10674497D1*
X7484435Y10692131D1*
X7472318Y10711905D1*
X7463443Y10733330D1*
X7458029Y10755881D1*
X7456210Y10779000D1*
X7456666Y12060595D1*
X7460293Y12083501D1*
X7467460Y12105557D1*
X7477988Y12126220D1*
X7491620Y12144982D1*
X7532495Y12186502D1*
X7762018Y12415380D1*
X7780780Y12429012D1*
X7801443Y12439540D1*
X7823499Y12446707D1*
X7846405Y12450334D1*
X7902753Y12450790D1*
X7902710Y12512290D1*
X8321290D1*
Y12093710D1*
X7902710D1*
Y12138645D1*
X7751817Y11987810D1*
X7751790Y10913232D1*
X7755885Y10916214D1*
X7770786Y10931115D1*
X7787834Y10943501D1*
X7806609Y10953068D1*
X7826651Y10959580D1*
X7847464Y10962876D1*
X7868536D1*
X7889349Y10959580D1*
X7909391Y10953068D1*
X7921446Y10947265D1*
X7933609Y10953068D1*
X7953651Y10959580D1*
X7974464Y10962876D1*
X7995536D1*
X8016349Y10959580D1*
X8036391Y10953068D1*
X8048446Y10947265D1*
X8060609Y10953068D1*
X8080651Y10959580D1*
X8101464Y10962876D1*
X8122536D1*
X8143349Y10959580D1*
X8163391Y10953068D1*
X8175446Y10947265D1*
X8190620Y10954272D1*
X8208443Y10959767D1*
X8226857Y10962740D1*
X8245504Y10963132D1*
X8264026Y10960937D1*
X8282065Y10956197D1*
X8299274Y10949004D1*
X8302487Y10947319D1*
X8314609Y10953068D1*
X8334651Y10959580D1*
X8355464Y10962876D1*
X8376536D1*
X8397349Y10959580D1*
X8417391Y10953068D1*
X8429446Y10947265D1*
X8441609Y10953068D1*
X8461651Y10959580D1*
X8482464Y10962876D1*
X8485386Y10962991D1*
X8485380Y11593570D1*
X8431798Y11647195D1*
X8259990Y11647010D1*
X8247923Y11635855D1*
X8235018Y11625681D1*
X8221354Y11616551D1*
X8207016Y11608521D1*
X8192092Y11601641D1*
X8176674Y11595953D1*
X8160858Y11591493D1*
X8144740Y11588287D1*
X8128421Y11586355D1*
X8112000Y11585710D1*
X8095579Y11586355D1*
X8079260Y11588287D1*
X8063142Y11591493D1*
X8047326Y11595953D1*
X8031908Y11601641D1*
X8016984Y11608521D1*
X8002646Y11616551D1*
X7988982Y11625681D1*
X7976077Y11635855D1*
X7964010Y11647010D1*
X7952855Y11659077D1*
X7942681Y11671982D1*
X7933551Y11685646D1*
X7925521Y11699984D1*
X7918641Y11714908D1*
X7912953Y11730326D1*
X7908493Y11746142D1*
X7905287Y11762260D1*
X7903355Y11778579D1*
X7902710Y11795000D1*
X7903355Y11811421D1*
X7905287Y11827740D1*
X7908493Y11843858D1*
X7912953Y11859674D1*
X7918641Y11875092D1*
X7925521Y11890016D1*
X7933551Y11904354D1*
X7942681Y11918018D1*
X7952855Y11930923D1*
X7964010Y11942990D1*
X7976077Y11954145D1*
X7988982Y11964319D1*
X8002646Y11973449D1*
X8016984Y11981479D1*
X8031908Y11988359D1*
X8047326Y11994047D1*
X8063142Y11998507D1*
X8079260Y12001713D1*
X8095579Y12003645D1*
X8112000Y12004290D1*
X8128421Y12003645D1*
X8144740Y12001713D1*
X8160858Y11998507D1*
X8176674Y11994047D1*
X8192092Y11988359D1*
X8207016Y11981479D1*
X8221354Y11973449D1*
X8235018Y11964319D1*
X8247923Y11954145D1*
X8260208Y11942755D1*
X8504595Y11942335D1*
X8527501Y11938707D1*
X8549557Y11931541D1*
X8570220Y11921012D1*
X8588982Y11907381D1*
X8630502Y11866505D1*
X8745551Y11750812D1*
X8759182Y11732050D1*
X8769711Y11711387D1*
X8776877Y11689331D1*
X8780505Y11666426D1*
X8780960Y11608163D1*
X8780505Y10767404D1*
X8776877Y10744499D1*
X8769711Y10722443D1*
X8759182Y10701780D1*
X8746701Y10684477D1*
X8739653Y10668034D1*
X8728643Y10650066D1*
X8714957Y10634043D1*
X8698934Y10620357D1*
X8680966Y10609347D1*
X8661498Y10601283D1*
X8641008Y10596363D1*
X8620000Y10594710D1*
X8598992Y10596363D1*
X8578502Y10601283D1*
X8559034Y10609347D1*
X8556554Y10610735D1*
X8544391Y10604932D1*
X8524349Y10598420D1*
X8503536Y10595124D1*
X8482464D1*
X8466781Y10597400D1*
X8466479Y8993092D1*
X8464005Y8977471D1*
X8459118Y8962429D1*
X8451938Y8948337D1*
X8442641Y8935542D1*
X8371273Y8863734D1*
X8101292Y8593754D1*
X10483169Y8593790D1*
X10805176Y8915714D1*
X10805521Y11294908D1*
X10807995Y11310529D1*
X10812882Y11325571D1*
X10820062Y11339663D1*
X10829359Y11352458D1*
X10900727Y11424266D1*
X11221542Y11744641D1*
X11234337Y11753938D1*
X11248429Y11761118D1*
X11263471Y11766005D1*
X11279092Y11768479D1*
X11380333Y11768790D1*
X12691908Y11768479D1*
X12707529Y11766005D1*
X12722571Y11761118D1*
X12736663Y11753938D1*
X12749458Y11744641D1*
X12821266Y11673273D1*
X13014641Y11479458D1*
X13023938Y11466663D1*
X13031118Y11452571D1*
X13036005Y11437529D1*
X13038479Y11421908D1*
X13038790Y11341721D1*
X13054464Y11343876D1*
X13075536D1*
X13096349Y11340580D1*
X13116391Y11334068D1*
X13128446Y11328265D1*
X13140609Y11334068D1*
X13160651Y11340580D1*
X13181464Y11343876D1*
X13202536D1*
X13223349Y11340580D1*
X13243391Y11334068D1*
X13262166Y11324501D1*
X13279214Y11312115D1*
X13287489Y11304383D1*
X13307405Y11307335D1*
X13330595D1*
X13353501Y11303707D1*
X13375557Y11296540D1*
X13396220Y11286012D1*
X13414982Y11272381D1*
X13431381Y11255982D1*
X13445012Y11237220D1*
X13455540Y11216557D1*
X13462707Y11194501D1*
X13466335Y11171595D1*
X13466790Y11113333D1*
X13466335Y9370405D1*
X13462707Y9347499D1*
X13455540Y9325443D1*
X13445012Y9304780D1*
X13431381Y9286018D1*
X13390505Y9244498D1*
X13287982Y9142620D1*
X13269220Y9128988D1*
X13248557Y9118460D1*
X13226501Y9111293D1*
X13215074Y9109024D1*
X13200923Y9095855D1*
X13188018Y9085681D1*
X13174354Y9076551D1*
X13160016Y9068521D1*
X13145092Y9061641D1*
X13129674Y9055953D1*
X13113858Y9051493D1*
X13097740Y9048287D1*
X13081421Y9046355D1*
X13065000Y9045710D1*
X13048579Y9046355D1*
X13032260Y9048287D1*
X13016142Y9051493D1*
X13000326Y9055953D1*
X12984908Y9061641D1*
X12969984Y9068521D1*
X12955646Y9076551D1*
X12941982Y9085681D1*
X12929077Y9095855D1*
X12917010Y9107010D1*
X12905855Y9119077D1*
X12895681Y9131982D1*
X12886551Y9145646D1*
X12878521Y9159984D1*
X12871641Y9174908D1*
X12865953Y9190326D1*
X12861493Y9206142D1*
X12858287Y9222260D1*
X12856355Y9238579D1*
X12855710Y9255000D1*
X12856355Y9271421D1*
X12858287Y9287740D1*
X12861493Y9303858D1*
X12865953Y9319674D1*
X12871641Y9335092D1*
X12878521Y9350016D1*
X12886551Y9364354D1*
X12895681Y9378018D1*
X12905855Y9390923D1*
X12917010Y9402990D1*
X12929077Y9414145D1*
X12941982Y9424319D1*
X12955646Y9433449D1*
X12969984Y9441479D1*
X12984908Y9448359D1*
X13000326Y9454047D1*
X13016142Y9458507D1*
X13032260Y9461713D1*
X13048579Y9463645D1*
X13065000Y9464290D1*
X13081421Y9463645D1*
X13097740Y9461713D1*
X13113858Y9458507D1*
X13129674Y9454047D1*
X13145092Y9448359D1*
X13166121Y9438060D1*
X13171217Y9443224D1*
X13170992Y10977363D1*
X13150502Y10982283D1*
X13131034Y10990347D1*
X13128554Y10991735D1*
X13116391Y10985932D1*
X13096349Y10979420D1*
X13075536Y10976124D1*
X13054464D1*
X13033651Y10979420D1*
X13013609Y10985932D1*
X13001554Y10991735D1*
X12989391Y10985932D1*
X12969349Y10979420D1*
X12948536Y10976124D1*
X12927464D1*
X12906651Y10979420D1*
X12886609Y10985932D1*
X12874554Y10991735D1*
X12857618Y10984061D1*
X12839719Y10978817D1*
X12821266Y10976103D1*
X12802614Y10975972D1*
X12784125Y10978427D1*
X12766154Y10983419D1*
X12749048Y10990854D1*
X12747526Y10991679D1*
X12735391Y10985932D1*
X12715349Y10979420D1*
X12694536Y10976124D1*
X12673464D1*
X12652651Y10979420D1*
X12632609Y10985932D1*
X12620554Y10991735D1*
X12608391Y10985932D1*
X12588349Y10979420D1*
X12567536Y10976124D1*
X12546464D1*
X12525651Y10979420D1*
X12505609Y10985932D1*
X12493554Y10991735D1*
X12481391Y10985932D1*
X12461349Y10979420D1*
X12450803Y10977339D1*
X12450790Y8935221D1*
X12491224Y8894783D1*
X12855742Y8894790D1*
X12855710Y8956290D1*
X13274290D1*
Y8537710D1*
X12855710D1*
Y8599233D1*
X12418405Y8599665D1*
X12395499Y8603293D1*
X12373443Y8610460D1*
X12352780Y8620988D1*
X12334018Y8634619D1*
X12292498Y8675495D1*
X12190619Y8778018D1*
X12176988Y8796780D1*
X12166460Y8817443D1*
X12159293Y8839499D1*
X12155665Y8862405D1*
X12155210Y8920667D1*
X12155665Y11171595D1*
X12159293Y11194501D1*
X12166460Y11216557D1*
X12176988Y11237220D1*
X12190619Y11255982D1*
X12207018Y11272381D1*
X12225780Y11286012D1*
X12246443Y11296540D1*
X12268499Y11303707D1*
X12291405Y11307335D1*
X12314595D1*
X12334433Y11304317D1*
X12344177Y11313211D1*
X11455685Y11313210D1*
X11260791Y11118252D1*
X11260790Y10858945D1*
X11264565Y10877366D1*
X11270624Y10898850D1*
X11278350Y10919793D1*
X11287696Y10940065D1*
X11298603Y10959541D1*
X11311005Y10978101D1*
X11324824Y10995632D1*
X11339977Y11012023D1*
X11356368Y11027176D1*
X11373899Y11040995D1*
X11392459Y11053397D1*
X11411935Y11064304D1*
X11432207Y11073650D1*
X11453150Y11081376D1*
X11474634Y11087435D1*
X11496527Y11091790D1*
X11518695Y11094414D1*
X11541000Y11095290D1*
X11563305Y11094414D1*
X11585473Y11091790D1*
X11607366Y11087435D1*
X11628850Y11081376D1*
X11649793Y11073650D1*
X11670065Y11064304D1*
X11689541Y11053397D1*
X11708101Y11040995D1*
X11725632Y11027176D1*
X11742023Y11012023D1*
X11757176Y10995632D1*
X11770995Y10978101D1*
X11783397Y10959541D1*
X11794304Y10940065D1*
X11803650Y10919793D1*
X11811376Y10898850D1*
X11817435Y10877366D1*
X11821790Y10855473D1*
X11824414Y10833305D1*
X11825290Y10811000D1*
X11824414Y10788695D1*
X11821790Y10766527D1*
X11817435Y10744634D1*
X11811376Y10723150D1*
X11803650Y10702207D1*
X11794304Y10681935D1*
X11783397Y10662459D1*
X11770995Y10643899D1*
X11757176Y10626368D1*
X11742023Y10609977D1*
X11725632Y10594824D1*
X11708101Y10581005D1*
X11689541Y10568603D1*
X11670065Y10557696D1*
X11649793Y10548350D1*
X11628850Y10540624D1*
X11607366Y10534565D1*
X11585473Y10530210D1*
X11563305Y10527586D1*
X11541000Y10526710D1*
X11518695Y10527586D1*
X11496527Y10530210D1*
X11474634Y10534565D1*
X11453150Y10540624D1*
X11432207Y10548350D1*
X11411935Y10557696D1*
X11392459Y10568603D1*
X11373899Y10581005D1*
X11356368Y10594824D1*
X11339977Y10609977D1*
X11324824Y10626368D1*
X11311005Y10643899D1*
X11298603Y10662459D1*
X11287696Y10681935D1*
X11278350Y10702207D1*
X11270624Y10723150D1*
X11264565Y10744634D1*
X11260805Y10763534D1*
X11260479Y8739092D1*
X11258005Y8723471D1*
X11253118Y8708429D1*
X11245938Y8694337D1*
X11236641Y8681542D1*
X11165273Y8609734D1*
X10895292Y8339754D1*
X13326908Y8339479D1*
X13342529Y8337005D1*
X13357571Y8332118D1*
X13371663Y8324938D1*
X13384458Y8315641D1*
X13456266Y8244273D1*
X13776641Y7923458D1*
X13785938Y7910663D1*
X13793118Y7896571D1*
X13798005Y7881529D1*
X13800479Y7865908D1*
X13800790Y7764667D1*
Y6261763D1*
X13816464Y6263876D1*
X13837536D1*
X13858349Y6260580D1*
X13878391Y6254068D1*
X13890446Y6248265D1*
X13902609Y6254068D1*
X13922651Y6260580D1*
X13943464Y6263876D1*
X13964536D1*
X13985349Y6260580D1*
X14005391Y6254068D1*
X14024166Y6244501D1*
X14041214Y6232115D1*
X14049489Y6224383D1*
X14069405Y6227335D1*
X14092595D1*
X14115501Y6223707D1*
X14137557Y6216540D1*
X14158220Y6206012D1*
X14176982Y6192381D1*
X14193381Y6175982D1*
X14207012Y6157220D1*
X14217540Y6136557D1*
X14224707Y6114501D1*
X14228335Y6091595D1*
X14228790Y6033333D1*
Y5125247D1*
X14588766Y4765241D1*
X14798290Y4765290D1*
Y4346710D1*
X14379710D1*
Y4556254D1*
X13968619Y4968018D1*
X13954988Y4986780D1*
X13944460Y5007443D1*
X13937293Y5029499D1*
X13933665Y5052405D1*
X13933210Y5110667D1*
X13932992Y5897363D1*
X13912502Y5902283D1*
X13893034Y5910347D1*
X13890554Y5911735D1*
X13878391Y5905932D1*
X13858349Y5899420D1*
X13837536Y5896124D1*
X13816464D1*
X13795651Y5899420D1*
X13775609Y5905932D1*
X13763554Y5911735D1*
X13751391Y5905932D1*
X13731349Y5899420D1*
X13710536Y5896124D1*
X13689464D1*
X13668651Y5899420D1*
X13648609Y5905932D1*
X13636554Y5911735D1*
X13619618Y5904061D1*
X13601719Y5898817D1*
X13583266Y5896103D1*
X13564614Y5895972D1*
X13546125Y5898427D1*
X13528154Y5903419D1*
X13511048Y5910854D1*
X13509526Y5911679D1*
X13497391Y5905932D1*
X13477349Y5899420D1*
X13456536Y5896124D1*
X13435464D1*
X13414651Y5899420D1*
X13394609Y5905932D1*
X13382554Y5911735D1*
X13370391Y5905932D1*
X13350349Y5899420D1*
X13329536Y5896124D1*
X13308464D1*
X13287651Y5899420D1*
X13267609Y5905932D1*
X13255554Y5911735D1*
X13243391Y5905932D1*
X13223349Y5899420D1*
X13212803Y5897339D1*
X13212790Y5125247D1*
X14142245Y4195762D1*
X14441010Y4195990D1*
X14453077Y4207145D1*
X14465982Y4217319D1*
X14479646Y4226449D1*
X14493984Y4234479D1*
X14508908Y4241359D1*
X14524326Y4247047D1*
X14540142Y4251507D1*
X14556260Y4254713D1*
X14572579Y4256645D1*
X14589000Y4257290D1*
X14605421Y4256645D1*
X14621740Y4254713D1*
X14637858Y4251507D1*
X14653674Y4247047D1*
X14669092Y4241359D1*
X14684016Y4234479D1*
X14698354Y4226449D1*
X14712018Y4217319D1*
X14724923Y4207145D1*
X14736990Y4195990D1*
X14748145Y4183923D1*
X14758319Y4171018D1*
X14767449Y4157354D1*
X14775479Y4143016D1*
X14782359Y4128092D1*
X14788047Y4112674D1*
X14792507Y4096858D1*
X14795713Y4080740D1*
X14797645Y4064421D1*
X14798290Y4048000D1*
X14797645Y4031579D1*
X14795713Y4015260D1*
X14792507Y3999142D1*
X14788047Y3983326D1*
X14782359Y3967908D1*
X14775479Y3952984D1*
X14767449Y3938646D1*
X14758319Y3924982D1*
X14748145Y3912077D1*
X14736990Y3900010D1*
X14724923Y3888855D1*
X14712018Y3878681D1*
X14698354Y3869551D1*
X14684016Y3861521D1*
X14669092Y3854641D1*
X14653674Y3848953D1*
X14637858Y3844493D1*
X14621740Y3841287D1*
X14605421Y3839355D1*
X14589000Y3838710D1*
X14572579Y3839355D1*
X14556260Y3841287D1*
X14540142Y3844493D1*
X14524326Y3848953D1*
X14508908Y3854641D1*
X14493984Y3861521D1*
X14479646Y3869551D1*
X14465982Y3878681D1*
X14453077Y3888855D1*
X14440792Y3900245D1*
X14069405Y3900665D1*
X14046499Y3904293D1*
X14024443Y3911460D1*
X14003780Y3921988D1*
X13985018Y3935619D1*
X13943498Y3976495D1*
X12952619Y4968018D1*
X12938988Y4986780D1*
X12928460Y5007443D1*
X12921293Y5029499D1*
X12917665Y5052405D1*
X12917210Y5110667D1*
X12917665Y6091595D1*
X12921293Y6114501D1*
X12928460Y6136557D1*
X12938988Y6157220D1*
X12952619Y6175982D1*
X12969018Y6192381D1*
X12987780Y6206012D1*
X13008443Y6216540D1*
X13030499Y6223707D1*
X13053405Y6227335D1*
X13076595D1*
X13096433Y6224317D1*
X13113066Y6238643D1*
X13131034Y6249653D1*
X13150502Y6257717D1*
X13170992Y6262637D1*
X13192000Y6264290D1*
X13213008Y6262637D1*
X13233498Y6257717D1*
X13252966Y6249653D1*
X13255446Y6248265D1*
X13267609Y6254068D1*
X13287651Y6260580D1*
X13308464Y6263876D1*
X13329536D1*
X13345219Y6261600D1*
X13345210Y7689180D1*
X13023285Y8011175D1*
X8736393Y8011210D1*
X8950642Y7796458D1*
X8959938Y7783663D1*
X8967118Y7769571D1*
X8972005Y7754529D1*
X8974480Y7738908D1*
X8974790Y7637667D1*
Y7531664D1*
X8990464Y7533876D1*
X9011536D1*
X9032349Y7530580D1*
X9052391Y7524068D1*
X9064446Y7518265D1*
X9076609Y7524068D1*
X9096651Y7530580D1*
X9117464Y7533876D1*
X9138536D1*
X9159349Y7530580D1*
X9179391Y7524068D1*
X9198166Y7514501D1*
X9215214Y7502115D1*
X9223489Y7494383D1*
X9243405Y7497334D1*
X9266595D1*
X9289501Y7493707D1*
X9311557Y7486540D1*
X9332220Y7476012D1*
X9350982Y7462380D1*
X9367380Y7445982D1*
X9381012Y7427220D1*
X9391540Y7406557D1*
X9398707Y7384501D1*
X9402334Y7361595D1*
X9402790Y7303333D1*
Y5760143D1*
X9697156Y5465851D1*
X9869010Y5465990D1*
X9881077Y5477145D1*
X9893982Y5487319D1*
X9907646Y5496449D1*
X9921984Y5504479D1*
X9936908Y5511359D1*
X9952326Y5517047D1*
X9968142Y5521507D1*
X9984260Y5524713D1*
X10000579Y5526645D1*
X10017000Y5527290D1*
X10033421Y5526645D1*
X10049740Y5524713D1*
X10065858Y5521507D1*
X10081674Y5517047D1*
X10097092Y5511359D1*
X10112016Y5504479D1*
X10126354Y5496449D1*
X10140018Y5487319D1*
X10152923Y5477145D1*
X10164990Y5465990D1*
X10176145Y5453923D1*
X10186319Y5441018D1*
X10195449Y5427354D1*
X10203479Y5413016D1*
X10210359Y5398092D1*
X10216047Y5382674D1*
X10220507Y5366858D1*
X10223713Y5350740D1*
X10225645Y5334421D1*
X10226290Y5318000D1*
X10225645Y5301579D1*
X10223713Y5285260D1*
X10220507Y5269142D1*
X10216047Y5253326D1*
X10210359Y5237908D1*
X10203479Y5222984D1*
X10195449Y5208646D1*
X10186319Y5194982D1*
X10176145Y5182077D1*
X10164990Y5170010D1*
X10152923Y5158855D1*
X10140018Y5148681D1*
X10126354Y5139551D1*
X10112016Y5131521D1*
X10097092Y5124641D1*
X10081674Y5118953D1*
X10065858Y5114493D1*
X10049740Y5111287D1*
X10033421Y5109355D1*
X10017000Y5108710D1*
X10000579Y5109355D1*
X9984260Y5111287D1*
X9968142Y5114493D1*
X9952326Y5118953D1*
X9936908Y5124641D1*
X9921984Y5131521D1*
X9907646Y5139551D1*
X9893982Y5148681D1*
X9881077Y5158855D1*
X9868792Y5170245D1*
X9624404Y5170665D1*
X9601499Y5174293D1*
X9579443Y5181459D1*
X9558780Y5191988D1*
X9540018Y5205619D1*
X9498498Y5246495D1*
X9142620Y5603018D1*
X9128988Y5621780D1*
X9118460Y5642443D1*
X9111293Y5664499D1*
X9107666Y5687405D1*
X9107210Y5745667D1*
X9106992Y7167363D1*
X9086502Y7172283D1*
X9067034Y7180347D1*
X9064554Y7181735D1*
X9052391Y7175932D1*
X9032349Y7169420D1*
X9011536Y7166124D1*
X8990464D1*
X8969651Y7169420D1*
X8949609Y7175932D1*
X8937554Y7181735D1*
X8925391Y7175932D1*
X8905349Y7169420D1*
X8884536Y7166124D1*
X8863464D1*
X8842651Y7169420D1*
X8822609Y7175932D1*
X8810554Y7181735D1*
X8793618Y7174061D1*
X8775719Y7168817D1*
X8757266Y7166103D1*
X8738614Y7165972D1*
X8720125Y7168427D1*
X8702154Y7173419D1*
X8685048Y7180854D1*
X8683526Y7181679D1*
X8671391Y7175932D1*
X8651349Y7169420D1*
X8630536Y7166124D1*
X8609464D1*
X8588651Y7169420D1*
X8568609Y7175932D1*
X8556554Y7181735D1*
X8544391Y7175932D1*
X8524349Y7169420D1*
X8503536Y7166124D1*
X8482464D1*
X8461651Y7169420D1*
X8441609Y7175932D1*
X8429554Y7181735D1*
X8417391Y7175932D1*
X8397349Y7169420D1*
X8386803Y7167339D1*
X8386790Y5379154D1*
X8808251Y4957756D1*
X9807664Y4957790D1*
X9807710Y5019290D1*
X10226290D1*
Y4600710D1*
X9807710D1*
Y4662233D1*
X8735405Y4662666D1*
X8712499Y4666293D1*
X8690443Y4673460D1*
X8669780Y4683988D1*
X8651018Y4697620D1*
X8609498Y4738495D1*
X8126620Y5222018D1*
X8112988Y5240780D1*
X8102460Y5261443D1*
X8095293Y5283499D1*
X8091665Y5306405D1*
X8091210Y5364667D1*
X8091665Y7361595D1*
X8095293Y7384501D1*
X8102460Y7406557D1*
X8112988Y7427220D1*
X8126620Y7445982D1*
X8143018Y7462380D1*
X8161780Y7476012D1*
X8182443Y7486540D1*
X8204499Y7493707D1*
X8227405Y7497335D1*
X8250595D1*
X8270433Y7494317D1*
X8287066Y7508643D1*
X8305034Y7519653D1*
X8324502Y7527717D1*
X8344992Y7532637D1*
X8366000Y7534290D1*
X8387008Y7532637D1*
X8407498Y7527717D1*
X8426966Y7519653D1*
X8429446Y7518265D1*
X8433941Y7520533D1*
X8324252Y7630209D1*
X6145961Y7630210D1*
X6167174Y7619254D1*
X6188354Y7603866D1*
X6206866Y7585354D1*
X6222254Y7564174D1*
X6234140Y7540847D1*
X6242230Y7515948D1*
X6246326Y7490090D1*
Y7463910D1*
X6242230Y7438052D1*
X6234140Y7413153D1*
X6222254Y7389826D1*
X6206866Y7368646D1*
X6188354Y7350134D1*
X6167174Y7334746D1*
X6143847Y7322860D1*
X6118948Y7314770D1*
X6093090Y7310674D1*
X6066910D1*
X6041052Y7314770D1*
X6016153Y7322860D1*
X5992826Y7334746D1*
X5985295Y7339778D1*
X5445037Y7573046D2*
X5459365Y7589635D1*
X5478372Y7605868D1*
X5499684Y7618928D1*
X5522777Y7628494D1*
X5528843Y7630205D1*
X5361560Y7630210D1*
X5378958Y7624165D1*
X5401229Y7612817D1*
X5421451Y7598125D1*
X5439125Y7580451D1*
X5444963Y7573046D1*
X5191037D2*
X5205365Y7589635D1*
X5224372Y7605868D1*
X5245684Y7618928D1*
X5268777Y7628494D1*
X5274843Y7630205D1*
X5107628Y7630210D1*
X5128155Y7622799D1*
X5144762Y7614298D1*
X5160261Y7603914D1*
X5174439Y7591789D1*
X5187103Y7578089D1*
X5190985Y7573142D1*
X4937021Y7573149D2*
X4947979Y7586144D1*
X4961536Y7598960D1*
X4976498Y7610104D1*
X4992660Y7619422D1*
X5009801Y7626786D1*
X5020473Y7630211D1*
X4853513Y7630210D1*
X4870958Y7624165D1*
X4893229Y7612817D1*
X4913451Y7598125D1*
X4931125Y7580451D1*
X4936963Y7573046D1*
X4709197Y7353788D2*
X4697365Y7364365D1*
X4683037Y7380954D1*
X4668635Y7364365D1*
X4656803Y7353788D1*
X4656790Y6629799D1*
X4978714Y6307824D1*
X7611908Y6307480D1*
X7627529Y6305005D1*
X7642571Y6300118D1*
X7656663Y6292938D1*
X7669458Y6283641D1*
X7741266Y6212273D1*
X7807642Y6145458D1*
X7816938Y6132663D1*
X7824118Y6118571D1*
X7829005Y6103529D1*
X7831480Y6087908D1*
X7831790Y5986667D1*
Y3835716D1*
X8153714Y3513825D1*
X10659908Y3513480D1*
X10675529Y3511005D1*
X10690571Y3506118D1*
X10704663Y3498938D1*
X10717458Y3489642D1*
X10789266Y3418273D1*
X10855642Y3351458D1*
X10864938Y3338663D1*
X10872118Y3324571D1*
X10877005Y3309529D1*
X10879480Y3293908D1*
X10879790Y3192667D1*
X10880005Y2578750D1*
X10898511Y2581081D1*
X10917160Y2580825D1*
X10932222Y2578689D1*
X10932210Y3371258D1*
X10737252Y3566209D1*
X8358092Y3566521D1*
X8342471Y3568995D1*
X8327429Y3573882D1*
X8313337Y3581062D1*
X8300542Y3590359D1*
X8228734Y3661727D1*
X7908359Y3982542D1*
X7899062Y3995337D1*
X7891882Y4009429D1*
X7886995Y4024471D1*
X7884521Y4040092D1*
X7884210Y4141333D1*
Y6292284D1*
X7816218Y6360243D1*
X5056092Y6360521D1*
X5040471Y6362995D1*
X5025429Y6367882D1*
X5011337Y6375062D1*
X4998542Y6384359D1*
X4926734Y6455727D1*
X4733359Y6649542D1*
X4724062Y6662337D1*
X4716882Y6676429D1*
X4711995Y6691471D1*
X4709521Y6707092D1*
X4709210Y6808333D1*
Y7353659D1*
X4683037Y7573046D2*
X4697365Y7589635D1*
X4716372Y7605868D1*
X4737684Y7618928D1*
X4760777Y7628494D1*
X4766843Y7630205D1*
X4599581Y7630210D1*
X4616958Y7624165D1*
X4639229Y7612817D1*
X4659451Y7598125D1*
X4677125Y7580451D1*
X4682963Y7573046D1*
X4455197Y7353788D2*
X4443365Y7364365D1*
X4429037Y7380954D1*
X4414635Y7364365D1*
X4395628Y7348132D1*
X4374316Y7335072D1*
X4351223Y7325506D1*
X4326918Y7319671D1*
X4302000Y7317710D1*
X4277082Y7319671D1*
X4252777Y7325506D1*
X4229684Y7335072D1*
X4208372Y7348132D1*
X4189365Y7364365D1*
X4175037Y7380954D1*
X4160635Y7364365D1*
X4141628Y7348132D1*
X4120316Y7335072D1*
X4097223Y7325506D1*
X4072918Y7319671D1*
X4048000Y7317710D1*
X4023082Y7319671D1*
X3998777Y7325506D1*
X3975684Y7335072D1*
X3954372Y7348132D1*
X3935365Y7364365D1*
X3921037Y7380954D1*
X3906635Y7364365D1*
X3887628Y7348132D1*
X3866316Y7335072D1*
X3843223Y7325506D1*
X3818918Y7319671D1*
X3794000Y7317710D1*
X3769082Y7319671D1*
X3744777Y7325506D1*
X3721684Y7335072D1*
X3700372Y7348132D1*
X3681365Y7364365D1*
X3667037Y7380954D1*
X3652635Y7364365D1*
X3633628Y7348132D1*
X3612316Y7335072D1*
X3589223Y7325506D1*
X3564918Y7319671D1*
X3540000Y7317710D1*
X3515082Y7319671D1*
X3490777Y7325506D1*
X3467684Y7335072D1*
X3446372Y7348132D1*
X3427365Y7364365D1*
X3413037Y7380954D1*
X3398635Y7364365D1*
X3379628Y7348132D1*
X3358316Y7335072D1*
X3335223Y7325506D1*
X3310918Y7319671D1*
X3286000Y7317710D1*
X3261082Y7319671D1*
X3236777Y7325506D1*
X3213684Y7335072D1*
X3192372Y7348132D1*
X3173365Y7364365D1*
X3159037Y7380954D1*
X3144635Y7364365D1*
X3125628Y7348132D1*
X3104316Y7335072D1*
X3081223Y7325506D1*
X3056918Y7319671D1*
X3032000Y7317710D1*
X3007082Y7319671D1*
X2982777Y7325506D1*
X2959684Y7335072D1*
X2938372Y7348132D1*
X2919365Y7364365D1*
X2905037Y7380954D1*
X2890635Y7364365D1*
X2871628Y7348132D1*
X2850316Y7335072D1*
X2827223Y7325506D1*
X2802918Y7319671D1*
X2778000Y7317710D1*
X2753082Y7319671D1*
X2728777Y7325506D1*
X2705684Y7335072D1*
X2684372Y7348132D1*
X2665365Y7364365D1*
X2651037Y7380954D1*
X2636635Y7364365D1*
X2624803Y7353788D1*
X2624480Y7088092D1*
X2622005Y7072471D1*
X2617118Y7057429D1*
X2609938Y7043337D1*
X2600642Y7030542D1*
X2529273Y6958734D1*
X2462458Y6892358D1*
X2449663Y6883062D1*
X2435571Y6875882D1*
X2420529Y6870995D1*
X2404908Y6868520D1*
X2303667Y6868210D1*
X1754061Y6868524D1*
X1760760Y6858779D1*
X2184776Y6434763D1*
X2912908Y6434480D1*
X2928529Y6432006D1*
X2943571Y6427118D1*
X2957663Y6419938D1*
X2970458Y6410642D1*
X3042266Y6339273D1*
X3108642Y6272458D1*
X3117938Y6259663D1*
X3125118Y6245571D1*
X3130006Y6230529D1*
X3132480Y6214908D1*
X3132790Y6113667D1*
Y6076388D1*
X3144635Y6065635D1*
X3158963Y6049046D1*
X3173365Y6065635D1*
X3192372Y6081868D1*
X3213684Y6094928D1*
X3236777Y6104494D1*
X3261082Y6110329D1*
X3286000Y6112290D1*
X3310918Y6110329D1*
X3335223Y6104494D1*
X3358316Y6094928D1*
X3379628Y6081868D1*
X3398635Y6065635D1*
X3412963Y6049046D1*
X3427365Y6065635D1*
X3446372Y6081868D1*
X3467684Y6094928D1*
X3490777Y6104494D1*
X3515082Y6110329D1*
X3540000Y6112290D1*
X3564918Y6110329D1*
X3589223Y6104494D1*
X3612316Y6094928D1*
X3633628Y6081868D1*
X3652635Y6065635D1*
X3666963Y6049046D1*
X3681365Y6065635D1*
X3700372Y6081868D1*
X3721684Y6094928D1*
X3744777Y6104494D1*
X3769082Y6110329D1*
X3794000Y6112290D1*
X3818918Y6110329D1*
X3843223Y6104494D1*
X3866316Y6094928D1*
X3887628Y6081868D1*
X3906635Y6065635D1*
X3920963Y6049046D1*
X3935365Y6065635D1*
X3954372Y6081868D1*
X3975684Y6094928D1*
X3998777Y6104494D1*
X4023082Y6110329D1*
X4048000Y6112290D1*
X4072918Y6110329D1*
X4097223Y6104494D1*
X4120316Y6094928D1*
X4141628Y6081868D1*
X4160635Y6065635D1*
X4174963Y6049046D1*
X4189365Y6065635D1*
X4208372Y6081868D1*
X4229684Y6094928D1*
X4252777Y6104494D1*
X4277082Y6110329D1*
X4302000Y6112290D1*
X4326918Y6110329D1*
X4351223Y6104494D1*
X4374316Y6094928D1*
X4395628Y6081868D1*
X4414635Y6065635D1*
X4428963Y6049046D1*
X4443365Y6065635D1*
X4462372Y6081868D1*
X4483684Y6094928D1*
X4506777Y6104494D1*
X4531082Y6110329D1*
X4556000Y6112290D1*
X4580918Y6110329D1*
X4605223Y6104494D1*
X4628316Y6094928D1*
X4649628Y6081868D1*
X4668635Y6065635D1*
X4682963Y6049046D1*
X4697365Y6065635D1*
X4716372Y6081868D1*
X4737684Y6094928D1*
X4760777Y6104494D1*
X4785082Y6110329D1*
X4810000Y6112290D1*
X4834918Y6110329D1*
X4859223Y6104494D1*
X4882316Y6094928D1*
X4903628Y6081868D1*
X4922635Y6065635D1*
X4936963Y6049046D1*
X4951365Y6065635D1*
X4970372Y6081868D1*
X4991684Y6094928D1*
X5014777Y6104494D1*
X5020843Y6106205D1*
X4929092Y6106520D1*
X4913471Y6108995D1*
X4898429Y6113882D1*
X4884337Y6121062D1*
X4871542Y6130359D1*
X4799734Y6201727D1*
X4479359Y6522542D1*
X4470062Y6535337D1*
X4462882Y6549429D1*
X4457995Y6564471D1*
X4455521Y6580092D1*
X4455210Y6681333D1*
Y7353716D1*
X2651037Y7573046D2*
X2665365Y7589635D1*
X2684372Y7605868D1*
X2705684Y7618928D1*
X2728777Y7628494D1*
X2753082Y7634329D1*
X2778000Y7636290D1*
X2793846Y7635403D1*
X3804634Y8646172D1*
X3581768Y8646210D1*
X2566087Y7630547D1*
X2584958Y7624165D1*
X2607229Y7612817D1*
X2627451Y7598125D1*
X2645125Y7580451D1*
X2650963Y7573046D1*
X2423197Y7353788D2*
X2411365Y7364365D1*
X2397037Y7380954D1*
X2382635Y7364365D1*
X2363628Y7348132D1*
X2342316Y7335072D1*
X2319223Y7325506D1*
X2294918Y7319671D1*
X2270000Y7317710D1*
X2245082Y7319671D1*
X2220777Y7325506D1*
X2197684Y7335072D1*
X2176372Y7348132D1*
X2157365Y7364365D1*
X2147877Y7374816D1*
X2133974Y7359026D1*
X2114066Y7342024D1*
X2091744Y7328344D1*
X2067556Y7318326D1*
X2042100Y7312214D1*
X2016000Y7310160D1*
X1989900Y7312214D1*
X1964444Y7318326D1*
X1940256Y7328344D1*
X1917934Y7342024D1*
X1898026Y7359026D1*
X1881024Y7378934D1*
X1867344Y7401256D1*
X1857326Y7425444D1*
X1856367Y7428842D1*
X1735782Y7308243D1*
X1735790Y7137721D1*
X1803782Y7069757D1*
X2355268Y7069790D1*
X2423243Y7137782D1*
X2423210Y7353669D1*
X3412963Y5856954D2*
X3398635Y5840365D1*
X3386803Y5829788D1*
X3386790Y5060409D1*
X3398635Y5049635D1*
X3412963Y5033046D1*
X3427365Y5049635D1*
X3439197Y5060212D1*
X3439210Y5829591D1*
X3427365Y5840365D1*
X3413037Y5856954D1*
X3666963D2*
X3652635Y5840365D1*
X3640803Y5829788D1*
X3640790Y5060409D1*
X3652635Y5049635D1*
X3666963Y5033046D1*
X3681365Y5049635D1*
X3693197Y5060212D1*
X3693210Y5829591D1*
X3681365Y5840365D1*
X3667037Y5856954D1*
X3920963D2*
X3906635Y5840365D1*
X3894803Y5829788D1*
X3894790Y5060409D1*
X3906635Y5049635D1*
X3920963Y5033046D1*
X3935365Y5049635D1*
X3947197Y5060212D1*
X3947210Y5829591D1*
X3935365Y5840365D1*
X3921037Y5856954D1*
X4174963D2*
X4160635Y5840365D1*
X4148803Y5829788D1*
X4148790Y5060409D1*
X4160635Y5049635D1*
X4174963Y5033046D1*
X4189365Y5049635D1*
X4201197Y5060212D1*
X4201210Y5829591D1*
X4189365Y5840365D1*
X4175037Y5856954D1*
X4428963D2*
X4414635Y5840365D1*
X4402803Y5829788D1*
X4402790Y5060409D1*
X4414635Y5049635D1*
X4428963Y5033046D1*
X4443365Y5049635D1*
X4455197Y5060212D1*
X4455210Y5829591D1*
X4443365Y5840365D1*
X4429037Y5856954D1*
X4682963D2*
X4668635Y5840365D1*
X4656803Y5829788D1*
X4656790Y5060409D1*
X4668635Y5049635D1*
X4682963Y5033046D1*
X4697365Y5049635D1*
X4709197Y5060212D1*
X4709210Y5829591D1*
X4697365Y5840365D1*
X4683037Y5856954D1*
X4936963D2*
X4922635Y5840365D1*
X4910803Y5829788D1*
X4910790Y5096320D1*
X4963135Y5096290D1*
X4963210Y5829591D1*
X4951365Y5840365D1*
X4937037Y5856954D1*
X5107157Y6106205D2*
X5124958Y6100165D1*
X5147229Y6088817D1*
X5167451Y6074125D1*
X5185125Y6056451D1*
X5190963Y6049046D1*
X5205365Y6065635D1*
X5224372Y6081868D1*
X5245684Y6094928D1*
X5268777Y6104494D1*
X5274843Y6106205D1*
X5107607Y6106210D1*
X5361157Y6106205D2*
X5378958Y6100165D1*
X5401229Y6088817D1*
X5421451Y6074125D1*
X5439125Y6056451D1*
X5444963Y6049046D1*
X5455979Y6062144D1*
X5469536Y6074960D1*
X5484498Y6086104D1*
X5500660Y6095422D1*
X5517801Y6102786D1*
X5527333Y6106210D1*
X5361539D1*
X5615535D2*
X5631857Y6100616D1*
X5648706Y6092605D1*
X5664502Y6082679D1*
X5679029Y6070975D1*
X5692089Y6057652D1*
X5698985Y6049142D1*
X5713365Y6065635D1*
X5732372Y6081868D1*
X5753684Y6094928D1*
X5776777Y6104494D1*
X5782843Y6106205D1*
X5615654Y6106210D1*
X5869157Y6106205D2*
X5886958Y6100165D1*
X5909229Y6088817D1*
X5929451Y6074125D1*
X5947125Y6056451D1*
X5948123Y6055184D1*
X5962026Y6070974D1*
X5981934Y6087976D1*
X6004256Y6101656D1*
X6014155Y6106219D1*
X5869586Y6106210D1*
X7514224Y2519334D2*
X7512636Y2500745D1*
X7508951Y2482456D1*
X7503216Y2464703D1*
X7495505Y2447714D1*
X7485918Y2431709D1*
X7474578Y2416894D1*
X7461631Y2403461D1*
X7447245Y2391582D1*
X7431605Y2381410D1*
X7414913Y2373078D1*
X7397383Y2366691D1*
X7379243Y2362333D1*
X7360725Y2360060D1*
X7342069Y2359902D1*
X7323516Y2361859D1*
X7305303Y2365907D1*
X7287668Y2371994D1*
X7270836Y2380041D1*
X7255025Y2389944D1*
X7240438Y2401577D1*
X7227265Y2414788D1*
X7215674Y2429407D1*
X7205816Y2445246D1*
X7197817Y2462101D1*
X7191780Y2479754D1*
X7187784Y2497978D1*
X7185880Y2516537D1*
X7186092Y2535192D1*
X7188417Y2553703D1*
X7192827Y2571832D1*
X7199263Y2589343D1*
X7207644Y2606011D1*
X7217860Y2621622D1*
X7229780Y2635974D1*
X7243250Y2648883D1*
X7258097Y2660180D1*
X7274129Y2669722D1*
X7291140Y2677384D1*
X7308909Y2683068D1*
X7327209Y2686701D1*
X7345802Y2688236D1*
X7364450Y2687653D1*
X7382911Y2684960D1*
X7400948Y2680191D1*
X7418327Y2673407D1*
X7434826Y2664697D1*
X7450231Y2654173D1*
X7464343Y2641970D1*
X7476981Y2628246D1*
X7487981Y2613177D1*
X7497202Y2596958D1*
X7504524Y2579799D1*
X7509854Y2561920D1*
X7513122Y2543551D1*
X7514290Y2524000D1*
X7514224Y2519334D1*
X2798790Y4268329D2*
Y4037210D1*
X2776256Y4036891D1*
X2784651Y4020230D1*
X2791162Y4002745D1*
X2795709Y3984651D1*
X2798238Y3966166D1*
X2798718Y3957266D1*
X2804210Y3967667D1*
X2804521Y4182908D1*
X2806995Y4198529D1*
X2811882Y4213571D1*
X2819062Y4227663D1*
X2828359Y4240458D1*
X2899727Y4312266D1*
X3419902Y4832441D1*
X3413037Y4840954D1*
X3398635Y4824365D1*
X3379628Y4808132D1*
X3358316Y4795072D1*
X3335223Y4785506D1*
X3310918Y4779671D1*
X3307772Y4777233D1*
X2798811Y4268273D1*
X4068791Y4107912D2*
Y4037209D1*
X4046256Y4036891D1*
X4054651Y4020230D1*
X4061162Y4002745D1*
X4065709Y3984651D1*
X4068238Y3966166D1*
X4068726Y3947834D1*
X4067185Y3929240D1*
X4064305Y3913855D1*
X4201263Y4050801D1*
X4201210Y4813727D1*
X4189365Y4824365D1*
X4175037Y4840954D1*
X4160635Y4824365D1*
X4148803Y4813788D1*
X4148480Y4198592D1*
X4146006Y4182971D1*
X4141118Y4167929D1*
X4133938Y4153837D1*
X4124642Y4141042D1*
X4113458Y4129858D1*
X4100663Y4120562D1*
X4086571Y4113382D1*
X4071499Y4108488D1*
X4068791Y3633328D2*
Y3402209D1*
X4046256Y3401891D1*
X4054651Y3385230D1*
X4061162Y3367745D1*
X4065709Y3349651D1*
X4068238Y3331166D1*
X4068726Y3312834D1*
X4067185Y3294240D1*
X4064305Y3278855D1*
X4455195Y3669734D1*
X4455210Y4813716D1*
X4443365Y4824365D1*
X4429037Y4840954D1*
X4414635Y4824365D1*
X4402803Y4813788D1*
X4402479Y4001092D1*
X4400005Y3985471D1*
X4395118Y3970429D1*
X4387938Y3956337D1*
X4378641Y3943542D1*
X4307273Y3871734D1*
X4068744Y3633205D1*
X6543238Y3662334D2*
X6541420Y3639083D1*
X6537026Y3616180D1*
X6530112Y3593907D1*
X6520762Y3572542D1*
X6509093Y3552350D1*
X6495251Y3533581D1*
X6479406Y3516469D1*
X6461755Y3501226D1*
X6442519Y3488042D1*
X6421935Y3477079D1*
X6400259Y3468475D1*
X6377760Y3462336D1*
X6354718Y3458738D1*
X6331419Y3457726D1*
X6308151Y3459312D1*
X6285205Y3463478D1*
X6262865Y3470170D1*
X6241408Y3479306D1*
X6221100Y3490773D1*
X6202195Y3504428D1*
X6184926Y3520102D1*
X6169508Y3537599D1*
X6156132Y3556704D1*
X6144965Y3577177D1*
X6136145Y3598767D1*
X6129782Y3621203D1*
X6125955Y3644208D1*
X6124711Y3667496D1*
X6126065Y3690778D1*
X6130002Y3713765D1*
X6136471Y3736171D1*
X6145393Y3757718D1*
X6156657Y3778138D1*
X6170123Y3797179D1*
X6185624Y3814603D1*
X6202967Y3830195D1*
X6221937Y3843760D1*
X6242298Y3855131D1*
X6263799Y3864165D1*
X6286171Y3870751D1*
X6309136Y3874808D1*
X6332411Y3876284D1*
X6355705Y3875161D1*
X6378730Y3871454D1*
X6401199Y3865208D1*
X6422834Y3856502D1*
X6443366Y3845442D1*
X6462540Y3832166D1*
X6480118Y3816840D1*
X6495881Y3799653D1*
X6509635Y3780819D1*
X6521208Y3760571D1*
X6530456Y3739162D1*
X6537265Y3716857D1*
X6541550Y3693933D1*
X6543258Y3670674D1*
X6543238Y3662334D1*
X3693199Y10343311D2*
X3677266Y10341103D1*
X3658614Y10340972D1*
X3640788Y10343303D1*
X3640476Y9501061D1*
X3642624Y9500163D1*
X3693218Y9550757D1*
X3693210Y10343258D1*
X2680414Y10153695D2*
X2677790Y10131527D1*
X2673435Y10109634D1*
X2667376Y10088150D1*
X2659650Y10067207D1*
X2650304Y10046935D1*
X2639397Y10027459D1*
X2626995Y10008899D1*
X2613176Y9991368D1*
X2598023Y9974977D1*
X2581632Y9959824D1*
X2564101Y9946005D1*
X2545541Y9933603D1*
X2526065Y9922696D1*
X2505793Y9913350D1*
X2484850Y9905624D1*
X2463366Y9899565D1*
X2441473Y9895210D1*
X2419305Y9892586D1*
X2397000Y9891710D1*
X2374695Y9892586D1*
X2352527Y9895210D1*
X2330634Y9899565D1*
X2309150Y9905624D1*
X2288207Y9913350D1*
X2267935Y9922696D1*
X2248459Y9933603D1*
X2229899Y9946005D1*
X2212368Y9959824D1*
X2195977Y9974977D1*
X2180824Y9991368D1*
X2167005Y10008899D1*
X2154603Y10027459D1*
X2143696Y10046935D1*
X2134350Y10067207D1*
X2126624Y10088150D1*
X2120565Y10109634D1*
X2116210Y10131527D1*
X2113586Y10153695D1*
X2112710Y10176000D1*
X2113586Y10198305D1*
X2116210Y10220473D1*
X2120565Y10242366D1*
X2126624Y10263850D1*
X2134350Y10284793D1*
X2143696Y10305065D1*
X2154603Y10324541D1*
X2167005Y10343101D1*
X2180824Y10360632D1*
X2195977Y10377023D1*
X2212368Y10392176D1*
X2229899Y10405995D1*
X2248459Y10418397D1*
X2267935Y10429304D1*
X2288207Y10438650D1*
X2309150Y10446376D1*
X2330634Y10452435D1*
X2352527Y10456790D1*
X2374695Y10459414D1*
X2397000Y10460290D1*
X2419305Y10459414D1*
X2441473Y10456790D1*
X2463366Y10452435D1*
X2484850Y10446376D1*
X2505793Y10438650D1*
X2526065Y10429304D1*
X2545541Y10418397D1*
X2564101Y10405995D1*
X2581632Y10392176D1*
X2598023Y10377023D1*
X2613176Y10360632D1*
X2626995Y10343101D1*
X2639397Y10324541D1*
X2650304Y10305065D1*
X2659650Y10284793D1*
X2667376Y10263850D1*
X2673435Y10242366D1*
X2677790Y10220473D1*
X2680414Y10198305D1*
X2681290Y10176000D1*
X2680414Y10153695D1*
X5220414D2*
X5217790Y10131527D1*
X5213435Y10109634D1*
X5207376Y10088150D1*
X5199650Y10067207D1*
X5190304Y10046935D1*
X5179397Y10027459D1*
X5166995Y10008899D1*
X5153176Y9991368D1*
X5138023Y9974977D1*
X5121632Y9959824D1*
X5104101Y9946005D1*
X5085541Y9933603D1*
X5066065Y9922696D1*
X5045793Y9913350D1*
X5024850Y9905624D1*
X5003366Y9899565D1*
X4981473Y9895210D1*
X4959305Y9892586D1*
X4937000Y9891710D1*
X4914695Y9892586D1*
X4892527Y9895210D1*
X4870634Y9899565D1*
X4849150Y9905624D1*
X4828207Y9913350D1*
X4807935Y9922696D1*
X4788459Y9933603D1*
X4769899Y9946005D1*
X4752368Y9959824D1*
X4735977Y9974977D1*
X4720824Y9991368D1*
X4707005Y10008899D1*
X4694603Y10027459D1*
X4683696Y10046935D1*
X4674350Y10067207D1*
X4666624Y10088150D1*
X4660565Y10109634D1*
X4656210Y10131527D1*
X4653586Y10153695D1*
X4652710Y10176000D1*
X4653586Y10198305D1*
X4656210Y10220473D1*
X4660565Y10242366D1*
X4666624Y10263850D1*
X4674350Y10284793D1*
X4683696Y10305065D1*
X4694603Y10324541D1*
X4707005Y10343101D1*
X4720824Y10360632D1*
X4735977Y10377023D1*
X4752368Y10392176D1*
X4769899Y10405995D1*
X4788459Y10418397D1*
X4807935Y10429304D1*
X4828207Y10438650D1*
X4849150Y10446376D1*
X4870634Y10452435D1*
X4892527Y10456790D1*
X4914695Y10459414D1*
X4937000Y10460290D1*
X4959305Y10459414D1*
X4981473Y10456790D1*
X5003366Y10452435D1*
X5024850Y10446376D1*
X5045793Y10438650D1*
X5066065Y10429304D1*
X5085541Y10418397D1*
X5104101Y10405995D1*
X5121632Y10392176D1*
X5138023Y10377023D1*
X5153176Y10360632D1*
X5166995Y10343101D1*
X5179397Y10324541D1*
X5190304Y10305065D1*
X5199650Y10284793D1*
X5207376Y10263850D1*
X5213435Y10242366D1*
X5217790Y10220473D1*
X5220414Y10198305D1*
X5221290Y10176000D1*
X5220414Y10153695D1*
X8265199Y10597311D2*
X8249266Y10595103D1*
X8230614Y10594972D1*
X8212788Y10597303D1*
X8212480Y9120092D1*
X8210006Y9104471D1*
X8205118Y9089429D1*
X8197938Y9075337D1*
X8188642Y9062542D1*
X8117273Y8990734D1*
X7847293Y8720753D1*
X7943174Y8720790D1*
X8265176Y9042714D1*
X8265210Y10597237D1*
X7252414Y10407695D2*
X7249790Y10385527D1*
X7245435Y10363634D1*
X7239376Y10342150D1*
X7231650Y10321207D1*
X7222304Y10300935D1*
X7211397Y10281459D1*
X7198995Y10262899D1*
X7185176Y10245368D1*
X7170023Y10228977D1*
X7153632Y10213824D1*
X7136101Y10200005D1*
X7117541Y10187603D1*
X7098065Y10176696D1*
X7077793Y10167350D1*
X7056850Y10159624D1*
X7035366Y10153565D1*
X7013473Y10149210D1*
X6991305Y10146586D1*
X6969000Y10145710D1*
X6946695Y10146586D1*
X6924527Y10149210D1*
X6902634Y10153565D1*
X6881150Y10159624D1*
X6860207Y10167350D1*
X6839935Y10176696D1*
X6820459Y10187603D1*
X6801899Y10200005D1*
X6784368Y10213824D1*
X6767977Y10228977D1*
X6752824Y10245368D1*
X6739005Y10262899D1*
X6726603Y10281459D1*
X6715696Y10300935D1*
X6706350Y10321207D1*
X6698624Y10342150D1*
X6692565Y10363634D1*
X6688210Y10385527D1*
X6685586Y10407695D1*
X6684710Y10430000D1*
X6685586Y10452305D1*
X6688210Y10474473D1*
X6692565Y10496366D1*
X6698624Y10517850D1*
X6706350Y10538793D1*
X6715696Y10559065D1*
X6726603Y10578541D1*
X6739005Y10597101D1*
X6752824Y10614632D1*
X6767977Y10631023D1*
X6784368Y10646176D1*
X6801899Y10659995D1*
X6820459Y10672397D1*
X6839935Y10683304D1*
X6860207Y10692650D1*
X6881150Y10700376D1*
X6902634Y10706435D1*
X6924527Y10710790D1*
X6946695Y10713414D1*
X6969000Y10714290D1*
X6991305Y10713414D1*
X7013473Y10710790D1*
X7035366Y10706435D1*
X7056850Y10700376D1*
X7077793Y10692650D1*
X7098065Y10683304D1*
X7117541Y10672397D1*
X7136101Y10659995D1*
X7153632Y10646176D1*
X7170023Y10631023D1*
X7185176Y10614632D1*
X7198995Y10597101D1*
X7211397Y10578541D1*
X7222304Y10559065D1*
X7231650Y10538793D1*
X7239376Y10517850D1*
X7245435Y10496366D1*
X7249790Y10474473D1*
X7252414Y10452305D1*
X7253290Y10430000D1*
X7252414Y10407695D1*
X9792414D2*
X9789790Y10385527D1*
X9785435Y10363634D1*
X9779376Y10342150D1*
X9771650Y10321207D1*
X9762304Y10300935D1*
X9751397Y10281459D1*
X9738995Y10262899D1*
X9725176Y10245368D1*
X9710023Y10228977D1*
X9693632Y10213824D1*
X9676101Y10200005D1*
X9657541Y10187603D1*
X9638065Y10176696D1*
X9617793Y10167350D1*
X9596850Y10159624D1*
X9575366Y10153565D1*
X9553473Y10149210D1*
X9531305Y10146586D1*
X9509000Y10145710D1*
X9486695Y10146586D1*
X9464527Y10149210D1*
X9442634Y10153565D1*
X9421150Y10159624D1*
X9400207Y10167350D1*
X9379935Y10176696D1*
X9360459Y10187603D1*
X9341899Y10200005D1*
X9324368Y10213824D1*
X9307977Y10228977D1*
X9292824Y10245368D1*
X9279005Y10262899D1*
X9266603Y10281459D1*
X9255696Y10300935D1*
X9246350Y10321207D1*
X9238624Y10342150D1*
X9232565Y10363634D1*
X9228210Y10385527D1*
X9225586Y10407695D1*
X9224710Y10430000D1*
X9225586Y10452305D1*
X9228210Y10474473D1*
X9232565Y10496366D1*
X9238624Y10517850D1*
X9246350Y10538793D1*
X9255696Y10559065D1*
X9266603Y10578541D1*
X9279005Y10597101D1*
X9292824Y10614632D1*
X9307977Y10631023D1*
X9324368Y10646176D1*
X9341899Y10659995D1*
X9360459Y10672397D1*
X9379935Y10683304D1*
X9400207Y10692650D1*
X9421150Y10700376D1*
X9442634Y10706435D1*
X9464527Y10710790D1*
X9486695Y10713414D1*
X9509000Y10714290D1*
X9531305Y10713414D1*
X9553473Y10710790D1*
X9575366Y10706435D1*
X9596850Y10700376D1*
X9617793Y10692650D1*
X9638065Y10683304D1*
X9657541Y10672397D1*
X9676101Y10659995D1*
X9693632Y10646176D1*
X9710023Y10631023D1*
X9725176Y10614632D1*
X9738995Y10597101D1*
X9751397Y10578541D1*
X9762304Y10559065D1*
X9771650Y10538793D1*
X9779376Y10517850D1*
X9785435Y10496366D1*
X9789790Y10474473D1*
X9792414Y10452305D1*
X9793290Y10430000D1*
X9792414Y10407695D1*
X12770864Y11338142D2*
X12789598Y11342574D1*
X12808173Y11344260D1*
X12826803Y11343357D1*
X12837222Y11341689D1*
X12837210Y11372279D1*
X12642252Y11567209D1*
X11328753Y11567210D1*
X11006824Y11245286D1*
X11006479Y8866092D1*
X11004005Y8850471D1*
X10999118Y8835429D1*
X10991938Y8821337D1*
X10982641Y8808542D1*
X10911273Y8736734D1*
X10641292Y8466754D1*
X10737227Y8466790D1*
X11059176Y8788714D1*
X11059520Y11167908D1*
X11061995Y11183529D1*
X11066882Y11198571D1*
X11074062Y11212663D1*
X11083359Y11225458D1*
X11154727Y11297266D1*
X11348542Y11490641D1*
X11361337Y11499938D1*
X11375429Y11507118D1*
X11390471Y11512005D1*
X11406092Y11514480D1*
X11507333Y11514790D1*
X12564908Y11514480D1*
X12580529Y11512005D1*
X12595571Y11507118D1*
X12609663Y11499938D1*
X12622458Y11490642D1*
X12694266Y11419273D1*
X12760642Y11352458D1*
X12769953Y11339636D1*
X14364414Y10788695D2*
X14361790Y10766527D1*
X14357435Y10744634D1*
X14351376Y10723150D1*
X14343650Y10702207D1*
X14334304Y10681935D1*
X14323397Y10662459D1*
X14310995Y10643899D1*
X14297176Y10626368D1*
X14282023Y10609977D1*
X14265632Y10594824D1*
X14248101Y10581005D1*
X14229541Y10568603D1*
X14210065Y10557696D1*
X14189793Y10548350D1*
X14168850Y10540624D1*
X14147366Y10534565D1*
X14125473Y10530210D1*
X14103305Y10527586D1*
X14081000Y10526710D1*
X14058695Y10527586D1*
X14036527Y10530210D1*
X14014634Y10534565D1*
X13993150Y10540624D1*
X13972207Y10548350D1*
X13951935Y10557696D1*
X13932459Y10568603D1*
X13913899Y10581005D1*
X13896368Y10594824D1*
X13879977Y10609977D1*
X13864824Y10626368D1*
X13851005Y10643899D1*
X13838603Y10662459D1*
X13827696Y10681935D1*
X13818350Y10702207D1*
X13810624Y10723150D1*
X13804565Y10744634D1*
X13800210Y10766527D1*
X13797586Y10788695D1*
X13796710Y10811000D1*
X13797586Y10833305D1*
X13800210Y10855473D1*
X13804565Y10877366D1*
X13810624Y10898850D1*
X13818350Y10919793D1*
X13827696Y10940065D1*
X13838603Y10959541D1*
X13851005Y10978101D1*
X13864824Y10995632D1*
X13879977Y11012023D1*
X13896368Y11027176D1*
X13913899Y11040995D1*
X13932459Y11053397D1*
X13951935Y11064304D1*
X13972207Y11073650D1*
X13993150Y11081376D1*
X14014634Y11087435D1*
X14036527Y11091790D1*
X14058695Y11094414D1*
X14081000Y11095290D1*
X14103305Y11094414D1*
X14125473Y11091790D1*
X14147366Y11087435D1*
X14168850Y11081376D1*
X14189793Y11073650D1*
X14210065Y11064304D1*
X14229541Y11053397D1*
X14248101Y11040995D1*
X14265632Y11027176D1*
X14282023Y11012023D1*
X14297176Y10995632D1*
X14310995Y10978101D1*
X14323397Y10959541D1*
X14334304Y10940065D1*
X14343650Y10919793D1*
X14351376Y10898850D1*
X14357435Y10877366D1*
X14361790Y10855473D1*
X14364414Y10833305D1*
X14365290Y10811000D1*
X14364414Y10788695D1*
X13546773Y6261700D2*
X13565511Y6264081D1*
X13584160Y6263825D1*
X13599222Y6261689D1*
X13599210Y7816237D1*
X13277286Y8138176D1*
X13181279Y8138210D1*
X13522642Y7796458D1*
X13531938Y7783663D1*
X13539118Y7769571D1*
X13544006Y7754529D1*
X13546480Y7738908D1*
X13546790Y7637667D1*
Y6261638D1*
X15126414Y6406695D2*
X15123790Y6384527D1*
X15119435Y6362634D1*
X15113376Y6341150D1*
X15105650Y6320207D1*
X15096304Y6299935D1*
X15085397Y6280459D1*
X15072995Y6261899D1*
X15059176Y6244368D1*
X15044023Y6227977D1*
X15027632Y6212824D1*
X15010101Y6199005D1*
X14991541Y6186603D1*
X14972065Y6175696D1*
X14951793Y6166350D1*
X14930850Y6158624D1*
X14909366Y6152565D1*
X14887473Y6148210D1*
X14865305Y6145586D1*
X14843000Y6144710D1*
X14820695Y6145586D1*
X14798527Y6148210D1*
X14776634Y6152565D1*
X14755150Y6158624D1*
X14734207Y6166350D1*
X14713935Y6175696D1*
X14694459Y6186603D1*
X14675899Y6199005D1*
X14658368Y6212824D1*
X14641977Y6227977D1*
X14626824Y6244368D1*
X14613005Y6261899D1*
X14600603Y6280459D1*
X14589696Y6299935D1*
X14580350Y6320207D1*
X14572624Y6341150D1*
X14566565Y6362634D1*
X14562210Y6384527D1*
X14559586Y6406695D1*
X14558710Y6429000D1*
X14559586Y6451305D1*
X14562210Y6473473D1*
X14566565Y6495366D1*
X14572624Y6516850D1*
X14580350Y6537793D1*
X14589696Y6558065D1*
X14600603Y6577541D1*
X14613005Y6596101D1*
X14626824Y6613632D1*
X14641977Y6630023D1*
X14658368Y6645176D1*
X14675899Y6658995D1*
X14694459Y6671397D1*
X14713935Y6682304D1*
X14734207Y6691650D1*
X14755150Y6699376D1*
X14776634Y6705435D1*
X14798527Y6709790D1*
X14820695Y6712414D1*
X14843000Y6713290D1*
X14865305Y6712414D1*
X14887473Y6709790D1*
X14909366Y6705435D1*
X14930850Y6699376D1*
X14951793Y6691650D1*
X14972065Y6682304D1*
X14991541Y6671397D1*
X15010101Y6658995D1*
X15027632Y6645176D1*
X15044023Y6630023D1*
X15059176Y6613632D1*
X15072995Y6596101D1*
X15085397Y6577541D1*
X15096304Y6558065D1*
X15105650Y6537793D1*
X15113376Y6516850D1*
X15119435Y6495366D1*
X15123790Y6473473D1*
X15126414Y6451305D1*
X15127290Y6429000D1*
X15126414Y6406695D1*
X12586414D2*
X12583790Y6384527D1*
X12579435Y6362634D1*
X12573376Y6341150D1*
X12565650Y6320207D1*
X12556304Y6299935D1*
X12545397Y6280459D1*
X12532995Y6261899D1*
X12519176Y6244368D1*
X12504023Y6227977D1*
X12487632Y6212824D1*
X12470101Y6199005D1*
X12451541Y6186603D1*
X12432065Y6175696D1*
X12411793Y6166350D1*
X12390850Y6158624D1*
X12369366Y6152565D1*
X12347473Y6148210D1*
X12325305Y6145586D1*
X12303000Y6144710D1*
X12280695Y6145586D1*
X12258527Y6148210D1*
X12236634Y6152565D1*
X12215150Y6158624D1*
X12194207Y6166350D1*
X12173935Y6175696D1*
X12154459Y6186603D1*
X12135899Y6199005D1*
X12118368Y6212824D1*
X12101977Y6227977D1*
X12086824Y6244368D1*
X12073005Y6261899D1*
X12060603Y6280459D1*
X12049696Y6299935D1*
X12040350Y6320207D1*
X12032624Y6341150D1*
X12026565Y6362634D1*
X12022210Y6384527D1*
X12019586Y6406695D1*
X12018710Y6429000D1*
X12019586Y6451305D1*
X12022210Y6473473D1*
X12026565Y6495366D1*
X12032624Y6516850D1*
X12040350Y6537793D1*
X12049696Y6558065D1*
X12060603Y6577541D1*
X12073005Y6596101D1*
X12086824Y6613632D1*
X12101977Y6630023D1*
X12118368Y6645176D1*
X12135899Y6658995D1*
X12154459Y6671397D1*
X12173935Y6682304D1*
X12194207Y6691650D1*
X12215150Y6699376D1*
X12236634Y6705435D1*
X12258527Y6709790D1*
X12280695Y6712414D1*
X12303000Y6713290D1*
X12325305Y6712414D1*
X12347473Y6709790D1*
X12369366Y6705435D1*
X12390850Y6699376D1*
X12411793Y6691650D1*
X12432065Y6682304D1*
X12451541Y6671397D1*
X12470101Y6658995D1*
X12487632Y6645176D1*
X12504023Y6630023D1*
X12519176Y6613632D1*
X12532995Y6596101D1*
X12545397Y6577541D1*
X12556304Y6558065D1*
X12565650Y6537793D1*
X12573376Y6516850D1*
X12579435Y6495366D1*
X12583790Y6473473D1*
X12586414Y6451305D1*
X12587290Y6429000D1*
X12586414Y6406695D1*
X8706864Y7528142D2*
X8725598Y7532574D1*
X8744173Y7534260D1*
X8762803Y7533357D1*
X8773222Y7531689D1*
X8773210Y7689336D1*
X8578252Y7884209D1*
X4597826Y7884210D1*
X4544709Y7831170D1*
X4579333Y7831790D1*
X8373908Y7831479D1*
X8389529Y7829005D1*
X8404571Y7824118D1*
X8418663Y7816938D1*
X8431458Y7807641D1*
X8503266Y7736273D1*
X8696641Y7542458D1*
X8705953Y7529636D1*
X7760414Y6978695D2*
X7757790Y6956527D1*
X7753435Y6934634D1*
X7747376Y6913150D1*
X7739650Y6892207D1*
X7730304Y6871935D1*
X7719397Y6852459D1*
X7706995Y6833899D1*
X7693176Y6816368D1*
X7678023Y6799977D1*
X7661632Y6784824D1*
X7644101Y6771005D1*
X7625541Y6758603D1*
X7606065Y6747696D1*
X7585793Y6738350D1*
X7564850Y6730624D1*
X7543366Y6724565D1*
X7521473Y6720210D1*
X7499305Y6717586D1*
X7477000Y6716710D1*
X7454695Y6717586D1*
X7432527Y6720210D1*
X7410634Y6724565D1*
X7389150Y6730624D1*
X7368207Y6738350D1*
X7347935Y6747696D1*
X7328459Y6758603D1*
X7309899Y6771005D1*
X7292368Y6784824D1*
X7275977Y6799977D1*
X7260824Y6816368D1*
X7247005Y6833899D1*
X7234603Y6852459D1*
X7223696Y6871935D1*
X7214350Y6892207D1*
X7206624Y6913150D1*
X7200565Y6934634D1*
X7196210Y6956527D1*
X7193586Y6978695D1*
X7192710Y7001000D1*
X7193586Y7023305D1*
X7196210Y7045473D1*
X7200565Y7067366D1*
X7206624Y7088850D1*
X7214350Y7109793D1*
X7223696Y7130065D1*
X7234603Y7149541D1*
X7247005Y7168101D1*
X7260824Y7185632D1*
X7275977Y7202023D1*
X7292368Y7217176D1*
X7309899Y7230995D1*
X7328459Y7243397D1*
X7347935Y7254304D1*
X7368207Y7263650D1*
X7389150Y7271376D1*
X7410634Y7277435D1*
X7432527Y7281790D1*
X7454695Y7284414D1*
X7477000Y7285290D1*
X7499305Y7284414D1*
X7521473Y7281790D1*
X7543366Y7277435D1*
X7564850Y7271376D1*
X7585793Y7263650D1*
X7606065Y7254304D1*
X7625541Y7243397D1*
X7644101Y7230995D1*
X7661632Y7217176D1*
X7678023Y7202023D1*
X7693176Y7185632D1*
X7706995Y7168101D1*
X7719397Y7149541D1*
X7730304Y7130065D1*
X7739650Y7109793D1*
X7747376Y7088850D1*
X7753435Y7067366D1*
X7757790Y7045473D1*
X7760414Y7023305D1*
X7761290Y7001000D1*
X7760414Y6978695D1*
X10300414D2*
X10297790Y6956527D1*
X10293435Y6934634D1*
X10287376Y6913150D1*
X10279650Y6892207D1*
X10270304Y6871935D1*
X10259397Y6852459D1*
X10246995Y6833899D1*
X10233176Y6816368D1*
X10218023Y6799977D1*
X10201632Y6784824D1*
X10184101Y6771005D1*
X10165541Y6758603D1*
X10146065Y6747696D1*
X10125793Y6738350D1*
X10104850Y6730624D1*
X10083366Y6724565D1*
X10061473Y6720210D1*
X10039305Y6717586D1*
X10017000Y6716710D1*
X9994695Y6717586D1*
X9972527Y6720210D1*
X9950634Y6724565D1*
X9929150Y6730624D1*
X9908207Y6738350D1*
X9887935Y6747696D1*
X9868459Y6758603D1*
X9849899Y6771005D1*
X9832368Y6784824D1*
X9815977Y6799977D1*
X9800824Y6816368D1*
X9787005Y6833899D1*
X9774603Y6852459D1*
X9763696Y6871935D1*
X9754350Y6892207D1*
X9746624Y6913150D1*
X9740565Y6934634D1*
X9736210Y6956527D1*
X9733586Y6978695D1*
X9732710Y7001000D1*
X9733586Y7023305D1*
X9736210Y7045473D1*
X9740565Y7067366D1*
X9746624Y7088850D1*
X9754350Y7109793D1*
X9763696Y7130065D1*
X9774603Y7149541D1*
X9787005Y7168101D1*
X9800824Y7185632D1*
X9815977Y7202023D1*
X9832368Y7217176D1*
X9849899Y7230995D1*
X9868459Y7243397D1*
X9887935Y7254304D1*
X9908207Y7263650D1*
X9929150Y7271376D1*
X9950634Y7277435D1*
X9972527Y7281790D1*
X9994695Y7284414D1*
X10017000Y7285290D1*
X10039305Y7284414D1*
X10061473Y7281790D1*
X10083366Y7277435D1*
X10104850Y7271376D1*
X10125793Y7263650D1*
X10146065Y7254304D1*
X10165541Y7243397D1*
X10184101Y7230995D1*
X10201632Y7217176D1*
X10218023Y7202023D1*
X10233176Y7185632D1*
X10246995Y7168101D1*
X10259397Y7149541D1*
X10270304Y7130065D1*
X10279650Y7109793D1*
X10287376Y7088850D1*
X10293435Y7067366D1*
X10297790Y7045473D1*
X10300414Y7023305D1*
X10301290Y7001000D1*
X10300414Y6978695D1*
X12459414Y2723695D2*
X12456790Y2701527D1*
X12452435Y2679634D1*
X12446376Y2658150D1*
X12438650Y2637207D1*
X12429304Y2616935D1*
X12418397Y2597459D1*
X12405995Y2578899D1*
X12392176Y2561368D1*
X12377023Y2544977D1*
X12360632Y2529824D1*
X12343101Y2516005D1*
X12324541Y2503603D1*
X12305065Y2492696D1*
X12284793Y2483350D1*
X12263850Y2475624D1*
X12242366Y2469565D1*
X12220473Y2465210D1*
X12198305Y2462586D1*
X12176000Y2461710D1*
X12153695Y2462586D1*
X12131527Y2465210D1*
X12109634Y2469565D1*
X12088150Y2475624D1*
X12067207Y2483350D1*
X12046935Y2492696D1*
X12027459Y2503603D1*
X12008899Y2516005D1*
X11991368Y2529824D1*
X11974977Y2544977D1*
X11959824Y2561368D1*
X11946005Y2578899D1*
X11933603Y2597459D1*
X11922696Y2616935D1*
X11913350Y2637207D1*
X11905624Y2658150D1*
X11899565Y2679634D1*
X11895210Y2701527D1*
X11892586Y2723695D1*
X11891710Y2746000D1*
X11892586Y2768305D1*
X11895210Y2790473D1*
X11899565Y2812366D1*
X11905624Y2833850D1*
X11913350Y2854793D1*
X11922696Y2875065D1*
X11933603Y2894541D1*
X11946005Y2913101D1*
X11959824Y2930632D1*
X11974977Y2947023D1*
X11991368Y2962176D1*
X12008899Y2975995D1*
X12027459Y2988397D1*
X12046935Y2999304D1*
X12067207Y3008650D1*
X12088150Y3016376D1*
X12109634Y3022435D1*
X12131527Y3026790D1*
X12153695Y3029414D1*
X12176000Y3030290D1*
X12198305Y3029414D1*
X12220473Y3026790D1*
X12242366Y3022435D1*
X12263850Y3016376D1*
X12284793Y3008650D1*
X12305065Y2999304D1*
X12324541Y2988397D1*
X12343101Y2975995D1*
X12360632Y2962176D1*
X12377023Y2947023D1*
X12392176Y2930632D1*
X12405995Y2913101D1*
X12418397Y2894541D1*
X12429304Y2875065D1*
X12438650Y2854793D1*
X12446376Y2833850D1*
X12452435Y2812366D1*
X12456790Y2790473D1*
X12459414Y2768305D1*
X12460290Y2746000D1*
X12459414Y2723695D1*
X9919414D2*
X9916790Y2701527D1*
X9912435Y2679634D1*
X9906376Y2658150D1*
X9898650Y2637207D1*
X9889304Y2616935D1*
X9878397Y2597459D1*
X9865995Y2578899D1*
X9852176Y2561368D1*
X9837023Y2544977D1*
X9820632Y2529824D1*
X9803101Y2516005D1*
X9784541Y2503603D1*
X9765065Y2492696D1*
X9744793Y2483350D1*
X9723850Y2475624D1*
X9702366Y2469565D1*
X9680473Y2465210D1*
X9658305Y2462586D1*
X9636000Y2461710D1*
X9613695Y2462586D1*
X9591527Y2465210D1*
X9569634Y2469565D1*
X9548150Y2475624D1*
X9527207Y2483350D1*
X9506935Y2492696D1*
X9487459Y2503603D1*
X9468899Y2516005D1*
X9451368Y2529824D1*
X9434977Y2544977D1*
X9419824Y2561368D1*
X9406005Y2578899D1*
X9393603Y2597459D1*
X9382696Y2616935D1*
X9373350Y2637207D1*
X9365624Y2658150D1*
X9359565Y2679634D1*
X9355210Y2701527D1*
X9352586Y2723695D1*
X9351710Y2746000D1*
X9352586Y2768305D1*
X9355210Y2790473D1*
X9359565Y2812366D1*
X9365624Y2833850D1*
X9373350Y2854793D1*
X9382696Y2875065D1*
X9393603Y2894541D1*
X9406005Y2913101D1*
X9419824Y2930632D1*
X9434977Y2947023D1*
X9451368Y2962176D1*
X9468899Y2975995D1*
X9487459Y2988397D1*
X9506935Y2999304D1*
X9527207Y3008650D1*
X9548150Y3016376D1*
X9569634Y3022435D1*
X9591527Y3026790D1*
X9613695Y3029414D1*
X9636000Y3030290D1*
X9658305Y3029414D1*
X9680473Y3026790D1*
X9702366Y3022435D1*
X9723850Y3016376D1*
X9744793Y3008650D1*
X9765065Y2999304D1*
X9784541Y2988397D1*
X9803101Y2975995D1*
X9820632Y2962176D1*
X9837023Y2947023D1*
X9852176Y2930632D1*
X9865995Y2913101D1*
X9878397Y2894541D1*
X9889304Y2875065D1*
X9898650Y2854793D1*
X9906376Y2833850D1*
X9912435Y2812366D1*
X9916790Y2790473D1*
X9919414Y2768305D1*
X9920290Y2746000D1*
X9919414Y2723695D1*
X1281810Y1281750D2*
X16718268D1*
X16718250Y12718242D1*
X1281732Y12718250D1*
X1281750Y1281758D1*
X5064000Y7477000D2*
D70*
Y7317801D1*
X5572000Y5953000D2*
Y5793801D1*
X7350000Y2688199D2*
Y2359801D1*
X7185801Y2524000D2*
X7514199D1*
X2594500Y3952500D2*
Y3783301D1*
Y3952500D2*
X2798699D1*
X2594500Y3317500D2*
Y3148301D1*
Y3317500D2*
X2798699D1*
X2594500Y2682500D2*
Y2513301D1*
Y2682500D2*
X2798699D1*
X3864500Y3952500D2*
Y3783300D1*
Y3952500D2*
X4068699D1*
X3864500Y3317500D2*
Y3148300D1*
Y3317500D2*
X4068699D1*
X3864500Y2682500D2*
Y2513301D1*
Y2682500D2*
X4068699D1*
X5134500Y3952500D2*
Y3783301D1*
Y3952500D2*
X5338699D1*
X6334000Y3876199D2*
Y3457801D1*
X6124801Y3667000D2*
X6543199D1*
X6461000Y2703199D2*
Y2524000D1*
X6281801D2*
X6640199D1*
X3667000Y10709199D2*
Y10340801D1*
X8239000Y10963199D2*
Y10594801D1*
X12811000Y11344199D2*
Y10975801D1*
X13573000Y6264199D2*
Y5895801D1*
X8747000Y7534199D2*
Y7165801D1*
X10906000Y2581199D2*
Y2212801D1*
D23*
X5826000Y7477000D3*
D24*
X5572000D3*
X5318000D3*
X5064000D3*
X4810000D3*
X4556000D3*
X4302000D3*
X4048000D3*
X3794000D3*
X3540000D3*
X3286000D3*
X3032000D3*
X2778000D3*
X2524000D3*
X2270000D3*
Y5953000D3*
X2524000D3*
X2778000D3*
X3032000D3*
X3286000D3*
X3540000D3*
X3794000D3*
X4048000D3*
X4302000D3*
X4556000D3*
X4810000D3*
X5064000D3*
X5318000D3*
X5572000D3*
X5826000D3*
D25*
X7350000Y2524000D3*
D26*
Y3032000D3*
D27*
X5762500Y4937000D3*
D28*
X6867500D3*
D29*
X3667000Y12303000D3*
D30*
Y11795000D3*
D29*
X8112000Y12303000D3*
D30*
Y11795000D3*
D29*
X13065000Y8747000D3*
D30*
Y9255000D3*
D29*
X14589000Y4556000D3*
D30*
Y4048000D3*
D29*
X10017000Y4810000D3*
D30*
Y5318000D3*
D29*
X13573000Y2270000D3*
D30*
Y1762000D3*
D31*
X2594500Y4206500D3*
D32*
Y3952500D3*
D31*
Y3571500D3*
D32*
Y3317500D3*
D31*
Y2936500D3*
D32*
Y2682500D3*
D31*
X3864500Y4206500D3*
D32*
Y3952500D3*
D31*
Y3571500D3*
D32*
Y3317500D3*
D31*
Y2936500D3*
D32*
Y2682500D3*
D31*
X5134500Y4206500D3*
D32*
Y3952500D3*
D29*
X5191000Y2524000D3*
D30*
Y3032000D3*
D29*
X6334000Y4175000D3*
D30*
Y3667000D3*
D33*
X6461000Y2016000D3*
D34*
Y2270000D3*
Y2524000D3*
D23*
X5064000Y4937000D3*
D24*
X4810000D3*
X4556000D3*
X4302000D3*
X4048000D3*
X3794000D3*
X3540000D3*
X3286000D3*
D35*
X4048000Y10525000D3*
X3921000D3*
X3794000D3*
X3667000D3*
X3540000D3*
X3413000D3*
X3286000D3*
D69*
X2397000Y10176000D3*
X4937000D3*
D35*
X8620000Y10779000D3*
X8493000D3*
X8366000D3*
X8239000D3*
X8112000D3*
X7985000D3*
X7858000D3*
D69*
X6969000Y10430000D3*
X9509000D3*
D35*
X13192000Y11160000D3*
X13065000D3*
X12938000D3*
X12811000D3*
X12684000D3*
X12557000D3*
X12430000D3*
D69*
X11541000Y10811000D3*
X14081000D3*
D35*
X13192000Y6080000D3*
X13319000D3*
X13446000D3*
X13573000D3*
X13700000D3*
X13827000D3*
X13954000D3*
D69*
X14843000Y6429000D3*
X12303000D3*
D35*
X9128000Y7350000D3*
X9001000D3*
X8874000D3*
X8747000D3*
X8620000D3*
X8493000D3*
X8366000D3*
D69*
X7477000Y7001000D3*
X10017000D3*
D35*
X10525000Y2397000D3*
X10652000D3*
X10779000D3*
X10906000D3*
X11033000D3*
X11160000D3*
X11287000D3*
D69*
X12176000Y2746000D3*
X9636000D3*
M02*
