M48
METRIC,0000.00
T01C0.7
T02C0.9
T03C1.1
T04C1.2
T05C1.3
T06C1.651
T07C2.8
%
T02
X+005826Y+007477
X+005572Y+007477
X+005318Y+007477
X+005064Y+007477
X+004810Y+007477
X+004556Y+007477
X+004302Y+007477
X+004048Y+007477
X+003794Y+007477
X+003540Y+007477
X+003286Y+007477
X+003032Y+007477
X+002778Y+007477
X+002524Y+007477
X+002270Y+007477
X+002270Y+005953
X+002524Y+005953
X+002778Y+005953
X+003032Y+005953
X+003286Y+005953
X+003540Y+005953
X+003794Y+005953
X+004048Y+005953
X+004302Y+005953
X+004556Y+005953
X+004810Y+005953
X+005064Y+005953
X+005318Y+005953
X+005572Y+005953
X+005826Y+005953
T06
X+006080Y+007477
X+006080Y+005953
X+002016Y+005953
X+002016Y+007477
T02
X+008239Y+002524
X+008239Y+003032
T04
X+005762Y+004937
X+006867Y+004937
X+007350Y+003032
X+007350Y+001927
T05
X+003667Y+012303
X+003667Y+011795
X+008112Y+012303
X+008112Y+011795
X+013065Y+008747
X+013065Y+009255
X+014589Y+004556
X+014589Y+004048
X+010017Y+004810
X+010017Y+005318
X+013573Y+002270
X+013573Y+001762
T03
X+002595Y+004206
X+002595Y+003952
X+002340Y+004206
X+002340Y+003952
X+002595Y+003571
X+002595Y+003317
X+002340Y+003571
X+002340Y+003317
X+002595Y+002936
X+002595Y+002682
X+002340Y+002936
X+002340Y+002682
X+003864Y+004206
X+003864Y+003952
X+003610Y+004206
X+003610Y+003952
X+003864Y+003571
X+003864Y+003317
X+003610Y+003571
X+003610Y+003317
X+003864Y+002936
X+003864Y+002682
X+003610Y+002936
X+003610Y+002682
X+005135Y+004206
X+005135Y+003952
X+004880Y+004206
X+004880Y+003952
T05
X+005191Y+002524
X+005191Y+003032
X+006334Y+004175
X+006334Y+003667
T03
X+006461Y+002016
X+006461Y+002270
X+006461Y+002524
T02
X+005064Y+004937
X+004810Y+004937
X+004556Y+004937
X+004302Y+004937
X+004048Y+004937
X+003794Y+004937
X+003540Y+004937
X+003286Y+004937
T01
X+004048Y+010525
X+003921Y+010525
X+003794Y+010525
X+003667Y+010525
X+003540Y+010525
X+003413Y+010525
X+003286Y+010525
T07
X+002397Y+010176
X+004937Y+010176
T01
X+008620Y+010779
X+008493Y+010779
X+008366Y+010779
X+008239Y+010779
X+008112Y+010779
X+007985Y+010779
X+007858Y+010779
T07
X+006969Y+010430
X+009509Y+010430
T01
X+013192Y+011160
X+013065Y+011160
X+012938Y+011160
X+012811Y+011160
X+012684Y+011160
X+012557Y+011160
X+012430Y+011160
T07
X+011541Y+010811
X+014081Y+010811
T01
X+013192Y+006080
X+013319Y+006080
X+013446Y+006080
X+013573Y+006080
X+013700Y+006080
X+013827Y+006080
X+013954Y+006080
T07
X+014843Y+006429
X+012303Y+006429
T01
X+009128Y+007350
X+009001Y+007350
X+008874Y+007350
X+008747Y+007350
X+008620Y+007350
X+008493Y+007350
X+008366Y+007350
T07
X+007477Y+007001
X+010017Y+007001
T01
X+010525Y+002397
X+010652Y+002397
X+010779Y+002397
X+010906Y+002397
X+011033Y+002397
X+011160Y+002397
X+011287Y+002397
T07
X+012176Y+002746
X+009636Y+002746
T00
M30
