%TF.GenerationSoftware,Novarm,DipTrace,3.2.0.1*%
%TF.CreationDate,2018-04-18T16:37:39+00:00*%
%FSLAX35Y35*%
%MOMM*%
%TF.FileFunction,Copper,L1,Top*%
%TF.Part,Single*%
%ADD69C,0.39216*%
%TA.AperFunction,Conductor*%
%ADD14C,1.0*%
%ADD15C,4.0*%
%ADD16C,1.27*%
%ADD17C,2.5*%
%TA.AperFunction,CopperBalancing*%
%ADD20C,0.635*%
%TA.AperFunction,Nonconductor*%
%ADD21C,0.2*%
%ADD22C,0.3*%
%TA.AperFunction,ComponentPad*%
%ADD23R,1.5X1.5*%
%ADD24O,1.5X3.0*%
%ADD25C,1.6*%
%ADD26R,1.6X1.6*%
%ADD27R,1.8X1.8*%
%ADD28C,1.8*%
%ADD29R,2.5X2.5*%
%ADD30C,2.5*%
%ADD31R,2.4X1.7*%
%ADD32O,2.4X1.7*%
%ADD33R,1.9X1.9*%
%ADD34C,1.9*%
%ADD35O,1.0X2.0*%
%ADD70C,4.0*%
G75*
G01*
%LPD*%
X12557000Y11160000D2*
D14*
Y10779000D1*
D15*
Y10271000D1*
X12303000Y10017000D1*
Y8874000D1*
X12049000Y8620000D1*
X7985000D1*
Y10398000D1*
D14*
Y10779000D1*
X11160000Y8620000D2*
D15*
X3667000D1*
X3413000Y8874000D1*
Y10144000D1*
D14*
Y10525000D1*
X6867500Y4937000D2*
D17*
X7350000D1*
Y4302000D1*
X8493000D1*
D15*
X11160000D1*
Y3032000D1*
D14*
Y2397000D1*
Y4302000D2*
D15*
Y8620000D1*
D17*
X8493000D1*
D15*
Y7731000D1*
D14*
Y7350000D1*
X6867500Y4937000D2*
D15*
X7350000D1*
Y4302000D1*
X13446000D1*
X13827000Y4683000D1*
Y5699000D1*
D14*
Y6080000D1*
X6334000Y4175000D2*
D15*
X7350000D1*
Y4302000D1*
X8493000Y7350000D2*
D14*
Y6969000D1*
D15*
Y4302000D1*
X7350000Y3032000D2*
D16*
Y4192370D1*
D17*
Y4302000D1*
X1288146Y12655083D2*
D20*
X16711904D1*
X1288146Y12591917D2*
X3351383D1*
X3982599D2*
X7796383D1*
X8427599D2*
X16397724D1*
X16671192D2*
X16711904D1*
X1288146Y12528750D2*
X3351383D1*
X3982599D2*
X7796383D1*
X8427599D2*
X16145068D1*
X1288146Y12465583D2*
X3351383D1*
X3982599D2*
X7796383D1*
X8427599D2*
X15936800D1*
X1288146Y12402417D2*
X3351383D1*
X3982599D2*
X7796383D1*
X8427599D2*
X15876188D1*
X1288146Y12339250D2*
X3351383D1*
X3982599D2*
X7796383D1*
X8427599D2*
X15852308D1*
X1288146Y12276083D2*
X3351383D1*
X3982599D2*
X7796383D1*
X8427599D2*
X15850758D1*
X16688601D2*
X16711878D1*
X1288146Y12212917D2*
X3351383D1*
X3982599D2*
X7796383D1*
X8427599D2*
X15870992D1*
X16638745D2*
X16711904D1*
X1288146Y12149750D2*
X3351383D1*
X3982599D2*
X7796383D1*
X8427599D2*
X15918206D1*
X16593536D2*
X16711904D1*
X1288146Y12086583D2*
X3351383D1*
X3982599D2*
X7796383D1*
X8427599D2*
X15968792D1*
X16552976D2*
X16711904D1*
X1288146Y12023417D2*
X3351383D1*
X3982599D2*
X4206696D1*
X4397221D2*
X7796383D1*
X8427599D2*
X8651696D1*
X8842221D2*
X16014000D1*
X16516245D2*
X16711904D1*
X1288146Y11960250D2*
X3399235D1*
X3934838D2*
X4115185D1*
X4488823D2*
X7844235D1*
X8379838D2*
X8560185D1*
X8933823D2*
X16045901D1*
X16506310D2*
X16711904D1*
X1288146Y11897083D2*
X3368701D1*
X3965281D2*
X4073258D1*
X4530750D2*
X7813701D1*
X8410281D2*
X8518258D1*
X8975750D2*
X16022750D1*
X16533836D2*
X16711904D1*
X1288146Y11833917D2*
X3353844D1*
X3980138D2*
X4054300D1*
X4549708D2*
X7798844D1*
X8425138D2*
X8499300D1*
X8994708D2*
X16001787D1*
X16558718D2*
X16711904D1*
X1288146Y11770750D2*
X3352295D1*
X3981687D2*
X4052021D1*
X4551987D2*
X7797295D1*
X8426687D2*
X8497021D1*
X8996987D2*
X15983011D1*
X16581232D2*
X16711904D1*
X1288146Y11707583D2*
X3363961D1*
X3970021D2*
X4066604D1*
X4537403D2*
X7808961D1*
X8415021D2*
X8511604D1*
X8982403D2*
X15966331D1*
X16601284D2*
X16711904D1*
X1288146Y11644417D2*
X3390485D1*
X3943497D2*
X4102151D1*
X4501857D2*
X7835485D1*
X8388497D2*
X8547151D1*
X8946857D2*
X15952021D1*
X16618692D2*
X16711904D1*
X1288146Y11581250D2*
X3437151D1*
X3896922D2*
X4176709D1*
X4427299D2*
X7882151D1*
X8341922D2*
X8621709D1*
X8872299D2*
X15939899D1*
X16633914D2*
X16711904D1*
X1288146Y11518083D2*
X3522920D1*
X3811153D2*
X7967920D1*
X8256153D2*
X15929690D1*
X16646857D2*
X16711904D1*
X1288146Y11454917D2*
X15921396D1*
X16657703D2*
X16711904D1*
X1288146Y11391750D2*
X12275836D1*
X13346192D2*
X15915016D1*
X16666453D2*
X16711904D1*
X1288146Y11328583D2*
X12221604D1*
X13400424D2*
X15910823D1*
X16673198D2*
X16711904D1*
X1288146Y11265417D2*
X12195992D1*
X13426036D2*
X15908727D1*
X16677846D2*
X16711904D1*
X1288146Y11202250D2*
X12189339D1*
X13432599D2*
X15538037D1*
X15770216D2*
X15908453D1*
X16680125D2*
X16711904D1*
X1288146Y11139083D2*
X11334573D1*
X11747495D2*
X12189339D1*
X13432599D2*
X13874534D1*
X14287455D2*
X15285380D1*
X15837664D2*
X15910003D1*
X16680307D2*
X16711904D1*
X1288146Y11075917D2*
X11256279D1*
X11825698D2*
X12191891D1*
X13430138D2*
X13796240D1*
X14365750D2*
X15059977D1*
X15864370D2*
X15913375D1*
X16678575D2*
X16711904D1*
X1288146Y11012750D2*
X7706331D1*
X8771674D2*
X11207607D1*
X11874461D2*
X12210485D1*
X13411544D2*
X13747568D1*
X14414422D2*
X14991800D1*
X15868107D2*
X15919117D1*
X16674838D2*
X16711904D1*
X1288146Y10949583D2*
X7650732D1*
X8827182D2*
X11176253D1*
X11905815D2*
X12206292D1*
X13369070D2*
X13716214D1*
X14445776D2*
X14964821D1*
X15850333D2*
X15926774D1*
X16669005D2*
X16711904D1*
X1288146Y10886417D2*
X7624482D1*
X8853523D2*
X11157841D1*
X11924135D2*
X12181683D1*
X13268354D2*
X13697802D1*
X14464187D2*
X14960810D1*
X15805672D2*
X15936344D1*
X16661166D2*
X16711904D1*
X1288146Y10823250D2*
X7617373D1*
X8860633D2*
X11150550D1*
X11931427D2*
X12168922D1*
X12945060D2*
X13690511D1*
X14471479D2*
X14978401D1*
X15755359D2*
X15947828D1*
X16650958D2*
X16711904D1*
X1288146Y10760083D2*
X3136005D1*
X4197976D2*
X6765888D1*
X7172156D2*
X7617373D1*
X8860633D2*
X9305849D1*
X9712117D2*
X11153740D1*
X11928237D2*
X12166370D1*
X12947612D2*
X13693792D1*
X14468289D2*
X15023063D1*
X15709695D2*
X15961318D1*
X16638471D2*
X16711904D1*
X1288146Y10696917D2*
X3079586D1*
X4254396D2*
X6686227D1*
X7251817D2*
X7619560D1*
X8858445D2*
X9226188D1*
X9791778D2*
X11167685D1*
X11914291D2*
X12166370D1*
X12947612D2*
X13707646D1*
X14454343D2*
X15074104D1*
X15668315D2*
X15977268D1*
X16623888D2*
X16711904D1*
X1288146Y10633750D2*
X3052880D1*
X4281192D2*
X6636826D1*
X7301218D2*
X7637607D1*
X8840398D2*
X9176787D1*
X9841179D2*
X11193662D1*
X11888315D2*
X12166370D1*
X12947612D2*
X13733714D1*
X14428276D2*
X15120133D1*
X15631218D2*
X15995407D1*
X16607117D2*
X16711904D1*
X1288146Y10570583D2*
X3045315D1*
X4288666D2*
X6605016D1*
X7333028D2*
X7635328D1*
X8798927D2*
X9144977D1*
X9872989D2*
X11234860D1*
X11847117D2*
X12166370D1*
X12947612D2*
X13774821D1*
X14387169D2*
X15159873D1*
X15613992D2*
X16015641D1*
X16588067D2*
X16711904D1*
X1288146Y10507417D2*
X2196110D1*
X2597911D2*
X3045315D1*
X4288666D2*
X4736162D1*
X5137872D2*
X6586240D1*
X7351804D2*
X7610263D1*
X8702495D2*
X9126201D1*
X9891765D2*
X11299026D1*
X11782950D2*
X12166370D1*
X12947612D2*
X13838987D1*
X14323002D2*
X15136357D1*
X15641791D2*
X16038154D1*
X16566648D2*
X16711904D1*
X1288146Y10444250D2*
X2115446D1*
X2678484D2*
X3047412D1*
X4286570D2*
X4655498D1*
X5218536D2*
X6578584D1*
X7359370D2*
X7597138D1*
X8372820D2*
X9118636D1*
X9899330D2*
X11419886D1*
X11662091D2*
X12166370D1*
X12947612D2*
X13959847D1*
X14202143D2*
X15115120D1*
X15667130D2*
X16062854D1*
X16542768D2*
X16711904D1*
X1288146Y10381083D2*
X2065680D1*
X2728341D2*
X3065003D1*
X4268979D2*
X4605641D1*
X5268302D2*
X6581500D1*
X7356544D2*
X7594404D1*
X8375646D2*
X9121461D1*
X9896505D2*
X12117242D1*
X12947612D2*
X15095979D1*
X15689825D2*
X16090016D1*
X16516245D2*
X16711904D1*
X1288146Y10317917D2*
X2033505D1*
X2760515D2*
X3064000D1*
X4228146D2*
X4573558D1*
X5300476D2*
X6595081D1*
X7342963D2*
X7594404D1*
X8375646D2*
X9135042D1*
X9882924D2*
X12054078D1*
X12947612D2*
X15079026D1*
X15710060D2*
X16120094D1*
X16486896D2*
X16711904D1*
X1288146Y10254750D2*
X2014547D1*
X2779474D2*
X3038662D1*
X4134265D2*
X4554508D1*
X5319526D2*
X6620602D1*
X7317351D2*
X7594404D1*
X8375646D2*
X9160654D1*
X9857312D2*
X11994742D1*
X12947338D2*
X15064716D1*
X15727742D2*
X16165849D1*
X16441140D2*
X16711904D1*
X1288146Y10191583D2*
X2006709D1*
X2787312D2*
X3025354D1*
X3800672D2*
X4546670D1*
X5327364D2*
X6661253D1*
X7276700D2*
X7594404D1*
X8375646D2*
X9201305D1*
X9816752D2*
X11954274D1*
X12939317D2*
X15052229D1*
X15743146D2*
X16711904D1*
X1288146Y10128417D2*
X2009352D1*
X2784669D2*
X3022347D1*
X3803679D2*
X4549313D1*
X5324721D2*
X6724508D1*
X7213536D2*
X7594404D1*
X8375646D2*
X9264469D1*
X9753497D2*
X11928844D1*
X12920177D2*
X15041748D1*
X15756453D2*
X16711904D1*
X1288146Y10065250D2*
X2022659D1*
X2771362D2*
X3022347D1*
X3803679D2*
X4562620D1*
X5311323D2*
X6841630D1*
X7096323D2*
X7594404D1*
X8375646D2*
X9381683D1*
X9636375D2*
X11915446D1*
X12887911D2*
X15033180D1*
X15767573D2*
X16711904D1*
X1288146Y10002083D2*
X2047998D1*
X2746023D2*
X3022347D1*
X3803679D2*
X4587959D1*
X5286075D2*
X7594404D1*
X8375646D2*
X11912347D1*
X12837872D2*
X15026526D1*
X15776596D2*
X16711904D1*
X1288146Y9938917D2*
X2088193D1*
X2705828D2*
X3022347D1*
X3803679D2*
X4628245D1*
X5245789D2*
X7594404D1*
X8375646D2*
X11912347D1*
X12774708D2*
X15022334D1*
X15783614D2*
X16326722D1*
X16519343D2*
X16711904D1*
X1288146Y9875750D2*
X2150810D1*
X2643211D2*
X3022347D1*
X3803679D2*
X4690771D1*
X5183172D2*
X7594404D1*
X8375646D2*
X11912347D1*
X12711544D2*
X15019964D1*
X15788354D2*
X16074065D1*
X16595086D2*
X16711904D1*
X1288146Y9812583D2*
X2265745D1*
X2528276D2*
X3022347D1*
X3803679D2*
X4805706D1*
X5068237D2*
X7594404D1*
X8375646D2*
X11912347D1*
X12693679D2*
X15019326D1*
X15790815D2*
X15835081D1*
X16624708D2*
X16711904D1*
X1288146Y9749417D2*
X3022347D1*
X3803679D2*
X7594404D1*
X8375646D2*
X11912347D1*
X12693679D2*
X15020602D1*
X16630633D2*
X16711904D1*
X1288146Y9686250D2*
X3022347D1*
X3803679D2*
X7594404D1*
X8375646D2*
X11912347D1*
X12693679D2*
X15023883D1*
X16615320D2*
X16711904D1*
X1288146Y9623083D2*
X3022347D1*
X3803679D2*
X7594404D1*
X8375646D2*
X11912347D1*
X12693679D2*
X15029443D1*
X16573211D2*
X16711904D1*
X1288146Y9559917D2*
X3022347D1*
X3803679D2*
X7594404D1*
X8375646D2*
X11912347D1*
X12693679D2*
X13006826D1*
X13123159D2*
X15036826D1*
X16522442D2*
X16711904D1*
X1288146Y9496750D2*
X3022347D1*
X3803679D2*
X7594404D1*
X8375646D2*
X11912347D1*
X12693679D2*
X12865732D1*
X13264252D2*
X13657242D1*
X13742768D2*
X15046123D1*
X16476414D2*
X16711904D1*
X1288146Y9433583D2*
X3022347D1*
X3803679D2*
X7594404D1*
X8375646D2*
X11912347D1*
X12693679D2*
X12806123D1*
X13323862D2*
X13526539D1*
X13873471D2*
X15057334D1*
X15763107D2*
X15830888D1*
X16434578D2*
X16711904D1*
X1288146Y9370417D2*
X3022347D1*
X3803679D2*
X7594404D1*
X8375646D2*
X11912347D1*
X12693679D2*
X12771670D1*
X13358315D2*
X13478050D1*
X13921961D2*
X15070732D1*
X15750984D2*
X15877464D1*
X16396843D2*
X16711904D1*
X1288146Y9307250D2*
X3022347D1*
X3803679D2*
X7594404D1*
X8375646D2*
X11912347D1*
X12693679D2*
X12753805D1*
X13376179D2*
X13454443D1*
X13945567D2*
X15086409D1*
X15736674D2*
X15919026D1*
X16372963D2*
X16711904D1*
X1288146Y9244083D2*
X3022347D1*
X3803679D2*
X7594404D1*
X8375646D2*
X11912347D1*
X12693679D2*
X12749521D1*
X13380463D2*
X13448701D1*
X13951310D2*
X15104274D1*
X15720268D2*
X15900706D1*
X16401127D2*
X16711904D1*
X1288146Y9180917D2*
X3022347D1*
X3803679D2*
X7594404D1*
X8375646D2*
X11912347D1*
X12693679D2*
X12758362D1*
X13371622D2*
X13459821D1*
X13940099D2*
X15124143D1*
X15701492D2*
X15879104D1*
X16426648D2*
X16711904D1*
X1288146Y9117750D2*
X3022347D1*
X3803679D2*
X7594404D1*
X8375646D2*
X11912347D1*
X12693679D2*
X12781513D1*
X13348562D2*
X13490446D1*
X13909565D2*
X15146292D1*
X15680346D2*
X15859782D1*
X16449617D2*
X16711904D1*
X1288146Y9054583D2*
X3022347D1*
X3803679D2*
X7594404D1*
X8375646D2*
X11912347D1*
X12693679D2*
X12749339D1*
X13380646D2*
X13552334D1*
X13847677D2*
X15170719D1*
X15656739D2*
X15842828D1*
X16469851D2*
X16711904D1*
X1288146Y8991417D2*
X3022347D1*
X12693679D2*
X12749339D1*
X13380646D2*
X15197789D1*
X15630398D2*
X15828154D1*
X16487898D2*
X16711904D1*
X1288146Y8928250D2*
X3022347D1*
X12693679D2*
X12749339D1*
X13380646D2*
X15227594D1*
X15601323D2*
X15815485D1*
X16503575D2*
X16711904D1*
X1288146Y8865083D2*
X3022438D1*
X12693497D2*
X12749339D1*
X13380646D2*
X15269339D1*
X15559669D2*
X15804729D1*
X16517156D2*
X16711904D1*
X1288146Y8801917D2*
X3029183D1*
X12686843D2*
X12749339D1*
X13380646D2*
X15795888D1*
X16528549D2*
X16711904D1*
X1288146Y8738750D2*
X3046956D1*
X12669070D2*
X12749339D1*
X13380646D2*
X15789235D1*
X16537846D2*
X16711904D1*
X1288146Y8675583D2*
X3077581D1*
X12638445D2*
X12749339D1*
X13380646D2*
X15784768D1*
X16545047D2*
X16711904D1*
X1288146Y8612417D2*
X3125159D1*
X12590867D2*
X12749339D1*
X13380646D2*
X15782125D1*
X16549786D2*
X16711904D1*
X1288146Y8549250D2*
X3187959D1*
X12528067D2*
X12749339D1*
X13380646D2*
X15781305D1*
X16552612D2*
X16711904D1*
X1288146Y8486083D2*
X3251123D1*
X12464903D2*
X12749339D1*
X13380646D2*
X15782216D1*
X16553341D2*
X16711904D1*
X1288146Y8422917D2*
X3314287D1*
X12401739D2*
X15785498D1*
X16552156D2*
X16711904D1*
X1288146Y8359750D2*
X3377451D1*
X12338575D2*
X15790784D1*
X16548966D2*
X16711904D1*
X1288146Y8296583D2*
X3453102D1*
X12262924D2*
X15797985D1*
X16543679D2*
X16711904D1*
X1288146Y8233417D2*
X8102360D1*
X8883601D2*
X10769378D1*
X11550620D2*
X15807008D1*
X16536023D2*
X16711904D1*
X1288146Y8170250D2*
X8102360D1*
X8883601D2*
X10769378D1*
X11550620D2*
X15817854D1*
X16526179D2*
X16711904D1*
X1288146Y8107083D2*
X8102360D1*
X8883601D2*
X10769378D1*
X11550620D2*
X15831253D1*
X16514330D2*
X16711904D1*
X1288146Y8043917D2*
X8102360D1*
X8883601D2*
X10769378D1*
X11550620D2*
X15846748D1*
X16500294D2*
X16711904D1*
X1288146Y7980750D2*
X8102360D1*
X8883601D2*
X10769378D1*
X11550620D2*
X15864248D1*
X16484161D2*
X16711904D1*
X1288146Y7917583D2*
X8102360D1*
X8883601D2*
X10769378D1*
X11550620D2*
X15883935D1*
X16465659D2*
X16711904D1*
X1288146Y7854417D2*
X8102360D1*
X8883601D2*
X10769378D1*
X11550620D2*
X15905719D1*
X16444786D2*
X16711904D1*
X1288146Y7791250D2*
X2163662D1*
X2376336D2*
X2417685D1*
X2630268D2*
X2671709D1*
X2884291D2*
X2925732D1*
X3138315D2*
X3179664D1*
X3392338D2*
X3433688D1*
X3646271D2*
X3687711D1*
X3900294D2*
X3941735D1*
X4154317D2*
X4195667D1*
X4408341D2*
X4449690D1*
X4662273D2*
X4703714D1*
X4916297D2*
X4957737D1*
X5170320D2*
X5211670D1*
X5424343D2*
X5465693D1*
X5678276D2*
X8102360D1*
X8883601D2*
X10769378D1*
X11550620D2*
X15929964D1*
X16421271D2*
X16711904D1*
X1288146Y7728083D2*
X1919300D1*
X6176661D2*
X8102360D1*
X8883601D2*
X10769378D1*
X11550620D2*
X15956943D1*
X16395203D2*
X16711904D1*
X1288146Y7664917D2*
X1820224D1*
X6275828D2*
X8108102D1*
X8877950D2*
X10769378D1*
X11550620D2*
X15986474D1*
X16366401D2*
X16711904D1*
X1288146Y7601750D2*
X1773740D1*
X6322221D2*
X8124782D1*
X9253471D2*
X10769378D1*
X11550620D2*
X16025120D1*
X16327937D2*
X16711904D1*
X1288146Y7538583D2*
X1750042D1*
X6346010D2*
X8154039D1*
X9323289D2*
X10769378D1*
X11550620D2*
X16143245D1*
X16209812D2*
X16711904D1*
X1288146Y7475417D2*
X1742841D1*
X6353211D2*
X8137815D1*
X9356192D2*
X10769378D1*
X11550620D2*
X16711904D1*
X1288146Y7412250D2*
X1750771D1*
X6345190D2*
X8125693D1*
X9368315D2*
X10769378D1*
X11550620D2*
X16711904D1*
X1288146Y7349083D2*
X1775472D1*
X6320489D2*
X7307841D1*
X7646205D2*
X8125328D1*
X9368679D2*
X9847802D1*
X10186166D2*
X10769378D1*
X11550620D2*
X16711904D1*
X1288146Y7285917D2*
X1823414D1*
X6272638D2*
X7212776D1*
X7741271D2*
X8125784D1*
X9368224D2*
X9752737D1*
X10281232D2*
X10769378D1*
X11550620D2*
X16055654D1*
X1288146Y7222750D2*
X1928688D1*
X6167364D2*
X7156813D1*
X7797234D2*
X8138453D1*
X9355554D2*
X9696774D1*
X10337195D2*
X10769378D1*
X11550620D2*
X16055654D1*
X1288146Y7159583D2*
X2171683D1*
X2368315D2*
X2425615D1*
X2622338D2*
X2679638D1*
X2876362D2*
X2933662D1*
X3130385D2*
X3187685D1*
X3384317D2*
X3441617D1*
X3638341D2*
X3695641D1*
X3892364D2*
X3949664D1*
X4146388D2*
X4203597D1*
X4400320D2*
X4457620D1*
X4654343D2*
X4711643D1*
X4908367D2*
X4965667D1*
X5162390D2*
X5219599D1*
X5416323D2*
X5473623D1*
X5670346D2*
X7120628D1*
X7833419D2*
X8152946D1*
X9321922D2*
X9660589D1*
X10373380D2*
X10769378D1*
X11550620D2*
X16055654D1*
X1288146Y7096417D2*
X7098388D1*
X7855567D2*
X8124143D1*
X9250281D2*
X9638349D1*
X10395620D2*
X10769378D1*
X11550620D2*
X16055654D1*
X1288146Y7033250D2*
X7087724D1*
X7866323D2*
X8107737D1*
X8878224D2*
X9627685D1*
X10406284D2*
X10769378D1*
X11550620D2*
X16055654D1*
X1288146Y6970083D2*
X7087633D1*
X7866414D2*
X8102360D1*
X8883601D2*
X9627594D1*
X10406375D2*
X10769378D1*
X11550620D2*
X16055654D1*
X1288146Y6906917D2*
X7098024D1*
X7855932D2*
X8102360D1*
X8883601D2*
X9638076D1*
X10395984D2*
X10769378D1*
X11550620D2*
X16055654D1*
X1288146Y6843750D2*
X7119990D1*
X7833966D2*
X8102360D1*
X8883601D2*
X9660042D1*
X10374018D2*
X10769378D1*
X11550620D2*
X16055654D1*
X1288146Y6780583D2*
X7155901D1*
X7798146D2*
X8102360D1*
X8883601D2*
X9695862D1*
X10338107D2*
X10769378D1*
X11550620D2*
X12141487D1*
X12464448D2*
X14681539D1*
X15004500D2*
X16055654D1*
X1288146Y6717417D2*
X7211318D1*
X7742729D2*
X8102360D1*
X8883601D2*
X9751279D1*
X10282690D2*
X10769378D1*
X11550620D2*
X12042685D1*
X12563341D2*
X14582737D1*
X15103302D2*
X16055654D1*
X1288146Y6654250D2*
X7305016D1*
X7649031D2*
X8102360D1*
X8883601D2*
X9844977D1*
X10188992D2*
X10769378D1*
X11550620D2*
X11985263D1*
X12620672D2*
X14525315D1*
X15160724D2*
X16055654D1*
X1288146Y6591083D2*
X8102360D1*
X8883601D2*
X10769378D1*
X11550620D2*
X11948258D1*
X12657768D2*
X14488219D1*
X15197820D2*
X16055654D1*
X1288146Y6527917D2*
X8102360D1*
X8883601D2*
X10769378D1*
X11550620D2*
X11925289D1*
X12680737D2*
X14465341D1*
X15220698D2*
X16055654D1*
X1288146Y6464750D2*
X8102360D1*
X8883601D2*
X10769378D1*
X11550620D2*
X11913987D1*
X12691948D2*
X14454039D1*
X15232000D2*
X16055654D1*
X1288146Y6401583D2*
X8102360D1*
X8883601D2*
X10769378D1*
X11550620D2*
X11913349D1*
X12692677D2*
X14453310D1*
X15232638D2*
X16055654D1*
X1288146Y6338417D2*
X8102360D1*
X8883601D2*
X10769378D1*
X11550620D2*
X11923193D1*
X12682833D2*
X13078649D1*
X14067338D2*
X14463154D1*
X15222794D2*
X16055654D1*
X1288146Y6275250D2*
X2185537D1*
X2354461D2*
X2439560D1*
X2608484D2*
X2693584D1*
X2862416D2*
X2947516D1*
X3116440D2*
X3201539D1*
X3370463D2*
X3455563D1*
X3624487D2*
X3709586D1*
X3878419D2*
X3963518D1*
X4132442D2*
X4217542D1*
X4386466D2*
X4471565D1*
X4640489D2*
X4725589D1*
X4894422D2*
X4979521D1*
X5148445D2*
X5233545D1*
X5402468D2*
X5487568D1*
X5656401D2*
X5741591D1*
X5910424D2*
X8102360D1*
X8883601D2*
X10769378D1*
X11550620D2*
X11944430D1*
X12661505D2*
X13001813D1*
X14144174D2*
X14484482D1*
X15201557D2*
X16055654D1*
X1288146Y6212083D2*
X1945823D1*
X6150229D2*
X8102360D1*
X8883601D2*
X10769378D1*
X11550620D2*
X11979430D1*
X12626596D2*
X12966175D1*
X14179812D2*
X14519391D1*
X15166557D2*
X16055654D1*
X1288146Y6148917D2*
X1828518D1*
X6267534D2*
X8102360D1*
X8883601D2*
X10769378D1*
X11550620D2*
X12033571D1*
X12572455D2*
X12952138D1*
X14193849D2*
X14573532D1*
X15112508D2*
X16055654D1*
X1288146Y6085750D2*
X1778206D1*
X6317846D2*
X8102360D1*
X8883601D2*
X10769378D1*
X11550620D2*
X12123896D1*
X12482130D2*
X12951318D1*
X14194669D2*
X14663857D1*
X15022182D2*
X16055654D1*
X1288146Y6022583D2*
X1752047D1*
X6343914D2*
X8102360D1*
X8883601D2*
X10769378D1*
X11550620D2*
X12951500D1*
X14194487D2*
X16055654D1*
X1288146Y5959417D2*
X1742933D1*
X6353120D2*
X8102360D1*
X8883601D2*
X10769378D1*
X11550620D2*
X12962255D1*
X14183732D2*
X16055654D1*
X1288146Y5896250D2*
X1748948D1*
X6347104D2*
X8102360D1*
X8883601D2*
X10769378D1*
X11550620D2*
X12993245D1*
X14163133D2*
X16055654D1*
X1288146Y5833083D2*
X1771279D1*
X6324682D2*
X8102360D1*
X8883601D2*
X10769378D1*
X11550620D2*
X13058688D1*
X14193484D2*
X16055654D1*
X1288146Y5769917D2*
X1815485D1*
X6280476D2*
X8102360D1*
X8883601D2*
X10769378D1*
X11550620D2*
X13442959D1*
X14211075D2*
X16055654D1*
X1288146Y5706750D2*
X1906904D1*
X6189148D2*
X8102360D1*
X8883601D2*
X10769378D1*
X11550620D2*
X13436396D1*
X14217547D2*
X16055654D1*
X1288146Y5643583D2*
X2152815D1*
X2387182D2*
X2406893D1*
X2641205D2*
X2660862D1*
X2895138D2*
X2914795D1*
X3149161D2*
X3168818D1*
X3403185D2*
X3422841D1*
X3657208D2*
X3676795D1*
X3911140D2*
X3930852D1*
X4165164D2*
X4184873D1*
X4419187D2*
X4438914D1*
X4673211D2*
X4692863D1*
X4927143D2*
X4946800D1*
X5181166D2*
X5200823D1*
X5435190D2*
X5454847D1*
X5689122D2*
X5708870D1*
X5943146D2*
X8102360D1*
X8883601D2*
X10769378D1*
X11550620D2*
X13436396D1*
X14217638D2*
X16055654D1*
X1288146Y5580417D2*
X8102360D1*
X8883601D2*
X9846982D1*
X10187078D2*
X10769378D1*
X11550620D2*
X13436396D1*
X14217638D2*
X16055654D1*
X1288146Y5517250D2*
X8102360D1*
X8883601D2*
X9774065D1*
X10259903D2*
X10502685D1*
X11550620D2*
X13436396D1*
X14217638D2*
X16055654D1*
X1288146Y5454083D2*
X8102360D1*
X8883601D2*
X9732867D1*
X10301101D2*
X10441709D1*
X11550620D2*
X13436396D1*
X14217638D2*
X16055654D1*
X1288146Y5390917D2*
X8102360D1*
X8883601D2*
X9710081D1*
X10323888D2*
X10411539D1*
X11550620D2*
X13436396D1*
X14217638D2*
X16055654D1*
X1288146Y5327750D2*
X8102360D1*
X8883601D2*
X9701513D1*
X10332455D2*
X10400693D1*
X11550620D2*
X13436396D1*
X14217638D2*
X16055654D1*
X1288146Y5264583D2*
X3221045D1*
X3350958D2*
X3475068D1*
X3604982D2*
X3729091D1*
X3858914D2*
X3983024D1*
X4112937D2*
X4237047D1*
X4366961D2*
X4491071D1*
X4620984D2*
X4745094D1*
X4874916D2*
X6660250D1*
X7557247D2*
X8102360D1*
X8883601D2*
X9705979D1*
X10327989D2*
X10406709D1*
X11550620D2*
X13436396D1*
X14217638D2*
X16055654D1*
X1288146Y5201417D2*
X3102555D1*
X4993406D2*
X5481826D1*
X6043133D2*
X6582321D1*
X7635177D2*
X8102360D1*
X8883601D2*
X9724209D1*
X10309851D2*
X10430680D1*
X11550620D2*
X13436396D1*
X14217638D2*
X16055654D1*
X1288146Y5138250D2*
X3053154D1*
X5329643D2*
X5481826D1*
X6043133D2*
X6533740D1*
X7683758D2*
X8102360D1*
X8883601D2*
X9758935D1*
X10275034D2*
X10479625D1*
X11550620D2*
X13436396D1*
X14217638D2*
X16055654D1*
X1288146Y5075083D2*
X3028180D1*
X5329643D2*
X5481826D1*
X6043133D2*
X6502568D1*
X7714929D2*
X8102360D1*
X8883601D2*
X9701331D1*
X10332638D2*
X10616617D1*
X10687377D2*
X10769378D1*
X11550620D2*
X13436396D1*
X14217638D2*
X16055654D1*
X1288146Y5011917D2*
X3020341D1*
X5329643D2*
X5481826D1*
X6043133D2*
X6484248D1*
X7733250D2*
X8102360D1*
X8883601D2*
X9701331D1*
X10332638D2*
X10769378D1*
X11550620D2*
X13436396D1*
X14217638D2*
X16055654D1*
X1288146Y4948750D2*
X3020341D1*
X5329643D2*
X5481826D1*
X6043133D2*
X6477047D1*
X7740450D2*
X8102360D1*
X8883601D2*
X9701331D1*
X10332638D2*
X10769378D1*
X11550620D2*
X13436396D1*
X14217638D2*
X16055654D1*
X1288146Y4885583D2*
X3020341D1*
X5329643D2*
X5481826D1*
X6043133D2*
X6480328D1*
X7740633D2*
X8102360D1*
X8883601D2*
X9701331D1*
X10332638D2*
X10769378D1*
X11550620D2*
X13436396D1*
X14217638D2*
X16055654D1*
X1288146Y4822417D2*
X3023440D1*
X5329643D2*
X5481826D1*
X6043133D2*
X6494365D1*
X7740633D2*
X8102360D1*
X8883601D2*
X9701331D1*
X10332638D2*
X10769378D1*
X11550620D2*
X13416617D1*
X14217638D2*
X14273388D1*
X14904604D2*
X16055654D1*
X1288146Y4759250D2*
X3041578D1*
X5329643D2*
X5481826D1*
X6043133D2*
X6520433D1*
X7740633D2*
X8102360D1*
X8883601D2*
X9701331D1*
X10332638D2*
X10769378D1*
X11550620D2*
X13353453D1*
X14217638D2*
X14273388D1*
X14904604D2*
X16055654D1*
X1288146Y4696083D2*
X3080407D1*
X5329643D2*
X5481826D1*
X6043133D2*
X6561722D1*
X7740633D2*
X8102360D1*
X8883601D2*
X9701331D1*
X10332638D2*
X10769378D1*
X11550620D2*
X13290289D1*
X14217638D2*
X14273388D1*
X14904604D2*
X16055654D1*
X1288146Y4632917D2*
X3158154D1*
X4937807D2*
X6626162D1*
X14214357D2*
X14273388D1*
X14904604D2*
X16055654D1*
X1288146Y4569750D2*
X6748024D1*
X14200593D2*
X14273388D1*
X14904604D2*
X16055654D1*
X1288146Y4506583D2*
X6133427D1*
X14174708D2*
X14273388D1*
X14904604D2*
X16055654D1*
X1288146Y4443417D2*
X2283883D1*
X2905164D2*
X3553818D1*
X4175099D2*
X4823844D1*
X5445125D2*
X6018401D1*
X14133784D2*
X14273388D1*
X14904604D2*
X16055654D1*
X1288146Y4380250D2*
X2169586D1*
X2905164D2*
X3439612D1*
X4175099D2*
X4709638D1*
X5445125D2*
X5685628D1*
X5966388D2*
X6002724D1*
X14074083D2*
X14273388D1*
X14904604D2*
X16055654D1*
X1288146Y4317083D2*
X2121917D1*
X2905164D2*
X3391943D1*
X4175099D2*
X4661969D1*
X5445125D2*
X5619729D1*
X14010919D2*
X14273388D1*
X14904604D2*
X16055654D1*
X1288146Y4253917D2*
X2099586D1*
X2905164D2*
X3369612D1*
X4175099D2*
X4639638D1*
X5445125D2*
X5587464D1*
X13947755D2*
X14273388D1*
X14904604D2*
X15084677D1*
X15363341D2*
X16055654D1*
X1288146Y4190750D2*
X2095393D1*
X2905164D2*
X3365420D1*
X4175099D2*
X4635354D1*
X5445125D2*
X5575068D1*
X13884591D2*
X14308297D1*
X14869695D2*
X15018232D1*
X15429786D2*
X16055654D1*
X1288146Y4127583D2*
X2108245D1*
X2905164D2*
X3378271D1*
X4175099D2*
X4648206D1*
X5445125D2*
X5579625D1*
X13821427D2*
X14283779D1*
X14894213D2*
X14985693D1*
X15462325D2*
X16055654D1*
X1288146Y4064417D2*
X2122646D1*
X2905164D2*
X3392672D1*
X4175099D2*
X4662607D1*
X5445125D2*
X5601591D1*
X13758263D2*
X14273753D1*
X14904239D2*
X14973115D1*
X15474812D2*
X16055654D1*
X1288146Y4001250D2*
X2099860D1*
X2905164D2*
X3369886D1*
X4175099D2*
X4639912D1*
X5445125D2*
X5647711D1*
X13691544D2*
X14276943D1*
X14901049D2*
X14977581D1*
X15470437D2*
X16055654D1*
X1288146Y3938083D2*
X2095302D1*
X2905164D2*
X3365328D1*
X4175099D2*
X4635263D1*
X5445125D2*
X5756722D1*
X5895203D2*
X6018401D1*
X13575789D2*
X14293532D1*
X14884461D2*
X14999274D1*
X15448745D2*
X16055654D1*
X1288146Y3874917D2*
X2107789D1*
X2893679D2*
X3377815D1*
X4163705D2*
X4647750D1*
X5433732D2*
X6018401D1*
X7604096D2*
X10769378D1*
X11550620D2*
X14326344D1*
X14851648D2*
X15045029D1*
X15402989D2*
X16055654D1*
X1288146Y3811750D2*
X2140602D1*
X2905164D2*
X3410628D1*
X4175099D2*
X4680654D1*
X5405385D2*
X6054313D1*
X7604096D2*
X10769378D1*
X11550620D2*
X14383037D1*
X14794955D2*
X15152125D1*
X15295893D2*
X16055654D1*
X1288146Y3748583D2*
X2173232D1*
X2905164D2*
X3443167D1*
X4175099D2*
X4748922D1*
X5351700D2*
X6029339D1*
X6638679D2*
X7095836D1*
X7604096D2*
X10769378D1*
X11550620D2*
X14505081D1*
X14672911D2*
X16055654D1*
X1288146Y3685417D2*
X2123740D1*
X2905164D2*
X3393675D1*
X4175099D2*
X5058727D1*
X5210242D2*
X6018948D1*
X6649070D2*
X7095836D1*
X7604096D2*
X10769378D1*
X11550620D2*
X16055654D1*
X1288146Y3622250D2*
X2100315D1*
X2905164D2*
X3370341D1*
X4175099D2*
X6021591D1*
X6646427D2*
X7095836D1*
X7604096D2*
X10769378D1*
X11550620D2*
X16055654D1*
X1288146Y3559083D2*
X2095211D1*
X2905164D2*
X3365146D1*
X4175099D2*
X6037815D1*
X6630203D2*
X7095836D1*
X7604096D2*
X10769378D1*
X11550620D2*
X16055654D1*
X1288146Y3495917D2*
X2107151D1*
X2905164D2*
X3377086D1*
X4175099D2*
X6069990D1*
X6598028D2*
X7095836D1*
X7604096D2*
X10769378D1*
X11550620D2*
X16055654D1*
X1288146Y3432750D2*
X2124469D1*
X2905164D2*
X3394404D1*
X4175099D2*
X6125680D1*
X6542338D2*
X7095836D1*
X7604096D2*
X10769378D1*
X11550620D2*
X16055654D1*
X1288146Y3369583D2*
X2100589D1*
X2905164D2*
X3370615D1*
X4175099D2*
X6242802D1*
X6425216D2*
X7095836D1*
X7604096D2*
X10769378D1*
X11550620D2*
X16055654D1*
X1288146Y3306417D2*
X2095120D1*
X2905164D2*
X3365146D1*
X4175099D2*
X5041956D1*
X5340034D2*
X7095836D1*
X7604096D2*
X10769378D1*
X11550620D2*
X16055654D1*
X1288146Y3243250D2*
X2106696D1*
X2894682D2*
X3376630D1*
X4164708D2*
X4552867D1*
X4813120D2*
X4958740D1*
X5423250D2*
X7069404D1*
X7630620D2*
X7968375D1*
X8509630D2*
X10769378D1*
X11550620D2*
X16055654D1*
X1288146Y3180083D2*
X2138232D1*
X2905164D2*
X3408258D1*
X4175099D2*
X4481136D1*
X4884851D2*
X4913119D1*
X5468914D2*
X7069404D1*
X7630620D2*
X7968375D1*
X8509630D2*
X10769378D1*
X11550620D2*
X16055654D1*
X1288146Y3116917D2*
X2176969D1*
X2905164D2*
X3446995D1*
X4175099D2*
X4446683D1*
X5494799D2*
X7069404D1*
X7630620D2*
X7968375D1*
X8509630D2*
X9529157D1*
X9742833D2*
X10769378D1*
X11550620D2*
X12069117D1*
X12282885D2*
X16055654D1*
X1288146Y3053750D2*
X2125563D1*
X2905164D2*
X3395589D1*
X4175099D2*
X4432737D1*
X5505919D2*
X7069404D1*
X7630620D2*
X7968375D1*
X8509630D2*
X9399456D1*
X9872534D2*
X10769378D1*
X11550620D2*
X11939508D1*
X12412495D2*
X16055654D1*
X1288146Y2990583D2*
X2101045D1*
X2905164D2*
X3371071D1*
X4175099D2*
X4435654D1*
X5503823D2*
X7069404D1*
X7630620D2*
X7968375D1*
X8509630D2*
X9333284D1*
X9938797D2*
X10771565D1*
X11548432D2*
X11873245D1*
X12478758D2*
X16055654D1*
X1288146Y2927417D2*
X2095029D1*
X2905164D2*
X3365055D1*
X4175099D2*
X4455524D1*
X5488419D2*
X7069404D1*
X7630620D2*
X7968375D1*
X8509630D2*
X9290901D1*
X9981088D2*
X10783870D1*
X11536127D2*
X11830862D1*
X12521140D2*
X16055654D1*
X1288146Y2864250D2*
X2106058D1*
X2905164D2*
X3375992D1*
X4175099D2*
X4498636D1*
X4867351D2*
X4924834D1*
X5457156D2*
X7069404D1*
X7630620D2*
X7968375D1*
X8509630D2*
X9264013D1*
X10007976D2*
X10807933D1*
X11512065D2*
X11803974D1*
X12548028D2*
X16055654D1*
X1288146Y2801083D2*
X2126292D1*
X2905164D2*
X3396318D1*
X4175099D2*
X4594157D1*
X4771830D2*
X4875341D1*
X5506648D2*
X6419625D1*
X6502416D2*
X7069404D1*
X7630620D2*
X7968375D1*
X8509630D2*
X9249339D1*
X10022651D2*
X10846487D1*
X11473510D2*
X11789300D1*
X12562703D2*
X16055654D1*
X1288146Y2737917D2*
X2101409D1*
X2905164D2*
X3371344D1*
X4175099D2*
X4875341D1*
X5506648D2*
X6275068D1*
X6646883D2*
X8077477D1*
X8400528D2*
X9245420D1*
X10026570D2*
X10906279D1*
X11413718D2*
X11785472D1*
X12566531D2*
X16055654D1*
X1288146Y2674750D2*
X2095029D1*
X2905164D2*
X3364964D1*
X4175099D2*
X4875341D1*
X5506648D2*
X6219560D1*
X6702482D2*
X8015589D1*
X8462416D2*
X9251982D1*
X10020008D2*
X10463675D1*
X11400685D2*
X11792034D1*
X12559968D2*
X16055654D1*
X1288146Y2611583D2*
X2105602D1*
X2895593D2*
X3375628D1*
X4165620D2*
X4875341D1*
X5506648D2*
X6189482D1*
X6732560D2*
X7983323D1*
X8494682D2*
X9269664D1*
X10002325D2*
X10351930D1*
X11460112D2*
X11809625D1*
X12542377D2*
X16055654D1*
X1288146Y2548417D2*
X2135953D1*
X2869343D2*
X3405979D1*
X4139370D2*
X4875341D1*
X5506648D2*
X6176448D1*
X6745593D2*
X7969469D1*
X8508536D2*
X9300016D1*
X9971974D2*
X10307451D1*
X11504591D2*
X11840068D1*
X12511935D2*
X13257386D1*
X13888601D2*
X16055654D1*
X1288146Y2485250D2*
X2198662D1*
X2819213D2*
X3468688D1*
X4089148D2*
X4875341D1*
X5506648D2*
X6178089D1*
X6743953D2*
X7971201D1*
X8506804D2*
X9347321D1*
X9924669D2*
X10287490D1*
X11524461D2*
X11887373D1*
X12464630D2*
X13257386D1*
X13888601D2*
X16055654D1*
X1288146Y2422083D2*
X2484586D1*
X2704370D2*
X3754612D1*
X3974396D2*
X4875341D1*
X5506648D2*
X6194586D1*
X6727364D2*
X7988792D1*
X8489213D2*
X9422880D1*
X9849109D2*
X10284391D1*
X11527651D2*
X11962841D1*
X12389161D2*
X13257386D1*
X13888601D2*
X16055654D1*
X1288146Y2358917D2*
X4875341D1*
X5506648D2*
X6189847D1*
X6732104D2*
X8026253D1*
X8451752D2*
X10284391D1*
X11527651D2*
X13257386D1*
X13888601D2*
X16055654D1*
X1288146Y2295750D2*
X4875341D1*
X5506648D2*
X6176539D1*
X6745411D2*
X8099443D1*
X8378562D2*
X10290042D1*
X11522000D2*
X13257386D1*
X13888601D2*
X16055654D1*
X1288146Y2232583D2*
X4875341D1*
X5506648D2*
X6175354D1*
X6746596D2*
X10314196D1*
X11497846D2*
X13257386D1*
X13888601D2*
X16055654D1*
X1288146Y2169417D2*
X6175354D1*
X6746596D2*
X7215328D1*
X7484695D2*
X10365784D1*
X11446166D2*
X13257386D1*
X13888601D2*
X16055654D1*
X1288146Y2106250D2*
X6175354D1*
X6746596D2*
X7136032D1*
X7563992D2*
X13257386D1*
X13888601D2*
X16055654D1*
X1288146Y2043083D2*
X6175354D1*
X6746596D2*
X7095107D1*
X7604825D2*
X13257386D1*
X13888601D2*
X16055654D1*
X1288146Y1979917D2*
X6175354D1*
X6746596D2*
X7074508D1*
X7625515D2*
X13257386D1*
X13888601D2*
X14090823D1*
X14325190D2*
X16055654D1*
X1288146Y1916750D2*
X6175354D1*
X6746596D2*
X7069586D1*
X7630437D2*
X13298857D1*
X13847130D2*
X14011526D1*
X14404487D2*
X16055654D1*
X1288146Y1853583D2*
X6175354D1*
X6746596D2*
X7079339D1*
X7620593D2*
X13271240D1*
X13874747D2*
X13974339D1*
X14441674D2*
X16055654D1*
X1288146Y1790417D2*
X6175354D1*
X6746596D2*
X7105771D1*
X7594252D2*
X13258662D1*
X13887325D2*
X13958662D1*
X14457351D2*
X16055654D1*
X1288146Y1727250D2*
X7155719D1*
X7544304D2*
X13259300D1*
X13886687D2*
X13959664D1*
X14456349D2*
X16055654D1*
X1288146Y1664083D2*
X7265459D1*
X7434474D2*
X13273245D1*
X13872742D2*
X13977255D1*
X14438758D2*
X16055654D1*
X1288146Y1600917D2*
X13302594D1*
X13843393D2*
X14017177D1*
X14398836D2*
X16055654D1*
X1288146Y1537750D2*
X13353636D1*
X13792351D2*
X14103401D1*
X14312612D2*
X16055654D1*
X1288146Y1474583D2*
X13452438D1*
X13693640D2*
X16055654D1*
X1288146Y1411417D2*
X16055654D1*
X1288146Y1348250D2*
X16055654D1*
X1288146Y1285083D2*
X16055654D1*
X5754379Y7736290D2*
X6017707Y7736467D1*
X6038257Y7740555D1*
X6059064Y7743017D1*
X6080000Y7743840D1*
X6100936Y7743017D1*
X6121743Y7740555D1*
X6142293Y7736467D1*
X6162458Y7730780D1*
X6182115Y7723528D1*
X6201143Y7714756D1*
X6219424Y7704519D1*
X6236845Y7692878D1*
X6253299Y7679907D1*
X6268684Y7665684D1*
X6282907Y7650299D1*
X6295878Y7633845D1*
X6307519Y7616424D1*
X6317756Y7598143D1*
X6326528Y7579115D1*
X6333780Y7559458D1*
X6339467Y7539293D1*
X6343555Y7518743D1*
X6346017Y7497936D1*
X6346840Y7477000D1*
X6346017Y7456064D1*
X6343555Y7435257D1*
X6339467Y7414707D1*
X6333780Y7394542D1*
X6326528Y7374885D1*
X6317756Y7355857D1*
X6307519Y7337576D1*
X6295878Y7320155D1*
X6282907Y7303701D1*
X6268684Y7288316D1*
X6253299Y7274093D1*
X6236845Y7261122D1*
X6219424Y7249481D1*
X6201143Y7239244D1*
X6182115Y7230472D1*
X6162458Y7223220D1*
X6142293Y7217533D1*
X6121743Y7213445D1*
X6100936Y7210983D1*
X6080000Y7210160D1*
X6059064Y7210983D1*
X6038257Y7213445D1*
X6015290Y7217710D1*
X5754340D1*
X5740395Y7204834D1*
X5724407Y7192230D1*
X5707479Y7180919D1*
X5689715Y7170971D1*
X5671226Y7162447D1*
X5652125Y7155401D1*
X5632530Y7149874D1*
X5612562Y7145902D1*
X5592344Y7143509D1*
X5572000Y7142710D1*
X5551656Y7143509D1*
X5531438Y7145902D1*
X5511470Y7149874D1*
X5491875Y7155401D1*
X5472774Y7162447D1*
X5445195Y7176062D1*
X5417226Y7162447D1*
X5398125Y7155401D1*
X5378530Y7149874D1*
X5358562Y7145902D1*
X5338344Y7143509D1*
X5318000Y7142710D1*
X5297656Y7143509D1*
X5277438Y7145902D1*
X5257470Y7149874D1*
X5237875Y7155401D1*
X5218774Y7162447D1*
X5191195Y7176062D1*
X5163226Y7162447D1*
X5144125Y7155401D1*
X5124530Y7149874D1*
X5104562Y7145902D1*
X5084344Y7143509D1*
X5064000Y7142710D1*
X5043656Y7143509D1*
X5023438Y7145902D1*
X5003470Y7149874D1*
X4983875Y7155401D1*
X4964774Y7162447D1*
X4937195Y7176062D1*
X4909226Y7162447D1*
X4890125Y7155401D1*
X4870530Y7149874D1*
X4850562Y7145902D1*
X4830344Y7143509D1*
X4810000Y7142710D1*
X4789656Y7143509D1*
X4769438Y7145902D1*
X4749470Y7149874D1*
X4729875Y7155401D1*
X4710774Y7162447D1*
X4683195Y7176062D1*
X4655226Y7162447D1*
X4636125Y7155401D1*
X4616530Y7149874D1*
X4596562Y7145902D1*
X4576344Y7143509D1*
X4556000Y7142710D1*
X4535656Y7143509D1*
X4515438Y7145902D1*
X4495470Y7149874D1*
X4475875Y7155401D1*
X4456774Y7162447D1*
X4429195Y7176062D1*
X4401226Y7162447D1*
X4382125Y7155401D1*
X4362530Y7149874D1*
X4342562Y7145902D1*
X4322344Y7143509D1*
X4302000Y7142710D1*
X4281656Y7143509D1*
X4261438Y7145902D1*
X4241470Y7149874D1*
X4221875Y7155401D1*
X4202774Y7162447D1*
X4175195Y7176062D1*
X4147226Y7162447D1*
X4128125Y7155401D1*
X4108530Y7149874D1*
X4088562Y7145902D1*
X4068344Y7143509D1*
X4048000Y7142710D1*
X4027656Y7143509D1*
X4007438Y7145902D1*
X3987470Y7149874D1*
X3967875Y7155401D1*
X3948774Y7162447D1*
X3921195Y7176062D1*
X3893226Y7162447D1*
X3874125Y7155401D1*
X3854530Y7149874D1*
X3834562Y7145902D1*
X3814344Y7143509D1*
X3794000Y7142710D1*
X3773656Y7143509D1*
X3753438Y7145902D1*
X3733470Y7149874D1*
X3713875Y7155401D1*
X3694774Y7162447D1*
X3667195Y7176062D1*
X3639226Y7162447D1*
X3620125Y7155401D1*
X3600530Y7149874D1*
X3580562Y7145902D1*
X3560344Y7143509D1*
X3540000Y7142710D1*
X3519656Y7143509D1*
X3499438Y7145902D1*
X3479470Y7149874D1*
X3459875Y7155401D1*
X3440774Y7162447D1*
X3413195Y7176062D1*
X3385226Y7162447D1*
X3366125Y7155401D1*
X3346530Y7149874D1*
X3326562Y7145902D1*
X3306344Y7143509D1*
X3286000Y7142710D1*
X3265656Y7143509D1*
X3245438Y7145902D1*
X3225470Y7149874D1*
X3205875Y7155401D1*
X3186774Y7162447D1*
X3159195Y7176062D1*
X3131226Y7162447D1*
X3112125Y7155401D1*
X3092530Y7149874D1*
X3072562Y7145902D1*
X3052344Y7143509D1*
X3032000Y7142710D1*
X3011656Y7143509D1*
X2991438Y7145902D1*
X2971470Y7149874D1*
X2951875Y7155401D1*
X2932774Y7162447D1*
X2905195Y7176062D1*
X2877226Y7162447D1*
X2858125Y7155401D1*
X2838530Y7149874D1*
X2818562Y7145902D1*
X2798344Y7143509D1*
X2778000Y7142710D1*
X2757656Y7143509D1*
X2737438Y7145902D1*
X2717470Y7149874D1*
X2697875Y7155401D1*
X2678774Y7162447D1*
X2651195Y7176062D1*
X2623226Y7162447D1*
X2604125Y7155401D1*
X2584530Y7149874D1*
X2564562Y7145902D1*
X2544344Y7143509D1*
X2524000Y7142710D1*
X2503656Y7143509D1*
X2483438Y7145902D1*
X2463470Y7149874D1*
X2443875Y7155401D1*
X2424774Y7162447D1*
X2397195Y7176062D1*
X2369226Y7162447D1*
X2350125Y7155401D1*
X2330530Y7149874D1*
X2310562Y7145902D1*
X2290344Y7143509D1*
X2270000Y7142710D1*
X2249656Y7143509D1*
X2229438Y7145902D1*
X2209470Y7149874D1*
X2189875Y7155401D1*
X2170774Y7162447D1*
X2152285Y7170971D1*
X2134521Y7180919D1*
X2117593Y7192230D1*
X2101605Y7204834D1*
X2085845Y7219530D1*
X2057743Y7213445D1*
X2036936Y7210983D1*
X2016000Y7210160D1*
X1995064Y7210983D1*
X1974257Y7213445D1*
X1953707Y7217533D1*
X1933542Y7223220D1*
X1913885Y7230472D1*
X1894857Y7239244D1*
X1876576Y7249481D1*
X1859155Y7261122D1*
X1842701Y7274093D1*
X1827316Y7288316D1*
X1813093Y7303701D1*
X1800122Y7320155D1*
X1788481Y7337576D1*
X1778244Y7355857D1*
X1769472Y7374885D1*
X1762220Y7394542D1*
X1756533Y7414707D1*
X1752445Y7435257D1*
X1749983Y7456064D1*
X1749160Y7477000D1*
X1749983Y7497936D1*
X1752445Y7518743D1*
X1756533Y7539293D1*
X1762220Y7559458D1*
X1769472Y7579115D1*
X1778244Y7598143D1*
X1788481Y7616424D1*
X1800122Y7633845D1*
X1813093Y7650299D1*
X1827316Y7665684D1*
X1842701Y7679907D1*
X1859155Y7692878D1*
X1876576Y7704519D1*
X1894857Y7714756D1*
X1913885Y7723528D1*
X1933542Y7730780D1*
X1953707Y7736467D1*
X1974257Y7740555D1*
X1995064Y7743017D1*
X2016000Y7743840D1*
X2036936Y7743017D1*
X2057743Y7740555D1*
X2085618Y7734401D1*
X2101605Y7749166D1*
X2117593Y7761770D1*
X2134521Y7773081D1*
X2152285Y7783029D1*
X2170774Y7791553D1*
X2189875Y7798599D1*
X2209470Y7804126D1*
X2229438Y7808098D1*
X2249656Y7810491D1*
X2270000Y7811290D1*
X2290344Y7810491D1*
X2310562Y7808098D1*
X2330530Y7804126D1*
X2350125Y7798599D1*
X2369226Y7791553D1*
X2396805Y7777938D1*
X2424774Y7791553D1*
X2443875Y7798599D1*
X2463470Y7804126D1*
X2483438Y7808098D1*
X2503656Y7810491D1*
X2524000Y7811290D1*
X2544344Y7810491D1*
X2564562Y7808098D1*
X2584530Y7804126D1*
X2604125Y7798599D1*
X2623226Y7791553D1*
X2650805Y7777938D1*
X2678774Y7791553D1*
X2697875Y7798599D1*
X2717470Y7804126D1*
X2737438Y7808098D1*
X2757656Y7810491D1*
X2778000Y7811290D1*
X2798344Y7810491D1*
X2818562Y7808098D1*
X2838530Y7804126D1*
X2858125Y7798599D1*
X2877226Y7791553D1*
X2904805Y7777938D1*
X2932774Y7791553D1*
X2951875Y7798599D1*
X2971470Y7804126D1*
X2991438Y7808098D1*
X3011656Y7810491D1*
X3032000Y7811290D1*
X3052344Y7810491D1*
X3072562Y7808098D1*
X3092530Y7804126D1*
X3112125Y7798599D1*
X3131226Y7791553D1*
X3158805Y7777938D1*
X3186774Y7791553D1*
X3205875Y7798599D1*
X3225470Y7804126D1*
X3245438Y7808098D1*
X3265656Y7810491D1*
X3286000Y7811290D1*
X3306344Y7810491D1*
X3326562Y7808098D1*
X3346530Y7804126D1*
X3366125Y7798599D1*
X3385226Y7791553D1*
X3412805Y7777938D1*
X3440774Y7791553D1*
X3459875Y7798599D1*
X3479470Y7804126D1*
X3499438Y7808098D1*
X3519656Y7810491D1*
X3540000Y7811290D1*
X3560344Y7810491D1*
X3580562Y7808098D1*
X3600530Y7804126D1*
X3620125Y7798599D1*
X3639226Y7791553D1*
X3666805Y7777938D1*
X3694774Y7791553D1*
X3713875Y7798599D1*
X3733470Y7804126D1*
X3753438Y7808098D1*
X3773656Y7810491D1*
X3794000Y7811290D1*
X3814344Y7810491D1*
X3834562Y7808098D1*
X3854530Y7804126D1*
X3874125Y7798599D1*
X3893226Y7791553D1*
X3920805Y7777938D1*
X3948774Y7791553D1*
X3967875Y7798599D1*
X3987470Y7804126D1*
X4007438Y7808098D1*
X4027656Y7810491D1*
X4048000Y7811290D1*
X4068344Y7810491D1*
X4088562Y7808098D1*
X4108530Y7804126D1*
X4128125Y7798599D1*
X4147226Y7791553D1*
X4174805Y7777938D1*
X4202774Y7791553D1*
X4221875Y7798599D1*
X4241470Y7804126D1*
X4261438Y7808098D1*
X4281656Y7810491D1*
X4302000Y7811290D1*
X4322344Y7810491D1*
X4342562Y7808098D1*
X4362530Y7804126D1*
X4382125Y7798599D1*
X4401226Y7791553D1*
X4428805Y7777938D1*
X4456774Y7791553D1*
X4475875Y7798599D1*
X4495470Y7804126D1*
X4515438Y7808098D1*
X4535656Y7810491D1*
X4556000Y7811290D1*
X4576344Y7810491D1*
X4596562Y7808098D1*
X4616530Y7804126D1*
X4636125Y7798599D1*
X4655226Y7791553D1*
X4682805Y7777938D1*
X4710774Y7791553D1*
X4729875Y7798599D1*
X4749470Y7804126D1*
X4769438Y7808098D1*
X4789656Y7810491D1*
X4810000Y7811290D1*
X4830344Y7810491D1*
X4850562Y7808098D1*
X4870530Y7804126D1*
X4890125Y7798599D1*
X4909226Y7791553D1*
X4936805Y7777938D1*
X4964774Y7791553D1*
X4983875Y7798599D1*
X5003470Y7804126D1*
X5023438Y7808098D1*
X5043656Y7810491D1*
X5064000Y7811290D1*
X5084344Y7810491D1*
X5104562Y7808098D1*
X5124530Y7804126D1*
X5144125Y7798599D1*
X5163226Y7791553D1*
X5190805Y7777938D1*
X5218774Y7791553D1*
X5237875Y7798599D1*
X5257470Y7804126D1*
X5277438Y7808098D1*
X5297656Y7810491D1*
X5318000Y7811290D1*
X5338344Y7810491D1*
X5358562Y7808098D1*
X5378530Y7804126D1*
X5398125Y7798599D1*
X5417226Y7791553D1*
X5444805Y7777938D1*
X5472774Y7791553D1*
X5491875Y7798599D1*
X5511470Y7804126D1*
X5531438Y7808098D1*
X5551656Y7810491D1*
X5572000Y7811290D1*
X5592344Y7810491D1*
X5612562Y7808098D1*
X5632530Y7804126D1*
X5652125Y7798599D1*
X5671226Y7791553D1*
X5689715Y7783029D1*
X5707479Y7773081D1*
X5724407Y7761770D1*
X5740395Y7749166D1*
X5754353Y7736263D1*
X2085845Y6210470D2*
X2101605Y6225166D1*
X2117593Y6237770D1*
X2134521Y6249081D1*
X2152285Y6259029D1*
X2170774Y6267553D1*
X2189875Y6274599D1*
X2209470Y6280126D1*
X2229438Y6284098D1*
X2249656Y6286491D1*
X2270000Y6287290D1*
X2290344Y6286491D1*
X2310562Y6284098D1*
X2330530Y6280126D1*
X2350125Y6274599D1*
X2369226Y6267553D1*
X2396805Y6253938D1*
X2424774Y6267553D1*
X2443875Y6274599D1*
X2463470Y6280126D1*
X2483438Y6284098D1*
X2503656Y6286491D1*
X2524000Y6287290D1*
X2544344Y6286491D1*
X2564562Y6284098D1*
X2584530Y6280126D1*
X2604125Y6274599D1*
X2623226Y6267553D1*
X2650805Y6253938D1*
X2678774Y6267553D1*
X2697875Y6274599D1*
X2717470Y6280126D1*
X2737438Y6284098D1*
X2757656Y6286491D1*
X2778000Y6287290D1*
X2798344Y6286491D1*
X2818562Y6284098D1*
X2838530Y6280126D1*
X2858125Y6274599D1*
X2877226Y6267553D1*
X2904805Y6253938D1*
X2932774Y6267553D1*
X2951875Y6274599D1*
X2971470Y6280126D1*
X2991438Y6284098D1*
X3011656Y6286491D1*
X3032000Y6287290D1*
X3052344Y6286491D1*
X3072562Y6284098D1*
X3092530Y6280126D1*
X3112125Y6274599D1*
X3131226Y6267553D1*
X3158805Y6253938D1*
X3186774Y6267553D1*
X3205875Y6274599D1*
X3225470Y6280126D1*
X3245438Y6284098D1*
X3265656Y6286491D1*
X3286000Y6287290D1*
X3306344Y6286491D1*
X3326562Y6284098D1*
X3346530Y6280126D1*
X3366125Y6274599D1*
X3385226Y6267553D1*
X3412805Y6253938D1*
X3440774Y6267553D1*
X3459875Y6274599D1*
X3479470Y6280126D1*
X3499438Y6284098D1*
X3519656Y6286491D1*
X3540000Y6287290D1*
X3560344Y6286491D1*
X3580562Y6284098D1*
X3600530Y6280126D1*
X3620125Y6274599D1*
X3639226Y6267553D1*
X3666805Y6253938D1*
X3694774Y6267553D1*
X3713875Y6274599D1*
X3733470Y6280126D1*
X3753438Y6284098D1*
X3773656Y6286491D1*
X3794000Y6287290D1*
X3814344Y6286491D1*
X3834562Y6284098D1*
X3854530Y6280126D1*
X3874125Y6274599D1*
X3893226Y6267553D1*
X3920805Y6253938D1*
X3948774Y6267553D1*
X3967875Y6274599D1*
X3987470Y6280126D1*
X4007438Y6284098D1*
X4027656Y6286491D1*
X4048000Y6287290D1*
X4068344Y6286491D1*
X4088562Y6284098D1*
X4108530Y6280126D1*
X4128125Y6274599D1*
X4147226Y6267553D1*
X4174805Y6253938D1*
X4202774Y6267553D1*
X4221875Y6274599D1*
X4241470Y6280126D1*
X4261438Y6284098D1*
X4281656Y6286491D1*
X4302000Y6287290D1*
X4322344Y6286491D1*
X4342562Y6284098D1*
X4362530Y6280126D1*
X4382125Y6274599D1*
X4401226Y6267553D1*
X4428805Y6253938D1*
X4456774Y6267553D1*
X4475875Y6274599D1*
X4495470Y6280126D1*
X4515438Y6284098D1*
X4535656Y6286491D1*
X4556000Y6287290D1*
X4576344Y6286491D1*
X4596562Y6284098D1*
X4616530Y6280126D1*
X4636125Y6274599D1*
X4655226Y6267553D1*
X4682805Y6253938D1*
X4710774Y6267553D1*
X4729875Y6274599D1*
X4749470Y6280126D1*
X4769438Y6284098D1*
X4789656Y6286491D1*
X4810000Y6287290D1*
X4830344Y6286491D1*
X4850562Y6284098D1*
X4870530Y6280126D1*
X4890125Y6274599D1*
X4909226Y6267553D1*
X4936805Y6253938D1*
X4964774Y6267553D1*
X4983875Y6274599D1*
X5003470Y6280126D1*
X5023438Y6284098D1*
X5043656Y6286491D1*
X5064000Y6287290D1*
X5084344Y6286491D1*
X5104562Y6284098D1*
X5124530Y6280126D1*
X5144125Y6274599D1*
X5163226Y6267553D1*
X5190805Y6253938D1*
X5218774Y6267553D1*
X5237875Y6274599D1*
X5257470Y6280126D1*
X5277438Y6284098D1*
X5297656Y6286491D1*
X5318000Y6287290D1*
X5338344Y6286491D1*
X5358562Y6284098D1*
X5378530Y6280126D1*
X5398125Y6274599D1*
X5417226Y6267553D1*
X5444805Y6253938D1*
X5472774Y6267553D1*
X5491875Y6274599D1*
X5511470Y6280126D1*
X5531438Y6284098D1*
X5551656Y6286491D1*
X5572000Y6287290D1*
X5592344Y6286491D1*
X5612562Y6284098D1*
X5632530Y6280126D1*
X5652125Y6274599D1*
X5671226Y6267553D1*
X5698805Y6253938D1*
X5726774Y6267553D1*
X5745875Y6274599D1*
X5765470Y6280126D1*
X5785438Y6284098D1*
X5805656Y6286491D1*
X5826000Y6287290D1*
X5846344Y6286491D1*
X5866562Y6284098D1*
X5886530Y6280126D1*
X5906125Y6274599D1*
X5925226Y6267553D1*
X5943715Y6259029D1*
X5961479Y6249081D1*
X5978407Y6237770D1*
X5994395Y6225166D1*
X6010155Y6210470D1*
X6038257Y6216555D1*
X6059064Y6219017D1*
X6080000Y6219840D1*
X6100936Y6219017D1*
X6121743Y6216555D1*
X6142293Y6212467D1*
X6162458Y6206780D1*
X6182115Y6199528D1*
X6201143Y6190756D1*
X6219424Y6180519D1*
X6236845Y6168878D1*
X6253299Y6155907D1*
X6268684Y6141684D1*
X6282907Y6126299D1*
X6295878Y6109845D1*
X6307519Y6092424D1*
X6317756Y6074143D1*
X6326528Y6055115D1*
X6333780Y6035458D1*
X6339467Y6015293D1*
X6343555Y5994743D1*
X6346017Y5973936D1*
X6346840Y5953000D1*
X6346017Y5932064D1*
X6343555Y5911257D1*
X6339467Y5890707D1*
X6333780Y5870542D1*
X6326528Y5850885D1*
X6317756Y5831857D1*
X6307519Y5813576D1*
X6295878Y5796155D1*
X6282907Y5779701D1*
X6268684Y5764316D1*
X6253299Y5750093D1*
X6236845Y5737122D1*
X6219424Y5725481D1*
X6201143Y5715244D1*
X6182115Y5706472D1*
X6162458Y5699220D1*
X6142293Y5693533D1*
X6121743Y5689445D1*
X6100936Y5686983D1*
X6080000Y5686160D1*
X6059064Y5686983D1*
X6038257Y5689445D1*
X6010382Y5695599D1*
X5994395Y5680834D1*
X5978407Y5668230D1*
X5961479Y5656919D1*
X5943715Y5646971D1*
X5925226Y5638447D1*
X5906125Y5631401D1*
X5886530Y5625874D1*
X5866562Y5621902D1*
X5846344Y5619509D1*
X5826000Y5618710D1*
X5805656Y5619509D1*
X5785438Y5621902D1*
X5765470Y5625874D1*
X5745875Y5631401D1*
X5726774Y5638447D1*
X5699195Y5652062D1*
X5671226Y5638447D1*
X5652125Y5631401D1*
X5632530Y5625874D1*
X5612562Y5621902D1*
X5592344Y5619509D1*
X5572000Y5618710D1*
X5551656Y5619509D1*
X5531438Y5621902D1*
X5511470Y5625874D1*
X5491875Y5631401D1*
X5472774Y5638447D1*
X5445195Y5652062D1*
X5417226Y5638447D1*
X5398125Y5631401D1*
X5378530Y5625874D1*
X5358562Y5621902D1*
X5338344Y5619509D1*
X5318000Y5618710D1*
X5297656Y5619509D1*
X5277438Y5621902D1*
X5257470Y5625874D1*
X5237875Y5631401D1*
X5218774Y5638447D1*
X5191195Y5652062D1*
X5163226Y5638447D1*
X5144125Y5631401D1*
X5124530Y5625874D1*
X5104562Y5621902D1*
X5084344Y5619509D1*
X5064000Y5618710D1*
X5043656Y5619509D1*
X5023438Y5621902D1*
X5003470Y5625874D1*
X4983875Y5631401D1*
X4964774Y5638447D1*
X4937195Y5652062D1*
X4909226Y5638447D1*
X4890125Y5631401D1*
X4870530Y5625874D1*
X4850562Y5621902D1*
X4830344Y5619509D1*
X4810000Y5618710D1*
X4789656Y5619509D1*
X4769438Y5621902D1*
X4749470Y5625874D1*
X4729875Y5631401D1*
X4710774Y5638447D1*
X4683195Y5652062D1*
X4655226Y5638447D1*
X4636125Y5631401D1*
X4616530Y5625874D1*
X4596562Y5621902D1*
X4576344Y5619509D1*
X4556000Y5618710D1*
X4535656Y5619509D1*
X4515438Y5621902D1*
X4495470Y5625874D1*
X4475875Y5631401D1*
X4456774Y5638447D1*
X4429195Y5652062D1*
X4401226Y5638447D1*
X4382125Y5631401D1*
X4362530Y5625874D1*
X4342562Y5621902D1*
X4322344Y5619509D1*
X4302000Y5618710D1*
X4281656Y5619509D1*
X4261438Y5621902D1*
X4241470Y5625874D1*
X4221875Y5631401D1*
X4202774Y5638447D1*
X4175195Y5652062D1*
X4147226Y5638447D1*
X4128125Y5631401D1*
X4108530Y5625874D1*
X4088562Y5621902D1*
X4068344Y5619509D1*
X4048000Y5618710D1*
X4027656Y5619509D1*
X4007438Y5621902D1*
X3987470Y5625874D1*
X3967875Y5631401D1*
X3948774Y5638447D1*
X3921195Y5652062D1*
X3893226Y5638447D1*
X3874125Y5631401D1*
X3854530Y5625874D1*
X3834562Y5621902D1*
X3814344Y5619509D1*
X3794000Y5618710D1*
X3773656Y5619509D1*
X3753438Y5621902D1*
X3733470Y5625874D1*
X3713875Y5631401D1*
X3694774Y5638447D1*
X3667195Y5652062D1*
X3639226Y5638447D1*
X3620125Y5631401D1*
X3600530Y5625874D1*
X3580562Y5621902D1*
X3560344Y5619509D1*
X3540000Y5618710D1*
X3519656Y5619509D1*
X3499438Y5621902D1*
X3479470Y5625874D1*
X3459875Y5631401D1*
X3440774Y5638447D1*
X3413195Y5652062D1*
X3385226Y5638447D1*
X3366125Y5631401D1*
X3346530Y5625874D1*
X3326562Y5621902D1*
X3306344Y5619509D1*
X3286000Y5618710D1*
X3265656Y5619509D1*
X3245438Y5621902D1*
X3225470Y5625874D1*
X3205875Y5631401D1*
X3186774Y5638447D1*
X3159195Y5652062D1*
X3131226Y5638447D1*
X3112125Y5631401D1*
X3092530Y5625874D1*
X3072562Y5621902D1*
X3052344Y5619509D1*
X3032000Y5618710D1*
X3011656Y5619509D1*
X2991438Y5621902D1*
X2971470Y5625874D1*
X2951875Y5631401D1*
X2932774Y5638447D1*
X2905195Y5652062D1*
X2877226Y5638447D1*
X2858125Y5631401D1*
X2838530Y5625874D1*
X2818562Y5621902D1*
X2798344Y5619509D1*
X2778000Y5618710D1*
X2757656Y5619509D1*
X2737438Y5621902D1*
X2717470Y5625874D1*
X2697875Y5631401D1*
X2678774Y5638447D1*
X2651195Y5652062D1*
X2623226Y5638447D1*
X2604125Y5631401D1*
X2584530Y5625874D1*
X2564562Y5621902D1*
X2544344Y5619509D1*
X2524000Y5618710D1*
X2503656Y5619509D1*
X2483438Y5621902D1*
X2463470Y5625874D1*
X2443875Y5631401D1*
X2424774Y5638447D1*
X2397195Y5652062D1*
X2369226Y5638447D1*
X2350125Y5631401D1*
X2330530Y5625874D1*
X2310562Y5621902D1*
X2290344Y5619509D1*
X2270000Y5618710D1*
X2249656Y5619509D1*
X2229438Y5621902D1*
X2209470Y5625874D1*
X2189875Y5631401D1*
X2170774Y5638447D1*
X2152285Y5646971D1*
X2134521Y5656919D1*
X2117593Y5668230D1*
X2101605Y5680834D1*
X2085845Y5695530D1*
X2057743Y5689445D1*
X2036936Y5686983D1*
X2016000Y5686160D1*
X1995064Y5686983D1*
X1974257Y5689445D1*
X1953707Y5693533D1*
X1933542Y5699220D1*
X1913885Y5706472D1*
X1894857Y5715244D1*
X1876576Y5725481D1*
X1859155Y5737122D1*
X1842701Y5750093D1*
X1827316Y5764316D1*
X1813093Y5779701D1*
X1800122Y5796155D1*
X1788481Y5813576D1*
X1778244Y5831857D1*
X1769472Y5850885D1*
X1762220Y5870542D1*
X1756533Y5890707D1*
X1752445Y5911257D1*
X1749983Y5932064D1*
X1749160Y5953000D1*
X1749983Y5973936D1*
X1752445Y5994743D1*
X1756533Y6015293D1*
X1762220Y6035458D1*
X1769472Y6055115D1*
X1778244Y6074143D1*
X1788481Y6092424D1*
X1800122Y6109845D1*
X1813093Y6126299D1*
X1827316Y6141684D1*
X1842701Y6155907D1*
X1859155Y6168878D1*
X1876576Y6180519D1*
X1894857Y6190756D1*
X1913885Y6199528D1*
X1933542Y6206780D1*
X1953707Y6212467D1*
X1974257Y6216555D1*
X1995064Y6219017D1*
X2016000Y6219840D1*
X2036936Y6219017D1*
X2057743Y6216555D1*
X2085618Y6210401D1*
X8502475Y2503264D2*
X8500036Y2482656D1*
X8495988Y2462303D1*
X8490355Y2442330D1*
X8483172Y2422861D1*
X8474484Y2404015D1*
X8464344Y2385909D1*
X8452815Y2368654D1*
X8439968Y2352357D1*
X8425881Y2337119D1*
X8410643Y2323032D1*
X8394346Y2310185D1*
X8377091Y2298656D1*
X8358985Y2288516D1*
X8340139Y2279828D1*
X8320670Y2272645D1*
X8300697Y2267012D1*
X8280344Y2262964D1*
X8259736Y2260525D1*
X8239000Y2259710D1*
X8218264Y2260525D1*
X8197656Y2262964D1*
X8177303Y2267012D1*
X8157330Y2272645D1*
X8137861Y2279828D1*
X8119015Y2288516D1*
X8100909Y2298656D1*
X8083654Y2310185D1*
X8067357Y2323032D1*
X8052119Y2337119D1*
X8038032Y2352357D1*
X8025185Y2368654D1*
X8013656Y2385909D1*
X8003516Y2404015D1*
X7994828Y2422861D1*
X7987645Y2442330D1*
X7982012Y2462303D1*
X7977964Y2482656D1*
X7975525Y2503264D1*
X7974710Y2524000D1*
X7975525Y2544736D1*
X7977964Y2565344D1*
X7982012Y2585697D1*
X7987645Y2605670D1*
X7994828Y2625139D1*
X8003516Y2643985D1*
X8013656Y2662091D1*
X8025185Y2679346D1*
X8038032Y2695643D1*
X8052119Y2710881D1*
X8067357Y2724968D1*
X8083654Y2737815D1*
X8100909Y2749344D1*
X8119015Y2759484D1*
X8136904Y2767731D1*
X7974710Y2767710D1*
Y3296290D1*
X8503290D1*
Y2767710D1*
X8341324D1*
X8358985Y2759484D1*
X8377091Y2749344D1*
X8394346Y2737815D1*
X8410643Y2724968D1*
X8425881Y2710881D1*
X8439968Y2695643D1*
X8452815Y2679346D1*
X8464344Y2662091D1*
X8474484Y2643985D1*
X8483172Y2625139D1*
X8490355Y2605670D1*
X8495988Y2585697D1*
X8500036Y2565344D1*
X8502475Y2544736D1*
X8503290Y2524000D1*
X8502475Y2503264D1*
X5511544Y5211290D2*
X6036790D1*
Y4662710D1*
X5488210D1*
Y5211290D1*
X5511544D1*
X7623444Y1905479D2*
X7620913Y1884092D1*
X7616711Y1862968D1*
X7610865Y1842240D1*
X7603411Y1822034D1*
X7594394Y1802475D1*
X7583871Y1783684D1*
X7571905Y1765776D1*
X7558572Y1748863D1*
X7543952Y1733048D1*
X7528137Y1718428D1*
X7511224Y1705095D1*
X7493316Y1693129D1*
X7474525Y1682606D1*
X7454966Y1673589D1*
X7434760Y1666135D1*
X7414032Y1660289D1*
X7392908Y1656087D1*
X7371521Y1653556D1*
X7350000Y1652710D1*
X7328479Y1653556D1*
X7307092Y1656087D1*
X7285968Y1660289D1*
X7265240Y1666135D1*
X7245034Y1673589D1*
X7225475Y1682606D1*
X7206684Y1693129D1*
X7188776Y1705095D1*
X7171863Y1718428D1*
X7156048Y1733048D1*
X7141428Y1748863D1*
X7128095Y1765776D1*
X7116129Y1783684D1*
X7105606Y1802475D1*
X7096589Y1822034D1*
X7089135Y1842240D1*
X7083289Y1862968D1*
X7079087Y1884092D1*
X7076556Y1905479D1*
X7075710Y1927000D1*
X7076556Y1948521D1*
X7079087Y1969908D1*
X7083289Y1991032D1*
X7089135Y2011760D1*
X7096589Y2031966D1*
X7105606Y2051525D1*
X7116129Y2070316D1*
X7128095Y2088224D1*
X7141428Y2105137D1*
X7156048Y2120952D1*
X7171863Y2135572D1*
X7188776Y2148905D1*
X7206684Y2160871D1*
X7225475Y2171394D1*
X7245034Y2180411D1*
X7265240Y2187865D1*
X7285968Y2193711D1*
X7307092Y2197913D1*
X7328479Y2200444D1*
X7350000Y2201290D1*
X7371521Y2200444D1*
X7392908Y2197913D1*
X7414032Y2193711D1*
X7434760Y2187865D1*
X7454966Y2180411D1*
X7474525Y2171394D1*
X7493316Y2160871D1*
X7511224Y2148905D1*
X7528137Y2135572D1*
X7543952Y2120952D1*
X7558572Y2105137D1*
X7571905Y2088224D1*
X7583871Y2070316D1*
X7594394Y2051525D1*
X7603411Y2031966D1*
X7610865Y2011760D1*
X7616711Y1991032D1*
X7620913Y1969908D1*
X7623444Y1948521D1*
X7624290Y1927000D1*
X7623444Y1905479D1*
X3381044Y12612289D2*
X3976291D1*
Y11993709D1*
X3904012D1*
X3917811Y11975981D1*
X3930738Y11956563D1*
X3942165Y11936225D1*
X3952026Y11915084D1*
X3960266Y11893260D1*
X3966838Y11870877D1*
X3971704Y11848063D1*
X3974837Y11824946D1*
X3976290Y11795000D1*
X3975410Y11771689D1*
X3972776Y11748510D1*
X3968402Y11725596D1*
X3962314Y11703077D1*
X3954546Y11681080D1*
X3945142Y11659732D1*
X3934156Y11639153D1*
X3921649Y11619461D1*
X3907695Y11600767D1*
X3892371Y11583179D1*
X3875765Y11566795D1*
X3857971Y11551709D1*
X3839091Y11538008D1*
X3819232Y11525768D1*
X3798507Y11515060D1*
X3777034Y11505945D1*
X3754935Y11498474D1*
X3732336Y11492690D1*
X3709365Y11488625D1*
X3686153Y11486304D1*
X3662832Y11485738D1*
X3639534Y11486932D1*
X3616394Y11489878D1*
X3593540Y11494560D1*
X3571105Y11500952D1*
X3549215Y11509016D1*
X3527996Y11518706D1*
X3507567Y11529969D1*
X3488045Y11542739D1*
X3469541Y11556945D1*
X3452161Y11572504D1*
X3436002Y11589330D1*
X3421158Y11607325D1*
X3407712Y11626388D1*
X3395741Y11646410D1*
X3385314Y11667278D1*
X3376488Y11688872D1*
X3369316Y11711069D1*
X3363837Y11733744D1*
X3360082Y11756768D1*
X3358073Y11780009D1*
X3357822Y11803336D1*
X3359330Y11826615D1*
X3362588Y11849714D1*
X3367578Y11872502D1*
X3374271Y11894849D1*
X3382629Y11916628D1*
X3392605Y11937715D1*
X3404142Y11957990D1*
X3417174Y11977338D1*
X3430103Y11993718D1*
X3357711Y11993709D1*
Y12612289D1*
X3381044D1*
X7826044D2*
X8421291D1*
Y11993709D1*
X8349012D1*
X8362811Y11975981D1*
X8375738Y11956563D1*
X8387165Y11936225D1*
X8397026Y11915084D1*
X8405266Y11893260D1*
X8411838Y11870877D1*
X8416704Y11848063D1*
X8419837Y11824946D1*
X8421290Y11795000D1*
X8420410Y11771689D1*
X8417776Y11748510D1*
X8413402Y11725596D1*
X8407314Y11703077D1*
X8399546Y11681080D1*
X8390142Y11659732D1*
X8379156Y11639153D1*
X8366649Y11619461D1*
X8352695Y11600767D1*
X8337371Y11583179D1*
X8320765Y11566795D1*
X8302971Y11551709D1*
X8284091Y11538008D1*
X8264232Y11525768D1*
X8243507Y11515060D1*
X8222034Y11505945D1*
X8199935Y11498474D1*
X8177336Y11492690D1*
X8154365Y11488625D1*
X8131153Y11486304D1*
X8107832Y11485738D1*
X8084534Y11486932D1*
X8061394Y11489878D1*
X8038540Y11494560D1*
X8016105Y11500952D1*
X7994215Y11509016D1*
X7972996Y11518706D1*
X7952567Y11529969D1*
X7933045Y11542739D1*
X7914541Y11556945D1*
X7897161Y11572504D1*
X7881002Y11589330D1*
X7866158Y11607325D1*
X7852712Y11626388D1*
X7840741Y11646410D1*
X7830314Y11667278D1*
X7821488Y11688872D1*
X7814316Y11711069D1*
X7808837Y11733744D1*
X7805082Y11756768D1*
X7803073Y11780009D1*
X7802822Y11803336D1*
X7804330Y11826615D1*
X7807588Y11849714D1*
X7812578Y11872502D1*
X7819271Y11894849D1*
X7827629Y11916628D1*
X7837605Y11937715D1*
X7849142Y11957990D1*
X7862174Y11977338D1*
X7875103Y11993718D1*
X7802711Y11993709D1*
Y12612289D1*
X7826044D1*
X12779044Y9056289D2*
X12827989D1*
X12805712Y9086388D1*
X12793741Y9106410D1*
X12783314Y9127278D1*
X12774488Y9148872D1*
X12767316Y9171069D1*
X12761837Y9193744D1*
X12758082Y9216768D1*
X12756073Y9240009D1*
X12755822Y9263336D1*
X12757330Y9286615D1*
X12760588Y9309714D1*
X12765578Y9332502D1*
X12772271Y9354849D1*
X12780629Y9376628D1*
X12790605Y9397715D1*
X12802142Y9417990D1*
X12815174Y9437338D1*
X12829627Y9455649D1*
X12845420Y9472818D1*
X12862461Y9488749D1*
X12880655Y9503349D1*
X12899898Y9516537D1*
X12920079Y9528237D1*
X12941085Y9538382D1*
X12962796Y9546916D1*
X12985089Y9553788D1*
X13007836Y9558961D1*
X13030908Y9562405D1*
X13054174Y9564100D1*
X13077502Y9564037D1*
X13100758Y9562216D1*
X13123812Y9558647D1*
X13146530Y9553351D1*
X13168785Y9546357D1*
X13190449Y9537706D1*
X13211400Y9527447D1*
X13231518Y9515638D1*
X13250689Y9502346D1*
X13268803Y9487647D1*
X13285758Y9471625D1*
X13301457Y9454370D1*
X13315811Y9435981D1*
X13328738Y9416563D1*
X13340165Y9396225D1*
X13350026Y9375084D1*
X13358266Y9353260D1*
X13364838Y9330877D1*
X13369704Y9308063D1*
X13372837Y9284946D1*
X13374290Y9255000D1*
X13373410Y9231689D1*
X13370776Y9208510D1*
X13366402Y9185596D1*
X13360314Y9163077D1*
X13352546Y9141080D1*
X13343142Y9119732D1*
X13332156Y9099153D1*
X13319649Y9079461D1*
X13301804Y9056301D1*
X13374291Y9056289D1*
Y8437709D1*
X12755711D1*
Y9056289D1*
X12779044D1*
X14303044Y4865289D2*
X14898291D1*
Y4246709D1*
X14826012D1*
X14839811Y4228981D1*
X14852738Y4209563D1*
X14864165Y4189225D1*
X14874026Y4168084D1*
X14882266Y4146260D1*
X14888838Y4123877D1*
X14893704Y4101063D1*
X14896837Y4077946D1*
X14898290Y4048000D1*
X14897410Y4024689D1*
X14894776Y4001510D1*
X14890402Y3978596D1*
X14884314Y3956077D1*
X14876546Y3934080D1*
X14867142Y3912732D1*
X14856156Y3892153D1*
X14843649Y3872461D1*
X14829695Y3853767D1*
X14814371Y3836179D1*
X14797765Y3819795D1*
X14779971Y3804709D1*
X14761091Y3791008D1*
X14741232Y3778768D1*
X14720507Y3768060D1*
X14699034Y3758945D1*
X14676935Y3751474D1*
X14654336Y3745690D1*
X14631365Y3741625D1*
X14608153Y3739304D1*
X14584832Y3738738D1*
X14561534Y3739932D1*
X14538394Y3742878D1*
X14515540Y3747560D1*
X14493105Y3753952D1*
X14471215Y3762016D1*
X14449996Y3771706D1*
X14429567Y3782969D1*
X14410045Y3795739D1*
X14391541Y3809945D1*
X14374161Y3825504D1*
X14358002Y3842330D1*
X14343158Y3860325D1*
X14329712Y3879388D1*
X14317741Y3899410D1*
X14307314Y3920278D1*
X14298488Y3941872D1*
X14291316Y3964069D1*
X14285837Y3986744D1*
X14282082Y4009768D1*
X14280073Y4033009D1*
X14279822Y4056336D1*
X14281330Y4079615D1*
X14284588Y4102714D1*
X14289578Y4125502D1*
X14296271Y4147849D1*
X14304629Y4169628D1*
X14314605Y4190715D1*
X14326142Y4210990D1*
X14339174Y4230338D1*
X14352103Y4246718D1*
X14279711Y4246709D1*
Y4865289D1*
X14303044D1*
X9731044Y5119289D2*
X9779989D1*
X9757712Y5149388D1*
X9745741Y5169410D1*
X9735314Y5190278D1*
X9726488Y5211872D1*
X9719316Y5234069D1*
X9713837Y5256744D1*
X9710082Y5279768D1*
X9708073Y5303009D1*
X9707822Y5326336D1*
X9709330Y5349615D1*
X9712588Y5372714D1*
X9717578Y5395502D1*
X9724271Y5417849D1*
X9732629Y5439628D1*
X9742605Y5460715D1*
X9754142Y5480990D1*
X9767174Y5500338D1*
X9781627Y5518649D1*
X9797420Y5535818D1*
X9814461Y5551749D1*
X9832655Y5566349D1*
X9851898Y5579537D1*
X9872079Y5591237D1*
X9893085Y5601382D1*
X9914796Y5609916D1*
X9937089Y5616788D1*
X9959836Y5621961D1*
X9982908Y5625405D1*
X10006174Y5627100D1*
X10029502Y5627037D1*
X10052758Y5625216D1*
X10075812Y5621647D1*
X10098530Y5616351D1*
X10120785Y5609357D1*
X10142449Y5600706D1*
X10163400Y5590447D1*
X10183518Y5578638D1*
X10202689Y5565346D1*
X10220803Y5550647D1*
X10237758Y5534625D1*
X10253457Y5517370D1*
X10267811Y5498981D1*
X10280738Y5479563D1*
X10292165Y5459225D1*
X10302026Y5438084D1*
X10310266Y5416260D1*
X10316838Y5393877D1*
X10321704Y5371063D1*
X10324837Y5347946D1*
X10326290Y5318000D1*
X10325410Y5294689D1*
X10322776Y5271510D1*
X10318402Y5248596D1*
X10312314Y5226077D1*
X10304546Y5204080D1*
X10295142Y5182732D1*
X10284156Y5162153D1*
X10271649Y5142461D1*
X10253804Y5119301D1*
X10326291Y5119289D1*
Y4686255D1*
X10775747Y4686290D1*
X10775710Y5106727D1*
X10741175Y5089693D1*
X10714051Y5080880D1*
X10680432Y5074987D1*
X10652000Y5072750D1*
X10623568Y5074987D1*
X10589949Y5080880D1*
X10562825Y5089693D1*
X10532163Y5104687D1*
X10507846Y5119588D1*
X10486159Y5138111D1*
X10462423Y5162638D1*
X10445660Y5185711D1*
X10429667Y5215865D1*
X10418753Y5242214D1*
X10412095Y5269945D1*
X10407310Y5303740D1*
Y5332260D1*
X10412095Y5366055D1*
X10418753Y5393787D1*
X10429667Y5420135D1*
X10445660Y5450289D1*
X10462423Y5473362D1*
X10486159Y5497889D1*
X10507845Y5516412D1*
X10532163Y5531313D1*
X10562825Y5546308D1*
X10589949Y5555121D1*
X10623568Y5561013D1*
X10652000Y5563250D1*
X10680432Y5561013D1*
X10714051Y5555121D1*
X10741175Y5546308D1*
X10771886Y5531286D1*
X10775710Y5538667D1*
Y8235763D1*
X8877253Y8235710D1*
X8877290Y7731000D1*
X8876582Y7707681D1*
X8874460Y7684448D1*
X8870933Y7661386D1*
X8864758Y7634106D1*
X8892382Y7633568D1*
X8910651Y7631406D1*
X8937201Y7625417D1*
X8964349Y7631406D1*
X8982618Y7633568D1*
X9001000Y7634290D1*
X9019382Y7633568D1*
X9037651Y7631406D1*
X9064201Y7625417D1*
X9091349Y7631406D1*
X9109618Y7633568D1*
X9128000Y7634290D1*
X9146382Y7633568D1*
X9164651Y7631406D1*
X9182694Y7627817D1*
X9200400Y7622823D1*
X9217659Y7616456D1*
X9234365Y7608754D1*
X9250416Y7599765D1*
X9265712Y7589545D1*
X9280159Y7578156D1*
X9293668Y7565668D1*
X9306156Y7552159D1*
X9317545Y7537712D1*
X9327765Y7522416D1*
X9336754Y7506365D1*
X9344456Y7489659D1*
X9350823Y7472400D1*
X9355817Y7454694D1*
X9359406Y7436651D1*
X9361568Y7418382D1*
X9362290Y7376666D1*
X9361568Y7281618D1*
X9359406Y7263349D1*
X9355817Y7245306D1*
X9350823Y7227600D1*
X9344456Y7210341D1*
X9336754Y7193635D1*
X9327765Y7177584D1*
X9317545Y7162288D1*
X9306156Y7147841D1*
X9293668Y7134332D1*
X9280159Y7121844D1*
X9265712Y7110455D1*
X9250416Y7100235D1*
X9234365Y7091246D1*
X9217659Y7083544D1*
X9200400Y7077177D1*
X9182694Y7072183D1*
X9164651Y7068594D1*
X9146382Y7066432D1*
X9128000Y7065710D1*
X9109618Y7066432D1*
X9091349Y7068594D1*
X9064799Y7074583D1*
X9037651Y7068594D1*
X9019382Y7066432D1*
X9001000Y7065710D1*
X8982618Y7066432D1*
X8964349Y7068594D1*
X8937799Y7074583D1*
X8910651Y7068594D1*
X8892382Y7066432D1*
X8864881Y7066068D1*
X8871981Y7032655D1*
X8875146Y7009541D1*
X8877290Y6969000D1*
Y4686253D1*
X9707701Y4686290D1*
X9707711Y5119289D1*
X9731044D1*
X13287044Y2579289D2*
X13882291D1*
Y1960709D1*
X13810012D1*
X13823811Y1942981D1*
X13836738Y1923563D1*
X13848165Y1903225D1*
X13858026Y1882084D1*
X13866266Y1860260D1*
X13872838Y1837877D1*
X13877704Y1815063D1*
X13880837Y1791946D1*
X13882290Y1762000D1*
X13881410Y1738689D1*
X13878776Y1715510D1*
X13874402Y1692596D1*
X13868314Y1670077D1*
X13860546Y1648080D1*
X13851142Y1626732D1*
X13840156Y1606153D1*
X13827649Y1586461D1*
X13813695Y1567767D1*
X13798371Y1550179D1*
X13781765Y1533795D1*
X13763971Y1518709D1*
X13745091Y1505008D1*
X13725232Y1492768D1*
X13704507Y1482060D1*
X13683034Y1472945D1*
X13660935Y1465474D1*
X13638336Y1459690D1*
X13615365Y1455625D1*
X13592153Y1453304D1*
X13568832Y1452738D1*
X13545534Y1453932D1*
X13522394Y1456878D1*
X13499540Y1461560D1*
X13477105Y1467952D1*
X13455215Y1476016D1*
X13433996Y1485706D1*
X13413567Y1496969D1*
X13394045Y1509739D1*
X13375541Y1523945D1*
X13358161Y1539504D1*
X13342002Y1556330D1*
X13327158Y1574325D1*
X13313712Y1593388D1*
X13301741Y1613410D1*
X13291314Y1634278D1*
X13282488Y1655872D1*
X13275316Y1678069D1*
X13269837Y1700744D1*
X13266082Y1723768D1*
X13264073Y1747009D1*
X13263822Y1770336D1*
X13265330Y1793615D1*
X13268588Y1816714D1*
X13273578Y1839502D1*
X13280271Y1861849D1*
X13288629Y1883628D1*
X13298605Y1904715D1*
X13310142Y1924990D1*
X13323174Y1944338D1*
X13336103Y1960718D1*
X13263711Y1960709D1*
Y2579289D1*
X13287044D1*
X2313544Y4475789D2*
X2898791D1*
X2898335Y3937209D1*
X2895475Y3910374D1*
X2891349Y3889635D1*
X2885610Y3869285D1*
X2874315Y3840821D1*
X2898790Y3840790D1*
X2898334Y3302210D1*
X2895475Y3275374D1*
X2891349Y3254635D1*
X2885610Y3234285D1*
X2874315Y3205821D1*
X2898790Y3205790D1*
X2898334Y2667210D1*
X2895475Y2640374D1*
X2891349Y2619635D1*
X2885610Y2599285D1*
X2878292Y2579447D1*
X2869439Y2560245D1*
X2859107Y2541796D1*
X2847360Y2524215D1*
X2834270Y2507610D1*
X2819917Y2492083D1*
X2804390Y2477730D1*
X2787785Y2464640D1*
X2770204Y2452893D1*
X2751755Y2442561D1*
X2732553Y2433708D1*
X2712715Y2426390D1*
X2692365Y2420651D1*
X2671626Y2416525D1*
X2650628Y2414040D1*
X2606167Y2413210D1*
X2559500D1*
X2538372Y2414040D1*
X2517374Y2416525D1*
X2496635Y2420651D1*
X2476285Y2426390D1*
X2456447Y2433708D1*
X2437245Y2442561D1*
X2415294Y2455233D1*
X2396361Y2449822D1*
X2377933Y2446156D1*
X2359274Y2443948D1*
X2340500Y2443210D1*
X2321726Y2443948D1*
X2303067Y2446156D1*
X2284639Y2449822D1*
X2266555Y2454922D1*
X2248928Y2461425D1*
X2231865Y2469291D1*
X2215471Y2478472D1*
X2199849Y2488910D1*
X2185094Y2500542D1*
X2171296Y2513296D1*
X2158542Y2527094D1*
X2146910Y2541849D1*
X2136472Y2557471D1*
X2127291Y2573865D1*
X2119425Y2590928D1*
X2112922Y2608555D1*
X2107822Y2626639D1*
X2104156Y2645067D1*
X2101948Y2663726D1*
X2101210Y2682500D1*
X2101948Y2701274D1*
X2104156Y2719933D1*
X2107822Y2738361D1*
X2112922Y2756445D1*
X2119425Y2774072D1*
X2127291Y2791135D1*
X2137736Y2809420D1*
X2127291Y2827865D1*
X2119425Y2844928D1*
X2112922Y2862555D1*
X2107822Y2880639D1*
X2104156Y2899067D1*
X2101948Y2917726D1*
X2101210Y2936500D1*
X2101948Y2955274D1*
X2104156Y2973933D1*
X2107822Y2992361D1*
X2112922Y3010445D1*
X2119425Y3028072D1*
X2127291Y3045135D1*
X2136472Y3061529D1*
X2146910Y3077151D1*
X2158542Y3091906D1*
X2171296Y3105704D1*
X2185094Y3118458D1*
X2195757Y3126864D1*
X2171296Y3148296D1*
X2158542Y3162094D1*
X2146910Y3176849D1*
X2136472Y3192471D1*
X2127291Y3208865D1*
X2119425Y3225928D1*
X2112922Y3243555D1*
X2107822Y3261639D1*
X2104156Y3280067D1*
X2101948Y3298726D1*
X2101210Y3317500D1*
X2101948Y3336274D1*
X2104156Y3354933D1*
X2107822Y3373361D1*
X2112922Y3391445D1*
X2119425Y3409072D1*
X2127291Y3426135D1*
X2137736Y3444420D1*
X2127291Y3462865D1*
X2119425Y3479928D1*
X2112922Y3497555D1*
X2107822Y3515639D1*
X2104156Y3534067D1*
X2101948Y3552726D1*
X2101210Y3571500D1*
X2101948Y3590274D1*
X2104156Y3608933D1*
X2107822Y3627361D1*
X2112922Y3645445D1*
X2119425Y3663072D1*
X2127291Y3680135D1*
X2136472Y3696529D1*
X2146910Y3712151D1*
X2158542Y3726906D1*
X2171296Y3740704D1*
X2185094Y3753458D1*
X2195757Y3761864D1*
X2171296Y3783296D1*
X2158542Y3797094D1*
X2146910Y3811849D1*
X2136472Y3827471D1*
X2127291Y3843865D1*
X2119425Y3860928D1*
X2112922Y3878555D1*
X2107822Y3896639D1*
X2104156Y3915067D1*
X2101948Y3933726D1*
X2101210Y3952500D1*
X2101948Y3971274D1*
X2104156Y3989933D1*
X2107822Y4008361D1*
X2112922Y4026445D1*
X2119425Y4044072D1*
X2127291Y4061135D1*
X2137736Y4079420D1*
X2127291Y4097865D1*
X2119425Y4114928D1*
X2112922Y4132555D1*
X2107822Y4150639D1*
X2104156Y4169067D1*
X2101948Y4187726D1*
X2101210Y4206500D1*
X2101948Y4225274D1*
X2104156Y4243933D1*
X2107822Y4262361D1*
X2112922Y4280445D1*
X2119425Y4298072D1*
X2127291Y4315135D1*
X2136472Y4331529D1*
X2146910Y4347151D1*
X2158542Y4361906D1*
X2171296Y4375704D1*
X2185094Y4388458D1*
X2199849Y4400090D1*
X2215471Y4410528D1*
X2231865Y4419709D1*
X2248928Y4427575D1*
X2266555Y4434078D1*
X2290182Y4440281D1*
X2290211Y4475789D1*
X2313544D1*
X2898787Y3317583D2*
X2897960Y3296372D1*
X3583543Y4475790D2*
X4168790D1*
X4168334Y3937210D1*
X4165475Y3910374D1*
X4161349Y3889635D1*
X4155610Y3869285D1*
X4144315Y3840821D1*
X4168790Y3840790D1*
X4168335Y3302210D1*
X4165475Y3275374D1*
X4161349Y3254635D1*
X4155610Y3234285D1*
X4144315Y3205821D1*
X4168790Y3205790D1*
X4168335Y2667210D1*
X4165475Y2640374D1*
X4161349Y2619635D1*
X4155610Y2599285D1*
X4148292Y2579447D1*
X4139439Y2560245D1*
X4129107Y2541796D1*
X4117360Y2524215D1*
X4104270Y2507610D1*
X4089917Y2492083D1*
X4074390Y2477730D1*
X4057785Y2464640D1*
X4040204Y2452893D1*
X4021755Y2442561D1*
X4002553Y2433708D1*
X3982715Y2426390D1*
X3962365Y2420651D1*
X3941626Y2416525D1*
X3920628Y2414040D1*
X3876167Y2413210D1*
X3829500D1*
X3808372Y2414040D1*
X3787374Y2416525D1*
X3766635Y2420651D1*
X3746285Y2426390D1*
X3726447Y2433708D1*
X3707245Y2442561D1*
X3685294Y2455233D1*
X3666361Y2449822D1*
X3647933Y2446156D1*
X3629274Y2443948D1*
X3610500Y2443210D1*
X3591726Y2443948D1*
X3573067Y2446156D1*
X3554639Y2449822D1*
X3536555Y2454922D1*
X3518928Y2461425D1*
X3501865Y2469291D1*
X3485471Y2478472D1*
X3469849Y2488910D1*
X3455094Y2500542D1*
X3441296Y2513296D1*
X3428542Y2527094D1*
X3416910Y2541849D1*
X3406472Y2557471D1*
X3397291Y2573865D1*
X3389425Y2590928D1*
X3382922Y2608555D1*
X3377822Y2626639D1*
X3374156Y2645067D1*
X3371948Y2663726D1*
X3371210Y2682500D1*
X3371948Y2701274D1*
X3374156Y2719933D1*
X3377822Y2738361D1*
X3382922Y2756445D1*
X3389425Y2774072D1*
X3397291Y2791135D1*
X3407736Y2809420D1*
X3397291Y2827865D1*
X3389425Y2844928D1*
X3382922Y2862555D1*
X3377822Y2880639D1*
X3374156Y2899067D1*
X3371948Y2917726D1*
X3371210Y2936500D1*
X3371948Y2955274D1*
X3374156Y2973933D1*
X3377822Y2992361D1*
X3382922Y3010445D1*
X3389425Y3028072D1*
X3397291Y3045135D1*
X3406472Y3061529D1*
X3416910Y3077151D1*
X3428542Y3091906D1*
X3441296Y3105704D1*
X3455094Y3118458D1*
X3465757Y3126864D1*
X3441296Y3148296D1*
X3428542Y3162094D1*
X3416910Y3176849D1*
X3406472Y3192471D1*
X3397291Y3208865D1*
X3389425Y3225928D1*
X3382922Y3243555D1*
X3377822Y3261639D1*
X3374156Y3280067D1*
X3371948Y3298726D1*
X3371210Y3317500D1*
X3371948Y3336274D1*
X3374156Y3354933D1*
X3377822Y3373361D1*
X3382922Y3391445D1*
X3389425Y3409072D1*
X3397291Y3426135D1*
X3407736Y3444420D1*
X3397291Y3462865D1*
X3389425Y3479928D1*
X3382922Y3497555D1*
X3377822Y3515639D1*
X3374156Y3534067D1*
X3371948Y3552726D1*
X3371210Y3571500D1*
X3371948Y3590274D1*
X3374156Y3608933D1*
X3377822Y3627361D1*
X3382922Y3645445D1*
X3389425Y3663072D1*
X3397291Y3680135D1*
X3406472Y3696529D1*
X3416910Y3712151D1*
X3428542Y3726906D1*
X3441296Y3740704D1*
X3455094Y3753458D1*
X3465757Y3761864D1*
X3441296Y3783296D1*
X3428542Y3797094D1*
X3416910Y3811849D1*
X3406472Y3827471D1*
X3397291Y3843865D1*
X3389425Y3860928D1*
X3382922Y3878555D1*
X3377822Y3896639D1*
X3374156Y3915067D1*
X3371948Y3933726D1*
X3371210Y3952500D1*
X3371948Y3971274D1*
X3374156Y3989933D1*
X3377822Y4008361D1*
X3382922Y4026445D1*
X3389425Y4044072D1*
X3397291Y4061135D1*
X3407736Y4079420D1*
X3397291Y4097865D1*
X3389425Y4114928D1*
X3382922Y4132555D1*
X3377822Y4150639D1*
X3374156Y4169067D1*
X3371948Y4187726D1*
X3371210Y4206500D1*
X3371948Y4225274D1*
X3374156Y4243933D1*
X3377822Y4262361D1*
X3382922Y4280445D1*
X3389425Y4298072D1*
X3397291Y4315135D1*
X3406472Y4331529D1*
X3416910Y4347151D1*
X3428542Y4361906D1*
X3441296Y4375704D1*
X3455094Y4388458D1*
X3469849Y4400090D1*
X3485471Y4410528D1*
X3501865Y4419709D1*
X3518928Y4427575D1*
X3536555Y4434078D1*
X3560182Y4440281D1*
X3560210Y4475790D1*
X3583543D1*
X4853544D2*
X5438790D1*
X5438335Y3937210D1*
X5435475Y3910374D1*
X5431349Y3889635D1*
X5425610Y3869285D1*
X5418292Y3849447D1*
X5409439Y3830245D1*
X5399107Y3811796D1*
X5387360Y3794215D1*
X5374270Y3777610D1*
X5359917Y3762083D1*
X5344390Y3747730D1*
X5327785Y3734640D1*
X5310204Y3722893D1*
X5291755Y3712561D1*
X5272553Y3703708D1*
X5252715Y3696390D1*
X5232365Y3690651D1*
X5211626Y3686525D1*
X5190628Y3684040D1*
X5146167Y3683210D1*
X5099500D1*
X5078372Y3684040D1*
X5057374Y3686525D1*
X5036635Y3690651D1*
X5016285Y3696390D1*
X4996447Y3703708D1*
X4977245Y3712561D1*
X4955294Y3725233D1*
X4936361Y3719822D1*
X4917933Y3716156D1*
X4899274Y3713948D1*
X4880500Y3713210D1*
X4861726Y3713948D1*
X4843067Y3716156D1*
X4824639Y3719822D1*
X4806555Y3724922D1*
X4788928Y3731425D1*
X4771865Y3739291D1*
X4755471Y3748472D1*
X4739849Y3758910D1*
X4725094Y3770542D1*
X4711296Y3783296D1*
X4698542Y3797094D1*
X4686910Y3811849D1*
X4676472Y3827471D1*
X4667291Y3843865D1*
X4659425Y3860928D1*
X4652922Y3878555D1*
X4647822Y3896639D1*
X4644156Y3915067D1*
X4641948Y3933726D1*
X4641210Y3952500D1*
X4641948Y3971274D1*
X4644156Y3989933D1*
X4647822Y4008361D1*
X4652922Y4026445D1*
X4659425Y4044072D1*
X4667291Y4061135D1*
X4677736Y4079420D1*
X4667291Y4097865D1*
X4659425Y4114928D1*
X4652922Y4132555D1*
X4647822Y4150639D1*
X4644156Y4169067D1*
X4641948Y4187726D1*
X4641210Y4206500D1*
X4641948Y4225274D1*
X4644156Y4243933D1*
X4647822Y4262361D1*
X4652922Y4280445D1*
X4659425Y4298072D1*
X4667291Y4315135D1*
X4676472Y4331529D1*
X4686910Y4347151D1*
X4698542Y4361906D1*
X4711296Y4375704D1*
X4725094Y4388458D1*
X4739849Y4400090D1*
X4755471Y4410528D1*
X4771865Y4419709D1*
X4788928Y4427575D1*
X4806555Y4434078D1*
X4830182Y4440281D1*
X4830210Y4475790D1*
X4853544D1*
X4905044Y2833290D2*
X4953989D1*
X4931712Y2863388D1*
X4919741Y2883410D1*
X4909314Y2904278D1*
X4901764Y2922751D1*
X4889340Y2899711D1*
X4872576Y2876638D1*
X4848841Y2852111D1*
X4827154Y2833588D1*
X4802837Y2818687D1*
X4772175Y2803693D1*
X4745051Y2794880D1*
X4711432Y2788987D1*
X4683000Y2786750D1*
X4654568Y2788987D1*
X4620949Y2794880D1*
X4593825Y2803693D1*
X4563163Y2818687D1*
X4538846Y2833588D1*
X4517159Y2852111D1*
X4493423Y2876638D1*
X4476660Y2899711D1*
X4460667Y2929865D1*
X4449753Y2956214D1*
X4443095Y2983945D1*
X4438310Y3017740D1*
Y3046260D1*
X4443095Y3080055D1*
X4449753Y3107787D1*
X4460667Y3134135D1*
X4476660Y3164289D1*
X4493423Y3187362D1*
X4517159Y3211889D1*
X4538845Y3230412D1*
X4563163Y3245313D1*
X4593825Y3260308D1*
X4620949Y3269121D1*
X4654568Y3275013D1*
X4683000Y3277250D1*
X4711432Y3275013D1*
X4745051Y3269121D1*
X4772175Y3260308D1*
X4802837Y3245313D1*
X4827155Y3230412D1*
X4848841Y3211890D1*
X4872577Y3187362D1*
X4889340Y3164289D1*
X4901675Y3141313D1*
X4916605Y3174715D1*
X4928142Y3194990D1*
X4941174Y3214338D1*
X4955627Y3232649D1*
X4971420Y3249818D1*
X4988461Y3265749D1*
X5006655Y3280349D1*
X5025898Y3293537D1*
X5046079Y3305237D1*
X5067085Y3315382D1*
X5088796Y3323916D1*
X5111089Y3330788D1*
X5133836Y3335961D1*
X5156908Y3339405D1*
X5180174Y3341100D1*
X5203502Y3341037D1*
X5226758Y3339216D1*
X5249812Y3335647D1*
X5272530Y3330351D1*
X5294785Y3323357D1*
X5316449Y3314706D1*
X5337400Y3304447D1*
X5357518Y3292638D1*
X5376689Y3279346D1*
X5394803Y3264647D1*
X5411758Y3248625D1*
X5427457Y3231370D1*
X5441811Y3212981D1*
X5454738Y3193563D1*
X5466165Y3173225D1*
X5476026Y3152084D1*
X5484266Y3130260D1*
X5490838Y3107877D1*
X5495704Y3085063D1*
X5498837Y3061946D1*
X5500290Y3032000D1*
X5499410Y3008689D1*
X5496776Y2985510D1*
X5492402Y2962596D1*
X5486314Y2940077D1*
X5478546Y2918080D1*
X5469142Y2896732D1*
X5458156Y2876153D1*
X5445649Y2856461D1*
X5427804Y2833301D1*
X5500290Y2833290D1*
Y2214710D1*
X4881710D1*
Y2833290D1*
X4905044D1*
X6739178Y2295289D2*
X6740291D1*
Y1736709D1*
X6181711D1*
Y2295289D1*
X6182895D1*
X6185149Y2313691D1*
X6189427Y2335199D1*
X6195379Y2356305D1*
X6202970Y2376880D1*
X6212151Y2397205D1*
X6202970Y2417120D1*
X6195379Y2437695D1*
X6189427Y2458801D1*
X6185149Y2480309D1*
X6182571Y2502087D1*
X6181710Y2524000D1*
X6182571Y2545913D1*
X6185149Y2567691D1*
X6189427Y2589199D1*
X6195379Y2610305D1*
X6202970Y2630880D1*
X6212151Y2650795D1*
X6222866Y2669929D1*
X6235050Y2688163D1*
X6248626Y2705384D1*
X6263512Y2721488D1*
X6279616Y2736374D1*
X6296837Y2749950D1*
X6315071Y2762134D1*
X6334205Y2772849D1*
X6354120Y2782030D1*
X6374695Y2789621D1*
X6395801Y2795573D1*
X6417309Y2799851D1*
X6439087Y2802429D1*
X6461000Y2803290D1*
X6482913Y2802429D1*
X6504691Y2799851D1*
X6526199Y2795573D1*
X6547305Y2789621D1*
X6567880Y2782030D1*
X6587795Y2772849D1*
X6606929Y2762134D1*
X6625163Y2749950D1*
X6642384Y2736374D1*
X6658488Y2721488D1*
X6673374Y2705384D1*
X6686950Y2688163D1*
X6699134Y2669929D1*
X6709849Y2650795D1*
X6719030Y2630880D1*
X6726621Y2610305D1*
X6732573Y2589199D1*
X6736851Y2567691D1*
X6739429Y2545913D1*
X6740290Y2524000D1*
X6739429Y2502087D1*
X6736851Y2480309D1*
X6732573Y2458801D1*
X6726621Y2437695D1*
X6719030Y2417120D1*
X6709849Y2396795D1*
X6719030Y2376880D1*
X6726621Y2356305D1*
X6732573Y2335199D1*
X6736851Y2313691D1*
X6739036Y2295231D1*
X6181713Y2269914D2*
Y2270086D1*
X4992380Y5196289D2*
X5323291D1*
Y4677709D1*
X4992340D1*
X4978395Y4664834D1*
X4962407Y4652230D1*
X4945479Y4640919D1*
X4927715Y4630971D1*
X4909226Y4622447D1*
X4890125Y4615401D1*
X4870530Y4609874D1*
X4850562Y4605902D1*
X4830344Y4603509D1*
X4810000Y4602710D1*
X4789656Y4603509D1*
X4769438Y4605902D1*
X4749470Y4609874D1*
X4729875Y4615401D1*
X4710774Y4622447D1*
X4683195Y4636062D1*
X4655226Y4622447D1*
X4636125Y4615401D1*
X4616530Y4609874D1*
X4596562Y4605902D1*
X4576344Y4603509D1*
X4556000Y4602710D1*
X4535656Y4603509D1*
X4515438Y4605902D1*
X4495470Y4609874D1*
X4475875Y4615401D1*
X4456774Y4622447D1*
X4429195Y4636062D1*
X4401226Y4622447D1*
X4382125Y4615401D1*
X4362530Y4609874D1*
X4342562Y4605902D1*
X4322344Y4603509D1*
X4302000Y4602710D1*
X4281656Y4603509D1*
X4261438Y4605902D1*
X4241470Y4609874D1*
X4221875Y4615401D1*
X4202774Y4622447D1*
X4175195Y4636062D1*
X4147226Y4622447D1*
X4128125Y4615401D1*
X4108530Y4609874D1*
X4088562Y4605902D1*
X4068344Y4603509D1*
X4048000Y4602710D1*
X4027656Y4603509D1*
X4007438Y4605902D1*
X3987470Y4609874D1*
X3967875Y4615401D1*
X3948774Y4622447D1*
X3921195Y4636062D1*
X3893226Y4622447D1*
X3874125Y4615401D1*
X3854530Y4609874D1*
X3834562Y4605902D1*
X3814344Y4603509D1*
X3794000Y4602710D1*
X3773656Y4603509D1*
X3753438Y4605902D1*
X3733470Y4609874D1*
X3713875Y4615401D1*
X3694774Y4622447D1*
X3667195Y4636062D1*
X3639226Y4622447D1*
X3620125Y4615401D1*
X3600530Y4609874D1*
X3580562Y4605902D1*
X3560344Y4603509D1*
X3540000Y4602710D1*
X3519656Y4603509D1*
X3499438Y4605902D1*
X3479470Y4609874D1*
X3459875Y4615401D1*
X3440774Y4622447D1*
X3413195Y4636062D1*
X3385226Y4622447D1*
X3366125Y4615401D1*
X3346530Y4609874D1*
X3326562Y4605902D1*
X3306344Y4603509D1*
X3286000Y4602710D1*
X3265656Y4603509D1*
X3245438Y4605902D1*
X3225470Y4609874D1*
X3205875Y4615401D1*
X3186774Y4622447D1*
X3168285Y4630971D1*
X3150521Y4640919D1*
X3133593Y4652230D1*
X3117605Y4664834D1*
X3102654Y4678654D1*
X3088834Y4693605D1*
X3076230Y4709593D1*
X3064919Y4726521D1*
X3054971Y4744285D1*
X3046447Y4762774D1*
X3039401Y4781875D1*
X3033874Y4801470D1*
X3029902Y4821438D1*
X3027509Y4841656D1*
X3026710Y4885333D1*
Y5012000D1*
X3027509Y5032344D1*
X3029902Y5052562D1*
X3033874Y5072530D1*
X3039401Y5092125D1*
X3046447Y5111226D1*
X3054971Y5129715D1*
X3064919Y5147479D1*
X3076230Y5164407D1*
X3088834Y5180395D1*
X3102654Y5195346D1*
X3117605Y5209166D1*
X3133593Y5221770D1*
X3150521Y5233081D1*
X3168285Y5243029D1*
X3186774Y5251553D1*
X3205875Y5258599D1*
X3225470Y5264126D1*
X3245438Y5268098D1*
X3265656Y5270491D1*
X3286000Y5271290D1*
X3306344Y5270491D1*
X3326562Y5268098D1*
X3346530Y5264126D1*
X3366125Y5258599D1*
X3385226Y5251553D1*
X3412805Y5237938D1*
X3440774Y5251553D1*
X3459875Y5258599D1*
X3479470Y5264126D1*
X3499438Y5268098D1*
X3519656Y5270491D1*
X3540000Y5271290D1*
X3560344Y5270491D1*
X3580562Y5268098D1*
X3600530Y5264126D1*
X3620125Y5258599D1*
X3639226Y5251553D1*
X3666805Y5237938D1*
X3694774Y5251553D1*
X3713875Y5258599D1*
X3733470Y5264126D1*
X3753438Y5268098D1*
X3773656Y5270491D1*
X3794000Y5271290D1*
X3814344Y5270491D1*
X3834562Y5268098D1*
X3854530Y5264126D1*
X3874125Y5258599D1*
X3893226Y5251553D1*
X3920805Y5237938D1*
X3948774Y5251553D1*
X3967875Y5258599D1*
X3987470Y5264126D1*
X4007438Y5268098D1*
X4027656Y5270491D1*
X4048000Y5271290D1*
X4068344Y5270491D1*
X4088562Y5268098D1*
X4108530Y5264126D1*
X4128125Y5258599D1*
X4147226Y5251553D1*
X4174805Y5237938D1*
X4202774Y5251553D1*
X4221875Y5258599D1*
X4241470Y5264126D1*
X4261438Y5268098D1*
X4281656Y5270491D1*
X4302000Y5271290D1*
X4322344Y5270491D1*
X4342562Y5268098D1*
X4362530Y5264126D1*
X4382125Y5258599D1*
X4401226Y5251553D1*
X4428805Y5237938D1*
X4456774Y5251553D1*
X4475875Y5258599D1*
X4495470Y5264126D1*
X4515438Y5268098D1*
X4535656Y5270491D1*
X4556000Y5271290D1*
X4576344Y5270491D1*
X4596562Y5268098D1*
X4616530Y5264126D1*
X4636125Y5258599D1*
X4655226Y5251553D1*
X4682805Y5237938D1*
X4710774Y5251553D1*
X4729875Y5258599D1*
X4749470Y5264126D1*
X4769438Y5268098D1*
X4789656Y5270491D1*
X4810000Y5271290D1*
X4830344Y5270491D1*
X4850562Y5268098D1*
X4870530Y5264126D1*
X4890125Y5258599D1*
X4909226Y5251553D1*
X4927715Y5243029D1*
X4945479Y5233081D1*
X4962407Y5221770D1*
X4978395Y5209166D1*
X4992353Y5196263D1*
X2780582Y10152681D2*
X2778460Y10129448D1*
X2774932Y10106386D1*
X2770012Y10083582D1*
X2763716Y10061117D1*
X2756069Y10039076D1*
X2747099Y10017540D1*
X2736838Y9996588D1*
X2725325Y9976297D1*
X2712602Y9956742D1*
X2698716Y9937995D1*
X2683717Y9920125D1*
X2667662Y9903198D1*
X2650610Y9887277D1*
X2632623Y9872420D1*
X2613767Y9858682D1*
X2594112Y9846113D1*
X2573731Y9834760D1*
X2552699Y9824664D1*
X2531093Y9815864D1*
X2508992Y9808391D1*
X2486479Y9802272D1*
X2463636Y9797531D1*
X2440548Y9794185D1*
X2417299Y9792246D1*
X2393975Y9791722D1*
X2370662Y9792614D1*
X2347446Y9794918D1*
X2324413Y9798628D1*
X2301648Y9803728D1*
X2279234Y9810200D1*
X2257254Y9818020D1*
X2235789Y9827159D1*
X2214918Y9837585D1*
X2194718Y9849257D1*
X2175264Y9862134D1*
X2156627Y9876167D1*
X2138876Y9891306D1*
X2122076Y9907494D1*
X2106290Y9924671D1*
X2091574Y9942775D1*
X2077985Y9961738D1*
X2065571Y9981491D1*
X2054379Y10001961D1*
X2044450Y10023072D1*
X2035819Y10044747D1*
X2028521Y10066905D1*
X2022580Y10089466D1*
X2018019Y10112345D1*
X2014854Y10135460D1*
X2013099Y10158723D1*
X2012758Y10182050D1*
X2013833Y10205355D1*
X2016320Y10228552D1*
X2020211Y10251555D1*
X2025490Y10274280D1*
X2032138Y10296642D1*
X2040131Y10318560D1*
X2049439Y10339952D1*
X2060029Y10360741D1*
X2071860Y10380848D1*
X2084889Y10400200D1*
X2099069Y10418726D1*
X2114347Y10436357D1*
X2130666Y10453029D1*
X2147967Y10468680D1*
X2166186Y10483252D1*
X2185256Y10496692D1*
X2205106Y10508950D1*
X2225663Y10519980D1*
X2246852Y10529743D1*
X2268594Y10538203D1*
X2290809Y10545327D1*
X2313416Y10551090D1*
X2336331Y10555471D1*
X2359469Y10558453D1*
X2382746Y10560026D1*
X2406075Y10560183D1*
X2429371Y10558924D1*
X2452547Y10556254D1*
X2475519Y10552183D1*
X2498202Y10546725D1*
X2520511Y10539901D1*
X2542365Y10531736D1*
X2563684Y10522259D1*
X2584388Y10511507D1*
X2604401Y10499518D1*
X2623650Y10486336D1*
X2642064Y10472011D1*
X2659574Y10456595D1*
X2676117Y10440145D1*
X2691631Y10422721D1*
X2706060Y10404388D1*
X2719349Y10385213D1*
X2731450Y10365267D1*
X2742319Y10344623D1*
X2751914Y10323359D1*
X2760202Y10301550D1*
X2767151Y10279280D1*
X2772736Y10256628D1*
X2776937Y10233680D1*
X2779737Y10210519D1*
X2781290Y10176000D1*
X2780582Y10152681D1*
X5320582D2*
X5318460Y10129448D1*
X5314932Y10106386D1*
X5310012Y10083582D1*
X5303716Y10061117D1*
X5296069Y10039076D1*
X5287099Y10017540D1*
X5276838Y9996588D1*
X5265325Y9976297D1*
X5252602Y9956742D1*
X5238716Y9937995D1*
X5223717Y9920125D1*
X5207662Y9903198D1*
X5190610Y9887277D1*
X5172623Y9872420D1*
X5153767Y9858682D1*
X5134112Y9846113D1*
X5113731Y9834760D1*
X5092699Y9824664D1*
X5071093Y9815864D1*
X5048992Y9808391D1*
X5026479Y9802272D1*
X5003636Y9797531D1*
X4980548Y9794185D1*
X4957299Y9792246D1*
X4933975Y9791722D1*
X4910662Y9792614D1*
X4887446Y9794918D1*
X4864413Y9798628D1*
X4841648Y9803728D1*
X4819234Y9810200D1*
X4797254Y9818020D1*
X4775789Y9827159D1*
X4754918Y9837585D1*
X4734718Y9849257D1*
X4715264Y9862134D1*
X4696627Y9876167D1*
X4678876Y9891306D1*
X4662076Y9907494D1*
X4646290Y9924671D1*
X4631574Y9942775D1*
X4617985Y9961738D1*
X4605571Y9981491D1*
X4594379Y10001961D1*
X4584450Y10023072D1*
X4575819Y10044747D1*
X4568521Y10066905D1*
X4562580Y10089466D1*
X4558019Y10112345D1*
X4554854Y10135460D1*
X4553099Y10158723D1*
X4552758Y10182050D1*
X4553833Y10205355D1*
X4556320Y10228552D1*
X4560211Y10251555D1*
X4565490Y10274280D1*
X4572138Y10296642D1*
X4580131Y10318560D1*
X4589439Y10339952D1*
X4600029Y10360741D1*
X4611860Y10380848D1*
X4624889Y10400200D1*
X4639069Y10418726D1*
X4654347Y10436357D1*
X4670666Y10453029D1*
X4687967Y10468680D1*
X4706186Y10483252D1*
X4725256Y10496692D1*
X4745106Y10508950D1*
X4765663Y10519980D1*
X4786852Y10529743D1*
X4808594Y10538203D1*
X4830809Y10545327D1*
X4853416Y10551090D1*
X4876331Y10555471D1*
X4899469Y10558453D1*
X4922746Y10560026D1*
X4946075Y10560183D1*
X4969371Y10558924D1*
X4992547Y10556254D1*
X5015519Y10552183D1*
X5038202Y10546725D1*
X5060511Y10539901D1*
X5082365Y10531736D1*
X5103684Y10522259D1*
X5124388Y10511507D1*
X5144401Y10499518D1*
X5163650Y10486336D1*
X5182064Y10472011D1*
X5199574Y10456595D1*
X5216117Y10440145D1*
X5231631Y10422721D1*
X5246060Y10404388D1*
X5259349Y10385213D1*
X5271450Y10365267D1*
X5282319Y10344623D1*
X5291914Y10323359D1*
X5300202Y10301550D1*
X5307151Y10279280D1*
X5312736Y10256628D1*
X5316937Y10233680D1*
X5319737Y10210519D1*
X5321290Y10176000D1*
X5320582Y10152681D1*
X7352582Y10406681D2*
X7350460Y10383448D1*
X7346932Y10360386D1*
X7342012Y10337582D1*
X7335716Y10315117D1*
X7328069Y10293076D1*
X7319099Y10271540D1*
X7308838Y10250588D1*
X7297325Y10230297D1*
X7284602Y10210742D1*
X7270716Y10191995D1*
X7255717Y10174125D1*
X7239662Y10157198D1*
X7222610Y10141277D1*
X7204623Y10126420D1*
X7185767Y10112682D1*
X7166112Y10100113D1*
X7145731Y10088760D1*
X7124699Y10078664D1*
X7103093Y10069864D1*
X7080992Y10062391D1*
X7058479Y10056272D1*
X7035636Y10051531D1*
X7012548Y10048185D1*
X6989299Y10046246D1*
X6965975Y10045722D1*
X6942662Y10046614D1*
X6919446Y10048918D1*
X6896413Y10052628D1*
X6873648Y10057728D1*
X6851234Y10064200D1*
X6829254Y10072020D1*
X6807789Y10081159D1*
X6786918Y10091585D1*
X6766718Y10103257D1*
X6747264Y10116134D1*
X6728627Y10130167D1*
X6710876Y10145306D1*
X6694076Y10161494D1*
X6678290Y10178671D1*
X6663574Y10196775D1*
X6649985Y10215738D1*
X6637571Y10235491D1*
X6626379Y10255961D1*
X6616450Y10277072D1*
X6607819Y10298747D1*
X6600521Y10320905D1*
X6594580Y10343466D1*
X6590019Y10366345D1*
X6586854Y10389460D1*
X6585099Y10412723D1*
X6584758Y10436050D1*
X6585833Y10459355D1*
X6588320Y10482552D1*
X6592211Y10505555D1*
X6597490Y10528280D1*
X6604138Y10550642D1*
X6612131Y10572560D1*
X6621439Y10593952D1*
X6632029Y10614741D1*
X6643860Y10634848D1*
X6656889Y10654200D1*
X6671069Y10672726D1*
X6686347Y10690357D1*
X6702666Y10707029D1*
X6719967Y10722680D1*
X6738186Y10737252D1*
X6757256Y10750692D1*
X6777106Y10762950D1*
X6797663Y10773980D1*
X6818852Y10783743D1*
X6840594Y10792203D1*
X6862809Y10799327D1*
X6885416Y10805090D1*
X6908331Y10809471D1*
X6931469Y10812453D1*
X6954746Y10814026D1*
X6978075Y10814183D1*
X7001371Y10812924D1*
X7024547Y10810254D1*
X7047519Y10806183D1*
X7070202Y10800725D1*
X7092511Y10793901D1*
X7114365Y10785736D1*
X7135684Y10776259D1*
X7156388Y10765507D1*
X7176401Y10753518D1*
X7195650Y10740336D1*
X7214064Y10726011D1*
X7231574Y10710595D1*
X7248117Y10694145D1*
X7263631Y10676721D1*
X7278060Y10658388D1*
X7291349Y10639213D1*
X7303450Y10619267D1*
X7314319Y10598623D1*
X7323914Y10577359D1*
X7332202Y10555550D1*
X7339151Y10533280D1*
X7344736Y10510628D1*
X7348937Y10487680D1*
X7351737Y10464519D1*
X7353290Y10430000D1*
X7352582Y10406681D1*
X9892582D2*
X9890460Y10383448D1*
X9886932Y10360386D1*
X9882012Y10337582D1*
X9875716Y10315117D1*
X9868069Y10293076D1*
X9859099Y10271540D1*
X9848838Y10250588D1*
X9837325Y10230297D1*
X9824602Y10210742D1*
X9810716Y10191995D1*
X9795717Y10174125D1*
X9779662Y10157198D1*
X9762610Y10141277D1*
X9744623Y10126420D1*
X9725767Y10112682D1*
X9706112Y10100113D1*
X9685731Y10088760D1*
X9664699Y10078664D1*
X9643093Y10069864D1*
X9620992Y10062391D1*
X9598479Y10056272D1*
X9575636Y10051531D1*
X9552548Y10048185D1*
X9529299Y10046246D1*
X9505975Y10045722D1*
X9482662Y10046614D1*
X9459446Y10048918D1*
X9436413Y10052628D1*
X9413648Y10057728D1*
X9391234Y10064200D1*
X9369254Y10072020D1*
X9347789Y10081159D1*
X9326918Y10091585D1*
X9306718Y10103257D1*
X9287264Y10116134D1*
X9268627Y10130167D1*
X9250876Y10145306D1*
X9234076Y10161494D1*
X9218290Y10178671D1*
X9203574Y10196775D1*
X9189985Y10215738D1*
X9177571Y10235491D1*
X9166379Y10255961D1*
X9156450Y10277072D1*
X9147819Y10298747D1*
X9140521Y10320905D1*
X9134580Y10343466D1*
X9130019Y10366345D1*
X9126854Y10389460D1*
X9125099Y10412723D1*
X9124758Y10436050D1*
X9125833Y10459355D1*
X9128320Y10482552D1*
X9132211Y10505555D1*
X9137490Y10528280D1*
X9144138Y10550642D1*
X9152131Y10572560D1*
X9161439Y10593952D1*
X9172029Y10614741D1*
X9183860Y10634848D1*
X9196889Y10654200D1*
X9211069Y10672726D1*
X9226347Y10690357D1*
X9242666Y10707029D1*
X9259967Y10722680D1*
X9278186Y10737252D1*
X9297256Y10750692D1*
X9317106Y10762950D1*
X9337663Y10773980D1*
X9358852Y10783743D1*
X9380594Y10792203D1*
X9402809Y10799327D1*
X9425416Y10805090D1*
X9448331Y10809471D1*
X9471469Y10812453D1*
X9494746Y10814026D1*
X9518075Y10814183D1*
X9541371Y10812924D1*
X9564547Y10810254D1*
X9587519Y10806183D1*
X9610202Y10800725D1*
X9632511Y10793901D1*
X9654365Y10785736D1*
X9675684Y10776259D1*
X9696388Y10765507D1*
X9716401Y10753518D1*
X9735650Y10740336D1*
X9754064Y10726011D1*
X9771574Y10710595D1*
X9788117Y10694145D1*
X9803631Y10676721D1*
X9818060Y10658388D1*
X9831349Y10639213D1*
X9843450Y10619267D1*
X9854319Y10598623D1*
X9863914Y10577359D1*
X9872202Y10555550D1*
X9879151Y10533280D1*
X9884736Y10510628D1*
X9888937Y10487680D1*
X9891737Y10464519D1*
X9893290Y10430000D1*
X9892582Y10406681D1*
X11924582Y10787681D2*
X11922460Y10764448D1*
X11918932Y10741386D1*
X11914012Y10718582D1*
X11907716Y10696117D1*
X11900069Y10674076D1*
X11891099Y10652540D1*
X11880838Y10631588D1*
X11869325Y10611297D1*
X11856602Y10591742D1*
X11842716Y10572995D1*
X11827717Y10555125D1*
X11811662Y10538198D1*
X11794610Y10522277D1*
X11776623Y10507420D1*
X11757767Y10493682D1*
X11738112Y10481113D1*
X11717731Y10469760D1*
X11696699Y10459664D1*
X11675093Y10450864D1*
X11652992Y10443391D1*
X11630479Y10437272D1*
X11607636Y10432531D1*
X11584548Y10429185D1*
X11561299Y10427246D1*
X11537975Y10426722D1*
X11514662Y10427614D1*
X11491446Y10429918D1*
X11468413Y10433628D1*
X11445648Y10438728D1*
X11423234Y10445200D1*
X11401254Y10453020D1*
X11379789Y10462159D1*
X11358918Y10472585D1*
X11338718Y10484257D1*
X11319264Y10497134D1*
X11300627Y10511167D1*
X11282876Y10526306D1*
X11266076Y10542494D1*
X11250290Y10559671D1*
X11235574Y10577775D1*
X11221985Y10596738D1*
X11209571Y10616491D1*
X11198379Y10636961D1*
X11188450Y10658072D1*
X11179819Y10679747D1*
X11172521Y10701905D1*
X11166580Y10724466D1*
X11162019Y10747345D1*
X11158854Y10770460D1*
X11157099Y10793723D1*
X11156758Y10817050D1*
X11157833Y10840355D1*
X11160320Y10863552D1*
X11164211Y10886555D1*
X11169490Y10909280D1*
X11176138Y10931642D1*
X11184131Y10953560D1*
X11193439Y10974952D1*
X11204029Y10995741D1*
X11215860Y11015848D1*
X11228889Y11035200D1*
X11243069Y11053726D1*
X11258347Y11071357D1*
X11274666Y11088029D1*
X11291967Y11103680D1*
X11310186Y11118252D1*
X11329256Y11131692D1*
X11349106Y11143950D1*
X11369663Y11154980D1*
X11390852Y11164743D1*
X11412594Y11173203D1*
X11434809Y11180327D1*
X11457416Y11186090D1*
X11480331Y11190471D1*
X11503469Y11193453D1*
X11526746Y11195026D1*
X11550075Y11195183D1*
X11573371Y11193924D1*
X11596547Y11191254D1*
X11619519Y11187183D1*
X11642202Y11181725D1*
X11664511Y11174901D1*
X11686365Y11166736D1*
X11707684Y11157259D1*
X11728388Y11146507D1*
X11748401Y11134518D1*
X11767650Y11121336D1*
X11786064Y11107011D1*
X11803574Y11091595D1*
X11820117Y11075145D1*
X11835631Y11057721D1*
X11850060Y11039388D1*
X11863349Y11020213D1*
X11875450Y11000267D1*
X11886319Y10979623D1*
X11895914Y10958359D1*
X11904202Y10936550D1*
X11911151Y10914280D1*
X11916736Y10891628D1*
X11920937Y10868680D1*
X11923737Y10845519D1*
X11925290Y10811000D1*
X11924582Y10787681D1*
X14464582D2*
X14462460Y10764448D1*
X14458932Y10741386D1*
X14454012Y10718582D1*
X14447716Y10696117D1*
X14440069Y10674076D1*
X14431099Y10652540D1*
X14420838Y10631588D1*
X14409325Y10611297D1*
X14396602Y10591742D1*
X14382716Y10572995D1*
X14367717Y10555125D1*
X14351662Y10538198D1*
X14334610Y10522277D1*
X14316623Y10507420D1*
X14297767Y10493682D1*
X14278112Y10481113D1*
X14257731Y10469760D1*
X14236699Y10459664D1*
X14215093Y10450864D1*
X14192992Y10443391D1*
X14170479Y10437272D1*
X14147636Y10432531D1*
X14124548Y10429185D1*
X14101299Y10427246D1*
X14077975Y10426722D1*
X14054662Y10427614D1*
X14031446Y10429918D1*
X14008413Y10433628D1*
X13985648Y10438728D1*
X13963234Y10445200D1*
X13941254Y10453020D1*
X13919789Y10462159D1*
X13898918Y10472585D1*
X13878718Y10484257D1*
X13859264Y10497134D1*
X13840627Y10511167D1*
X13822876Y10526306D1*
X13806076Y10542494D1*
X13790290Y10559671D1*
X13775574Y10577775D1*
X13761985Y10596738D1*
X13749571Y10616491D1*
X13738379Y10636961D1*
X13728450Y10658072D1*
X13719819Y10679747D1*
X13712521Y10701905D1*
X13706580Y10724466D1*
X13702019Y10747345D1*
X13698854Y10770460D1*
X13697099Y10793723D1*
X13696758Y10817050D1*
X13697833Y10840355D1*
X13700320Y10863552D1*
X13704211Y10886555D1*
X13709490Y10909280D1*
X13716138Y10931642D1*
X13724131Y10953560D1*
X13733439Y10974952D1*
X13744029Y10995741D1*
X13755860Y11015848D1*
X13768889Y11035200D1*
X13783069Y11053726D1*
X13798347Y11071357D1*
X13814666Y11088029D1*
X13831967Y11103680D1*
X13850186Y11118252D1*
X13869256Y11131692D1*
X13889106Y11143950D1*
X13909663Y11154980D1*
X13930852Y11164743D1*
X13952594Y11173203D1*
X13974809Y11180327D1*
X13997416Y11186090D1*
X14020331Y11190471D1*
X14043469Y11193453D1*
X14066746Y11195026D1*
X14090075Y11195183D1*
X14113371Y11193924D1*
X14136547Y11191254D1*
X14159519Y11187183D1*
X14182202Y11181725D1*
X14204511Y11174901D1*
X14226365Y11166736D1*
X14247684Y11157259D1*
X14268388Y11146507D1*
X14288401Y11134518D1*
X14307650Y11121336D1*
X14326064Y11107011D1*
X14343574Y11091595D1*
X14360117Y11075145D1*
X14375631Y11057721D1*
X14390060Y11039388D1*
X14403349Y11020213D1*
X14415450Y11000267D1*
X14426319Y10979623D1*
X14435914Y10958359D1*
X14444202Y10936550D1*
X14451151Y10914280D1*
X14456736Y10891628D1*
X14460937Y10868680D1*
X14463737Y10845519D1*
X14465290Y10811000D1*
X14464582Y10787681D1*
X15226582Y6405681D2*
X15224460Y6382448D1*
X15220932Y6359386D1*
X15216012Y6336582D1*
X15209716Y6314117D1*
X15202069Y6292076D1*
X15193099Y6270540D1*
X15182838Y6249588D1*
X15171325Y6229297D1*
X15158602Y6209742D1*
X15144716Y6190995D1*
X15129717Y6173125D1*
X15113662Y6156198D1*
X15096610Y6140277D1*
X15078623Y6125420D1*
X15059767Y6111682D1*
X15040112Y6099113D1*
X15019731Y6087760D1*
X14998699Y6077664D1*
X14977093Y6068864D1*
X14954992Y6061391D1*
X14932479Y6055272D1*
X14909636Y6050531D1*
X14886548Y6047185D1*
X14863299Y6045246D1*
X14839975Y6044722D1*
X14816662Y6045614D1*
X14793446Y6047918D1*
X14770413Y6051628D1*
X14747648Y6056728D1*
X14725234Y6063200D1*
X14703254Y6071020D1*
X14681789Y6080159D1*
X14660918Y6090585D1*
X14640718Y6102257D1*
X14621264Y6115134D1*
X14602627Y6129167D1*
X14584876Y6144306D1*
X14568076Y6160494D1*
X14552290Y6177671D1*
X14537574Y6195775D1*
X14523985Y6214738D1*
X14511571Y6234491D1*
X14500379Y6254961D1*
X14490450Y6276072D1*
X14481819Y6297747D1*
X14474521Y6319905D1*
X14468580Y6342466D1*
X14464019Y6365345D1*
X14460854Y6388460D1*
X14459099Y6411723D1*
X14458758Y6435050D1*
X14459833Y6458355D1*
X14462320Y6481552D1*
X14466211Y6504555D1*
X14471490Y6527280D1*
X14478138Y6549642D1*
X14486131Y6571560D1*
X14495439Y6592952D1*
X14506029Y6613741D1*
X14517860Y6633848D1*
X14530889Y6653200D1*
X14545069Y6671726D1*
X14560347Y6689357D1*
X14576666Y6706029D1*
X14593967Y6721680D1*
X14612186Y6736252D1*
X14631256Y6749692D1*
X14651106Y6761950D1*
X14671663Y6772980D1*
X14692852Y6782743D1*
X14714594Y6791203D1*
X14736809Y6798327D1*
X14759416Y6804090D1*
X14782331Y6808471D1*
X14805469Y6811453D1*
X14828746Y6813026D1*
X14852075Y6813183D1*
X14875371Y6811924D1*
X14898547Y6809254D1*
X14921519Y6805183D1*
X14944202Y6799725D1*
X14966511Y6792901D1*
X14988365Y6784736D1*
X15009684Y6775259D1*
X15030388Y6764507D1*
X15050401Y6752518D1*
X15069650Y6739336D1*
X15088064Y6725011D1*
X15105574Y6709595D1*
X15122117Y6693145D1*
X15137631Y6675721D1*
X15152060Y6657388D1*
X15165349Y6638213D1*
X15177450Y6618267D1*
X15188319Y6597623D1*
X15197914Y6576359D1*
X15206202Y6554550D1*
X15213151Y6532280D1*
X15218736Y6509628D1*
X15222937Y6486680D1*
X15225737Y6463519D1*
X15227290Y6429000D1*
X15226582Y6405681D1*
X12686582D2*
X12684460Y6382448D1*
X12680932Y6359386D1*
X12676012Y6336582D1*
X12669716Y6314117D1*
X12662069Y6292076D1*
X12653099Y6270540D1*
X12642838Y6249588D1*
X12631325Y6229297D1*
X12618602Y6209742D1*
X12604716Y6190995D1*
X12589717Y6173125D1*
X12573662Y6156198D1*
X12556610Y6140277D1*
X12538623Y6125420D1*
X12519767Y6111682D1*
X12500112Y6099113D1*
X12479731Y6087760D1*
X12458699Y6077664D1*
X12437093Y6068864D1*
X12414992Y6061391D1*
X12392479Y6055272D1*
X12369636Y6050531D1*
X12346548Y6047185D1*
X12323299Y6045246D1*
X12299975Y6044722D1*
X12276662Y6045614D1*
X12253446Y6047918D1*
X12230413Y6051628D1*
X12207648Y6056728D1*
X12185234Y6063200D1*
X12163254Y6071020D1*
X12141789Y6080159D1*
X12120918Y6090585D1*
X12100718Y6102257D1*
X12081264Y6115134D1*
X12062627Y6129167D1*
X12044876Y6144306D1*
X12028076Y6160494D1*
X12012290Y6177671D1*
X11997574Y6195775D1*
X11983985Y6214738D1*
X11971571Y6234491D1*
X11960379Y6254961D1*
X11950450Y6276072D1*
X11941819Y6297747D1*
X11934521Y6319905D1*
X11928580Y6342466D1*
X11924019Y6365345D1*
X11920854Y6388460D1*
X11919099Y6411723D1*
X11918758Y6435050D1*
X11919833Y6458355D1*
X11922320Y6481552D1*
X11926211Y6504555D1*
X11931490Y6527280D1*
X11938138Y6549642D1*
X11946131Y6571560D1*
X11955439Y6592952D1*
X11966029Y6613741D1*
X11977860Y6633848D1*
X11990889Y6653200D1*
X12005069Y6671726D1*
X12020347Y6689357D1*
X12036666Y6706029D1*
X12053967Y6721680D1*
X12072186Y6736252D1*
X12091256Y6749692D1*
X12111106Y6761950D1*
X12131663Y6772980D1*
X12152852Y6782743D1*
X12174594Y6791203D1*
X12196809Y6798327D1*
X12219416Y6804090D1*
X12242331Y6808471D1*
X12265469Y6811453D1*
X12288746Y6813026D1*
X12312075Y6813183D1*
X12335371Y6811924D1*
X12358547Y6809254D1*
X12381519Y6805183D1*
X12404202Y6799725D1*
X12426511Y6792901D1*
X12448365Y6784736D1*
X12469684Y6775259D1*
X12490388Y6764507D1*
X12510401Y6752518D1*
X12529650Y6739336D1*
X12548064Y6725011D1*
X12565574Y6709595D1*
X12582117Y6693145D1*
X12597631Y6675721D1*
X12612060Y6657388D1*
X12625349Y6638213D1*
X12637450Y6618267D1*
X12648319Y6597623D1*
X12657914Y6576359D1*
X12666202Y6554550D1*
X12673151Y6532280D1*
X12678736Y6509628D1*
X12682937Y6486680D1*
X12685737Y6463519D1*
X12687290Y6429000D1*
X12686582Y6405681D1*
X7860582Y6977681D2*
X7858460Y6954448D1*
X7854932Y6931386D1*
X7850012Y6908582D1*
X7843716Y6886117D1*
X7836069Y6864076D1*
X7827099Y6842540D1*
X7816838Y6821588D1*
X7805325Y6801297D1*
X7792602Y6781742D1*
X7778716Y6762995D1*
X7763717Y6745125D1*
X7747662Y6728198D1*
X7730610Y6712277D1*
X7712623Y6697420D1*
X7693767Y6683682D1*
X7674112Y6671113D1*
X7653731Y6659760D1*
X7632699Y6649664D1*
X7611093Y6640864D1*
X7588992Y6633391D1*
X7566479Y6627272D1*
X7543636Y6622531D1*
X7520548Y6619185D1*
X7497299Y6617246D1*
X7473975Y6616722D1*
X7450662Y6617614D1*
X7427446Y6619918D1*
X7404413Y6623628D1*
X7381648Y6628728D1*
X7359234Y6635200D1*
X7337254Y6643020D1*
X7315789Y6652159D1*
X7294918Y6662585D1*
X7274718Y6674257D1*
X7255264Y6687134D1*
X7236627Y6701167D1*
X7218876Y6716306D1*
X7202076Y6732494D1*
X7186290Y6749671D1*
X7171574Y6767775D1*
X7157985Y6786738D1*
X7145571Y6806491D1*
X7134379Y6826961D1*
X7124450Y6848072D1*
X7115819Y6869747D1*
X7108521Y6891905D1*
X7102580Y6914466D1*
X7098019Y6937345D1*
X7094854Y6960460D1*
X7093099Y6983723D1*
X7092758Y7007050D1*
X7093833Y7030355D1*
X7096320Y7053552D1*
X7100211Y7076555D1*
X7105490Y7099280D1*
X7112138Y7121642D1*
X7120131Y7143560D1*
X7129439Y7164952D1*
X7140029Y7185741D1*
X7151860Y7205848D1*
X7164889Y7225200D1*
X7179069Y7243726D1*
X7194347Y7261357D1*
X7210666Y7278029D1*
X7227967Y7293680D1*
X7246186Y7308252D1*
X7265256Y7321692D1*
X7285106Y7333950D1*
X7305663Y7344980D1*
X7326852Y7354743D1*
X7348594Y7363203D1*
X7370809Y7370327D1*
X7393416Y7376090D1*
X7416331Y7380471D1*
X7439469Y7383453D1*
X7462746Y7385026D1*
X7486075Y7385183D1*
X7509371Y7383924D1*
X7532547Y7381254D1*
X7555519Y7377183D1*
X7578202Y7371725D1*
X7600511Y7364901D1*
X7622365Y7356736D1*
X7643684Y7347259D1*
X7664388Y7336507D1*
X7684401Y7324518D1*
X7703650Y7311336D1*
X7722064Y7297011D1*
X7739574Y7281595D1*
X7756117Y7265145D1*
X7771631Y7247721D1*
X7786060Y7229388D1*
X7799349Y7210213D1*
X7811450Y7190267D1*
X7822319Y7169623D1*
X7831914Y7148359D1*
X7840202Y7126550D1*
X7847151Y7104280D1*
X7852736Y7081628D1*
X7856937Y7058680D1*
X7859737Y7035519D1*
X7861290Y7001000D1*
X7860582Y6977681D1*
X10400582D2*
X10398460Y6954448D1*
X10394932Y6931386D1*
X10390012Y6908582D1*
X10383716Y6886117D1*
X10376069Y6864076D1*
X10367099Y6842540D1*
X10356838Y6821588D1*
X10345325Y6801297D1*
X10332602Y6781742D1*
X10318716Y6762995D1*
X10303717Y6745125D1*
X10287662Y6728198D1*
X10270610Y6712277D1*
X10252623Y6697420D1*
X10233767Y6683682D1*
X10214112Y6671113D1*
X10193731Y6659760D1*
X10172699Y6649664D1*
X10151093Y6640864D1*
X10128992Y6633391D1*
X10106479Y6627272D1*
X10083636Y6622531D1*
X10060548Y6619185D1*
X10037299Y6617246D1*
X10013975Y6616722D1*
X9990662Y6617614D1*
X9967446Y6619918D1*
X9944413Y6623628D1*
X9921648Y6628728D1*
X9899234Y6635200D1*
X9877254Y6643020D1*
X9855789Y6652159D1*
X9834918Y6662585D1*
X9814718Y6674257D1*
X9795264Y6687134D1*
X9776627Y6701167D1*
X9758876Y6716306D1*
X9742076Y6732494D1*
X9726290Y6749671D1*
X9711574Y6767775D1*
X9697985Y6786738D1*
X9685571Y6806491D1*
X9674379Y6826961D1*
X9664450Y6848072D1*
X9655819Y6869747D1*
X9648521Y6891905D1*
X9642580Y6914466D1*
X9638019Y6937345D1*
X9634854Y6960460D1*
X9633099Y6983723D1*
X9632758Y7007050D1*
X9633833Y7030355D1*
X9636320Y7053552D1*
X9640211Y7076555D1*
X9645490Y7099280D1*
X9652138Y7121642D1*
X9660131Y7143560D1*
X9669439Y7164952D1*
X9680029Y7185741D1*
X9691860Y7205848D1*
X9704889Y7225200D1*
X9719069Y7243726D1*
X9734347Y7261357D1*
X9750666Y7278029D1*
X9767967Y7293680D1*
X9786186Y7308252D1*
X9805256Y7321692D1*
X9825106Y7333950D1*
X9845663Y7344980D1*
X9866852Y7354743D1*
X9888594Y7363203D1*
X9910809Y7370327D1*
X9933416Y7376090D1*
X9956331Y7380471D1*
X9979469Y7383453D1*
X10002746Y7385026D1*
X10026075Y7385183D1*
X10049371Y7383924D1*
X10072547Y7381254D1*
X10095519Y7377183D1*
X10118202Y7371725D1*
X10140511Y7364901D1*
X10162365Y7356736D1*
X10183684Y7347259D1*
X10204388Y7336507D1*
X10224401Y7324518D1*
X10243650Y7311336D1*
X10262064Y7297011D1*
X10279574Y7281595D1*
X10296117Y7265145D1*
X10311631Y7247721D1*
X10326060Y7229388D1*
X10339349Y7210213D1*
X10351450Y7190267D1*
X10362319Y7169623D1*
X10371914Y7148359D1*
X10380202Y7126550D1*
X10387151Y7104280D1*
X10392736Y7081628D1*
X10396937Y7058680D1*
X10399737Y7035519D1*
X10401290Y7001000D1*
X10400582Y6977681D1*
X12559582Y2722681D2*
X12557460Y2699448D1*
X12553932Y2676386D1*
X12549012Y2653582D1*
X12542716Y2631117D1*
X12535069Y2609076D1*
X12526099Y2587540D1*
X12515838Y2566588D1*
X12504325Y2546297D1*
X12491602Y2526742D1*
X12477716Y2507995D1*
X12462717Y2490125D1*
X12446662Y2473198D1*
X12429610Y2457277D1*
X12411623Y2442420D1*
X12392767Y2428682D1*
X12373112Y2416113D1*
X12352731Y2404760D1*
X12331699Y2394664D1*
X12310093Y2385864D1*
X12287992Y2378391D1*
X12265479Y2372272D1*
X12242636Y2367531D1*
X12219548Y2364185D1*
X12196299Y2362246D1*
X12172975Y2361722D1*
X12149662Y2362614D1*
X12126446Y2364918D1*
X12103413Y2368628D1*
X12080648Y2373728D1*
X12058234Y2380200D1*
X12036254Y2388020D1*
X12014789Y2397159D1*
X11993918Y2407585D1*
X11973718Y2419257D1*
X11954264Y2432134D1*
X11935627Y2446167D1*
X11917876Y2461306D1*
X11901076Y2477494D1*
X11885290Y2494671D1*
X11870574Y2512775D1*
X11856985Y2531738D1*
X11844571Y2551491D1*
X11833379Y2571961D1*
X11823450Y2593072D1*
X11814819Y2614747D1*
X11807521Y2636905D1*
X11801580Y2659466D1*
X11797019Y2682345D1*
X11793854Y2705460D1*
X11792099Y2728723D1*
X11791758Y2752050D1*
X11792833Y2775355D1*
X11795320Y2798552D1*
X11799211Y2821555D1*
X11804490Y2844280D1*
X11811138Y2866642D1*
X11819131Y2888560D1*
X11828439Y2909952D1*
X11839029Y2930741D1*
X11850860Y2950848D1*
X11863889Y2970200D1*
X11878069Y2988726D1*
X11893347Y3006357D1*
X11909666Y3023029D1*
X11926967Y3038680D1*
X11945186Y3053252D1*
X11964256Y3066692D1*
X11984106Y3078950D1*
X12004663Y3089980D1*
X12025852Y3099743D1*
X12047594Y3108203D1*
X12069809Y3115327D1*
X12092416Y3121090D1*
X12115331Y3125471D1*
X12138469Y3128453D1*
X12161746Y3130026D1*
X12185075Y3130183D1*
X12208371Y3128924D1*
X12231547Y3126254D1*
X12254519Y3122183D1*
X12277202Y3116725D1*
X12299511Y3109901D1*
X12321365Y3101736D1*
X12342684Y3092259D1*
X12363388Y3081507D1*
X12383401Y3069518D1*
X12402650Y3056336D1*
X12421064Y3042011D1*
X12438574Y3026595D1*
X12455117Y3010145D1*
X12470631Y2992721D1*
X12485060Y2974388D1*
X12498349Y2955213D1*
X12510450Y2935267D1*
X12521319Y2914623D1*
X12530914Y2893359D1*
X12539202Y2871550D1*
X12546151Y2849280D1*
X12551736Y2826628D1*
X12555937Y2803680D1*
X12558737Y2780519D1*
X12560290Y2746000D1*
X12559582Y2722681D1*
X10019582D2*
X10017460Y2699448D1*
X10013932Y2676386D1*
X10009012Y2653582D1*
X10002716Y2631117D1*
X9995069Y2609076D1*
X9986099Y2587540D1*
X9975838Y2566588D1*
X9964325Y2546297D1*
X9951602Y2526742D1*
X9937716Y2507995D1*
X9922717Y2490125D1*
X9906662Y2473198D1*
X9889610Y2457277D1*
X9871623Y2442420D1*
X9852767Y2428682D1*
X9833112Y2416113D1*
X9812731Y2404760D1*
X9791699Y2394664D1*
X9770093Y2385864D1*
X9747992Y2378391D1*
X9725479Y2372272D1*
X9702636Y2367531D1*
X9679548Y2364185D1*
X9656299Y2362246D1*
X9632975Y2361722D1*
X9609662Y2362614D1*
X9586446Y2364918D1*
X9563413Y2368628D1*
X9540648Y2373728D1*
X9518234Y2380200D1*
X9496254Y2388020D1*
X9474789Y2397159D1*
X9453918Y2407585D1*
X9433718Y2419257D1*
X9414264Y2432134D1*
X9395627Y2446167D1*
X9377876Y2461306D1*
X9361076Y2477494D1*
X9345290Y2494671D1*
X9330574Y2512775D1*
X9316985Y2531738D1*
X9304571Y2551491D1*
X9293379Y2571961D1*
X9283450Y2593072D1*
X9274819Y2614747D1*
X9267521Y2636905D1*
X9261580Y2659466D1*
X9257019Y2682345D1*
X9253854Y2705460D1*
X9252099Y2728723D1*
X9251758Y2752050D1*
X9252833Y2775355D1*
X9255320Y2798552D1*
X9259211Y2821555D1*
X9264490Y2844280D1*
X9271138Y2866642D1*
X9279131Y2888560D1*
X9288439Y2909952D1*
X9299029Y2930741D1*
X9310860Y2950848D1*
X9323889Y2970200D1*
X9338069Y2988726D1*
X9353347Y3006357D1*
X9369666Y3023029D1*
X9386967Y3038680D1*
X9405186Y3053252D1*
X9424256Y3066692D1*
X9444106Y3078950D1*
X9464663Y3089980D1*
X9485852Y3099743D1*
X9507594Y3108203D1*
X9529809Y3115327D1*
X9552416Y3121090D1*
X9575331Y3125471D1*
X9598469Y3128453D1*
X9621746Y3130026D1*
X9645075Y3130183D1*
X9668371Y3128924D1*
X9691547Y3126254D1*
X9714519Y3122183D1*
X9737202Y3116725D1*
X9759511Y3109901D1*
X9781365Y3101736D1*
X9802684Y3092259D1*
X9823388Y3081507D1*
X9843401Y3069518D1*
X9862650Y3056336D1*
X9881064Y3042011D1*
X9898574Y3026595D1*
X9915117Y3010145D1*
X9930631Y2992721D1*
X9945060Y2974388D1*
X9958349Y2955213D1*
X9970450Y2935267D1*
X9981319Y2914623D1*
X9990914Y2893359D1*
X9999202Y2871550D1*
X10006151Y2849280D1*
X10011736Y2826628D1*
X10015937Y2803680D1*
X10018737Y2780519D1*
X10020290Y2746000D1*
X10019582Y2722681D1*
X14430305Y1864184D2*
X14441247Y1837786D1*
X14447904Y1810055D1*
X14452690Y1776260D1*
Y1747740D1*
X14447905Y1713945D1*
X14441247Y1686214D1*
X14430333Y1659865D1*
X14414340Y1629711D1*
X14397576Y1606638D1*
X14373841Y1582111D1*
X14352154Y1563588D1*
X14327837Y1548687D1*
X14297175Y1533693D1*
X14270051Y1524880D1*
X14236432Y1518987D1*
X14208000Y1516750D1*
X14179568Y1518987D1*
X14145949Y1524880D1*
X14118825Y1533693D1*
X14088163Y1548687D1*
X14063846Y1563588D1*
X14042159Y1582111D1*
X14018423Y1606638D1*
X14001660Y1629711D1*
X13985667Y1659865D1*
X13974753Y1686214D1*
X13968095Y1713945D1*
X13963310Y1747740D1*
Y1776260D1*
X13968095Y1810055D1*
X13974753Y1837787D1*
X13985667Y1864135D1*
X14001660Y1894289D1*
X14018423Y1917362D1*
X14042159Y1941889D1*
X14063845Y1960412D1*
X14088163Y1975313D1*
X14118825Y1990308D1*
X14145949Y1999121D1*
X14179568Y2005013D1*
X14208000Y2007250D1*
X14236432Y2005013D1*
X14270051Y1999121D1*
X14297175Y1990308D1*
X14327837Y1975313D1*
X14352155Y1960412D1*
X14373841Y1941890D1*
X14397577Y1917362D1*
X14414340Y1894289D1*
X14430333Y1864135D1*
X14441247Y1837786D1*
X14447904Y1810055D1*
X14450995Y1790539D1*
X15446305Y4150184D2*
X15457247Y4123786D1*
X15463904Y4096055D1*
X15468690Y4062260D1*
Y4033740D1*
X15463905Y3999945D1*
X15457247Y3972214D1*
X15446333Y3945865D1*
X15430340Y3915711D1*
X15413576Y3892638D1*
X15389841Y3868111D1*
X15368154Y3849588D1*
X15343837Y3834687D1*
X15313175Y3819693D1*
X15286051Y3810880D1*
X15252432Y3804987D1*
X15224000Y3802750D1*
X15195568Y3804987D1*
X15161949Y3810880D1*
X15134825Y3819693D1*
X15104163Y3834687D1*
X15079846Y3849588D1*
X15058159Y3868111D1*
X15034423Y3892638D1*
X15017660Y3915711D1*
X15001667Y3945865D1*
X14990753Y3972214D1*
X14984095Y3999945D1*
X14979310Y4033740D1*
Y4062260D1*
X14984095Y4096055D1*
X14990753Y4123787D1*
X15001667Y4150135D1*
X15017660Y4180289D1*
X15034423Y4203362D1*
X15058159Y4227889D1*
X15079845Y4246412D1*
X15104163Y4261313D1*
X15134825Y4276308D1*
X15161949Y4285121D1*
X15195568Y4291013D1*
X15224000Y4293250D1*
X15252432Y4291013D1*
X15286051Y4285121D1*
X15313175Y4276308D1*
X15343837Y4261313D1*
X15368155Y4246412D1*
X15389841Y4227890D1*
X15413577Y4203362D1*
X15430340Y4180289D1*
X15446333Y4150135D1*
X15457247Y4123786D1*
X15463904Y4096055D1*
X15466995Y4076539D1*
X13922305Y9357184D2*
X13933247Y9330786D1*
X13939904Y9303055D1*
X13944690Y9269260D1*
Y9240740D1*
X13939905Y9206945D1*
X13933247Y9179214D1*
X13922333Y9152865D1*
X13906340Y9122711D1*
X13889576Y9099638D1*
X13865841Y9075111D1*
X13844154Y9056588D1*
X13819837Y9041687D1*
X13789175Y9026693D1*
X13762051Y9017880D1*
X13728432Y9011987D1*
X13700000Y9009750D1*
X13671568Y9011987D1*
X13637949Y9017880D1*
X13610825Y9026693D1*
X13580163Y9041687D1*
X13555846Y9056588D1*
X13534159Y9075111D1*
X13510423Y9099638D1*
X13493660Y9122711D1*
X13477667Y9152865D1*
X13466753Y9179214D1*
X13460095Y9206945D1*
X13455310Y9240740D1*
Y9269260D1*
X13460095Y9303055D1*
X13466753Y9330787D1*
X13477667Y9357135D1*
X13493660Y9387289D1*
X13510423Y9410362D1*
X13534159Y9434889D1*
X13555845Y9453412D1*
X13580163Y9468313D1*
X13610825Y9483308D1*
X13637949Y9492121D1*
X13671568Y9498013D1*
X13700000Y9500250D1*
X13728432Y9498013D1*
X13762051Y9492121D1*
X13789175Y9483308D1*
X13819837Y9468313D1*
X13844155Y9453412D1*
X13865841Y9434890D1*
X13889577Y9410362D1*
X13906340Y9387289D1*
X13922333Y9357135D1*
X13933247Y9330786D1*
X13939904Y9303055D1*
X13942995Y9283539D1*
X8969305Y11897184D2*
X8980247Y11870786D1*
X8986904Y11843055D1*
X8991690Y11809260D1*
Y11780740D1*
X8986905Y11746945D1*
X8980247Y11719214D1*
X8969333Y11692865D1*
X8953340Y11662711D1*
X8936576Y11639638D1*
X8912841Y11615111D1*
X8891154Y11596588D1*
X8866837Y11581687D1*
X8836175Y11566693D1*
X8809051Y11557880D1*
X8775432Y11551987D1*
X8747000Y11549750D1*
X8718568Y11551987D1*
X8684949Y11557880D1*
X8657825Y11566693D1*
X8627163Y11581687D1*
X8602846Y11596588D1*
X8581159Y11615111D1*
X8557423Y11639638D1*
X8540660Y11662711D1*
X8524667Y11692865D1*
X8513753Y11719214D1*
X8507095Y11746945D1*
X8502310Y11780740D1*
Y11809260D1*
X8507095Y11843055D1*
X8513753Y11870787D1*
X8524667Y11897135D1*
X8540660Y11927289D1*
X8557423Y11950362D1*
X8581159Y11974889D1*
X8602845Y11993412D1*
X8627163Y12008313D1*
X8657825Y12023308D1*
X8684949Y12032121D1*
X8718568Y12038013D1*
X8747000Y12040250D1*
X8775432Y12038013D1*
X8809051Y12032121D1*
X8836175Y12023308D1*
X8866837Y12008313D1*
X8891155Y11993412D1*
X8912841Y11974890D1*
X8936577Y11950362D1*
X8953340Y11927289D1*
X8969333Y11897135D1*
X8980247Y11870786D1*
X8986904Y11843055D1*
X8989995Y11823539D1*
X4524305Y11897184D2*
X4535247Y11870786D1*
X4541904Y11843055D1*
X4546690Y11809260D1*
Y11780740D1*
X4541905Y11746945D1*
X4535247Y11719214D1*
X4524333Y11692865D1*
X4508340Y11662711D1*
X4491576Y11639638D1*
X4467841Y11615111D1*
X4446154Y11596588D1*
X4421837Y11581687D1*
X4391175Y11566693D1*
X4364051Y11557880D1*
X4330432Y11551987D1*
X4302000Y11549750D1*
X4273568Y11551987D1*
X4239949Y11557880D1*
X4212825Y11566693D1*
X4182163Y11581687D1*
X4157846Y11596588D1*
X4136159Y11615111D1*
X4112423Y11639638D1*
X4095660Y11662711D1*
X4079667Y11692865D1*
X4068753Y11719214D1*
X4062095Y11746945D1*
X4057310Y11780740D1*
Y11809260D1*
X4062095Y11843055D1*
X4068753Y11870787D1*
X4079667Y11897135D1*
X4095660Y11927289D1*
X4112423Y11950362D1*
X4136159Y11974889D1*
X4157845Y11993412D1*
X4182163Y12008313D1*
X4212825Y12023308D1*
X4239949Y12032121D1*
X4273568Y12038013D1*
X4302000Y12040250D1*
X4330432Y12038013D1*
X4364051Y12032121D1*
X4391175Y12023308D1*
X4421837Y12008313D1*
X4446155Y11993412D1*
X4467841Y11974890D1*
X4491577Y11950362D1*
X4508340Y11927289D1*
X4524333Y11897135D1*
X4535247Y11870786D1*
X4541904Y11843055D1*
X4544995Y11823539D1*
X16061993Y1281808D2*
Y7314637D1*
X16718335D1*
X16718250Y12320846D1*
X16706946Y12305844D1*
X16663270Y12253226D1*
X16623907Y12201832D1*
X16586588Y12148934D1*
X16551371Y12094615D1*
X16518310Y12038957D1*
X16488870Y11984650D1*
X16518542Y11918989D1*
X16546927Y11849008D1*
X16572547Y11777969D1*
X16595363Y11705980D1*
X16615341Y11633152D1*
X16632449Y11559598D1*
X16646661Y11485429D1*
X16657956Y11410761D1*
X16666316Y11335707D1*
X16671728Y11260383D1*
X16674185Y11184996D1*
X16673680Y11109389D1*
X16670217Y11033950D1*
X16663801Y10958705D1*
X16654440Y10883769D1*
X16642149Y10809258D1*
X16626948Y10735286D1*
X16608860Y10661966D1*
X16587912Y10589412D1*
X16564137Y10517734D1*
X16537571Y10447043D1*
X16508255Y10377447D1*
X16474152Y10305120D1*
X16466338Y10292017D1*
X16457521Y10279568D1*
X16447754Y10267848D1*
X16437098Y10256932D1*
X16425618Y10246884D1*
X16413385Y10237769D1*
X16400475Y10229641D1*
X16386967Y10222552D1*
X16372944Y10216544D1*
X16358493Y10211655D1*
X16343703Y10207915D1*
X16328665Y10205346D1*
X16313472Y10203966D1*
X16298218Y10203781D1*
X16282996Y10204795D1*
X16267900Y10206999D1*
X16253024Y10210381D1*
X16238459Y10214920D1*
X16224296Y10220587D1*
X16210620Y10227348D1*
X16197517Y10235162D1*
X16185068Y10243979D1*
X16173348Y10253746D1*
X16162432Y10264402D1*
X16152384Y10275882D1*
X16143269Y10288115D1*
X16135141Y10301025D1*
X16118028Y10335604D1*
X16093832Y10386810D1*
X16062472Y10460373D1*
X16036582Y10528000D1*
X16008516Y10610901D1*
X15986003Y10687635D1*
X15966515Y10765192D1*
X15950081Y10843454D1*
X15936726Y10922299D1*
X15926472Y11001607D1*
X15919334Y11081256D1*
X15915323Y11161124D1*
X15914445Y11241088D1*
X15916702Y11321024D1*
X15922089Y11400811D1*
X15930599Y11480325D1*
X15942219Y11559445D1*
X15956931Y11638048D1*
X15974712Y11716015D1*
X15995534Y11793225D1*
X16019367Y11869559D1*
X16046172Y11944901D1*
X16055652Y11968694D1*
X16014514Y12032236D1*
X15967404Y12096552D1*
X15929764Y12143631D1*
X15891644Y12189729D1*
X15883244Y12202463D1*
X15875868Y12215818D1*
X15869563Y12229709D1*
X15864368Y12244053D1*
X15860313Y12258760D1*
X15857426Y12273740D1*
X15855722Y12288900D1*
X15855213Y12304147D1*
X15855902Y12319387D1*
X15857784Y12334526D1*
X15860849Y12349471D1*
X15865077Y12364129D1*
X15870441Y12378410D1*
X15876910Y12392227D1*
X15884443Y12405493D1*
X15892993Y12418127D1*
X15902508Y12430052D1*
X15912930Y12441193D1*
X15924193Y12451482D1*
X15936229Y12460856D1*
X15948963Y12469256D1*
X15962318Y12476632D1*
X15976209Y12482937D1*
X16002643Y12491555D1*
X16525312Y12621605D1*
X16540444Y12623540D1*
X16555682Y12624282D1*
X16570930Y12623825D1*
X16586096Y12622174D1*
X16601086Y12619338D1*
X16615807Y12615335D1*
X16630168Y12610189D1*
X16644082Y12603932D1*
X16657461Y12596602D1*
X16670225Y12588246D1*
X16682293Y12578914D1*
X16693592Y12568664D1*
X16704052Y12557559D1*
X16713642Y12545618D1*
X16718250Y12543333D1*
Y12718242D1*
X1281732Y12718250D1*
X1281750Y1281758D1*
X16062018Y1281750D1*
X16536270Y9586226D2*
X16496907Y9534832D1*
X16459588Y9481934D1*
X16424371Y9427615D1*
X16391310Y9371957D1*
X16361870Y9317650D1*
X16391542Y9251989D1*
X16419927Y9182008D1*
X16445547Y9110969D1*
X16468363Y9038980D1*
X16488341Y8966152D1*
X16505449Y8892598D1*
X16519661Y8818429D1*
X16530956Y8743761D1*
X16539316Y8668707D1*
X16544728Y8593383D1*
X16547184Y8517905D1*
X16546680Y8442389D1*
X16543217Y8366950D1*
X16536800Y8291705D1*
X16527439Y8216769D1*
X16515149Y8142258D1*
X16499970Y8068374D1*
X16481860Y7994966D1*
X16460913Y7922411D1*
X16437137Y7850734D1*
X16410571Y7780043D1*
X16381256Y7710447D1*
X16345648Y7635408D1*
X16337626Y7622432D1*
X16328611Y7610125D1*
X16318659Y7598563D1*
X16307830Y7587817D1*
X16296191Y7577955D1*
X16283814Y7569036D1*
X16270776Y7561115D1*
X16257156Y7554242D1*
X16243039Y7548459D1*
X16228512Y7543801D1*
X16213664Y7540297D1*
X16198587Y7537969D1*
X16183374Y7536831D1*
X16168119Y7536891D1*
X16152915Y7538147D1*
X16137856Y7540592D1*
X16123036Y7544210D1*
X16108546Y7548981D1*
X16094474Y7554874D1*
X16080908Y7561852D1*
X16067932Y7569874D1*
X16055625Y7578889D1*
X16044063Y7588841D1*
X16033317Y7599670D1*
X16023455Y7611309D1*
X16014536Y7623686D1*
X16000935Y7647780D1*
X15966833Y7719810D1*
X15935472Y7793373D1*
X15907019Y7868108D1*
X15881516Y7943901D1*
X15859003Y8020635D1*
X15839514Y8098192D1*
X15823081Y8176454D1*
X15809726Y8255299D1*
X15799472Y8334607D1*
X15792334Y8414256D1*
X15788323Y8494124D1*
X15787445Y8574088D1*
X15789702Y8654024D1*
X15795089Y8733811D1*
X15803599Y8813325D1*
X15815219Y8892445D1*
X15829931Y8971048D1*
X15845902Y9041678D1*
X15868534Y9126224D1*
X15892367Y9202559D1*
X15919173Y9277901D1*
X15928653Y9301694D1*
X15910008Y9331152D1*
X15876171Y9381035D1*
X15840404Y9429552D1*
X15802764Y9476631D1*
X15787715Y9494463D1*
X15766531Y9494399D1*
X15761703Y9463829D1*
X15753149Y9412258D1*
X15737948Y9338286D1*
X15719860Y9264966D1*
X15698912Y9192412D1*
X15675137Y9120734D1*
X15648571Y9050043D1*
X15619255Y8980447D1*
X15585152Y8908120D1*
X15577338Y8895017D1*
X15568521Y8882568D1*
X15558754Y8870848D1*
X15548098Y8859932D1*
X15536618Y8849885D1*
X15524385Y8840769D1*
X15511475Y8832642D1*
X15497967Y8825552D1*
X15483944Y8819544D1*
X15469493Y8814655D1*
X15454703Y8810915D1*
X15439665Y8808346D1*
X15424472Y8806966D1*
X15409218Y8806782D1*
X15393996Y8807795D1*
X15378900Y8809999D1*
X15364024Y8813381D1*
X15349459Y8817920D1*
X15335296Y8823587D1*
X15321620Y8830348D1*
X15308517Y8838162D1*
X15296068Y8846979D1*
X15284348Y8856746D1*
X15273432Y8867402D1*
X15263385Y8878882D1*
X15254269Y8891115D1*
X15246142Y8904025D1*
X15229028Y8938604D1*
X15204833Y8989810D1*
X15173472Y9063373D1*
X15145018Y9138108D1*
X15119516Y9213901D1*
X15097003Y9290635D1*
X15077514Y9368192D1*
X15061080Y9446454D1*
X15047726Y9525299D1*
X15038309Y9597098D1*
X15030335Y9684256D1*
X15026323Y9764124D1*
X15025445Y9844088D1*
X15027702Y9924024D1*
X15033089Y10003811D1*
X15041600Y10083325D1*
X15053219Y10162445D1*
X15067931Y10241048D1*
X15085712Y10319015D1*
X15106534Y10396225D1*
X15130367Y10472559D1*
X15157173Y10547901D1*
X15166652Y10571694D1*
X15125514Y10635236D1*
X15078404Y10699552D1*
X15040764Y10746631D1*
X15002644Y10792729D1*
X14994244Y10805464D1*
X14986868Y10818818D1*
X14980563Y10832709D1*
X14975368Y10847053D1*
X14971314Y10861760D1*
X14968426Y10876740D1*
X14966722Y10891900D1*
X14966213Y10907147D1*
X14966902Y10922387D1*
X14968785Y10937526D1*
X14971849Y10952471D1*
X14976077Y10967129D1*
X14981441Y10981410D1*
X14987910Y10995226D1*
X14995443Y11008493D1*
X15003993Y11021127D1*
X15013508Y11033051D1*
X15023930Y11044193D1*
X15035193Y11054482D1*
X15047229Y11063856D1*
X15059964Y11072256D1*
X15073318Y11079632D1*
X15087209Y11085937D1*
X15113643Y11094555D1*
X15635403Y11224451D1*
X15650527Y11226457D1*
X15665760Y11227271D1*
X15681011Y11226887D1*
X15696185Y11225308D1*
X15711188Y11222543D1*
X15725928Y11218609D1*
X15740313Y11213531D1*
X15754256Y11207341D1*
X15767670Y11200075D1*
X15780473Y11191779D1*
X15792586Y11182504D1*
X15803933Y11172308D1*
X15814446Y11161252D1*
X15824058Y11149406D1*
X15832712Y11136842D1*
X15840353Y11123638D1*
X15846935Y11109875D1*
X15852416Y11095639D1*
X15856764Y11081016D1*
X15859951Y11066097D1*
X15861957Y11050973D1*
X15862771Y11035740D1*
X15862387Y11020489D1*
X15860808Y11005315D1*
X15858043Y10990312D1*
X15854109Y10975572D1*
X15849031Y10961187D1*
X15842841Y10947244D1*
X15835575Y10933830D1*
X15827279Y10921027D1*
X15803102Y10890959D1*
X15762355Y10840668D1*
X15723611Y10788819D1*
X15686929Y10735491D1*
X15652364Y10680766D1*
X15619971Y10624729D1*
X15599870Y10587650D1*
X15629542Y10521989D1*
X15657926Y10452008D1*
X15683547Y10380969D1*
X15706363Y10308980D1*
X15726320Y10236241D1*
X15743449Y10162598D1*
X15757662Y10088429D1*
X15768956Y10013761D1*
X15777316Y9938707D1*
X15782728Y9863383D1*
X15785071Y9795551D1*
X15794941Y9782552D1*
X15806833Y9792108D1*
X15819438Y9800702D1*
X15832678Y9808281D1*
X15846472Y9814797D1*
X15860734Y9820211D1*
X15898014Y9830148D1*
X16398312Y9954605D1*
X16413444Y9956540D1*
X16428682Y9957282D1*
X16443930Y9956825D1*
X16459096Y9955174D1*
X16474086Y9952338D1*
X16488807Y9948335D1*
X16503168Y9943189D1*
X16517082Y9936932D1*
X16530462Y9929603D1*
X16543225Y9921246D1*
X16555293Y9911914D1*
X16566592Y9901664D1*
X16577052Y9890559D1*
X16586608Y9878667D1*
X16595202Y9866062D1*
X16602781Y9852822D1*
X16609297Y9839028D1*
X16614711Y9824766D1*
X16618989Y9810122D1*
X16622105Y9795188D1*
X16624040Y9780056D1*
X16624782Y9764818D1*
X16624325Y9749570D1*
X16622674Y9734404D1*
X16619838Y9719414D1*
X16615835Y9704693D1*
X16610689Y9690332D1*
X16604432Y9676418D1*
X16597103Y9663038D1*
X16579946Y9638844D1*
X16536171Y9586102D1*
X12172710Y10430232D2*
Y10779000D1*
X12173418Y10802319D1*
X12175540Y10825552D1*
X12179068Y10848614D1*
X12183988Y10871418D1*
X12190284Y10893883D1*
X12197931Y10915924D1*
X12206901Y10937460D1*
X12217162Y10958412D1*
X12232271Y10984537D1*
X12221246Y11003635D1*
X12213544Y11020341D1*
X12207177Y11037600D1*
X12202183Y11055306D1*
X12198594Y11073349D1*
X12196432Y11091618D1*
X12195710Y11133333D1*
Y11210000D1*
X12196432Y11228382D1*
X12198594Y11246651D1*
X12202183Y11264694D1*
X12207177Y11282400D1*
X12213544Y11299659D1*
X12221246Y11316365D1*
X12230235Y11332416D1*
X12240455Y11347712D1*
X12251844Y11362159D1*
X12264332Y11375668D1*
X12277841Y11388156D1*
X12292288Y11399545D1*
X12307584Y11409765D1*
X12323635Y11418754D1*
X12340341Y11426456D1*
X12357600Y11432823D1*
X12375306Y11437817D1*
X12393349Y11441406D1*
X12411618Y11443568D1*
X12430000Y11444290D1*
X12448382Y11443568D1*
X12466651Y11441406D1*
X12493201Y11435417D1*
X12520349Y11441406D1*
X12538618Y11443568D1*
X12557000Y11444290D1*
X12575382Y11443568D1*
X12593651Y11441406D1*
X12620201Y11435417D1*
X12647349Y11441406D1*
X12665618Y11443568D1*
X12684000Y11444290D1*
X12702382Y11443568D1*
X12720651Y11441406D1*
X12747201Y11435417D1*
X12774349Y11441406D1*
X12792618Y11443568D1*
X12811000Y11444290D1*
X12829382Y11443568D1*
X12847651Y11441406D1*
X12874201Y11435417D1*
X12901349Y11441406D1*
X12919618Y11443568D1*
X12938000Y11444290D1*
X12956382Y11443568D1*
X12974651Y11441406D1*
X13001201Y11435417D1*
X13028349Y11441406D1*
X13046618Y11443568D1*
X13065000Y11444290D1*
X13083382Y11443568D1*
X13101651Y11441406D1*
X13128201Y11435417D1*
X13155349Y11441406D1*
X13173618Y11443568D1*
X13192000Y11444290D1*
X13210382Y11443568D1*
X13228651Y11441406D1*
X13246694Y11437817D1*
X13264400Y11432823D1*
X13281659Y11426456D1*
X13298365Y11418754D1*
X13314416Y11409765D1*
X13329712Y11399545D1*
X13344159Y11388156D1*
X13357668Y11375668D1*
X13370156Y11362159D1*
X13381545Y11347712D1*
X13391765Y11332416D1*
X13400754Y11316365D1*
X13408456Y11299659D1*
X13414823Y11282400D1*
X13419817Y11264694D1*
X13423406Y11246651D1*
X13425568Y11228382D1*
X13426291Y11186666D1*
X13425568Y11091618D1*
X13423406Y11073349D1*
X13419817Y11055306D1*
X13414823Y11037600D1*
X13408456Y11020341D1*
X13400754Y11003635D1*
X13391765Y10987584D1*
X13381545Y10972288D1*
X13370156Y10957841D1*
X13357668Y10944332D1*
X13344159Y10931844D1*
X13329712Y10920455D1*
X13314416Y10910235D1*
X13298365Y10901246D1*
X13281659Y10893544D1*
X13264400Y10887177D1*
X13246694Y10882183D1*
X13228651Y10878594D1*
X13210382Y10876432D1*
X13192000Y10875710D1*
X13173618Y10876432D1*
X13155349Y10878594D1*
X13128799Y10884583D1*
X13101651Y10878594D1*
X13083382Y10876432D1*
X13065000Y10875710D1*
X13046618Y10876432D1*
X13028349Y10878594D1*
X13001799Y10884583D1*
X12974651Y10878594D1*
X12956382Y10876432D1*
X12928881Y10876068D1*
X12935981Y10842655D1*
X12939146Y10819540D1*
X12941290Y10779000D1*
X12941263Y10266462D1*
X12940280Y10243153D1*
X12937884Y10219947D1*
X12934084Y10196929D1*
X12928894Y10174183D1*
X12922334Y10151795D1*
X12914427Y10129846D1*
X12905203Y10108417D1*
X12894696Y10087587D1*
X12882944Y10067434D1*
X12869991Y10048030D1*
X12855884Y10029449D1*
X12828734Y9999266D1*
X12687267Y9857799D1*
X12687263Y8869462D1*
X12686280Y8846153D1*
X12683884Y8822947D1*
X12680084Y8799929D1*
X12674894Y8777183D1*
X12668334Y8754795D1*
X12660427Y8732846D1*
X12651203Y8711417D1*
X12640696Y8690587D1*
X12628944Y8670434D1*
X12615991Y8651030D1*
X12601884Y8632449D1*
X12574734Y8602266D1*
X12317507Y8345076D1*
X12300329Y8329290D1*
X12282226Y8314575D1*
X12263262Y8300985D1*
X12243509Y8288571D1*
X12223040Y8277379D1*
X12201928Y8267450D1*
X12180254Y8258819D1*
X12158095Y8251520D1*
X12135534Y8245580D1*
X12112655Y8241019D1*
X12089541Y8237854D1*
X12049000Y8235710D1*
X11544326D1*
X11544290Y4686237D1*
X13286784Y4686290D1*
X13442699Y4842168D1*
X13442710Y5699000D1*
X13443418Y5722319D1*
X13445540Y5745552D1*
X13449068Y5768614D1*
X13455242Y5795894D1*
X13427618Y5796432D1*
X13409349Y5798594D1*
X13382799Y5804583D1*
X13355651Y5798594D1*
X13337382Y5796432D1*
X13319000Y5795710D1*
X13300618Y5796432D1*
X13282349Y5798594D1*
X13255799Y5804583D1*
X13228651Y5798594D1*
X13210382Y5796432D1*
X13192000Y5795710D1*
X13173618Y5796432D1*
X13155349Y5798594D1*
X13137306Y5802183D1*
X13119600Y5807177D1*
X13102341Y5813544D1*
X13085635Y5821246D1*
X13069584Y5830235D1*
X13054288Y5840455D1*
X13039841Y5851844D1*
X13026332Y5864332D1*
X13013844Y5877841D1*
X13002455Y5892288D1*
X12992235Y5907584D1*
X12983246Y5923635D1*
X12975544Y5940341D1*
X12969177Y5957600D1*
X12964183Y5975306D1*
X12960594Y5993349D1*
X12958432Y6011618D1*
X12957710Y6053333D1*
X12958432Y6148382D1*
X12960594Y6166651D1*
X12964183Y6184694D1*
X12969177Y6202400D1*
X12975544Y6219659D1*
X12983246Y6236365D1*
X12992235Y6252416D1*
X13002455Y6267712D1*
X13013844Y6282159D1*
X13026332Y6295668D1*
X13039841Y6308156D1*
X13054288Y6319545D1*
X13069584Y6329765D1*
X13085635Y6338754D1*
X13102341Y6346456D1*
X13119600Y6352823D1*
X13137306Y6357817D1*
X13155349Y6361406D1*
X13173618Y6363568D1*
X13192000Y6364290D1*
X13210382Y6363568D1*
X13228651Y6361406D1*
X13255201Y6355417D1*
X13282349Y6361406D1*
X13300618Y6363568D1*
X13319000Y6364290D1*
X13337382Y6363568D1*
X13355651Y6361406D1*
X13382201Y6355417D1*
X13409349Y6361406D1*
X13427618Y6363568D1*
X13446000Y6364290D1*
X13464382Y6363568D1*
X13482651Y6361406D1*
X13509201Y6355417D1*
X13536349Y6361406D1*
X13554618Y6363568D1*
X13573000Y6364290D1*
X13591382Y6363568D1*
X13609651Y6361406D1*
X13636201Y6355417D1*
X13663349Y6361406D1*
X13681618Y6363568D1*
X13700000Y6364290D1*
X13718382Y6363568D1*
X13736651Y6361406D1*
X13763201Y6355417D1*
X13790349Y6361406D1*
X13808618Y6363568D1*
X13827000Y6364290D1*
X13845382Y6363568D1*
X13863651Y6361406D1*
X13890201Y6355417D1*
X13917349Y6361406D1*
X13935618Y6363568D1*
X13954000Y6364290D1*
X13972382Y6363568D1*
X13990651Y6361406D1*
X14008694Y6357817D1*
X14026400Y6352823D1*
X14043659Y6346456D1*
X14060365Y6338754D1*
X14076416Y6329765D1*
X14091712Y6319545D1*
X14106159Y6308156D1*
X14119668Y6295668D1*
X14132156Y6282159D1*
X14143545Y6267712D1*
X14153765Y6252416D1*
X14162754Y6236365D1*
X14170456Y6219659D1*
X14176823Y6202400D1*
X14181817Y6184694D1*
X14185406Y6166651D1*
X14187568Y6148382D1*
X14188290Y6106666D1*
X14187568Y6011618D1*
X14185406Y5993349D1*
X14181817Y5975306D1*
X14176823Y5957600D1*
X14170456Y5940341D1*
X14162754Y5923635D1*
X14151729Y5904537D1*
X14169621Y5873040D1*
X14179550Y5851928D1*
X14188181Y5830254D1*
X14195480Y5808095D1*
X14201420Y5785534D1*
X14205981Y5762655D1*
X14209146Y5739541D1*
X14211290Y5699000D1*
Y4683000D1*
X14210582Y4659681D1*
X14208460Y4636448D1*
X14204932Y4613386D1*
X14200012Y4590582D1*
X14193716Y4568117D1*
X14186069Y4546076D1*
X14177099Y4524540D1*
X14166838Y4503588D1*
X14155325Y4483297D1*
X14142602Y4463742D1*
X14128716Y4444995D1*
X14113655Y4427059D1*
X14065736Y4378268D1*
X13717734Y4030266D1*
X13700744Y4014278D1*
X13682816Y3999350D1*
X13664014Y3985537D1*
X13644409Y3972891D1*
X13624073Y3961458D1*
X13603081Y3951280D1*
X13581509Y3942395D1*
X13559438Y3934834D1*
X13536950Y3928627D1*
X13514125Y3923797D1*
X13491050Y3920360D1*
X13467718Y3918327D1*
X13399333Y3917710D1*
X11544290Y3917638D1*
Y3032000D1*
X11543582Y3008681D1*
X11541460Y2985448D1*
X11537933Y2962386D1*
X11533012Y2939582D1*
X11526717Y2917117D1*
X11519070Y2895076D1*
X11510099Y2873540D1*
X11499839Y2852588D1*
X11488326Y2832297D1*
X11475602Y2812742D1*
X11461716Y2793995D1*
X11446718Y2776125D1*
X11430663Y2759198D1*
X11413610Y2743277D1*
X11394223Y2727400D1*
X11394306Y2655227D1*
X11409416Y2646765D1*
X11424712Y2636545D1*
X11439159Y2625156D1*
X11452668Y2612668D1*
X11465156Y2599159D1*
X11476545Y2584712D1*
X11486765Y2569416D1*
X11495754Y2553365D1*
X11503456Y2536659D1*
X11509823Y2519400D1*
X11514817Y2501694D1*
X11518406Y2483651D1*
X11520568Y2465382D1*
X11521290Y2423667D1*
X11520568Y2328618D1*
X11518406Y2310349D1*
X11514817Y2292306D1*
X11509823Y2274600D1*
X11503456Y2257341D1*
X11495754Y2240635D1*
X11486765Y2224584D1*
X11476545Y2209288D1*
X11465156Y2194841D1*
X11452668Y2181332D1*
X11439159Y2168844D1*
X11424712Y2157455D1*
X11409416Y2147235D1*
X11393365Y2138246D1*
X11376659Y2130544D1*
X11359400Y2124177D1*
X11341694Y2119183D1*
X11323651Y2115594D1*
X11305382Y2113432D1*
X11287000Y2112710D1*
X11268618Y2113432D1*
X11250349Y2115594D1*
X11223799Y2121583D1*
X11196651Y2115594D1*
X11178382Y2113432D1*
X11160000Y2112710D1*
X11141618Y2113432D1*
X11123349Y2115594D1*
X11096799Y2121583D1*
X11069651Y2115594D1*
X11051382Y2113432D1*
X11033000Y2112710D1*
X11014618Y2113432D1*
X10996349Y2115594D1*
X10969799Y2121583D1*
X10942651Y2115594D1*
X10924382Y2113432D1*
X10906000Y2112710D1*
X10887618Y2113432D1*
X10869349Y2115594D1*
X10842799Y2121583D1*
X10815651Y2115594D1*
X10797382Y2113432D1*
X10779000Y2112710D1*
X10760618Y2113432D1*
X10742349Y2115594D1*
X10715799Y2121583D1*
X10688651Y2115594D1*
X10670382Y2113432D1*
X10652000Y2112710D1*
X10633618Y2113432D1*
X10615349Y2115594D1*
X10588799Y2121583D1*
X10561651Y2115594D1*
X10543382Y2113432D1*
X10525000Y2112710D1*
X10506618Y2113432D1*
X10488349Y2115594D1*
X10470306Y2119183D1*
X10452600Y2124177D1*
X10435341Y2130544D1*
X10418635Y2138246D1*
X10402584Y2147235D1*
X10387288Y2157455D1*
X10372841Y2168844D1*
X10359332Y2181332D1*
X10346844Y2194841D1*
X10335455Y2209288D1*
X10325235Y2224584D1*
X10316246Y2240635D1*
X10308544Y2257341D1*
X10302177Y2274600D1*
X10297183Y2292306D1*
X10293594Y2310349D1*
X10291432Y2328618D1*
X10290711Y2370333D1*
X10290710Y2447000D1*
X10291432Y2465382D1*
X10293594Y2483651D1*
X10297183Y2501694D1*
X10302177Y2519400D1*
X10308544Y2536659D1*
X10316246Y2553365D1*
X10325235Y2569416D1*
X10335455Y2584712D1*
X10346844Y2599159D1*
X10359332Y2612668D1*
X10372841Y2625156D1*
X10387288Y2636545D1*
X10402584Y2646765D1*
X10418635Y2655754D1*
X10435341Y2663456D1*
X10452600Y2669823D1*
X10470306Y2674817D1*
X10488349Y2678406D1*
X10506618Y2680568D1*
X10525000Y2681290D1*
X10543382Y2680568D1*
X10561651Y2678406D1*
X10588201Y2672417D1*
X10615349Y2678406D1*
X10633618Y2680568D1*
X10652000Y2681290D1*
X10670382Y2680568D1*
X10688651Y2678406D1*
X10715201Y2672417D1*
X10742349Y2678406D1*
X10760618Y2680568D1*
X10779000Y2681290D1*
X10797382Y2680568D1*
X10815651Y2678406D1*
X10842201Y2672417D1*
X10869349Y2678406D1*
X10887618Y2680568D1*
X10906000Y2681290D1*
X10925738Y2680407D1*
X10925710Y2727404D1*
X10901876Y2747305D1*
X10885076Y2763493D1*
X10869290Y2780670D1*
X10854575Y2798774D1*
X10840985Y2817737D1*
X10828571Y2837490D1*
X10817379Y2857960D1*
X10807450Y2879071D1*
X10798819Y2900746D1*
X10791520Y2922904D1*
X10785579Y2945465D1*
X10781018Y2968344D1*
X10777854Y2991459D1*
X10775710Y3032000D1*
Y3917664D1*
X7635362Y3917710D1*
X7620663Y3902198D1*
X7603540Y3886219D1*
X7597790Y3865703D1*
X7597703Y3306290D1*
X7624290D1*
Y2757710D1*
X7075710D1*
Y3306290D1*
X7102234D1*
X7102210Y3790789D1*
X6617461Y3790710D1*
X6627266Y3765260D1*
X6633838Y3742877D1*
X6638704Y3720063D1*
X6641837Y3696946D1*
X6643290Y3667000D1*
X6642410Y3643689D1*
X6639776Y3620510D1*
X6635402Y3597596D1*
X6629314Y3575077D1*
X6621546Y3553080D1*
X6612142Y3531732D1*
X6601156Y3511153D1*
X6588649Y3491461D1*
X6574695Y3472767D1*
X6559371Y3455179D1*
X6542765Y3438795D1*
X6524971Y3423709D1*
X6506091Y3410008D1*
X6486232Y3397768D1*
X6465507Y3387060D1*
X6444034Y3377945D1*
X6421935Y3370474D1*
X6399336Y3364690D1*
X6376365Y3360625D1*
X6353153Y3358304D1*
X6329832Y3357738D1*
X6306534Y3358932D1*
X6283394Y3361878D1*
X6260540Y3366560D1*
X6238105Y3372952D1*
X6216215Y3381016D1*
X6194996Y3390706D1*
X6174567Y3401969D1*
X6155045Y3414739D1*
X6136541Y3428945D1*
X6119161Y3444504D1*
X6103002Y3461330D1*
X6088158Y3479325D1*
X6074712Y3498388D1*
X6062741Y3518410D1*
X6052314Y3539278D1*
X6043488Y3560872D1*
X6036316Y3583069D1*
X6030837Y3605744D1*
X6027082Y3628768D1*
X6025073Y3652009D1*
X6024822Y3675336D1*
X6026330Y3698615D1*
X6029588Y3721714D1*
X6034578Y3744502D1*
X6041271Y3766849D1*
X6049629Y3788628D1*
X6059605Y3809715D1*
X6071142Y3829990D1*
X6084174Y3849338D1*
X6097103Y3865718D1*
X6024711Y3865709D1*
Y3946920D1*
X6004113Y3977888D1*
X5993602Y3996756D1*
X5981362Y3985424D1*
X5958289Y3968660D1*
X5928135Y3952667D1*
X5901786Y3941753D1*
X5874055Y3935095D1*
X5840260Y3930310D1*
X5811740D1*
X5777945Y3935095D1*
X5750214Y3941753D1*
X5723865Y3952667D1*
X5693711Y3968660D1*
X5670638Y3985423D1*
X5646111Y4009159D1*
X5627588Y4030846D1*
X5612687Y4055163D1*
X5597693Y4085825D1*
X5588879Y4112949D1*
X5582987Y4146568D1*
X5580750Y4175000D1*
X5582987Y4203432D1*
X5588879Y4237051D1*
X5597693Y4264175D1*
X5612687Y4294837D1*
X5627588Y4319155D1*
X5646111Y4340841D1*
X5670638Y4364577D1*
X5693711Y4381340D1*
X5723864Y4397333D1*
X5750213Y4408247D1*
X5777945Y4414905D1*
X5811740Y4419690D1*
X5840260D1*
X5874055Y4414905D1*
X5901787Y4408247D1*
X5928136Y4397333D1*
X5958289Y4381340D1*
X5981362Y4364577D1*
X5993521Y4353210D1*
X6007257Y4377282D1*
X6024683Y4402778D1*
X6024711Y4484289D1*
X6105921D1*
X6139490Y4506429D1*
X6159960Y4517621D1*
X6181071Y4527550D1*
X6202746Y4536181D1*
X6224905Y4543480D1*
X6247465Y4549420D1*
X6270345Y4553981D1*
X6293459Y4557146D1*
X6334000Y4559290D1*
X6796747D1*
X6775082Y4563988D1*
X6752617Y4570284D1*
X6730576Y4577931D1*
X6709040Y4586901D1*
X6688088Y4597162D1*
X6667797Y4608675D1*
X6648242Y4621398D1*
X6629495Y4635284D1*
X6611625Y4650283D1*
X6594698Y4666338D1*
X6578777Y4683390D1*
X6563920Y4701377D1*
X6550182Y4720233D1*
X6537613Y4739888D1*
X6526260Y4760269D1*
X6516164Y4781301D1*
X6507364Y4802907D1*
X6499891Y4825008D1*
X6493772Y4847521D1*
X6489031Y4870364D1*
X6485685Y4893452D1*
X6483746Y4916701D1*
X6483222Y4940025D1*
X6484114Y4963338D1*
X6486418Y4986554D1*
X6490128Y5009587D1*
X6495228Y5032352D1*
X6501700Y5054766D1*
X6509520Y5076746D1*
X6518659Y5098211D1*
X6529085Y5119082D1*
X6540757Y5139282D1*
X6553634Y5158736D1*
X6567667Y5177373D1*
X6582806Y5195124D1*
X6598994Y5211924D1*
X6616171Y5227710D1*
X6634275Y5242426D1*
X6653238Y5256015D1*
X6672991Y5268429D1*
X6693461Y5279621D1*
X6714572Y5289550D1*
X6736247Y5298181D1*
X6758405Y5305479D1*
X6780966Y5311420D1*
X6803845Y5315981D1*
X6826960Y5319146D1*
X6867500Y5321290D1*
X7353025Y5321278D1*
X7376338Y5320386D1*
X7399554Y5318082D1*
X7422587Y5314373D1*
X7445352Y5309273D1*
X7467766Y5302800D1*
X7489746Y5294980D1*
X7511211Y5285841D1*
X7532082Y5275415D1*
X7552282Y5263743D1*
X7571736Y5250866D1*
X7590373Y5236833D1*
X7608124Y5221694D1*
X7624924Y5205506D1*
X7640710Y5188329D1*
X7655426Y5170225D1*
X7669015Y5151262D1*
X7681429Y5131509D1*
X7692621Y5111039D1*
X7702550Y5089928D1*
X7711181Y5068253D1*
X7718479Y5046095D1*
X7724420Y5023534D1*
X7728981Y5000655D1*
X7732146Y4977541D1*
X7734290Y4937000D1*
Y4686258D1*
X8108789Y4686290D1*
X8108710Y6969000D1*
X8109418Y6992319D1*
X8111540Y7015552D1*
X8115068Y7038614D1*
X8119988Y7061418D1*
X8126284Y7083883D1*
X8133931Y7105924D1*
X8142901Y7127460D1*
X8153161Y7148412D1*
X8168303Y7174279D1*
X8157246Y7193635D1*
X8149544Y7210341D1*
X8143177Y7227600D1*
X8138183Y7245306D1*
X8134594Y7263349D1*
X8132432Y7281618D1*
X8131711Y7323333D1*
X8132432Y7418382D1*
X8134594Y7436651D1*
X8138183Y7454694D1*
X8143177Y7472400D1*
X8149544Y7489659D1*
X8157246Y7506365D1*
X8168271Y7525463D1*
X8150379Y7556959D1*
X8140450Y7578071D1*
X8131819Y7599745D1*
X8124520Y7621904D1*
X8118579Y7644465D1*
X8114018Y7667344D1*
X8110854Y7690458D1*
X8108710Y7731000D1*
Y8235674D1*
X3662463Y8235737D1*
X3639153Y8236720D1*
X3615947Y8239116D1*
X3592929Y8242916D1*
X3570184Y8248105D1*
X3547795Y8254666D1*
X3525846Y8262572D1*
X3504417Y8271796D1*
X3483588Y8282304D1*
X3463434Y8294055D1*
X3444031Y8307009D1*
X3425449Y8321115D1*
X3395266Y8348266D1*
X3138076Y8605493D1*
X3122290Y8622671D1*
X3107575Y8640774D1*
X3093985Y8659737D1*
X3081571Y8679490D1*
X3070379Y8699960D1*
X3060450Y8721071D1*
X3051819Y8742746D1*
X3044520Y8764905D1*
X3038580Y8787465D1*
X3034019Y8810345D1*
X3030854Y8833459D1*
X3028710Y8874000D1*
Y10144000D1*
X3029418Y10167319D1*
X3031540Y10190552D1*
X3035068Y10213614D1*
X3039988Y10236418D1*
X3046284Y10258883D1*
X3053931Y10280924D1*
X3062901Y10302460D1*
X3073161Y10323412D1*
X3088303Y10349279D1*
X3077246Y10368635D1*
X3069544Y10385341D1*
X3063177Y10402600D1*
X3058183Y10420306D1*
X3054594Y10438349D1*
X3052432Y10456618D1*
X3051710Y10498333D1*
X3052432Y10593382D1*
X3054594Y10611651D1*
X3058183Y10629694D1*
X3063177Y10647400D1*
X3069544Y10664659D1*
X3077246Y10681365D1*
X3086235Y10697416D1*
X3096455Y10712712D1*
X3107844Y10727159D1*
X3120332Y10740668D1*
X3133841Y10753156D1*
X3148288Y10764545D1*
X3163584Y10774765D1*
X3179635Y10783754D1*
X3196341Y10791456D1*
X3213600Y10797823D1*
X3231306Y10802817D1*
X3249349Y10806406D1*
X3267618Y10808568D1*
X3286000Y10809290D1*
X3304382Y10808568D1*
X3322651Y10806406D1*
X3349201Y10800417D1*
X3376349Y10806406D1*
X3394618Y10808568D1*
X3413000Y10809290D1*
X3431382Y10808568D1*
X3449651Y10806406D1*
X3476201Y10800417D1*
X3503349Y10806406D1*
X3521618Y10808568D1*
X3540000Y10809290D1*
X3558382Y10808568D1*
X3576651Y10806406D1*
X3603201Y10800417D1*
X3630349Y10806406D1*
X3648618Y10808568D1*
X3667000Y10809290D1*
X3685382Y10808568D1*
X3703651Y10806406D1*
X3730201Y10800417D1*
X3757349Y10806406D1*
X3775618Y10808568D1*
X3794000Y10809290D1*
X3812382Y10808568D1*
X3830651Y10806406D1*
X3857201Y10800417D1*
X3884349Y10806406D1*
X3902618Y10808568D1*
X3921000Y10809290D1*
X3939382Y10808568D1*
X3957651Y10806406D1*
X3984201Y10800417D1*
X4011349Y10806406D1*
X4029618Y10808568D1*
X4048000Y10809290D1*
X4066382Y10808568D1*
X4084651Y10806406D1*
X4102694Y10802817D1*
X4120400Y10797823D1*
X4137659Y10791456D1*
X4154365Y10783754D1*
X4170416Y10774765D1*
X4185712Y10764545D1*
X4200159Y10753156D1*
X4213668Y10740668D1*
X4226156Y10727159D1*
X4237545Y10712712D1*
X4247765Y10697416D1*
X4256754Y10681365D1*
X4264456Y10664659D1*
X4270823Y10647400D1*
X4275817Y10629694D1*
X4279406Y10611651D1*
X4281568Y10593382D1*
X4282290Y10551667D1*
X4281568Y10456618D1*
X4279406Y10438349D1*
X4275817Y10420306D1*
X4270823Y10402600D1*
X4264456Y10385341D1*
X4256754Y10368635D1*
X4247765Y10352584D1*
X4237545Y10337288D1*
X4226156Y10322841D1*
X4213668Y10309332D1*
X4200159Y10296844D1*
X4185712Y10285455D1*
X4170416Y10275235D1*
X4154365Y10266246D1*
X4137659Y10258544D1*
X4120400Y10252177D1*
X4102694Y10247183D1*
X4084651Y10243594D1*
X4066382Y10241432D1*
X4048000Y10240710D1*
X4029618Y10241432D1*
X4011349Y10243594D1*
X3984799Y10249583D1*
X3957651Y10243594D1*
X3939382Y10241432D1*
X3921000Y10240710D1*
X3902618Y10241432D1*
X3884349Y10243594D1*
X3857799Y10249583D1*
X3830651Y10243594D1*
X3812382Y10241432D1*
X3784881Y10241068D1*
X3791981Y10207655D1*
X3795146Y10184541D1*
X3797290Y10144000D1*
Y9033206D1*
X3826202Y9004267D1*
X7600763Y9004290D1*
X7600710Y10398000D1*
X7601418Y10421319D1*
X7603540Y10444552D1*
X7607068Y10467614D1*
X7611988Y10490418D1*
X7618284Y10512883D1*
X7625931Y10534924D1*
X7634901Y10556460D1*
X7645162Y10577412D1*
X7660303Y10603279D1*
X7649246Y10622635D1*
X7641544Y10639341D1*
X7635177Y10656600D1*
X7630183Y10674306D1*
X7626594Y10692349D1*
X7624432Y10710618D1*
X7623711Y10752333D1*
X7624432Y10847382D1*
X7626594Y10865651D1*
X7630183Y10883694D1*
X7635177Y10901400D1*
X7641544Y10918659D1*
X7649246Y10935365D1*
X7658235Y10951416D1*
X7668455Y10966712D1*
X7679844Y10981159D1*
X7692332Y10994668D1*
X7705841Y11007156D1*
X7720288Y11018545D1*
X7735584Y11028765D1*
X7751635Y11037754D1*
X7768341Y11045456D1*
X7785600Y11051823D1*
X7803306Y11056817D1*
X7821349Y11060406D1*
X7839618Y11062568D1*
X7858000Y11063290D1*
X7876382Y11062568D1*
X7894651Y11060406D1*
X7921201Y11054417D1*
X7948349Y11060406D1*
X7966618Y11062568D1*
X7985000Y11063290D1*
X8003382Y11062568D1*
X8021651Y11060406D1*
X8048201Y11054417D1*
X8075349Y11060406D1*
X8093618Y11062568D1*
X8112000Y11063290D1*
X8130382Y11062568D1*
X8148651Y11060406D1*
X8175201Y11054417D1*
X8202349Y11060406D1*
X8220618Y11062568D1*
X8239000Y11063290D1*
X8257382Y11062568D1*
X8275651Y11060406D1*
X8302201Y11054417D1*
X8329349Y11060406D1*
X8347618Y11062568D1*
X8366000Y11063290D1*
X8384382Y11062568D1*
X8402651Y11060406D1*
X8429201Y11054417D1*
X8456349Y11060406D1*
X8474618Y11062568D1*
X8493000Y11063290D1*
X8511382Y11062568D1*
X8529651Y11060406D1*
X8556201Y11054417D1*
X8583349Y11060406D1*
X8601618Y11062568D1*
X8620000Y11063290D1*
X8638382Y11062568D1*
X8656651Y11060406D1*
X8674694Y11056817D1*
X8692400Y11051823D1*
X8709659Y11045456D1*
X8726365Y11037754D1*
X8742416Y11028765D1*
X8757712Y11018545D1*
X8772159Y11007156D1*
X8785668Y10994668D1*
X8798156Y10981159D1*
X8809545Y10966712D1*
X8819765Y10951416D1*
X8828754Y10935365D1*
X8836456Y10918659D1*
X8842823Y10901400D1*
X8847817Y10883694D1*
X8851406Y10865651D1*
X8853568Y10847382D1*
X8854290Y10805666D1*
X8853568Y10710618D1*
X8851406Y10692349D1*
X8847817Y10674306D1*
X8842823Y10656600D1*
X8836456Y10639341D1*
X8828754Y10622635D1*
X8819765Y10606584D1*
X8809545Y10591288D1*
X8798156Y10576841D1*
X8785668Y10563332D1*
X8772159Y10550844D1*
X8757712Y10539455D1*
X8742416Y10529235D1*
X8726365Y10520246D1*
X8709659Y10512544D1*
X8692400Y10506177D1*
X8674694Y10501183D1*
X8656651Y10497594D1*
X8638382Y10495432D1*
X8620000Y10494710D1*
X8601618Y10495432D1*
X8583349Y10497594D1*
X8556799Y10503583D1*
X8529651Y10497594D1*
X8511382Y10495432D1*
X8493000Y10494710D1*
X8474618Y10495432D1*
X8456349Y10497594D1*
X8429799Y10503583D1*
X8402651Y10497594D1*
X8384382Y10495432D1*
X8356881Y10495068D1*
X8363981Y10461655D1*
X8367146Y10438541D1*
X8369290Y10398000D1*
Y9004289D1*
X11889779Y9004290D1*
X11918733Y9033202D1*
X11918710Y10017000D1*
X11919418Y10040319D1*
X11921540Y10063552D1*
X11925068Y10086614D1*
X11929988Y10109418D1*
X11936284Y10131883D1*
X11943931Y10153924D1*
X11952901Y10175460D1*
X11963162Y10196412D1*
X11974675Y10216703D1*
X11987398Y10236258D1*
X12001284Y10255005D1*
X12016345Y10272941D1*
X12064264Y10321732D1*
X12172733Y10430201D1*
D23*
X5826000Y7477000D3*
D24*
X5572000D3*
X5318000D3*
X5064000D3*
X4810000D3*
X4556000D3*
X4302000D3*
X4048000D3*
X3794000D3*
X3540000D3*
X3286000D3*
X3032000D3*
X2778000D3*
X2524000D3*
X2270000D3*
Y5953000D3*
X2524000D3*
X2778000D3*
X3032000D3*
X3286000D3*
X3540000D3*
X3794000D3*
X4048000D3*
X4302000D3*
X4556000D3*
X4810000D3*
X5064000D3*
X5318000D3*
X5572000D3*
X5826000D3*
D25*
X8239000Y2524000D3*
D26*
Y3032000D3*
D27*
X5762500Y4937000D3*
D28*
X6867500D3*
D27*
X7350000Y3032000D3*
D28*
Y1927000D3*
D29*
X3667000Y12303000D3*
D30*
Y11795000D3*
D29*
X8112000Y12303000D3*
D30*
Y11795000D3*
D29*
X13065000Y8747000D3*
D30*
Y9255000D3*
D29*
X14589000Y4556000D3*
D30*
Y4048000D3*
D29*
X10017000Y4810000D3*
D30*
Y5318000D3*
D29*
X13573000Y2270000D3*
D30*
Y1762000D3*
D31*
X2594500Y4206500D3*
D32*
Y3952500D3*
D31*
Y3571500D3*
D32*
Y3317500D3*
D31*
Y2936500D3*
D32*
Y2682500D3*
D31*
X3864500Y4206500D3*
D32*
Y3952500D3*
D31*
Y3571500D3*
D32*
Y3317500D3*
D31*
Y2936500D3*
D32*
Y2682500D3*
D31*
X5134500Y4206500D3*
D32*
Y3952500D3*
D29*
X5191000Y2524000D3*
D30*
Y3032000D3*
D29*
X6334000Y4175000D3*
D30*
Y3667000D3*
D33*
X6461000Y2016000D3*
D34*
Y2270000D3*
Y2524000D3*
D23*
X5064000Y4937000D3*
D24*
X4810000D3*
X4556000D3*
X4302000D3*
X4048000D3*
X3794000D3*
X3540000D3*
X3286000D3*
D35*
X4048000Y10525000D3*
X3921000D3*
X3794000D3*
X3667000D3*
X3540000D3*
X3413000D3*
X3286000D3*
D70*
X2397000Y10176000D3*
X4937000D3*
D35*
X8620000Y10779000D3*
X8493000D3*
X8366000D3*
X8239000D3*
X8112000D3*
X7985000D3*
X7858000D3*
D70*
X6969000Y10430000D3*
X9509000D3*
D35*
X13192000Y11160000D3*
X13065000D3*
X12938000D3*
X12811000D3*
X12684000D3*
X12557000D3*
X12430000D3*
D70*
X11541000Y10811000D3*
X14081000D3*
D35*
X13192000Y6080000D3*
X13319000D3*
X13446000D3*
X13573000D3*
X13700000D3*
X13827000D3*
X13954000D3*
D70*
X14843000Y6429000D3*
X12303000D3*
D35*
X9128000Y7350000D3*
X9001000D3*
X8874000D3*
X8747000D3*
X8620000D3*
X8493000D3*
X8366000D3*
D70*
X7477000Y7001000D3*
X10017000D3*
D35*
X10525000Y2397000D3*
X10652000D3*
X10779000D3*
X10906000D3*
X11033000D3*
X11160000D3*
X11287000D3*
D70*
X12176000Y2746000D3*
X9636000D3*
X15414500Y9001000D2*
D21*
G03X15160500Y10906000I-1555750J762000D01*
G01*
X15414500Y9001000D2*
G02X15668500Y11033000I1651000J825500D01*
G01*
X15160500Y10906000D2*
X15668500Y11033000D1*
X15541500Y9382000D2*
G03X15414500Y9572500I-349250J-95250D01*
G01*
X15351000Y9350250D2*
G02X15351000Y9350250I31750J0D01*
G01*
Y9699500D2*
D22*
Y10271000D1*
X15478000Y9699500D2*
Y10080500D1*
X15414500Y10779000D2*
Y10906000D1*
X16303500Y10398000D2*
D21*
G03X16049500Y12303000I-1555750J762000D01*
G01*
X16303500Y10398000D2*
G02X16557500Y12430000I1651000J825500D01*
G01*
X16049500Y12303000D2*
X16557500Y12430000D1*
X16430500Y10779000D2*
G03X16303500Y10969500I-349250J-95250D01*
G01*
X16240000Y10747250D2*
G02X16240000Y10747250I31750J0D01*
G01*
Y11096500D2*
D22*
Y11668000D1*
X16367000Y11096500D2*
Y11477500D1*
X16303500Y12176000D2*
Y12303000D1*
X16176500Y7731000D2*
D21*
G03X15922500Y9636000I-1555750J762000D01*
G01*
X16176500Y7731000D2*
G02X16430500Y9763000I1651000J825500D01*
G01*
X15922500Y9636000D2*
X16430500Y9763000D1*
X16303500Y8112000D2*
G03X16176500Y8302500I-349250J-95250D01*
G01*
X16113000Y8080250D2*
G02X16113000Y8080250I31750J0D01*
G01*
Y8429500D2*
D22*
Y9001000D1*
X16240000Y8429500D2*
Y8810500D1*
X16176500Y9509000D2*
Y9636000D1*
X16393080Y1461297D2*
D69*
X16368934Y1449224D1*
X16344507Y1424797D1*
X16332434Y1400651D1*
Y1352078D1*
X16344507Y1327651D1*
X16368934Y1303505D1*
X16393080Y1291151D1*
X16429580Y1279078D1*
X16490507D1*
X16526726Y1291151D1*
X16551153Y1303505D1*
X16575299Y1327651D1*
X16587653Y1352078D1*
Y1400651D1*
X16575299Y1424797D1*
X16551153Y1449224D1*
X16526726Y1461297D1*
X16417507Y1600375D2*
X16429580Y1576229D1*
X16454007Y1551802D1*
X16490507Y1539729D1*
X16514653D1*
X16551153Y1551802D1*
X16575299Y1576228D1*
X16587653Y1600375D1*
Y1636875D1*
X16575299Y1661302D1*
X16551153Y1685448D1*
X16514653Y1697802D1*
X16490507D1*
X16454007Y1685448D1*
X16429580Y1661302D1*
X16417507Y1636875D1*
Y1600375D1*
Y1776233D2*
Y1909879D1*
X16587653Y1776233D1*
Y1909879D1*
X16417507Y2000664D2*
X16587653Y2073384D1*
X16636226Y2049237D1*
X16660653Y2024810D1*
X16672726Y2000664D1*
Y1988310D1*
X16417507Y2146384D2*
X16587653Y2073384D1*
X16332434Y2382888D2*
Y2224815D1*
X16587653D1*
X16454007D2*
Y2321961D1*
X16332434Y2461319D2*
X16344507Y2473392D1*
X16332434Y2485746D1*
X16320080Y2473392D1*
X16332434Y2461319D1*
X16417507Y2473392D2*
X16587653D1*
X16454007Y2697824D2*
X16429580Y2685751D1*
X16417507Y2649251D1*
Y2612751D1*
X16429580Y2576251D1*
X16454007Y2564178D1*
X16478153Y2576251D1*
X16490507Y2600678D1*
X16502580Y2661324D1*
X16514653Y2685751D1*
X16539080Y2697824D1*
X16551153D1*
X16575299Y2685751D1*
X16587653Y2649251D1*
Y2612751D1*
X16575299Y2576251D1*
X16551153Y2564178D1*
X16332434Y2776255D2*
X16587653D1*
X16466080D2*
X16429580Y2812755D1*
X16417507Y2837182D1*
Y2873682D1*
X16429580Y2897828D1*
X16466080Y2909901D1*
X16587653D1*
X16417507Y3235226D2*
X16587653D1*
X16466080D2*
X16429580Y3271726D1*
X16417507Y3296153D1*
Y3332372D1*
X16429580Y3356799D1*
X16466080Y3368872D1*
X16587653D1*
X16466080D2*
X16429580Y3405372D1*
X16417507Y3429799D1*
Y3466018D1*
X16429580Y3490445D1*
X16466080Y3502799D1*
X16587653D1*
X16417507Y3726949D2*
X16587653D1*
X16454007D2*
X16429580Y3702803D1*
X16417507Y3678376D1*
Y3642157D1*
X16429580Y3617730D1*
X16454007Y3593584D1*
X16490507Y3581230D1*
X16514653D1*
X16551153Y3593584D1*
X16575299Y3617730D1*
X16587653Y3642157D1*
Y3678376D1*
X16575299Y3702803D1*
X16551153Y3726949D1*
X16332434Y3805381D2*
X16344507Y3817454D1*
X16332434Y3829808D1*
X16320080Y3817454D1*
X16332434Y3805381D1*
X16417507Y3817454D2*
X16587653D1*
X16417507Y3908239D2*
X16587653D1*
X16466080D2*
X16429580Y3944739D1*
X16417507Y3969166D1*
Y4005385D1*
X16429580Y4029812D1*
X16466080Y4041885D1*
X16587653D1*
X16332434Y4120316D2*
X16587653D1*
X16454007D2*
X16429580Y4144743D1*
X16417507Y4168890D1*
Y4205390D1*
X16429580Y4229536D1*
X16454007Y4253963D1*
X16490507Y4266036D1*
X16514653D1*
X16551153Y4253963D1*
X16575299Y4229536D1*
X16587653Y4205390D1*
Y4168890D1*
X16575299Y4144743D1*
X16551153Y4120316D1*
X16417507Y4405113D2*
X16429580Y4380967D1*
X16454007Y4356540D1*
X16490507Y4344467D1*
X16514653D1*
X16551153Y4356540D1*
X16575299Y4380967D1*
X16587653Y4405113D1*
Y4441613D1*
X16575299Y4466040D1*
X16551153Y4490186D1*
X16514653Y4502540D1*
X16490507D1*
X16454007Y4490186D1*
X16429580Y4466040D1*
X16417507Y4441613D1*
Y4405113D1*
Y4726691D2*
X16587653D1*
X16454007D2*
X16429580Y4702545D1*
X16417507Y4678118D1*
Y4641898D1*
X16429580Y4617472D1*
X16454007Y4593325D1*
X16490507Y4580972D1*
X16514653D1*
X16551153Y4593325D1*
X16575299Y4617472D1*
X16587653Y4641898D1*
Y4678118D1*
X16575299Y4702545D1*
X16551153Y4726691D1*
X16417507Y4805122D2*
X16587653D1*
X16490507D2*
X16454007Y4817476D1*
X16429580Y4841622D1*
X16417507Y4866049D1*
Y4902549D1*
X16332434Y5126700D2*
X16587653D1*
X16454007D2*
X16429580Y5102553D1*
X16417507Y5078127D1*
Y5041627D1*
X16429580Y5017480D1*
X16454007Y4993053D1*
X16490507Y4980980D1*
X16514653D1*
X16551153Y4993053D1*
X16575299Y5017480D1*
X16587653Y5041627D1*
Y5078127D1*
X16575299Y5102553D1*
X16551153Y5126700D1*
X16381287Y5452024D2*
X16368934Y5476451D1*
X16332714Y5512951D1*
X16587653D1*
X16332714Y5652028D2*
X16344787Y5615809D1*
X16368934Y5603455D1*
X16393360D1*
X16417507Y5615809D1*
X16429860Y5639955D1*
X16441934Y5688528D1*
X16454007Y5725028D1*
X16478433Y5749175D1*
X16502580Y5761248D1*
X16539080D1*
X16563226Y5749175D1*
X16575580Y5737101D1*
X16587653Y5700601D1*
Y5652028D1*
X16575580Y5615809D1*
X16563226Y5603455D1*
X16539080Y5591382D1*
X16502580D1*
X16478434Y5603455D1*
X16454007Y5627882D1*
X16441934Y5664101D1*
X16429860Y5712675D1*
X16417507Y5737101D1*
X16393360Y5749175D1*
X16368934D1*
X16344787Y5737101D1*
X16332714Y5700601D1*
Y5652028D1*
X16563226Y5851752D2*
X16575580Y5839679D1*
X16587653Y5851752D1*
X16575580Y5864106D1*
X16563226Y5851752D1*
X16332714Y6015537D2*
X16344787Y5979037D1*
X16381287Y5954610D1*
X16441934Y5942537D1*
X16478433D1*
X16539080Y5954610D1*
X16575580Y5979037D1*
X16587653Y6015537D1*
Y6039683D1*
X16575580Y6076183D1*
X16539080Y6100330D1*
X16478433Y6112683D1*
X16441934D1*
X16381287Y6100330D1*
X16344787Y6076183D1*
X16332714Y6039683D1*
Y6015537D1*
X16381287Y6100330D2*
X16539080Y5954610D1*
X16587653Y6312688D2*
X16332714D1*
X16502580Y6191115D1*
Y6373334D1*
X16563226Y6463838D2*
X16575580Y6451765D1*
X16587653Y6463838D1*
X16575580Y6476192D1*
X16563226Y6463838D1*
X16381287Y6554624D2*
X16368934Y6579051D1*
X16332714Y6615551D1*
X16587653D1*
X16332714Y6754628D2*
X16344787Y6718409D1*
X16368934Y6706055D1*
X16393360D1*
X16417507Y6718409D1*
X16429860Y6742555D1*
X16441933Y6791128D1*
X16454007Y6827628D1*
X16478433Y6851774D1*
X16502580Y6863847D1*
X16539080D1*
X16563226Y6851774D1*
X16575580Y6839701D1*
X16587653Y6803201D1*
Y6754628D1*
X16575580Y6718409D1*
X16563226Y6706055D1*
X16539080Y6693982D1*
X16502580D1*
X16478433Y6706055D1*
X16454007Y6730482D1*
X16441933Y6766701D1*
X16429860Y6815274D1*
X16417507Y6839701D1*
X16393360Y6851774D1*
X16368934D1*
X16344787Y6839701D1*
X16332714Y6803201D1*
Y6754628D1*
M02*
