%TF.GenerationSoftware,Novarm,DipTrace,3.2.0.1*%
%TF.CreationDate,2018-04-17T18:39:56+00:00*%
%FSLAX35Y35*%
%MOMM*%
%TF.FileFunction,Copper,L1,Top*%
%TF.Part,Single*%
%ADD67C,0.39216*%
%TA.AperFunction,Conductor*%
%ADD14C,1.0*%
%ADD15C,4.0*%
%ADD16C,1.27*%
%ADD17C,2.5*%
%TA.AperFunction,CopperBalancing*%
%ADD19C,0.635*%
%TA.AperFunction,Nonconductor*%
%ADD20C,0.2*%
%ADD21C,0.3*%
%TA.AperFunction,ComponentPad*%
%ADD22R,1.5X1.5*%
%ADD23C,1.5*%
%ADD24C,1.6*%
%ADD25R,1.6X1.6*%
%ADD26R,1.8X1.8*%
%ADD27C,1.8*%
%ADD28R,2.5X2.5*%
%ADD29C,2.5*%
%ADD30R,2.4X1.7*%
%ADD31O,2.4X1.7*%
%ADD32R,1.9X1.9*%
%ADD33C,1.9*%
%ADD34O,1.0X2.0*%
%ADD68C,4.0*%
G75*
G01*
%LPD*%
X12557000Y11160000D2*
D14*
Y10779000D1*
D15*
Y10271000D1*
X12303000Y10017000D1*
Y8874000D1*
X12049000Y8620000D1*
X7985000D1*
Y10398000D1*
D14*
Y10779000D1*
X11160000Y8620000D2*
D15*
X3667000D1*
X3413000Y8874000D1*
Y10144000D1*
D14*
Y10525000D1*
X6867500Y4937000D2*
D17*
X7350000D1*
Y4302000D1*
X8493000D1*
D15*
X11160000D1*
Y3032000D1*
D14*
Y2397000D1*
Y4302000D2*
D15*
Y8620000D1*
D17*
X8493000D1*
D15*
Y7731000D1*
D14*
Y7350000D1*
X6867500Y4937000D2*
D15*
X7350000D1*
Y4302000D1*
X13446000D1*
X13827000Y4683000D1*
Y5699000D1*
D14*
Y6080000D1*
X6334000Y4175000D2*
D15*
X7350000D1*
Y4302000D1*
X8493000Y7350000D2*
D14*
Y6969000D1*
D15*
Y4302000D1*
X7350000Y3032000D2*
D16*
Y4192369D1*
D17*
Y4302000D1*
X1288146Y12655083D2*
D19*
X16711904D1*
X1288146Y12591917D2*
X16711904D1*
X1288146Y12528750D2*
X16711904D1*
X1288146Y12465583D2*
X3451370D1*
X3882612D2*
X7896370D1*
X8327612D2*
X16304755D1*
X16651140D2*
X16711904D1*
X1288146Y12402417D2*
X3451370D1*
X3882612D2*
X7896370D1*
X8327612D2*
X16052008D1*
X16654057D2*
X16711904D1*
X1288146Y12339250D2*
X3451370D1*
X3882612D2*
X7896370D1*
X8327612D2*
X15956123D1*
X16611036D2*
X16711904D1*
X1288146Y12276083D2*
X3451370D1*
X3882612D2*
X7896370D1*
X8327612D2*
X15952750D1*
X16561179D2*
X16711904D1*
X1288146Y12212917D2*
X3451370D1*
X3882612D2*
X7896370D1*
X8327612D2*
X15995771D1*
X16515698D2*
X16711904D1*
X1288146Y12149750D2*
X3451370D1*
X3882612D2*
X7896370D1*
X8327612D2*
X16046357D1*
X16474317D2*
X16711904D1*
X1288146Y12086583D2*
X16092112D1*
X16436765D2*
X16711904D1*
X1288146Y12023417D2*
X16133128D1*
X16402677D2*
X16711904D1*
X1288146Y11960250D2*
X3532216D1*
X3801765D2*
X7977216D1*
X8246765D2*
X16153545D1*
X16395841D2*
X16711904D1*
X1288146Y11897083D2*
X3477985D1*
X3856088D2*
X4193388D1*
X4410620D2*
X7922985D1*
X8301088D2*
X8638388D1*
X8855620D2*
X16128844D1*
X16425190D2*
X16711904D1*
X1288146Y11833917D2*
X3455016D1*
X3878966D2*
X4155836D1*
X4448172D2*
X7900016D1*
X8323966D2*
X8600836D1*
X8893172D2*
X16106513D1*
X16451622D2*
X16711904D1*
X1288146Y11770750D2*
X3452737D1*
X3881245D2*
X4153193D1*
X4450815D2*
X7897737D1*
X8326245D2*
X8598193D1*
X8895815D2*
X16086917D1*
X16475320D2*
X16711904D1*
X1288146Y11707583D2*
X3470511D1*
X3863471D2*
X4179716D1*
X4424291D2*
X7915511D1*
X8308471D2*
X8624716D1*
X8869291D2*
X16069599D1*
X16496375D2*
X16711904D1*
X1288146Y11644417D2*
X3515263D1*
X3818718D2*
X7960263D1*
X8263718D2*
X16054560D1*
X16514968D2*
X16711904D1*
X1288146Y11581250D2*
X16041617D1*
X16531192D2*
X16711904D1*
X1288146Y11518083D2*
X16030771D1*
X16544955D2*
X16711904D1*
X1288146Y11454917D2*
X16022021D1*
X16556531D2*
X16711904D1*
X1288146Y11391750D2*
X16015367D1*
X16565828D2*
X16711904D1*
X1288146Y11328583D2*
X12360602D1*
X13261336D2*
X16011084D1*
X16572937D2*
X16711904D1*
X1288146Y11265417D2*
X12301357D1*
X13320672D2*
X16008805D1*
X16577586D2*
X16711904D1*
X1288146Y11202250D2*
X12289326D1*
X13332612D2*
X16008440D1*
X16580047D2*
X16711904D1*
X1288146Y11139083D2*
X12289326D1*
X13332612D2*
X16010081D1*
X16580320D2*
X16711904D1*
X1288146Y11075917D2*
X11431461D1*
X11650515D2*
X12293792D1*
X13328237D2*
X13971513D1*
X14190476D2*
X15445068D1*
X15758823D2*
X16013727D1*
X16578497D2*
X16711904D1*
X1288146Y11012750D2*
X11334391D1*
X11747677D2*
X12331071D1*
X13290958D2*
X13874352D1*
X14287638D2*
X15192412D1*
X15766935D2*
X16019560D1*
X16574487D2*
X16711904D1*
X1288146Y10949583D2*
X7792555D1*
X8685450D2*
X11286448D1*
X11795620D2*
X12323232D1*
X12790750D2*
X13826409D1*
X14335580D2*
X15070550D1*
X15728107D2*
X16027672D1*
X16568289D2*
X16711904D1*
X1288146Y10886417D2*
X7730211D1*
X8747703D2*
X11260563D1*
X11821414D2*
X12287412D1*
X12826570D2*
X13800524D1*
X14361466D2*
X15061891D1*
X15677794D2*
X16037789D1*
X16559903D2*
X16711904D1*
X1288146Y10823250D2*
X7717360D1*
X8760646D2*
X11250628D1*
X11831349D2*
X12269821D1*
X12844161D2*
X13790589D1*
X14371401D2*
X15100628D1*
X15631857D2*
X16050094D1*
X16549330D2*
X16711904D1*
X1288146Y10760083D2*
X7717360D1*
X8760646D2*
X11254912D1*
X11827065D2*
X12266357D1*
X12847625D2*
X13794964D1*
X14367026D2*
X15151670D1*
X15590021D2*
X16064495D1*
X16536388D2*
X16711904D1*
X1288146Y10696917D2*
X3223323D1*
X4110659D2*
X6864782D1*
X7073172D2*
X7721279D1*
X8756726D2*
X9404834D1*
X9613224D2*
X11274235D1*
X11807742D2*
X12266357D1*
X12847625D2*
X13814287D1*
X14347703D2*
X15197972D1*
X15552013D2*
X16080992D1*
X16520984D2*
X16711904D1*
X1288146Y10633750D2*
X3158883D1*
X4175099D2*
X6764430D1*
X7173614D2*
X7757008D1*
X8720997D2*
X9304391D1*
X9713575D2*
X11312425D1*
X11769643D2*
X12266357D1*
X12847625D2*
X13852386D1*
X14309604D2*
X15239716D1*
X15517468D2*
X16099860D1*
X16503120D2*
X16711904D1*
X1288146Y10570583D2*
X3145393D1*
X4188679D2*
X6715576D1*
X7222468D2*
X7752724D1*
X8217234D2*
X9255537D1*
X9762429D2*
X11382880D1*
X11699096D2*
X12266357D1*
X12847625D2*
X13922933D1*
X14239057D2*
X15267516D1*
X15503159D2*
X16121279D1*
X16482794D2*
X16711904D1*
X1288146Y10507417D2*
X3145393D1*
X4188679D2*
X6689143D1*
X7248901D2*
X7716266D1*
X8253784D2*
X9229104D1*
X9788862D2*
X12266357D1*
X12847625D2*
X15242451D1*
X15532872D2*
X16145159D1*
X16459916D2*
X16711904D1*
X1288146Y10444250D2*
X2296552D1*
X2497468D2*
X3148948D1*
X4185034D2*
X4836513D1*
X5037521D2*
X6678753D1*
X7259291D2*
X7698128D1*
X8271830D2*
X9218714D1*
X9799252D2*
X12266357D1*
X12847625D2*
X15220120D1*
X15559578D2*
X16171683D1*
X16434304D2*
X16711904D1*
X1288146Y10381083D2*
X2193740D1*
X2600190D2*
X3183675D1*
X4150307D2*
X4733792D1*
X5140242D2*
X6682581D1*
X7255372D2*
X7694391D1*
X8275659D2*
X9222633D1*
X9795424D2*
X12258701D1*
X12847625D2*
X15200159D1*
X15583640D2*
X16200758D1*
X16405958D2*
X16711904D1*
X1288146Y10317917D2*
X2144339D1*
X2649682D2*
X3181761D1*
X3644265D2*
X4684300D1*
X5189643D2*
X6701357D1*
X7236596D2*
X7694391D1*
X8275659D2*
X9241409D1*
X9776648D2*
X12195537D1*
X12847625D2*
X15182568D1*
X15605060D2*
X16247334D1*
X16359656D2*
X16711904D1*
X1288146Y10254750D2*
X2117451D1*
X2676479D2*
X3144847D1*
X3681179D2*
X4657503D1*
X5216531D2*
X6738818D1*
X7199226D2*
X7694391D1*
X8275659D2*
X9278779D1*
X9739187D2*
X12132373D1*
X12847169D2*
X15167164D1*
X15623927D2*
X16711904D1*
X1288146Y10191583D2*
X2106787D1*
X2687234D2*
X3126344D1*
X3699591D2*
X4646748D1*
X5227195D2*
X6807815D1*
X7130229D2*
X7694391D1*
X8275659D2*
X9347776D1*
X9670190D2*
X12072308D1*
X12836323D2*
X15153948D1*
X15640424D2*
X16711904D1*
X1288146Y10128417D2*
X2110341D1*
X2683588D2*
X3122334D1*
X3703601D2*
X4650393D1*
X5223640D2*
X7694391D1*
X8275659D2*
X12035120D1*
X12809343D2*
X15142828D1*
X15654552D2*
X16711904D1*
X1288146Y10065250D2*
X2128844D1*
X2665177D2*
X3122334D1*
X3703601D2*
X4668805D1*
X5205138D2*
X7694391D1*
X8275659D2*
X12016526D1*
X12759669D2*
X15133714D1*
X15666401D2*
X16711904D1*
X1288146Y10002083D2*
X2165758D1*
X2628263D2*
X3122334D1*
X3703601D2*
X4705719D1*
X5168224D2*
X7694391D1*
X8275659D2*
X12012334D1*
X12696505D2*
X15127151D1*
X15675971D2*
X16711904D1*
X1288146Y9938917D2*
X2233753D1*
X2560268D2*
X3122334D1*
X3703601D2*
X4773805D1*
X5100229D2*
X7694391D1*
X8275659D2*
X12012334D1*
X12633341D2*
X15122503D1*
X15683172D2*
X16711904D1*
X1288146Y9875750D2*
X3122334D1*
X3703601D2*
X7694391D1*
X8275659D2*
X12012334D1*
X12593601D2*
X15119951D1*
X15688002D2*
X16711904D1*
X1288146Y9812583D2*
X3122334D1*
X3703601D2*
X7694391D1*
X8275659D2*
X12012334D1*
X12593601D2*
X15119404D1*
X15690737D2*
X16233753D1*
X16517065D2*
X16711904D1*
X1288146Y9749417D2*
X3122334D1*
X3703601D2*
X7694391D1*
X8275659D2*
X12012334D1*
X12593601D2*
X15120771D1*
X15691375D2*
X15981005D1*
X16530190D2*
X16711904D1*
X1288146Y9686250D2*
X3122334D1*
X3703601D2*
X7694391D1*
X8275659D2*
X12012334D1*
X12593601D2*
X15124052D1*
X15689825D2*
X15836357D1*
X16495646D2*
X16711904D1*
X1288146Y9623083D2*
X3122334D1*
X3703601D2*
X7694391D1*
X8275659D2*
X12012334D1*
X12593601D2*
X15129886D1*
X15686088D2*
X15822776D1*
X16444877D2*
X16711904D1*
X1288146Y9559917D2*
X3122334D1*
X3703601D2*
X7694391D1*
X8275659D2*
X12012334D1*
X12593601D2*
X15137724D1*
X15680164D2*
X15856956D1*
X16398575D2*
X16711904D1*
X1288146Y9496750D2*
X3122334D1*
X3703601D2*
X7694391D1*
X8275659D2*
X12012334D1*
X12593601D2*
X15147568D1*
X15672143D2*
X15908453D1*
X16356375D2*
X16711904D1*
X1288146Y9433583D2*
X3122334D1*
X3703601D2*
X7694391D1*
X8275659D2*
X12012334D1*
X12593601D2*
X12949495D1*
X13180489D2*
X15159508D1*
X15661752D2*
X15955211D1*
X16318002D2*
X16711904D1*
X1288146Y9370417D2*
X3122334D1*
X3703601D2*
X7694391D1*
X8275659D2*
X12012334D1*
X12593601D2*
X12884052D1*
X13245932D2*
X13605563D1*
X13794448D2*
X15173636D1*
X15648901D2*
X15997594D1*
X16283093D2*
X16711904D1*
X1288146Y9307250D2*
X3122334D1*
X3703601D2*
X7694391D1*
X8275659D2*
X12012334D1*
X12593601D2*
X12855979D1*
X13274005D2*
X13558258D1*
X13841661D2*
X15189860D1*
X15633771D2*
X16032138D1*
X16261857D2*
X16711904D1*
X1288146Y9244083D2*
X3122334D1*
X3703601D2*
X7694391D1*
X8275659D2*
X12012334D1*
X12593601D2*
X12849690D1*
X13280385D2*
X13549143D1*
X13850867D2*
X15208545D1*
X15616179D2*
X16006982D1*
X16291843D2*
X16711904D1*
X1288146Y9180917D2*
X3122334D1*
X3703601D2*
X7694391D1*
X8275659D2*
X12012334D1*
X12593601D2*
X12862907D1*
X13267078D2*
X13569287D1*
X13830724D2*
X15229782D1*
X15596218D2*
X15984469D1*
X16318914D2*
X16711904D1*
X1288146Y9117750D2*
X3122334D1*
X3703601D2*
X7694391D1*
X8275659D2*
X12012334D1*
X12593601D2*
X12900641D1*
X13229343D2*
X13646214D1*
X13753797D2*
X15253388D1*
X15573614D2*
X15964235D1*
X16343250D2*
X16711904D1*
X1288146Y9054583D2*
X3122334D1*
X3703601D2*
X7694391D1*
X8275659D2*
X12012334D1*
X12593601D2*
X12998349D1*
X13131635D2*
X15279547D1*
X15548367D2*
X15946370D1*
X16364942D2*
X16711904D1*
X1288146Y8991417D2*
X3122334D1*
X3703966D2*
X7694391D1*
X8275659D2*
X12012060D1*
X12593601D2*
X15308258D1*
X15520385D2*
X15930693D1*
X16384083D2*
X16711904D1*
X1288146Y8928250D2*
X3122334D1*
X3767130D2*
X7694391D1*
X8275659D2*
X11948896D1*
X12593601D2*
X12849326D1*
X13280659D2*
X15348180D1*
X15480828D2*
X15917203D1*
X16400854D2*
X16711904D1*
X1288146Y8865083D2*
X3122516D1*
X12593510D2*
X12849326D1*
X13280659D2*
X15905810D1*
X16415255D2*
X16711904D1*
X1288146Y8801917D2*
X3131630D1*
X12584304D2*
X12849326D1*
X13280659D2*
X15896604D1*
X16427377D2*
X16711904D1*
X1288146Y8738750D2*
X3156604D1*
X12559422D2*
X12849326D1*
X13280659D2*
X15889768D1*
X16437039D2*
X16711904D1*
X1288146Y8675583D2*
X3203089D1*
X12512937D2*
X12849326D1*
X13280659D2*
X15884938D1*
X16444422D2*
X16711904D1*
X1288146Y8612417D2*
X3266162D1*
X12449773D2*
X12849326D1*
X13280659D2*
X15882112D1*
X16449526D2*
X16711904D1*
X1288146Y8549250D2*
X3329326D1*
X12386609D2*
X12849326D1*
X13280659D2*
X15881292D1*
X16452534D2*
X16711904D1*
X1288146Y8486083D2*
X3392490D1*
X12323445D2*
X15882386D1*
X16453354D2*
X16711904D1*
X1288146Y8422917D2*
X3455654D1*
X12260281D2*
X15885667D1*
X16452078D2*
X16711904D1*
X1288146Y8359750D2*
X3546253D1*
X12169773D2*
X15891227D1*
X16448614D2*
X16711904D1*
X1288146Y8296583D2*
X8202347D1*
X8783614D2*
X10869365D1*
X11450633D2*
X15898792D1*
X16442963D2*
X16711904D1*
X1288146Y8233417D2*
X8202347D1*
X8783614D2*
X10869365D1*
X11450633D2*
X15908453D1*
X16435216D2*
X16711904D1*
X1288146Y8170250D2*
X8202347D1*
X8783614D2*
X10869365D1*
X11450633D2*
X15920120D1*
X16424916D2*
X16711904D1*
X1288146Y8107083D2*
X8202347D1*
X8783614D2*
X10869365D1*
X11450633D2*
X15933883D1*
X16412338D2*
X16711904D1*
X1288146Y8043917D2*
X8202347D1*
X8783614D2*
X10869365D1*
X11450633D2*
X15949925D1*
X16397390D2*
X16711904D1*
X1288146Y7980750D2*
X8202347D1*
X8783614D2*
X10869365D1*
X11450633D2*
X15968518D1*
X16380073D2*
X16711904D1*
X1288146Y7917583D2*
X8202347D1*
X8783614D2*
X10869365D1*
X11450633D2*
X15989482D1*
X16360385D2*
X16711904D1*
X1288146Y7854417D2*
X8202347D1*
X8783614D2*
X10869365D1*
X11450633D2*
X16012815D1*
X16338146D2*
X16711904D1*
X1288146Y7791250D2*
X8202347D1*
X8783614D2*
X10869365D1*
X11450633D2*
X16038701D1*
X16313172D2*
X16711904D1*
X1288146Y7728083D2*
X8202347D1*
X8783614D2*
X10869365D1*
X11450633D2*
X16067138D1*
X16285463D2*
X16711904D1*
X1288146Y7664917D2*
X8210185D1*
X8775867D2*
X10869365D1*
X11450633D2*
X16102867D1*
X16250099D2*
X16711904D1*
X1288146Y7601750D2*
X1898883D1*
X2133159D2*
X2164573D1*
X2375424D2*
X2418597D1*
X2629357D2*
X2672620D1*
X2883380D2*
X2926643D1*
X3137403D2*
X3180576D1*
X3391427D2*
X3434599D1*
X3645359D2*
X3688623D1*
X3899383D2*
X3942646D1*
X4153406D2*
X4196578D1*
X4407429D2*
X4450602D1*
X4661362D2*
X4704625D1*
X4915385D2*
X4958558D1*
X5169409D2*
X5212581D1*
X5423432D2*
X5466604D1*
X6197169D2*
X8233427D1*
X8752534D2*
X10869365D1*
X11450633D2*
X16711904D1*
X1288146Y7538583D2*
X1854586D1*
X6241375D2*
X8277360D1*
X8708601D2*
X10869365D1*
X11450633D2*
X16711904D1*
X1288146Y7475417D2*
X1842828D1*
X6253224D2*
X8248558D1*
X9245450D2*
X10869365D1*
X11450633D2*
X16711904D1*
X1288146Y7412250D2*
X1855862D1*
X6240099D2*
X8225953D1*
X9268054D2*
X10869365D1*
X11450633D2*
X16711904D1*
X1288146Y7349083D2*
X1902529D1*
X2129422D2*
X2168766D1*
X2371232D2*
X2422698D1*
X2625255D2*
X2676722D1*
X2879278D2*
X2930745D1*
X3133302D2*
X3184768D1*
X3387234D2*
X3438701D1*
X3641258D2*
X3692724D1*
X3895281D2*
X3946748D1*
X4149304D2*
X4200771D1*
X4403237D2*
X4454703D1*
X4657260D2*
X4708727D1*
X4911284D2*
X4962750D1*
X5165307D2*
X5216683D1*
X5419239D2*
X5470706D1*
X6193432D2*
X8225315D1*
X9268601D2*
X10869365D1*
X11450633D2*
X16711904D1*
X1288146Y7285917D2*
X8226136D1*
X9267872D2*
X10869365D1*
X11450633D2*
X16711904D1*
X1288146Y7222750D2*
X7292711D1*
X7661245D2*
X8249834D1*
X9244174D2*
X9832763D1*
X10201205D2*
X10869365D1*
X11450633D2*
X16711904D1*
X1288146Y7159583D2*
X7234742D1*
X7719304D2*
X8275719D1*
X8710333D2*
X9774703D1*
X10259265D2*
X10869365D1*
X11450633D2*
X16155641D1*
X1288146Y7096417D2*
X7202841D1*
X7751114D2*
X8232516D1*
X8753445D2*
X9742893D1*
X10291166D2*
X10869365D1*
X11450633D2*
X16155641D1*
X1288146Y7033250D2*
X7188167D1*
X7765789D2*
X8209729D1*
X8776323D2*
X9728219D1*
X10305841D2*
X10869365D1*
X11450633D2*
X16155641D1*
X1288146Y6970083D2*
X7188076D1*
X7765971D2*
X8202347D1*
X8783614D2*
X9728037D1*
X10305932D2*
X10869365D1*
X11450633D2*
X16155641D1*
X1288146Y6906917D2*
X7202386D1*
X7751661D2*
X8202347D1*
X8783614D2*
X9742347D1*
X10291622D2*
X10869365D1*
X11450633D2*
X16155641D1*
X1288146Y6843750D2*
X7233831D1*
X7720216D2*
X8202347D1*
X8783614D2*
X9773792D1*
X10260177D2*
X10869365D1*
X11450633D2*
X16155641D1*
X1288146Y6780583D2*
X7291071D1*
X7662885D2*
X8202347D1*
X8783614D2*
X9831123D1*
X10202937D2*
X10869365D1*
X11450633D2*
X16155641D1*
X1288146Y6717417D2*
X7450576D1*
X7503380D2*
X8202347D1*
X8783614D2*
X9990628D1*
X10043341D2*
X10869365D1*
X11450633D2*
X16155641D1*
X1288146Y6654250D2*
X8202347D1*
X8783614D2*
X10869365D1*
X11450633D2*
X12123167D1*
X12482768D2*
X14663219D1*
X15022820D2*
X16155641D1*
X1288146Y6591083D2*
X8202347D1*
X8783614D2*
X10869365D1*
X11450633D2*
X12063102D1*
X12542924D2*
X14603063D1*
X15082885D2*
X16155641D1*
X1288146Y6527917D2*
X8202347D1*
X8783614D2*
X10869365D1*
X11450633D2*
X12030107D1*
X12575919D2*
X14570159D1*
X15115880D2*
X16155641D1*
X1288146Y6464750D2*
X8202347D1*
X8783614D2*
X10869365D1*
X11450633D2*
X12014612D1*
X12591414D2*
X14554573D1*
X15131375D2*
X16155641D1*
X1288146Y6401583D2*
X8202347D1*
X8783614D2*
X10869365D1*
X11450633D2*
X12013701D1*
X12592325D2*
X14553662D1*
X15132286D2*
X16155641D1*
X1288146Y6338417D2*
X8202347D1*
X8783614D2*
X10869365D1*
X11450633D2*
X12027190D1*
X12578836D2*
X14567151D1*
X15118797D2*
X16155641D1*
X1288146Y6275250D2*
X8202347D1*
X8783614D2*
X10869365D1*
X11450633D2*
X12057542D1*
X12548484D2*
X14597503D1*
X15088445D2*
X16155641D1*
X1288146Y6212083D2*
X8202347D1*
X8783614D2*
X10869365D1*
X11450633D2*
X12112867D1*
X12493067D2*
X13079378D1*
X14066609D2*
X14652920D1*
X15033120D2*
X16155641D1*
X1288146Y6148917D2*
X8202347D1*
X8783614D2*
X10869365D1*
X11450633D2*
X12247946D1*
X12358080D2*
X13052672D1*
X14093315D2*
X14787907D1*
X14898041D2*
X16155641D1*
X1288146Y6085750D2*
X1908636D1*
X2123406D2*
X2175602D1*
X2364396D2*
X2429625D1*
X2618419D2*
X2683649D1*
X2872351D2*
X2937581D1*
X3126375D2*
X3191604D1*
X3380398D2*
X3445628D1*
X3634422D2*
X3699651D1*
X3888354D2*
X3953584D1*
X4142377D2*
X4207607D1*
X4396401D2*
X4461630D1*
X4650424D2*
X4715654D1*
X4904357D2*
X4969586D1*
X5158380D2*
X5223610D1*
X5412403D2*
X5477633D1*
X5666427D2*
X5731657D1*
X5920359D2*
X5972555D1*
X6187416D2*
X8202347D1*
X8783614D2*
X10869365D1*
X11450633D2*
X13051396D1*
X14094682D2*
X16155641D1*
X1288146Y6022583D2*
X1858050D1*
X6238002D2*
X8202347D1*
X8783614D2*
X10869365D1*
X11450633D2*
X13051578D1*
X14094409D2*
X16155641D1*
X1288146Y5959417D2*
X1842920D1*
X6253041D2*
X8202347D1*
X8783614D2*
X10869365D1*
X11450633D2*
X13071448D1*
X14074630D2*
X16155641D1*
X1288146Y5896250D2*
X1852763D1*
X6243198D2*
X8202347D1*
X8783614D2*
X10869365D1*
X11450633D2*
X13173623D1*
X13210403D2*
X13300589D1*
X13337353D2*
X13427646D1*
X13464360D2*
X13554612D1*
X13591450D2*
X13616000D1*
X14038080D2*
X16155641D1*
X1288146Y5833083D2*
X1893688D1*
X2138354D2*
X2158866D1*
X2381166D2*
X2412763D1*
X2635190D2*
X2666787D1*
X2889213D2*
X2920810D1*
X3143237D2*
X3174834D1*
X3397169D2*
X3428766D1*
X3651192D2*
X3682789D1*
X3905216D2*
X3936813D1*
X4159239D2*
X4190733D1*
X4413172D2*
X4444768D1*
X4667195D2*
X4698792D1*
X4921218D2*
X4952815D1*
X5175242D2*
X5206839D1*
X5429174D2*
X5460771D1*
X5683198D2*
X5714795D1*
X5937221D2*
X5957655D1*
X6202364D2*
X8202347D1*
X8783614D2*
X10869365D1*
X11450633D2*
X13569925D1*
X14084018D2*
X16155641D1*
X1288146Y5769917D2*
X8202347D1*
X8783614D2*
X10869365D1*
X11450633D2*
X13545315D1*
X14108627D2*
X16155641D1*
X1288146Y5706750D2*
X8202347D1*
X8783614D2*
X10869365D1*
X11450633D2*
X13536474D1*
X14117560D2*
X16155641D1*
X1288146Y5643583D2*
X8202347D1*
X8783614D2*
X10869365D1*
X11450633D2*
X13536383D1*
X14117651D2*
X16155641D1*
X1288146Y5580417D2*
X8202347D1*
X8783614D2*
X10869365D1*
X11450633D2*
X13536383D1*
X14117651D2*
X16155641D1*
X1288146Y5517250D2*
X8202347D1*
X8783614D2*
X9946604D1*
X10087364D2*
X10869365D1*
X11450633D2*
X13536383D1*
X14117651D2*
X16155641D1*
X1288146Y5454083D2*
X8202347D1*
X8783614D2*
X9851630D1*
X10182338D2*
X10595107D1*
X10708888D2*
X10869365D1*
X11450633D2*
X13536383D1*
X14117651D2*
X16155641D1*
X1288146Y5390917D2*
X8202347D1*
X8783614D2*
X9814443D1*
X10219526D2*
X10520641D1*
X10783354D2*
X10869365D1*
X11450633D2*
X13536383D1*
X14117651D2*
X16155641D1*
X1288146Y5327750D2*
X8202347D1*
X8783614D2*
X9801591D1*
X10232377D2*
X10500953D1*
X10803041D2*
X10869365D1*
X11450633D2*
X13536383D1*
X14117651D2*
X16155641D1*
X1288146Y5264583D2*
X8202347D1*
X8783614D2*
X9808336D1*
X10225724D2*
X10510797D1*
X10793198D2*
X10869365D1*
X11450633D2*
X13536383D1*
X14117651D2*
X16155641D1*
X1288146Y5201417D2*
X6756683D1*
X7460815D2*
X8202347D1*
X8783614D2*
X9836865D1*
X10197195D2*
X10559013D1*
X10744982D2*
X10869365D1*
X11450633D2*
X13536383D1*
X14117651D2*
X16155641D1*
X1288146Y5138250D2*
X6660341D1*
X7557156D2*
X8202347D1*
X8783614D2*
X9903492D1*
X10130567D2*
X10869365D1*
X11450633D2*
X13536383D1*
X14117651D2*
X16155641D1*
X1288146Y5075083D2*
X3200263D1*
X3371739D2*
X3454196D1*
X3625763D2*
X3708219D1*
X3879786D2*
X3962242D1*
X4133718D2*
X4216266D1*
X4387742D2*
X4470198D1*
X4641765D2*
X4724222D1*
X5229656D2*
X5581904D1*
X5943146D2*
X6612672D1*
X7604825D2*
X8202347D1*
X8783614D2*
X10869365D1*
X11450633D2*
X13536383D1*
X14117651D2*
X16155641D1*
X1288146Y5011917D2*
X3139104D1*
X5229656D2*
X5581904D1*
X5943146D2*
X6586878D1*
X7630620D2*
X8202347D1*
X8783614D2*
X9801318D1*
X10232651D2*
X10869365D1*
X11450633D2*
X13536383D1*
X14117651D2*
X16155641D1*
X1288146Y4948750D2*
X3120784D1*
X5229656D2*
X5581904D1*
X5943146D2*
X6577125D1*
X7640372D2*
X8202347D1*
X8783614D2*
X9801318D1*
X10232651D2*
X10869365D1*
X11450633D2*
X13536383D1*
X14117651D2*
X16155641D1*
X1288146Y4885583D2*
X3128896D1*
X5229656D2*
X5581904D1*
X5943146D2*
X6581591D1*
X7640646D2*
X8202347D1*
X8783614D2*
X9801318D1*
X10232651D2*
X10869365D1*
X11450633D2*
X13536383D1*
X14117651D2*
X16155641D1*
X1288146Y4822417D2*
X3169000D1*
X3403002D2*
X3423024D1*
X3657026D2*
X3677053D1*
X3910958D2*
X3930975D1*
X4164982D2*
X4184995D1*
X4419005D2*
X4439038D1*
X4673028D2*
X4692988D1*
X5229656D2*
X5581904D1*
X5943146D2*
X6601005D1*
X7640646D2*
X8202347D1*
X8783614D2*
X9801318D1*
X10232651D2*
X10869365D1*
X11450633D2*
X13536383D1*
X14117651D2*
X16155641D1*
X1288146Y4759250D2*
X6639287D1*
X7640646D2*
X8202347D1*
X8783614D2*
X9801318D1*
X10232651D2*
X10869365D1*
X11450633D2*
X13494821D1*
X14117651D2*
X14373375D1*
X14804617D2*
X16155641D1*
X1288146Y4696083D2*
X6710198D1*
X7640646D2*
X8202347D1*
X8783614D2*
X9801318D1*
X10232651D2*
X10869365D1*
X11450633D2*
X13431657D1*
X14117651D2*
X14373375D1*
X14804617D2*
X16155641D1*
X1288146Y4632917D2*
X7059378D1*
X7640646D2*
X8202347D1*
X8783614D2*
X9801318D1*
X10232651D2*
X10869365D1*
X11450633D2*
X13368492D1*
X14113185D2*
X14373375D1*
X14804617D2*
X16155641D1*
X1288146Y4569750D2*
X7059378D1*
X14094135D2*
X14373375D1*
X14804617D2*
X16155641D1*
X1288146Y4506583D2*
X7059378D1*
X14056310D2*
X14373375D1*
X14804617D2*
X16155641D1*
X1288146Y4443417D2*
X6233961D1*
X13995789D2*
X14373375D1*
X14804617D2*
X16155641D1*
X1288146Y4380250D2*
X6118388D1*
X13932625D2*
X14373375D1*
X14804617D2*
X16155641D1*
X1288146Y4317083D2*
X2249430D1*
X2805177D2*
X3519456D1*
X4075112D2*
X4789482D1*
X5345138D2*
X5793180D1*
X5858745D2*
X6081383D1*
X13869461D2*
X16155641D1*
X1288146Y4253917D2*
X2203219D1*
X2805177D2*
X3473154D1*
X4075112D2*
X4743180D1*
X5345138D2*
X5697933D1*
X5954083D2*
X6054495D1*
X13806297D2*
X14545185D1*
X14632807D2*
X16155641D1*
X1288146Y4190750D2*
X2195745D1*
X2805177D2*
X3465771D1*
X4075112D2*
X4735797D1*
X5345138D2*
X5675875D1*
X5976140D2*
X6043831D1*
X13743133D2*
X14429612D1*
X14748380D2*
X15195420D1*
X15252599D2*
X16155641D1*
X1288146Y4127583D2*
X2219352D1*
X2805177D2*
X3489378D1*
X4075112D2*
X4759404D1*
X5345138D2*
X5682347D1*
X5969578D2*
X6047386D1*
X13679968D2*
X14389052D1*
X14788940D2*
X15096253D1*
X15351674D2*
X16155641D1*
X1288146Y4064417D2*
X2251253D1*
X2805177D2*
X3521188D1*
X4075112D2*
X4791214D1*
X5345138D2*
X5725914D1*
X5926010D2*
X6065706D1*
X13608510D2*
X14374013D1*
X14803979D2*
X15074013D1*
X15374005D2*
X16155641D1*
X1288146Y4001250D2*
X2203675D1*
X2797976D2*
X3473701D1*
X4068002D2*
X4743636D1*
X5337937D2*
X6102620D1*
X7581401D2*
X10869365D1*
X11450633D2*
X14378662D1*
X14799330D2*
X15080120D1*
X15367898D2*
X16155641D1*
X1288146Y3938083D2*
X2195563D1*
X2804539D2*
X3465589D1*
X4074565D2*
X4735615D1*
X5344500D2*
X6170524D1*
X7513497D2*
X10869365D1*
X11450633D2*
X14404547D1*
X14773445D2*
X15123232D1*
X15324695D2*
X16155641D1*
X1288146Y3874917D2*
X2218440D1*
X2786310D2*
X3488466D1*
X4056336D2*
X4758492D1*
X5326271D2*
X6303688D1*
X6364330D2*
X7195823D1*
X7504109D2*
X10869365D1*
X11450633D2*
X14464977D1*
X14713015D2*
X16155641D1*
X1288146Y3811750D2*
X2459065D1*
X2729890D2*
X3729091D1*
X3999916D2*
X4999117D1*
X5269942D2*
X6176448D1*
X6491479D2*
X7195823D1*
X7504109D2*
X10869365D1*
X11450633D2*
X16155641D1*
X1288146Y3748583D2*
X6134886D1*
X6533041D2*
X7195823D1*
X7504109D2*
X10869365D1*
X11450633D2*
X16155641D1*
X1288146Y3685417D2*
X2253987D1*
X2805177D2*
X3524013D1*
X4075112D2*
X6119209D1*
X6548810D2*
X7195823D1*
X7504109D2*
X10869365D1*
X11450633D2*
X16155641D1*
X1288146Y3622250D2*
X2204404D1*
X2805177D2*
X3474430D1*
X4075112D2*
X6123219D1*
X6544799D2*
X7195823D1*
X7504109D2*
X10869365D1*
X11450633D2*
X16155641D1*
X1288146Y3559083D2*
X2195380D1*
X2805177D2*
X3465407D1*
X4075112D2*
X6148284D1*
X6519643D2*
X7195823D1*
X7504109D2*
X10869365D1*
X11450633D2*
X16155641D1*
X1288146Y3495917D2*
X2217164D1*
X2805177D2*
X3487190D1*
X4075112D2*
X6207073D1*
X6460945D2*
X7195823D1*
X7504109D2*
X10869365D1*
X11450633D2*
X16155641D1*
X1288146Y3432750D2*
X2255901D1*
X2805177D2*
X3525927D1*
X4075112D2*
X7195823D1*
X7504109D2*
X10869365D1*
X11450633D2*
X16155641D1*
X1288146Y3369583D2*
X2204951D1*
X2796974D2*
X3474977D1*
X4066909D2*
X7195823D1*
X7504109D2*
X10869365D1*
X11450633D2*
X16155641D1*
X1288146Y3306417D2*
X2195289D1*
X2804812D2*
X3465315D1*
X4074747D2*
X7195823D1*
X7504109D2*
X10869365D1*
X11450633D2*
X16155641D1*
X1288146Y3243250D2*
X2216344D1*
X2787950D2*
X3486279D1*
X4057976D2*
X7195823D1*
X7504109D2*
X10869365D1*
X11450633D2*
X16155641D1*
X1288146Y3180083D2*
X2311409D1*
X2369591D2*
X2454235D1*
X2734721D2*
X3581344D1*
X3639617D2*
X3724261D1*
X4004747D2*
X5036761D1*
X5345229D2*
X7169391D1*
X7530633D2*
X8068362D1*
X8409643D2*
X10869365D1*
X11450633D2*
X16155641D1*
X1288146Y3116917D2*
X4558792D1*
X4807195D2*
X4993375D1*
X5388614D2*
X7169391D1*
X7530633D2*
X8068362D1*
X8409643D2*
X10869365D1*
X11450633D2*
X16155641D1*
X1288146Y3053750D2*
X2259000D1*
X2805177D2*
X3528935D1*
X4075112D2*
X4533818D1*
X4832169D2*
X4976513D1*
X5405476D2*
X7169391D1*
X7530633D2*
X8068362D1*
X8409643D2*
X10869365D1*
X11450633D2*
X16155641D1*
X1288146Y2990583D2*
X2205771D1*
X2805177D2*
X3475797D1*
X4075112D2*
X4537464D1*
X4828523D2*
X4979521D1*
X5402468D2*
X7169391D1*
X7530633D2*
X8068362D1*
X8409643D2*
X9484768D1*
X9787221D2*
X10872373D1*
X11447625D2*
X12024729D1*
X12327273D2*
X16155641D1*
X1288146Y2927417D2*
X2195198D1*
X2805177D2*
X3465133D1*
X4075112D2*
X4576930D1*
X4789057D2*
X5003401D1*
X5378679D2*
X7169391D1*
X7530633D2*
X8068362D1*
X8409643D2*
X9410758D1*
X9861232D2*
X10889326D1*
X11430672D2*
X11950810D1*
X12401192D2*
X16155641D1*
X1288146Y2864250D2*
X2215068D1*
X2805177D2*
X3485094D1*
X4075112D2*
X5059456D1*
X5322534D2*
X7169391D1*
X7530633D2*
X9371110D1*
X9900880D2*
X10924143D1*
X11395854D2*
X11911162D1*
X12440841D2*
X16155641D1*
X1288146Y2801083D2*
X2261097D1*
X2805177D2*
X3531032D1*
X4075112D2*
X9350784D1*
X9921297D2*
X10987854D1*
X11332143D2*
X11890745D1*
X12461258D2*
X16155641D1*
X1288146Y2737917D2*
X2206318D1*
X2795789D2*
X3476344D1*
X4065815D2*
X9345498D1*
X9926492D2*
X11019391D1*
X11300607D2*
X11885459D1*
X12466544D2*
X16155641D1*
X1288146Y2674750D2*
X2195107D1*
X2804995D2*
X3465042D1*
X4074929D2*
X4975328D1*
X5406661D2*
X6357555D1*
X6564396D2*
X8167347D1*
X8310659D2*
X9354430D1*
X9917560D2*
X11019391D1*
X11300607D2*
X11894391D1*
X12457612D2*
X16155641D1*
X1288146Y2611583D2*
X2214248D1*
X2789591D2*
X3484274D1*
X4059526D2*
X4975328D1*
X5406661D2*
X6298219D1*
X6623823D2*
X8093610D1*
X8384304D2*
X9379130D1*
X9892859D2*
X11019391D1*
X11300607D2*
X11919183D1*
X12432820D2*
X16155641D1*
X1288146Y2548417D2*
X2296461D1*
X2384539D2*
X2449768D1*
X2739187D2*
X3566396D1*
X3654565D2*
X3719795D1*
X4009213D2*
X4975328D1*
X5406661D2*
X6277073D1*
X6644968D2*
X8070185D1*
X8407820D2*
X9425250D1*
X9846739D2*
X10430589D1*
X11381362D2*
X11965211D1*
X12386791D2*
X16155641D1*
X1288146Y2485250D2*
X4975328D1*
X5406661D2*
X6279625D1*
X6642416D2*
X8073011D1*
X8404995D2*
X9516396D1*
X9755593D2*
X10389938D1*
X11422104D2*
X12056357D1*
X12295646D2*
X16155641D1*
X1288146Y2422083D2*
X4975328D1*
X5406661D2*
X6307151D1*
X6614890D2*
X8103818D1*
X8374187D2*
X10384378D1*
X11427664D2*
X13357373D1*
X13788614D2*
X16155641D1*
X1288146Y2358917D2*
X4975328D1*
X5406661D2*
X6298948D1*
X6623002D2*
X10384378D1*
X11427664D2*
X13357373D1*
X13788614D2*
X16155641D1*
X1288146Y2295750D2*
X6277255D1*
X6644786D2*
X10394495D1*
X11417455D2*
X13357373D1*
X13788614D2*
X16155641D1*
X1288146Y2232583D2*
X6279352D1*
X6642690D2*
X10448362D1*
X11363679D2*
X13357373D1*
X13788614D2*
X16155641D1*
X1288146Y2169417D2*
X6275341D1*
X6646609D2*
X13357373D1*
X13788614D2*
X16155641D1*
X1288146Y2106250D2*
X6275341D1*
X6646609D2*
X13357373D1*
X13788614D2*
X16155641D1*
X1288146Y2043083D2*
X6275341D1*
X6646609D2*
X7213688D1*
X7486336D2*
X16155641D1*
X1288146Y1979917D2*
X6275341D1*
X6646609D2*
X7177594D1*
X7522429D2*
X16155641D1*
X1288146Y1916750D2*
X6275341D1*
X6646609D2*
X7169664D1*
X7530359D2*
X13425732D1*
X13720255D2*
X16155641D1*
X1288146Y1853583D2*
X6275341D1*
X6646609D2*
X7185615D1*
X7514409D2*
X13378427D1*
X13767560D2*
X14089091D1*
X14326830D2*
X16155641D1*
X1288146Y1790417D2*
X7235380D1*
X7464643D2*
X13359287D1*
X13786700D2*
X14059925D1*
X14356088D2*
X16155641D1*
X1288146Y1727250D2*
X13360289D1*
X13785698D2*
X14060927D1*
X14355086D2*
X16155641D1*
X1288146Y1664083D2*
X13381709D1*
X13764278D2*
X14095289D1*
X14320724D2*
X16155641D1*
X1288146Y1600917D2*
X13433024D1*
X13712963D2*
X16155641D1*
X1288146Y1537750D2*
X16155641D1*
X1288146Y1474583D2*
X16155641D1*
X1288146Y1411417D2*
X16155641D1*
X1288146Y1348250D2*
X16155641D1*
X1288146Y1285083D2*
X16155641D1*
X5690043Y7636290D2*
X5985290D1*
Y7614324D1*
X6004256Y7625656D1*
X6028444Y7635674D1*
X6053900Y7641786D1*
X6080000Y7643840D1*
X6106100Y7641786D1*
X6131556Y7635674D1*
X6155744Y7625656D1*
X6178066Y7611976D1*
X6197974Y7594974D1*
X6214976Y7575066D1*
X6228656Y7552744D1*
X6238674Y7528556D1*
X6244786Y7503100D1*
X6246840Y7477000D1*
X6244786Y7450900D1*
X6238674Y7425444D1*
X6228656Y7401256D1*
X6214976Y7378934D1*
X6197974Y7359026D1*
X6178066Y7342024D1*
X6155744Y7328344D1*
X6131556Y7318326D1*
X6106100Y7312214D1*
X6080000Y7310160D1*
X6053900Y7312214D1*
X6028444Y7318326D1*
X6004256Y7328344D1*
X5985295Y7339778D1*
X5985290Y7317710D1*
X5666710D1*
Y7348973D1*
X5655229Y7341183D1*
X5632958Y7329835D1*
X5609186Y7322111D1*
X5584498Y7318201D1*
X5559502D1*
X5534814Y7322111D1*
X5511042Y7329835D1*
X5488771Y7341183D1*
X5468549Y7355875D1*
X5450875Y7373549D1*
X5445037Y7380954D1*
X5430635Y7364365D1*
X5411628Y7348132D1*
X5390316Y7335072D1*
X5367223Y7325506D1*
X5342918Y7319671D1*
X5318000Y7317710D1*
X5293082Y7319671D1*
X5268777Y7325506D1*
X5245684Y7335072D1*
X5224372Y7348132D1*
X5205365Y7364365D1*
X5191037Y7380954D1*
X5176635Y7364365D1*
X5157628Y7348132D1*
X5136316Y7335072D1*
X5113223Y7325506D1*
X5088918Y7319671D1*
X5064000Y7317710D1*
X5039082Y7319671D1*
X5014777Y7325506D1*
X4991684Y7335072D1*
X4970372Y7348132D1*
X4951365Y7364365D1*
X4937037Y7380954D1*
X4922635Y7364365D1*
X4903628Y7348132D1*
X4882316Y7335072D1*
X4859223Y7325506D1*
X4834918Y7319671D1*
X4810000Y7317710D1*
X4785082Y7319671D1*
X4760777Y7325506D1*
X4737684Y7335072D1*
X4716372Y7348132D1*
X4697365Y7364365D1*
X4683037Y7380954D1*
X4668635Y7364365D1*
X4649628Y7348132D1*
X4628316Y7335072D1*
X4605223Y7325506D1*
X4580918Y7319671D1*
X4556000Y7317710D1*
X4531082Y7319671D1*
X4506777Y7325506D1*
X4483684Y7335072D1*
X4462372Y7348132D1*
X4443365Y7364365D1*
X4429037Y7380954D1*
X4414635Y7364365D1*
X4395628Y7348132D1*
X4374316Y7335072D1*
X4351223Y7325506D1*
X4326918Y7319671D1*
X4302000Y7317710D1*
X4277082Y7319671D1*
X4252777Y7325506D1*
X4229684Y7335072D1*
X4208372Y7348132D1*
X4189365Y7364365D1*
X4175037Y7380954D1*
X4160635Y7364365D1*
X4141628Y7348132D1*
X4120316Y7335072D1*
X4097223Y7325506D1*
X4072918Y7319671D1*
X4048000Y7317710D1*
X4023082Y7319671D1*
X3998777Y7325506D1*
X3975684Y7335072D1*
X3954372Y7348132D1*
X3935365Y7364365D1*
X3921037Y7380954D1*
X3906635Y7364365D1*
X3887628Y7348132D1*
X3866316Y7335072D1*
X3843223Y7325506D1*
X3818918Y7319671D1*
X3794000Y7317710D1*
X3769082Y7319671D1*
X3744777Y7325506D1*
X3721684Y7335072D1*
X3700372Y7348132D1*
X3681365Y7364365D1*
X3667037Y7380954D1*
X3652635Y7364365D1*
X3633628Y7348132D1*
X3612316Y7335072D1*
X3589223Y7325506D1*
X3564918Y7319671D1*
X3540000Y7317710D1*
X3515082Y7319671D1*
X3490777Y7325506D1*
X3467684Y7335072D1*
X3446372Y7348132D1*
X3427365Y7364365D1*
X3413037Y7380954D1*
X3398635Y7364365D1*
X3379628Y7348132D1*
X3358316Y7335072D1*
X3335223Y7325506D1*
X3310918Y7319671D1*
X3286000Y7317710D1*
X3261082Y7319671D1*
X3236777Y7325506D1*
X3213684Y7335072D1*
X3192372Y7348132D1*
X3173365Y7364365D1*
X3159037Y7380954D1*
X3144635Y7364365D1*
X3125628Y7348132D1*
X3104316Y7335072D1*
X3081223Y7325506D1*
X3056918Y7319671D1*
X3032000Y7317710D1*
X3007082Y7319671D1*
X2982777Y7325506D1*
X2959684Y7335072D1*
X2938372Y7348132D1*
X2919365Y7364365D1*
X2905037Y7380954D1*
X2890635Y7364365D1*
X2871628Y7348132D1*
X2850316Y7335072D1*
X2827223Y7325506D1*
X2802918Y7319671D1*
X2778000Y7317710D1*
X2753082Y7319671D1*
X2728777Y7325506D1*
X2705684Y7335072D1*
X2684372Y7348132D1*
X2665365Y7364365D1*
X2651037Y7380954D1*
X2636635Y7364365D1*
X2617628Y7348132D1*
X2596316Y7335072D1*
X2573223Y7325506D1*
X2548918Y7319671D1*
X2524000Y7317710D1*
X2499082Y7319671D1*
X2474777Y7325506D1*
X2451684Y7335072D1*
X2430372Y7348132D1*
X2411365Y7364365D1*
X2397037Y7380954D1*
X2382635Y7364365D1*
X2363628Y7348132D1*
X2342316Y7335072D1*
X2319223Y7325506D1*
X2294918Y7319671D1*
X2270000Y7317710D1*
X2245082Y7319671D1*
X2220777Y7325506D1*
X2197684Y7335072D1*
X2176372Y7348132D1*
X2157365Y7364365D1*
X2147877Y7374816D1*
X2133974Y7359026D1*
X2114066Y7342024D1*
X2091744Y7328344D1*
X2067556Y7318326D1*
X2042100Y7312214D1*
X2016000Y7310160D1*
X1989900Y7312214D1*
X1964444Y7318326D1*
X1940256Y7328344D1*
X1917934Y7342024D1*
X1898026Y7359026D1*
X1881024Y7378934D1*
X1867344Y7401256D1*
X1857326Y7425444D1*
X1851214Y7450900D1*
X1849160Y7477000D1*
X1851214Y7503100D1*
X1857326Y7528556D1*
X1867344Y7552744D1*
X1881024Y7575066D1*
X1898026Y7594974D1*
X1917934Y7611976D1*
X1940256Y7625656D1*
X1964444Y7635674D1*
X1989900Y7641786D1*
X2016000Y7643840D1*
X2042100Y7641786D1*
X2067556Y7635674D1*
X2091744Y7625656D1*
X2114066Y7611976D1*
X2133974Y7594974D1*
X2147777Y7579125D1*
X2157365Y7589635D1*
X2176372Y7605868D1*
X2197684Y7618928D1*
X2220777Y7628494D1*
X2245082Y7634329D1*
X2270000Y7636290D1*
X2294918Y7634329D1*
X2319223Y7628494D1*
X2342316Y7618928D1*
X2363628Y7605868D1*
X2382635Y7589635D1*
X2396963Y7573046D1*
X2411365Y7589635D1*
X2430372Y7605868D1*
X2451684Y7618928D1*
X2474777Y7628494D1*
X2499082Y7634329D1*
X2524000Y7636290D1*
X2548918Y7634329D1*
X2573223Y7628494D1*
X2596316Y7618928D1*
X2617628Y7605868D1*
X2636635Y7589635D1*
X2650963Y7573046D1*
X2665365Y7589635D1*
X2684372Y7605868D1*
X2705684Y7618928D1*
X2728777Y7628494D1*
X2753082Y7634329D1*
X2778000Y7636290D1*
X2802918Y7634329D1*
X2827223Y7628494D1*
X2850316Y7618928D1*
X2871628Y7605868D1*
X2890635Y7589635D1*
X2904963Y7573046D1*
X2919365Y7589635D1*
X2938372Y7605868D1*
X2959684Y7618928D1*
X2982777Y7628494D1*
X3007082Y7634329D1*
X3032000Y7636290D1*
X3056918Y7634329D1*
X3081223Y7628494D1*
X3104316Y7618928D1*
X3125628Y7605868D1*
X3144635Y7589635D1*
X3158963Y7573046D1*
X3173365Y7589635D1*
X3192372Y7605868D1*
X3213684Y7618928D1*
X3236777Y7628494D1*
X3261082Y7634329D1*
X3286000Y7636290D1*
X3310918Y7634329D1*
X3335223Y7628494D1*
X3358316Y7618928D1*
X3379628Y7605868D1*
X3398635Y7589635D1*
X3412963Y7573046D1*
X3427365Y7589635D1*
X3446372Y7605868D1*
X3467684Y7618928D1*
X3490777Y7628494D1*
X3515082Y7634329D1*
X3540000Y7636290D1*
X3564918Y7634329D1*
X3589223Y7628494D1*
X3612316Y7618928D1*
X3633628Y7605868D1*
X3652635Y7589635D1*
X3666963Y7573046D1*
X3681365Y7589635D1*
X3700372Y7605868D1*
X3721684Y7618928D1*
X3744777Y7628494D1*
X3769082Y7634329D1*
X3794000Y7636290D1*
X3818918Y7634329D1*
X3843223Y7628494D1*
X3866316Y7618928D1*
X3887628Y7605868D1*
X3906635Y7589635D1*
X3920963Y7573046D1*
X3935365Y7589635D1*
X3954372Y7605868D1*
X3975684Y7618928D1*
X3998777Y7628494D1*
X4023082Y7634329D1*
X4048000Y7636290D1*
X4072918Y7634329D1*
X4097223Y7628494D1*
X4120316Y7618928D1*
X4141628Y7605868D1*
X4160635Y7589635D1*
X4174963Y7573046D1*
X4189365Y7589635D1*
X4208372Y7605868D1*
X4229684Y7618928D1*
X4252777Y7628494D1*
X4277082Y7634329D1*
X4302000Y7636290D1*
X4326918Y7634329D1*
X4351223Y7628494D1*
X4374316Y7618928D1*
X4395628Y7605868D1*
X4414635Y7589635D1*
X4428963Y7573046D1*
X4443365Y7589635D1*
X4462372Y7605868D1*
X4483684Y7618928D1*
X4506777Y7628494D1*
X4531082Y7634329D1*
X4556000Y7636290D1*
X4580918Y7634329D1*
X4605223Y7628494D1*
X4628316Y7618928D1*
X4649628Y7605868D1*
X4668635Y7589635D1*
X4682963Y7573046D1*
X4697365Y7589635D1*
X4716372Y7605868D1*
X4737684Y7618928D1*
X4760777Y7628494D1*
X4785082Y7634329D1*
X4810000Y7636290D1*
X4834918Y7634329D1*
X4859223Y7628494D1*
X4882316Y7618928D1*
X4903628Y7605868D1*
X4922635Y7589635D1*
X4936963Y7573046D1*
X4951365Y7589635D1*
X4970372Y7605868D1*
X4991684Y7618928D1*
X5014777Y7628494D1*
X5039082Y7634329D1*
X5064000Y7636290D1*
X5088918Y7634329D1*
X5113223Y7628494D1*
X5136316Y7618928D1*
X5157628Y7605868D1*
X5176635Y7589635D1*
X5190963Y7573046D1*
X5205365Y7589635D1*
X5224372Y7605868D1*
X5245684Y7618928D1*
X5268777Y7628494D1*
X5293082Y7634329D1*
X5318000Y7636290D1*
X5342918Y7634329D1*
X5367223Y7628494D1*
X5390316Y7618928D1*
X5411628Y7605868D1*
X5430635Y7589635D1*
X5444963Y7573046D1*
X5459365Y7589635D1*
X5478372Y7605868D1*
X5499684Y7618928D1*
X5522777Y7628494D1*
X5547082Y7634329D1*
X5572000Y7636290D1*
X5596918Y7634329D1*
X5621223Y7628494D1*
X5644316Y7618928D1*
X5665628Y7605868D1*
X5666741Y7604991D1*
X5666710Y7636290D1*
X5690043D1*
X2396963Y5856954D2*
X2382635Y5840365D1*
X2363628Y5824132D1*
X2342316Y5811072D1*
X2319223Y5801506D1*
X2294918Y5795671D1*
X2270000Y5793710D1*
X2245082Y5795671D1*
X2220777Y5801506D1*
X2197684Y5811072D1*
X2176372Y5824132D1*
X2157365Y5840365D1*
X2147877Y5850816D1*
X2133974Y5835026D1*
X2114066Y5818024D1*
X2091744Y5804344D1*
X2067556Y5794326D1*
X2042100Y5788214D1*
X2016000Y5786160D1*
X1989900Y5788214D1*
X1964444Y5794326D1*
X1940256Y5804344D1*
X1917934Y5818024D1*
X1898026Y5835026D1*
X1881024Y5854934D1*
X1867344Y5877256D1*
X1857326Y5901444D1*
X1851214Y5926900D1*
X1849160Y5953000D1*
X1851214Y5979100D1*
X1857326Y6004556D1*
X1867344Y6028744D1*
X1881024Y6051066D1*
X1898026Y6070974D1*
X1917934Y6087976D1*
X1940256Y6101656D1*
X1964444Y6111674D1*
X1989900Y6117786D1*
X2016000Y6119840D1*
X2042100Y6117786D1*
X2067556Y6111674D1*
X2091744Y6101656D1*
X2114066Y6087976D1*
X2133974Y6070974D1*
X2147777Y6055125D1*
X2157365Y6065635D1*
X2176372Y6081868D1*
X2197684Y6094928D1*
X2220777Y6104494D1*
X2245082Y6110329D1*
X2270000Y6112290D1*
X2294918Y6110329D1*
X2319223Y6104494D1*
X2342316Y6094928D1*
X2363628Y6081868D1*
X2382635Y6065635D1*
X2396963Y6049046D1*
X2411365Y6065635D1*
X2430372Y6081868D1*
X2451684Y6094928D1*
X2474777Y6104494D1*
X2499082Y6110329D1*
X2524000Y6112290D1*
X2548918Y6110329D1*
X2573223Y6104494D1*
X2596316Y6094928D1*
X2617628Y6081868D1*
X2636635Y6065635D1*
X2650963Y6049046D1*
X2665365Y6065635D1*
X2684372Y6081868D1*
X2705684Y6094928D1*
X2728777Y6104494D1*
X2753082Y6110329D1*
X2778000Y6112290D1*
X2802918Y6110329D1*
X2827223Y6104494D1*
X2850316Y6094928D1*
X2871628Y6081868D1*
X2890635Y6065635D1*
X2904963Y6049046D1*
X2919365Y6065635D1*
X2938372Y6081868D1*
X2959684Y6094928D1*
X2982777Y6104494D1*
X3007082Y6110329D1*
X3032000Y6112290D1*
X3056918Y6110329D1*
X3081223Y6104494D1*
X3104316Y6094928D1*
X3125628Y6081868D1*
X3144635Y6065635D1*
X3158963Y6049046D1*
X3173365Y6065635D1*
X3192372Y6081868D1*
X3213684Y6094928D1*
X3236777Y6104494D1*
X3261082Y6110329D1*
X3286000Y6112290D1*
X3310918Y6110329D1*
X3335223Y6104494D1*
X3358316Y6094928D1*
X3379628Y6081868D1*
X3398635Y6065635D1*
X3412963Y6049046D1*
X3427365Y6065635D1*
X3446372Y6081868D1*
X3467684Y6094928D1*
X3490777Y6104494D1*
X3515082Y6110329D1*
X3540000Y6112290D1*
X3564918Y6110329D1*
X3589223Y6104494D1*
X3612316Y6094928D1*
X3633628Y6081868D1*
X3652635Y6065635D1*
X3666963Y6049046D1*
X3681365Y6065635D1*
X3700372Y6081868D1*
X3721684Y6094928D1*
X3744777Y6104494D1*
X3769082Y6110329D1*
X3794000Y6112290D1*
X3818918Y6110329D1*
X3843223Y6104494D1*
X3866316Y6094928D1*
X3887628Y6081868D1*
X3906635Y6065635D1*
X3920963Y6049046D1*
X3935365Y6065635D1*
X3954372Y6081868D1*
X3975684Y6094928D1*
X3998777Y6104494D1*
X4023082Y6110329D1*
X4048000Y6112290D1*
X4072918Y6110329D1*
X4097223Y6104494D1*
X4120316Y6094928D1*
X4141628Y6081868D1*
X4160635Y6065635D1*
X4174963Y6049046D1*
X4189365Y6065635D1*
X4208372Y6081868D1*
X4229684Y6094928D1*
X4252777Y6104494D1*
X4277082Y6110329D1*
X4302000Y6112290D1*
X4326918Y6110329D1*
X4351223Y6104494D1*
X4374316Y6094928D1*
X4395628Y6081868D1*
X4414635Y6065635D1*
X4428963Y6049046D1*
X4443365Y6065635D1*
X4462372Y6081868D1*
X4483684Y6094928D1*
X4506777Y6104494D1*
X4531082Y6110329D1*
X4556000Y6112290D1*
X4580918Y6110329D1*
X4605223Y6104494D1*
X4628316Y6094928D1*
X4649628Y6081868D1*
X4668635Y6065635D1*
X4682963Y6049046D1*
X4697365Y6065635D1*
X4716372Y6081868D1*
X4737684Y6094928D1*
X4760777Y6104494D1*
X4785082Y6110329D1*
X4810000Y6112290D1*
X4834918Y6110329D1*
X4859223Y6104494D1*
X4882316Y6094928D1*
X4903628Y6081868D1*
X4922635Y6065635D1*
X4936963Y6049046D1*
X4951365Y6065635D1*
X4970372Y6081868D1*
X4991684Y6094928D1*
X5014777Y6104494D1*
X5039082Y6110329D1*
X5064000Y6112290D1*
X5088918Y6110329D1*
X5113223Y6104494D1*
X5136316Y6094928D1*
X5157628Y6081868D1*
X5176635Y6065635D1*
X5190963Y6049046D1*
X5205365Y6065635D1*
X5224372Y6081868D1*
X5245684Y6094928D1*
X5268777Y6104494D1*
X5293082Y6110329D1*
X5318000Y6112290D1*
X5342918Y6110329D1*
X5367223Y6104494D1*
X5390316Y6094928D1*
X5411628Y6081868D1*
X5430635Y6065635D1*
X5444963Y6049046D1*
X5459365Y6065635D1*
X5478372Y6081868D1*
X5499684Y6094928D1*
X5522777Y6104494D1*
X5547082Y6110329D1*
X5572000Y6112290D1*
X5596918Y6110329D1*
X5621223Y6104494D1*
X5644316Y6094928D1*
X5665628Y6081868D1*
X5684635Y6065635D1*
X5698963Y6049046D1*
X5713365Y6065635D1*
X5732372Y6081868D1*
X5753684Y6094928D1*
X5776777Y6104494D1*
X5801082Y6110329D1*
X5826000Y6112290D1*
X5850918Y6110329D1*
X5875223Y6104494D1*
X5898316Y6094928D1*
X5919628Y6081868D1*
X5938635Y6065635D1*
X5948123Y6055184D1*
X5962026Y6070974D1*
X5981934Y6087976D1*
X6004256Y6101656D1*
X6028444Y6111674D1*
X6053900Y6117786D1*
X6080000Y6119840D1*
X6106100Y6117786D1*
X6131556Y6111674D1*
X6155744Y6101656D1*
X6178066Y6087976D1*
X6197974Y6070974D1*
X6214976Y6051066D1*
X6228656Y6028744D1*
X6238674Y6004556D1*
X6244786Y5979100D1*
X6246840Y5953000D1*
X6244786Y5926900D1*
X6238674Y5901444D1*
X6228656Y5877256D1*
X6214976Y5854934D1*
X6197974Y5835026D1*
X6178066Y5818024D1*
X6155744Y5804344D1*
X6131556Y5794326D1*
X6106100Y5788214D1*
X6080000Y5786160D1*
X6053900Y5788214D1*
X6028444Y5794326D1*
X6004256Y5804344D1*
X5981934Y5818024D1*
X5962026Y5835026D1*
X5948223Y5850875D1*
X5938635Y5840365D1*
X5919628Y5824132D1*
X5898316Y5811072D1*
X5875223Y5801506D1*
X5850918Y5795671D1*
X5826000Y5793710D1*
X5801082Y5795671D1*
X5776777Y5801506D1*
X5753684Y5811072D1*
X5732372Y5824132D1*
X5713365Y5840365D1*
X5699037Y5856954D1*
X5684635Y5840365D1*
X5665628Y5824132D1*
X5644316Y5811072D1*
X5621223Y5801506D1*
X5596918Y5795671D1*
X5572000Y5793710D1*
X5547082Y5795671D1*
X5522777Y5801506D1*
X5499684Y5811072D1*
X5478372Y5824132D1*
X5459365Y5840365D1*
X5445037Y5856954D1*
X5430635Y5840365D1*
X5411628Y5824132D1*
X5390316Y5811072D1*
X5367223Y5801506D1*
X5342918Y5795671D1*
X5318000Y5793710D1*
X5293082Y5795671D1*
X5268777Y5801506D1*
X5245684Y5811072D1*
X5224372Y5824132D1*
X5205365Y5840365D1*
X5191037Y5856954D1*
X5176635Y5840365D1*
X5157628Y5824132D1*
X5136316Y5811072D1*
X5113223Y5801506D1*
X5088918Y5795671D1*
X5064000Y5793710D1*
X5039082Y5795671D1*
X5014777Y5801506D1*
X4991684Y5811072D1*
X4970372Y5824132D1*
X4951365Y5840365D1*
X4937037Y5856954D1*
X4922635Y5840365D1*
X4903628Y5824132D1*
X4882316Y5811072D1*
X4859223Y5801506D1*
X4834918Y5795671D1*
X4810000Y5793710D1*
X4785082Y5795671D1*
X4760777Y5801506D1*
X4737684Y5811072D1*
X4716372Y5824132D1*
X4697365Y5840365D1*
X4683037Y5856954D1*
X4668635Y5840365D1*
X4649628Y5824132D1*
X4628316Y5811072D1*
X4605223Y5801506D1*
X4580918Y5795671D1*
X4556000Y5793710D1*
X4531082Y5795671D1*
X4506777Y5801506D1*
X4483684Y5811072D1*
X4462372Y5824132D1*
X4443365Y5840365D1*
X4429037Y5856954D1*
X4414635Y5840365D1*
X4395628Y5824132D1*
X4374316Y5811072D1*
X4351223Y5801506D1*
X4326918Y5795671D1*
X4302000Y5793710D1*
X4277082Y5795671D1*
X4252777Y5801506D1*
X4229684Y5811072D1*
X4208372Y5824132D1*
X4189365Y5840365D1*
X4175037Y5856954D1*
X4160635Y5840365D1*
X4141628Y5824132D1*
X4120316Y5811072D1*
X4097223Y5801506D1*
X4072918Y5795671D1*
X4048000Y5793710D1*
X4023082Y5795671D1*
X3998777Y5801506D1*
X3975684Y5811072D1*
X3954372Y5824132D1*
X3935365Y5840365D1*
X3921037Y5856954D1*
X3906635Y5840365D1*
X3887628Y5824132D1*
X3866316Y5811072D1*
X3843223Y5801506D1*
X3818918Y5795671D1*
X3794000Y5793710D1*
X3769082Y5795671D1*
X3744777Y5801506D1*
X3721684Y5811072D1*
X3700372Y5824132D1*
X3681365Y5840365D1*
X3667037Y5856954D1*
X3652635Y5840365D1*
X3633628Y5824132D1*
X3612316Y5811072D1*
X3589223Y5801506D1*
X3564918Y5795671D1*
X3540000Y5793710D1*
X3515082Y5795671D1*
X3490777Y5801506D1*
X3467684Y5811072D1*
X3446372Y5824132D1*
X3427365Y5840365D1*
X3413037Y5856954D1*
X3398635Y5840365D1*
X3379628Y5824132D1*
X3358316Y5811072D1*
X3335223Y5801506D1*
X3310918Y5795671D1*
X3286000Y5793710D1*
X3261082Y5795671D1*
X3236777Y5801506D1*
X3213684Y5811072D1*
X3192372Y5824132D1*
X3173365Y5840365D1*
X3159037Y5856954D1*
X3144635Y5840365D1*
X3125628Y5824132D1*
X3104316Y5811072D1*
X3081223Y5801506D1*
X3056918Y5795671D1*
X3032000Y5793710D1*
X3007082Y5795671D1*
X2982777Y5801506D1*
X2959684Y5811072D1*
X2938372Y5824132D1*
X2919365Y5840365D1*
X2905037Y5856954D1*
X2890635Y5840365D1*
X2871628Y5824132D1*
X2850316Y5811072D1*
X2827223Y5801506D1*
X2802918Y5795671D1*
X2778000Y5793710D1*
X2753082Y5795671D1*
X2728777Y5801506D1*
X2705684Y5811072D1*
X2684372Y5824132D1*
X2665365Y5840365D1*
X2651037Y5856954D1*
X2636635Y5840365D1*
X2617628Y5824132D1*
X2596316Y5811072D1*
X2573223Y5801506D1*
X2548918Y5795671D1*
X2524000Y5793710D1*
X2499082Y5795671D1*
X2474777Y5801506D1*
X2451684Y5811072D1*
X2430372Y5824132D1*
X2411365Y5840365D1*
X2397037Y5856954D1*
X8402784Y2511110D2*
X8398751Y2485647D1*
X8390784Y2461129D1*
X8379080Y2438159D1*
X8363927Y2417302D1*
X8345698Y2399073D1*
X8324841Y2383920D1*
X8301871Y2372216D1*
X8277353Y2364249D1*
X8251890Y2360216D1*
X8226110D1*
X8200647Y2364249D1*
X8176129Y2372216D1*
X8153159Y2383920D1*
X8132302Y2399073D1*
X8114073Y2417302D1*
X8098920Y2438159D1*
X8087216Y2461129D1*
X8079249Y2485647D1*
X8075216Y2511110D1*
Y2536890D1*
X8079249Y2562353D1*
X8087216Y2586871D1*
X8098920Y2609841D1*
X8114073Y2630698D1*
X8132302Y2648927D1*
X8153159Y2664080D1*
X8176129Y2675784D1*
X8200647Y2683751D1*
X8226110Y2687784D1*
X8251890D1*
X8277353Y2683751D1*
X8301871Y2675784D1*
X8324841Y2664080D1*
X8345698Y2648927D1*
X8363927Y2630698D1*
X8379080Y2609841D1*
X8390784Y2586871D1*
X8398751Y2562353D1*
X8402784Y2536890D1*
Y2511110D1*
X8098043Y3196290D2*
X8403290D1*
Y2867710D1*
X8074710D1*
Y3196290D1*
X8098043D1*
X5611543Y5111290D2*
X5936790D1*
Y4762710D1*
X5588210D1*
Y5111290D1*
X5611543D1*
X3481043Y12512290D2*
X3876290D1*
Y12093710D1*
X3457710D1*
Y12512290D1*
X3481043D1*
X3875645Y11778579D2*
X3873713Y11762260D1*
X3870507Y11746142D1*
X3866047Y11730326D1*
X3860359Y11714908D1*
X3853479Y11699984D1*
X3845449Y11685646D1*
X3836319Y11671982D1*
X3826145Y11659077D1*
X3814990Y11647010D1*
X3802923Y11635855D1*
X3790018Y11625681D1*
X3776354Y11616551D1*
X3762016Y11608521D1*
X3747092Y11601641D1*
X3731674Y11595953D1*
X3715858Y11591493D1*
X3699740Y11588287D1*
X3683421Y11586355D1*
X3667000Y11585710D1*
X3650579Y11586355D1*
X3634260Y11588287D1*
X3618142Y11591493D1*
X3602326Y11595953D1*
X3586908Y11601641D1*
X3571984Y11608521D1*
X3557646Y11616551D1*
X3543982Y11625681D1*
X3531077Y11635855D1*
X3519010Y11647010D1*
X3507855Y11659077D1*
X3497681Y11671982D1*
X3488551Y11685646D1*
X3480521Y11699984D1*
X3473641Y11714908D1*
X3467953Y11730326D1*
X3463493Y11746142D1*
X3460287Y11762260D1*
X3458355Y11778579D1*
X3457710Y11795000D1*
X3458355Y11811421D1*
X3460287Y11827740D1*
X3463493Y11843858D1*
X3467953Y11859674D1*
X3473641Y11875092D1*
X3480521Y11890016D1*
X3488551Y11904354D1*
X3497681Y11918018D1*
X3507855Y11930923D1*
X3519010Y11942990D1*
X3531077Y11954145D1*
X3543982Y11964319D1*
X3557646Y11973449D1*
X3571984Y11981479D1*
X3586908Y11988359D1*
X3602326Y11994047D1*
X3618142Y11998507D1*
X3634260Y12001713D1*
X3650579Y12003645D1*
X3667000Y12004290D1*
X3683421Y12003645D1*
X3699740Y12001713D1*
X3715858Y11998507D1*
X3731674Y11994047D1*
X3747092Y11988359D1*
X3762016Y11981479D1*
X3776354Y11973449D1*
X3790018Y11964319D1*
X3802923Y11954145D1*
X3814990Y11942990D1*
X3826145Y11930923D1*
X3836319Y11918018D1*
X3845449Y11904354D1*
X3853479Y11890016D1*
X3860359Y11875092D1*
X3866047Y11859674D1*
X3870507Y11843858D1*
X3873713Y11827740D1*
X3875645Y11811421D1*
X3876290Y11795000D1*
X3875645Y11778579D1*
X7926044Y12512290D2*
X8321290D1*
Y12093710D1*
X7902710D1*
Y12512290D1*
X7926044D1*
X8320645Y11778579D2*
X8318713Y11762260D1*
X8315507Y11746142D1*
X8311047Y11730326D1*
X8305359Y11714908D1*
X8298479Y11699984D1*
X8290449Y11685646D1*
X8281319Y11671982D1*
X8271145Y11659077D1*
X8259990Y11647010D1*
X8247923Y11635855D1*
X8235018Y11625681D1*
X8221354Y11616551D1*
X8207016Y11608521D1*
X8192092Y11601641D1*
X8176674Y11595953D1*
X8160858Y11591493D1*
X8144740Y11588287D1*
X8128421Y11586355D1*
X8112000Y11585710D1*
X8095579Y11586355D1*
X8079260Y11588287D1*
X8063142Y11591493D1*
X8047326Y11595953D1*
X8031908Y11601641D1*
X8016984Y11608521D1*
X8002646Y11616551D1*
X7988982Y11625681D1*
X7976077Y11635855D1*
X7964010Y11647010D1*
X7952855Y11659077D1*
X7942681Y11671982D1*
X7933551Y11685646D1*
X7925521Y11699984D1*
X7918641Y11714908D1*
X7912953Y11730326D1*
X7908493Y11746142D1*
X7905287Y11762260D1*
X7903355Y11778579D1*
X7902710Y11795000D1*
X7903355Y11811421D1*
X7905287Y11827740D1*
X7908493Y11843858D1*
X7912953Y11859674D1*
X7918641Y11875092D1*
X7925521Y11890016D1*
X7933551Y11904354D1*
X7942681Y11918018D1*
X7952855Y11930923D1*
X7964010Y11942990D1*
X7976077Y11954145D1*
X7988982Y11964319D1*
X8002646Y11973449D1*
X8016984Y11981479D1*
X8031908Y11988359D1*
X8047326Y11994047D1*
X8063142Y11998507D1*
X8079260Y12001713D1*
X8095579Y12003645D1*
X8112000Y12004290D1*
X8128421Y12003645D1*
X8144740Y12001713D1*
X8160858Y11998507D1*
X8176674Y11994047D1*
X8192092Y11988359D1*
X8207016Y11981479D1*
X8221354Y11973449D1*
X8235018Y11964319D1*
X8247923Y11954145D1*
X8259990Y11942990D1*
X8271145Y11930923D1*
X8281319Y11918018D1*
X8290449Y11904354D1*
X8298479Y11890016D1*
X8305359Y11875092D1*
X8311047Y11859674D1*
X8315507Y11843858D1*
X8318713Y11827740D1*
X8320645Y11811421D1*
X8321290Y11795000D1*
X8320645Y11778579D1*
X12879044Y8956290D2*
X13274290D1*
Y8537710D1*
X12855710D1*
Y8956290D1*
X12879044D1*
X13273645Y9238579D2*
X13271713Y9222260D1*
X13268507Y9206142D1*
X13264047Y9190326D1*
X13258359Y9174908D1*
X13251479Y9159984D1*
X13243449Y9145646D1*
X13234319Y9131982D1*
X13224145Y9119077D1*
X13212990Y9107010D1*
X13200923Y9095855D1*
X13188018Y9085681D1*
X13174354Y9076551D1*
X13160016Y9068521D1*
X13145092Y9061641D1*
X13129674Y9055953D1*
X13113858Y9051493D1*
X13097740Y9048287D1*
X13081421Y9046355D1*
X13065000Y9045710D1*
X13048579Y9046355D1*
X13032260Y9048287D1*
X13016142Y9051493D1*
X13000326Y9055953D1*
X12984908Y9061641D1*
X12969984Y9068521D1*
X12955646Y9076551D1*
X12941982Y9085681D1*
X12929077Y9095855D1*
X12917010Y9107010D1*
X12905855Y9119077D1*
X12895681Y9131982D1*
X12886551Y9145646D1*
X12878521Y9159984D1*
X12871641Y9174908D1*
X12865953Y9190326D1*
X12861493Y9206142D1*
X12858287Y9222260D1*
X12856355Y9238579D1*
X12855710Y9255000D1*
X12856355Y9271421D1*
X12858287Y9287740D1*
X12861493Y9303858D1*
X12865953Y9319674D1*
X12871641Y9335092D1*
X12878521Y9350016D1*
X12886551Y9364354D1*
X12895681Y9378018D1*
X12905855Y9390923D1*
X12917010Y9402990D1*
X12929077Y9414145D1*
X12941982Y9424319D1*
X12955646Y9433449D1*
X12969984Y9441479D1*
X12984908Y9448359D1*
X13000326Y9454047D1*
X13016142Y9458507D1*
X13032260Y9461713D1*
X13048579Y9463645D1*
X13065000Y9464290D1*
X13081421Y9463645D1*
X13097740Y9461713D1*
X13113858Y9458507D1*
X13129674Y9454047D1*
X13145092Y9448359D1*
X13160016Y9441479D1*
X13174354Y9433449D1*
X13188018Y9424319D1*
X13200923Y9414145D1*
X13212990Y9402990D1*
X13224145Y9390923D1*
X13234319Y9378018D1*
X13243449Y9364354D1*
X13251479Y9350016D1*
X13258359Y9335092D1*
X13264047Y9319674D1*
X13268507Y9303858D1*
X13271713Y9287740D1*
X13273645Y9271421D1*
X13274290Y9255000D1*
X13273645Y9238579D1*
X14403044Y4765290D2*
X14798290D1*
Y4346710D1*
X14379710D1*
Y4765290D1*
X14403044D1*
X14797645Y4031579D2*
X14795713Y4015260D1*
X14792507Y3999142D1*
X14788047Y3983326D1*
X14782359Y3967908D1*
X14775479Y3952984D1*
X14767449Y3938646D1*
X14758319Y3924982D1*
X14748145Y3912077D1*
X14736990Y3900010D1*
X14724923Y3888855D1*
X14712018Y3878681D1*
X14698354Y3869551D1*
X14684016Y3861521D1*
X14669092Y3854641D1*
X14653674Y3848953D1*
X14637858Y3844493D1*
X14621740Y3841287D1*
X14605421Y3839355D1*
X14589000Y3838710D1*
X14572579Y3839355D1*
X14556260Y3841287D1*
X14540142Y3844493D1*
X14524326Y3848953D1*
X14508908Y3854641D1*
X14493984Y3861521D1*
X14479646Y3869551D1*
X14465982Y3878681D1*
X14453077Y3888855D1*
X14441010Y3900010D1*
X14429855Y3912077D1*
X14419681Y3924982D1*
X14410551Y3938646D1*
X14402521Y3952984D1*
X14395641Y3967908D1*
X14389953Y3983326D1*
X14385493Y3999142D1*
X14382287Y4015260D1*
X14380355Y4031579D1*
X14379710Y4048000D1*
X14380355Y4064421D1*
X14382287Y4080740D1*
X14385493Y4096858D1*
X14389953Y4112674D1*
X14395641Y4128092D1*
X14402521Y4143016D1*
X14410551Y4157354D1*
X14419681Y4171018D1*
X14429855Y4183923D1*
X14441010Y4195990D1*
X14453077Y4207145D1*
X14465982Y4217319D1*
X14479646Y4226449D1*
X14493984Y4234479D1*
X14508908Y4241359D1*
X14524326Y4247047D1*
X14540142Y4251507D1*
X14556260Y4254713D1*
X14572579Y4256645D1*
X14589000Y4257290D1*
X14605421Y4256645D1*
X14621740Y4254713D1*
X14637858Y4251507D1*
X14653674Y4247047D1*
X14669092Y4241359D1*
X14684016Y4234479D1*
X14698354Y4226449D1*
X14712018Y4217319D1*
X14724923Y4207145D1*
X14736990Y4195990D1*
X14748145Y4183923D1*
X14758319Y4171018D1*
X14767449Y4157354D1*
X14775479Y4143016D1*
X14782359Y4128092D1*
X14788047Y4112674D1*
X14792507Y4096858D1*
X14795713Y4080740D1*
X14797645Y4064421D1*
X14798290Y4048000D1*
X14797645Y4031579D1*
X9831044Y5019290D2*
X10226290D1*
Y4600710D1*
X9807710D1*
Y5019290D1*
X9831044D1*
X10225645Y5301579D2*
X10223713Y5285260D1*
X10220507Y5269142D1*
X10216047Y5253326D1*
X10210359Y5237908D1*
X10203479Y5222984D1*
X10195449Y5208646D1*
X10186319Y5194982D1*
X10176145Y5182077D1*
X10164990Y5170010D1*
X10152923Y5158855D1*
X10140018Y5148681D1*
X10126354Y5139551D1*
X10112016Y5131521D1*
X10097092Y5124641D1*
X10081674Y5118953D1*
X10065858Y5114493D1*
X10049740Y5111287D1*
X10033421Y5109355D1*
X10017000Y5108710D1*
X10000579Y5109355D1*
X9984260Y5111287D1*
X9968142Y5114493D1*
X9952326Y5118953D1*
X9936908Y5124641D1*
X9921984Y5131521D1*
X9907646Y5139551D1*
X9893982Y5148681D1*
X9881077Y5158855D1*
X9869010Y5170010D1*
X9857855Y5182077D1*
X9847681Y5194982D1*
X9838551Y5208646D1*
X9830521Y5222984D1*
X9823641Y5237908D1*
X9817953Y5253326D1*
X9813493Y5269142D1*
X9810287Y5285260D1*
X9808355Y5301579D1*
X9807710Y5318000D1*
X9808355Y5334421D1*
X9810287Y5350740D1*
X9813493Y5366858D1*
X9817953Y5382674D1*
X9823641Y5398092D1*
X9830521Y5413016D1*
X9838551Y5427354D1*
X9847681Y5441018D1*
X9857855Y5453923D1*
X9869010Y5465990D1*
X9881077Y5477145D1*
X9893982Y5487319D1*
X9907646Y5496449D1*
X9921984Y5504479D1*
X9936908Y5511359D1*
X9952326Y5517047D1*
X9968142Y5521507D1*
X9984260Y5524713D1*
X10000579Y5526645D1*
X10017000Y5527290D1*
X10033421Y5526645D1*
X10049740Y5524713D1*
X10065858Y5521507D1*
X10081674Y5517047D1*
X10097092Y5511359D1*
X10112016Y5504479D1*
X10126354Y5496449D1*
X10140018Y5487319D1*
X10152923Y5477145D1*
X10164990Y5465990D1*
X10176145Y5453923D1*
X10186319Y5441018D1*
X10195449Y5427354D1*
X10203479Y5413016D1*
X10210359Y5398092D1*
X10216047Y5382674D1*
X10220507Y5366858D1*
X10223713Y5350740D1*
X10225645Y5334421D1*
X10226290Y5318000D1*
X10225645Y5301579D1*
X13387044Y2479290D2*
X13782290D1*
Y2060710D1*
X13363710D1*
Y2479290D1*
X13387044D1*
X13781645Y1745579D2*
X13779713Y1729260D1*
X13776507Y1713142D1*
X13772047Y1697326D1*
X13766359Y1681908D1*
X13759479Y1666984D1*
X13751449Y1652646D1*
X13742319Y1638982D1*
X13732145Y1626077D1*
X13720990Y1614010D1*
X13708923Y1602855D1*
X13696018Y1592681D1*
X13682354Y1583551D1*
X13668016Y1575521D1*
X13653092Y1568641D1*
X13637674Y1562953D1*
X13621858Y1558493D1*
X13605740Y1555287D1*
X13589421Y1553355D1*
X13573000Y1552710D1*
X13556579Y1553355D1*
X13540260Y1555287D1*
X13524142Y1558493D1*
X13508326Y1562953D1*
X13492908Y1568641D1*
X13477984Y1575521D1*
X13463646Y1583551D1*
X13449982Y1592681D1*
X13437077Y1602855D1*
X13425010Y1614010D1*
X13413855Y1626077D1*
X13403681Y1638982D1*
X13394551Y1652646D1*
X13386521Y1666984D1*
X13379641Y1681908D1*
X13373953Y1697326D1*
X13369493Y1713142D1*
X13366287Y1729260D1*
X13364355Y1745579D1*
X13363710Y1762000D1*
X13364355Y1778421D1*
X13366287Y1794740D1*
X13369493Y1810858D1*
X13373953Y1826674D1*
X13379641Y1842092D1*
X13386521Y1857016D1*
X13394551Y1871354D1*
X13403681Y1885018D1*
X13413855Y1897923D1*
X13425010Y1909990D1*
X13437077Y1921145D1*
X13449982Y1931319D1*
X13463646Y1940449D1*
X13477984Y1948479D1*
X13492908Y1955359D1*
X13508326Y1961047D1*
X13524142Y1965507D1*
X13540260Y1968713D1*
X13556579Y1970645D1*
X13573000Y1971290D1*
X13589421Y1970645D1*
X13605740Y1968713D1*
X13621858Y1965507D1*
X13637674Y1961047D1*
X13653092Y1955359D1*
X13668016Y1948479D1*
X13682354Y1940449D1*
X13696018Y1931319D1*
X13708923Y1921145D1*
X13720990Y1909990D1*
X13732145Y1897923D1*
X13742319Y1885018D1*
X13751449Y1871354D1*
X13759479Y1857016D1*
X13766359Y1842092D1*
X13772047Y1826674D1*
X13776507Y1810858D1*
X13779713Y1794740D1*
X13781645Y1778421D1*
X13782290Y1762000D1*
X13781645Y1745579D1*
X2413544Y4375790D2*
X2798790D1*
Y4037210D1*
X2776095D1*
X2785904Y4017284D1*
X2794113Y3992020D1*
X2798268Y3965782D1*
Y3939218D1*
X2794113Y3912980D1*
X2785904Y3887716D1*
X2773843Y3864046D1*
X2758229Y3842555D1*
X2739445Y3823771D1*
X2717954Y3808157D1*
X2694284Y3796096D1*
X2669020Y3787887D1*
X2642782Y3783732D1*
X2582834Y3783210D1*
X2546218Y3783732D1*
X2519980Y3787887D1*
X2494716Y3796096D1*
X2471046Y3808157D1*
X2449555Y3823771D1*
X2430771Y3842555D1*
X2428939Y3844879D1*
X2413279Y3833736D1*
X2393804Y3823813D1*
X2373017Y3817059D1*
X2351429Y3813639D1*
X2329571D1*
X2307983Y3817059D1*
X2287196Y3823813D1*
X2267721Y3833736D1*
X2250038Y3846583D1*
X2234583Y3862038D1*
X2221736Y3879721D1*
X2211813Y3899196D1*
X2205059Y3919983D1*
X2201639Y3941571D1*
Y3963429D1*
X2205059Y3985017D1*
X2211813Y4005804D1*
X2221736Y4025279D1*
X2234583Y4042962D1*
X2250038Y4058417D1*
X2267721Y4071264D1*
X2283433Y4079452D1*
X2267721Y4087736D1*
X2250038Y4100583D1*
X2234583Y4116038D1*
X2221736Y4133721D1*
X2211813Y4153196D1*
X2205059Y4173983D1*
X2201639Y4195571D1*
Y4217429D1*
X2205059Y4239017D1*
X2211813Y4259804D1*
X2221736Y4279279D1*
X2234583Y4296962D1*
X2250038Y4312417D1*
X2267721Y4325264D1*
X2287196Y4335187D1*
X2307983Y4341941D1*
X2329571Y4345361D1*
X2351429D1*
X2373017Y4341941D1*
X2390237Y4336503D1*
X2390210Y4375790D1*
X2413544D1*
Y3740790D2*
X2798790D1*
Y3402210D1*
X2776095D1*
X2785904Y3382284D1*
X2794113Y3357020D1*
X2798268Y3330782D1*
Y3304218D1*
X2794113Y3277980D1*
X2785904Y3252716D1*
X2773843Y3229046D1*
X2758229Y3207555D1*
X2739445Y3188771D1*
X2717954Y3173157D1*
X2694284Y3161096D1*
X2669020Y3152887D1*
X2642782Y3148732D1*
X2582834Y3148209D1*
X2546218Y3148732D1*
X2519980Y3152887D1*
X2494716Y3161096D1*
X2471046Y3173157D1*
X2449555Y3188771D1*
X2430771Y3207555D1*
X2428939Y3209879D1*
X2413279Y3198736D1*
X2393804Y3188813D1*
X2373017Y3182059D1*
X2351429Y3178639D1*
X2329571D1*
X2307983Y3182059D1*
X2287196Y3188813D1*
X2267721Y3198736D1*
X2250038Y3211583D1*
X2234583Y3227038D1*
X2221736Y3244721D1*
X2211813Y3264196D1*
X2205059Y3284983D1*
X2201639Y3306571D1*
Y3328429D1*
X2205059Y3350017D1*
X2211813Y3370804D1*
X2221736Y3390279D1*
X2234583Y3407962D1*
X2250038Y3423417D1*
X2267721Y3436264D1*
X2283433Y3444452D1*
X2267721Y3452736D1*
X2250038Y3465583D1*
X2234583Y3481038D1*
X2221736Y3498721D1*
X2211813Y3518196D1*
X2205059Y3538983D1*
X2201639Y3560571D1*
Y3582429D1*
X2205059Y3604017D1*
X2211813Y3624804D1*
X2221736Y3644279D1*
X2234583Y3661962D1*
X2250038Y3677417D1*
X2267721Y3690264D1*
X2287196Y3700187D1*
X2307983Y3706941D1*
X2329571Y3710361D1*
X2351429D1*
X2373017Y3706941D1*
X2390237Y3701503D1*
X2390210Y3740790D1*
X2413544D1*
Y3105789D2*
X2798791D1*
Y2767209D1*
X2776095D1*
X2785904Y2747284D1*
X2794113Y2722020D1*
X2798268Y2695782D1*
Y2669218D1*
X2794113Y2642980D1*
X2785904Y2617716D1*
X2773843Y2594046D1*
X2758229Y2572555D1*
X2739445Y2553771D1*
X2717954Y2538157D1*
X2694284Y2526096D1*
X2669020Y2517887D1*
X2642782Y2513732D1*
X2582834Y2513209D1*
X2546218Y2513732D1*
X2519980Y2517887D1*
X2494716Y2526096D1*
X2471046Y2538157D1*
X2449555Y2553771D1*
X2430771Y2572555D1*
X2428939Y2574879D1*
X2413279Y2563736D1*
X2393804Y2553813D1*
X2373017Y2547059D1*
X2351429Y2543639D1*
X2329571D1*
X2307983Y2547059D1*
X2287196Y2553813D1*
X2267721Y2563736D1*
X2250038Y2576583D1*
X2234583Y2592038D1*
X2221736Y2609721D1*
X2211813Y2629196D1*
X2205059Y2649983D1*
X2201639Y2671571D1*
Y2693429D1*
X2205059Y2715017D1*
X2211813Y2735804D1*
X2221736Y2755279D1*
X2234583Y2772962D1*
X2250038Y2788417D1*
X2267721Y2801264D1*
X2283433Y2809452D1*
X2267721Y2817736D1*
X2250038Y2830583D1*
X2234583Y2846038D1*
X2221736Y2863721D1*
X2211813Y2883196D1*
X2205059Y2903983D1*
X2201639Y2925571D1*
Y2947429D1*
X2205059Y2969017D1*
X2211813Y2989804D1*
X2221736Y3009279D1*
X2234583Y3026962D1*
X2250038Y3042417D1*
X2267721Y3055264D1*
X2287196Y3065187D1*
X2307983Y3071941D1*
X2329571Y3075361D1*
X2351429D1*
X2373017Y3071941D1*
X2390237Y3066503D1*
X2390211Y3105789D1*
X2413544D1*
X3683544Y4375789D2*
X4068791D1*
Y4037209D1*
X4046095D1*
X4055904Y4017284D1*
X4064113Y3992020D1*
X4068268Y3965782D1*
Y3939218D1*
X4064113Y3912980D1*
X4055904Y3887716D1*
X4043843Y3864046D1*
X4028229Y3842555D1*
X4009445Y3823771D1*
X3987954Y3808157D1*
X3964284Y3796096D1*
X3939020Y3787887D1*
X3912782Y3783732D1*
X3852834Y3783209D1*
X3816218Y3783732D1*
X3789980Y3787887D1*
X3764716Y3796096D1*
X3741046Y3808157D1*
X3719555Y3823771D1*
X3700771Y3842555D1*
X3698939Y3844879D1*
X3683279Y3833736D1*
X3663804Y3823813D1*
X3643017Y3817059D1*
X3621429Y3813639D1*
X3599571D1*
X3577983Y3817059D1*
X3557196Y3823813D1*
X3537721Y3833736D1*
X3520038Y3846583D1*
X3504583Y3862038D1*
X3491736Y3879721D1*
X3481813Y3899196D1*
X3475059Y3919983D1*
X3471639Y3941571D1*
Y3963429D1*
X3475059Y3985017D1*
X3481813Y4005804D1*
X3491736Y4025279D1*
X3504583Y4042962D1*
X3520038Y4058417D1*
X3537721Y4071264D1*
X3553433Y4079452D1*
X3537721Y4087736D1*
X3520038Y4100583D1*
X3504583Y4116038D1*
X3491736Y4133721D1*
X3481813Y4153196D1*
X3475059Y4173983D1*
X3471639Y4195571D1*
Y4217429D1*
X3475059Y4239017D1*
X3481813Y4259804D1*
X3491736Y4279279D1*
X3504583Y4296962D1*
X3520038Y4312417D1*
X3537721Y4325264D1*
X3557196Y4335187D1*
X3577983Y4341941D1*
X3599571Y4345361D1*
X3621429D1*
X3643017Y4341941D1*
X3660237Y4336503D1*
X3660211Y4375789D1*
X3683544D1*
Y3740789D2*
X4068791D1*
Y3402209D1*
X4046095D1*
X4055904Y3382284D1*
X4064113Y3357020D1*
X4068268Y3330782D1*
Y3304218D1*
X4064113Y3277980D1*
X4055904Y3252716D1*
X4043843Y3229046D1*
X4028229Y3207555D1*
X4009445Y3188771D1*
X3987954Y3173157D1*
X3964284Y3161096D1*
X3939020Y3152887D1*
X3912782Y3148732D1*
X3852834Y3148209D1*
X3816218Y3148732D1*
X3789980Y3152887D1*
X3764716Y3161096D1*
X3741046Y3173157D1*
X3719555Y3188771D1*
X3700771Y3207555D1*
X3698939Y3209879D1*
X3683279Y3198736D1*
X3663804Y3188813D1*
X3643017Y3182059D1*
X3621429Y3178639D1*
X3599571D1*
X3577983Y3182059D1*
X3557196Y3188813D1*
X3537721Y3198736D1*
X3520038Y3211583D1*
X3504583Y3227038D1*
X3491736Y3244721D1*
X3481813Y3264196D1*
X3475059Y3284983D1*
X3471639Y3306571D1*
Y3328429D1*
X3475059Y3350017D1*
X3481813Y3370804D1*
X3491736Y3390279D1*
X3504583Y3407962D1*
X3520038Y3423417D1*
X3537721Y3436264D1*
X3553433Y3444452D1*
X3537721Y3452736D1*
X3520038Y3465583D1*
X3504583Y3481038D1*
X3491736Y3498721D1*
X3481813Y3518196D1*
X3475059Y3538983D1*
X3471639Y3560571D1*
Y3582429D1*
X3475059Y3604017D1*
X3481813Y3624804D1*
X3491736Y3644279D1*
X3504583Y3661962D1*
X3520038Y3677417D1*
X3537721Y3690264D1*
X3557196Y3700187D1*
X3577983Y3706941D1*
X3599571Y3710361D1*
X3621429D1*
X3643017Y3706941D1*
X3660237Y3701503D1*
X3660211Y3740789D1*
X3683544D1*
Y3105789D2*
X4068791D1*
Y2767209D1*
X4046095D1*
X4055904Y2747284D1*
X4064113Y2722020D1*
X4068268Y2695782D1*
Y2669218D1*
X4064113Y2642980D1*
X4055904Y2617716D1*
X4043843Y2594046D1*
X4028229Y2572555D1*
X4009445Y2553771D1*
X3987954Y2538157D1*
X3964284Y2526096D1*
X3939020Y2517887D1*
X3912782Y2513732D1*
X3852833Y2513210D1*
X3816218Y2513732D1*
X3789980Y2517887D1*
X3764716Y2526096D1*
X3741046Y2538157D1*
X3719555Y2553771D1*
X3700771Y2572555D1*
X3698939Y2574879D1*
X3683279Y2563736D1*
X3663804Y2553813D1*
X3643017Y2547059D1*
X3621429Y2543639D1*
X3599571D1*
X3577983Y2547059D1*
X3557196Y2553813D1*
X3537721Y2563736D1*
X3520038Y2576583D1*
X3504583Y2592038D1*
X3491736Y2609721D1*
X3481813Y2629196D1*
X3475059Y2649983D1*
X3471639Y2671571D1*
Y2693429D1*
X3475059Y2715017D1*
X3481813Y2735804D1*
X3491736Y2755279D1*
X3504583Y2772962D1*
X3520038Y2788417D1*
X3537721Y2801264D1*
X3553433Y2809452D1*
X3537721Y2817736D1*
X3520038Y2830583D1*
X3504583Y2846038D1*
X3491736Y2863721D1*
X3481813Y2883196D1*
X3475059Y2903983D1*
X3471639Y2925571D1*
Y2947429D1*
X3475059Y2969017D1*
X3481813Y2989804D1*
X3491736Y3009279D1*
X3504583Y3026962D1*
X3520038Y3042417D1*
X3537721Y3055264D1*
X3557196Y3065187D1*
X3577983Y3071941D1*
X3599571Y3075361D1*
X3621429D1*
X3643017Y3071941D1*
X3660237Y3066503D1*
X3660211Y3105789D1*
X3683544D1*
X4953543Y4375790D2*
X5338790D1*
Y4037210D1*
X5316095D1*
X5325904Y4017284D1*
X5334113Y3992020D1*
X5338268Y3965782D1*
Y3939218D1*
X5334113Y3912980D1*
X5325904Y3887716D1*
X5313843Y3864046D1*
X5298229Y3842555D1*
X5279445Y3823771D1*
X5257954Y3808157D1*
X5234284Y3796096D1*
X5209020Y3787887D1*
X5182782Y3783732D1*
X5122833Y3783210D1*
X5086218Y3783732D1*
X5059980Y3787887D1*
X5034716Y3796096D1*
X5011046Y3808157D1*
X4989555Y3823771D1*
X4970771Y3842555D1*
X4968939Y3844879D1*
X4953279Y3833736D1*
X4933804Y3823813D1*
X4913017Y3817059D1*
X4891429Y3813639D1*
X4869571D1*
X4847983Y3817059D1*
X4827196Y3823813D1*
X4807721Y3833736D1*
X4790038Y3846583D1*
X4774583Y3862038D1*
X4761736Y3879721D1*
X4751813Y3899196D1*
X4745059Y3919983D1*
X4741639Y3941571D1*
Y3963429D1*
X4745059Y3985017D1*
X4751813Y4005804D1*
X4761736Y4025279D1*
X4774583Y4042962D1*
X4790038Y4058417D1*
X4807721Y4071264D1*
X4823433Y4079452D1*
X4807721Y4087736D1*
X4790038Y4100583D1*
X4774583Y4116038D1*
X4761736Y4133721D1*
X4751813Y4153196D1*
X4745059Y4173983D1*
X4741639Y4195571D1*
Y4217429D1*
X4745059Y4239017D1*
X4751813Y4259804D1*
X4761736Y4279279D1*
X4774583Y4296962D1*
X4790038Y4312417D1*
X4807721Y4325264D1*
X4827196Y4335187D1*
X4847983Y4341941D1*
X4869571Y4345361D1*
X4891429D1*
X4913017Y4341941D1*
X4930237Y4336503D1*
X4930210Y4375790D1*
X4953543D1*
X5005043Y2733290D2*
X5400290D1*
Y2314710D1*
X4981710D1*
Y2733290D1*
X5005043D1*
X5399645Y3015579D2*
X5397713Y2999260D1*
X5394507Y2983142D1*
X5390047Y2967326D1*
X5384359Y2951908D1*
X5377479Y2936984D1*
X5369449Y2922646D1*
X5360319Y2908982D1*
X5350145Y2896077D1*
X5338990Y2884010D1*
X5326923Y2872855D1*
X5314018Y2862681D1*
X5300354Y2853551D1*
X5286016Y2845521D1*
X5271092Y2838641D1*
X5255674Y2832953D1*
X5239858Y2828493D1*
X5223740Y2825287D1*
X5207421Y2823355D1*
X5191000Y2822710D1*
X5174579Y2823355D1*
X5158260Y2825287D1*
X5142142Y2828493D1*
X5126326Y2832953D1*
X5110908Y2838641D1*
X5095984Y2845521D1*
X5081646Y2853551D1*
X5067982Y2862681D1*
X5055077Y2872855D1*
X5043010Y2884010D1*
X5031855Y2896077D1*
X5021681Y2908982D1*
X5012551Y2922646D1*
X5004521Y2936984D1*
X4997641Y2951908D1*
X4991953Y2967326D1*
X4987493Y2983142D1*
X4984287Y2999260D1*
X4982355Y3015579D1*
X4981710Y3032000D1*
X4982355Y3048421D1*
X4984287Y3064740D1*
X4987493Y3080858D1*
X4991953Y3096674D1*
X4997641Y3112092D1*
X5004521Y3127016D1*
X5012551Y3141354D1*
X5021681Y3155018D1*
X5031855Y3167923D1*
X5043010Y3179990D1*
X5055077Y3191145D1*
X5067982Y3201319D1*
X5081646Y3210449D1*
X5095984Y3218479D1*
X5110908Y3225359D1*
X5126326Y3231047D1*
X5142142Y3235507D1*
X5158260Y3238713D1*
X5174579Y3240645D1*
X5191000Y3241290D1*
X5207421Y3240645D1*
X5223740Y3238713D1*
X5239858Y3235507D1*
X5255674Y3231047D1*
X5271092Y3225359D1*
X5286016Y3218479D1*
X5300354Y3210449D1*
X5314018Y3201319D1*
X5326923Y3191145D1*
X5338990Y3179990D1*
X5350145Y3167923D1*
X5360319Y3155018D1*
X5369449Y3141354D1*
X5377479Y3127016D1*
X5384359Y3112092D1*
X5390047Y3096674D1*
X5394507Y3080858D1*
X5397713Y3064740D1*
X5399645Y3048421D1*
X5400290Y3032000D1*
X5399645Y3015579D1*
X6141573Y3965710D2*
X6124710D1*
Y3982572D1*
X6104004Y4007898D1*
X6091603Y4026459D1*
X6080696Y4045935D1*
X6071350Y4066207D1*
X6063624Y4087149D1*
X6057565Y4108634D1*
X6053210Y4130527D1*
X6050586Y4152695D1*
X6049710Y4175000D1*
X6050586Y4197305D1*
X6053210Y4219473D1*
X6057565Y4241366D1*
X6063624Y4262851D1*
X6071350Y4283793D1*
X6080696Y4304065D1*
X6091603Y4323541D1*
X6104004Y4342102D1*
X6124749Y4367123D1*
X6124710Y4384290D1*
X6141572D1*
X6166898Y4404996D1*
X6185459Y4417397D1*
X6204935Y4428304D1*
X6225207Y4437650D1*
X6246149Y4445376D1*
X6267634Y4451435D1*
X6289527Y4455790D1*
X6311695Y4458414D1*
X6357333Y4459290D1*
X7065628D1*
X7065710Y4652638D1*
X6867500Y4652710D1*
X6845195Y4653586D1*
X6823027Y4656210D1*
X6801134Y4660565D1*
X6779650Y4666624D1*
X6758707Y4674350D1*
X6738435Y4683696D1*
X6718959Y4694603D1*
X6700398Y4707004D1*
X6682868Y4720824D1*
X6666477Y4735977D1*
X6651324Y4752368D1*
X6637504Y4769898D1*
X6625103Y4788459D1*
X6614196Y4807935D1*
X6604850Y4828207D1*
X6597124Y4849150D1*
X6591065Y4870634D1*
X6586710Y4892527D1*
X6584086Y4914695D1*
X6583210Y4937000D1*
X6584086Y4959305D1*
X6586710Y4981473D1*
X6591065Y5003366D1*
X6597124Y5024850D1*
X6604850Y5045793D1*
X6614196Y5066065D1*
X6625103Y5085541D1*
X6637504Y5104102D1*
X6651324Y5121632D1*
X6666477Y5138023D1*
X6682868Y5153176D1*
X6700398Y5166996D1*
X6718959Y5179397D1*
X6738435Y5190304D1*
X6758707Y5199650D1*
X6779650Y5207376D1*
X6801134Y5213435D1*
X6823027Y5217790D1*
X6845195Y5220414D1*
X6890833Y5221290D1*
X7350000D1*
X7372305Y5220414D1*
X7394473Y5217790D1*
X7416366Y5213435D1*
X7437850Y5207376D1*
X7458793Y5199650D1*
X7479065Y5190304D1*
X7498541Y5179397D1*
X7517102Y5166996D1*
X7534632Y5153176D1*
X7551023Y5138023D1*
X7566176Y5121632D1*
X7579996Y5104102D1*
X7592397Y5085541D1*
X7603304Y5066065D1*
X7612650Y5045793D1*
X7620376Y5024850D1*
X7626435Y5003366D1*
X7630790Y4981473D1*
X7633414Y4959305D1*
X7634290Y4913667D1*
Y4586362D1*
X8208685Y4586290D1*
X8208710Y6969000D1*
X8209586Y6991305D1*
X8212210Y7013473D1*
X8216565Y7035366D1*
X8222624Y7056851D1*
X8230350Y7077793D1*
X8239695Y7098065D1*
X8250603Y7117541D1*
X8263004Y7136102D1*
X8276824Y7153632D1*
X8291976Y7170024D1*
X8303822Y7180974D1*
X8287066Y7191357D1*
X8271043Y7205043D1*
X8257357Y7221066D1*
X8246347Y7239034D1*
X8238283Y7258502D1*
X8233363Y7278992D1*
X8231712Y7300041D1*
X8232124Y7410536D1*
X8235420Y7431349D1*
X8241932Y7451391D1*
X8251499Y7470166D1*
X8263885Y7487214D1*
X8278786Y7502115D1*
X8295834Y7514501D1*
X8303704Y7518909D1*
X8291977Y7529977D1*
X8276824Y7546368D1*
X8263004Y7563898D1*
X8250603Y7582459D1*
X8239696Y7601935D1*
X8230350Y7622207D1*
X8222624Y7643150D1*
X8216565Y7664634D1*
X8212210Y7686527D1*
X8209586Y7708695D1*
X8208710Y7754333D1*
Y8335753D1*
X3667000Y8335710D1*
X3644695Y8336586D1*
X3622527Y8339210D1*
X3600634Y8343565D1*
X3579149Y8349624D1*
X3558207Y8357350D1*
X3537935Y8366695D1*
X3518459Y8377603D1*
X3499898Y8390004D1*
X3482368Y8403824D1*
X3449477Y8435476D1*
X3211976Y8672976D1*
X3196824Y8689368D1*
X3183004Y8706898D1*
X3170603Y8725459D1*
X3159695Y8744935D1*
X3150350Y8765207D1*
X3142624Y8786149D1*
X3136565Y8807634D1*
X3132210Y8829527D1*
X3129586Y8851695D1*
X3128710Y8897333D1*
Y10144000D1*
X3129586Y10166305D1*
X3132210Y10188473D1*
X3136565Y10210366D1*
X3142624Y10231851D1*
X3150350Y10252793D1*
X3159695Y10273065D1*
X3170603Y10292541D1*
X3183004Y10311102D1*
X3196824Y10328632D1*
X3211976Y10345024D1*
X3223822Y10355974D1*
X3207066Y10366357D1*
X3191043Y10380043D1*
X3177357Y10396066D1*
X3166347Y10414034D1*
X3158283Y10433502D1*
X3153363Y10453992D1*
X3151712Y10475041D1*
X3152124Y10585536D1*
X3155420Y10606349D1*
X3161932Y10626391D1*
X3171499Y10645166D1*
X3183885Y10662214D1*
X3198786Y10677115D1*
X3215834Y10689501D1*
X3234609Y10699068D1*
X3254651Y10705580D1*
X3275464Y10708876D1*
X3296536D1*
X3317349Y10705580D1*
X3337391Y10699068D1*
X3349446Y10693265D1*
X3361609Y10699068D1*
X3381651Y10705580D1*
X3402464Y10708876D1*
X3423536D1*
X3444349Y10705580D1*
X3464391Y10699068D1*
X3476446Y10693265D1*
X3488609Y10699068D1*
X3508651Y10705580D1*
X3529464Y10708876D1*
X3550536D1*
X3571349Y10705580D1*
X3591391Y10699068D1*
X3603446Y10693265D1*
X3615609Y10699068D1*
X3635651Y10705580D1*
X3656464Y10708876D1*
X3677536D1*
X3698349Y10705580D1*
X3718391Y10699068D1*
X3730446Y10693265D1*
X3742609Y10699068D1*
X3762651Y10705580D1*
X3783464Y10708876D1*
X3804536D1*
X3825349Y10705580D1*
X3845391Y10699068D1*
X3857446Y10693265D1*
X3869609Y10699068D1*
X3889651Y10705580D1*
X3910464Y10708876D1*
X3931536D1*
X3952349Y10705580D1*
X3972391Y10699068D1*
X3984446Y10693265D1*
X3996609Y10699068D1*
X4016651Y10705580D1*
X4037464Y10708876D1*
X4058536D1*
X4079349Y10705580D1*
X4099391Y10699068D1*
X4118166Y10689501D1*
X4135214Y10677115D1*
X4150115Y10662214D1*
X4162501Y10645166D1*
X4172068Y10626391D1*
X4178580Y10606349D1*
X4181876Y10585536D1*
X4182290Y10505000D1*
X4181876Y10464464D1*
X4178580Y10443651D1*
X4172068Y10423609D1*
X4162501Y10404834D1*
X4150115Y10387786D1*
X4135214Y10372885D1*
X4118166Y10360499D1*
X4099391Y10350932D1*
X4079349Y10344420D1*
X4058536Y10341124D1*
X4037464D1*
X4016651Y10344420D1*
X3996609Y10350932D1*
X3984554Y10356735D1*
X3972391Y10350932D1*
X3952349Y10344420D1*
X3931536Y10341124D1*
X3910464D1*
X3889651Y10344420D1*
X3869609Y10350932D1*
X3857554Y10356735D1*
X3845391Y10350932D1*
X3825349Y10344420D1*
X3804536Y10341124D1*
X3783464D1*
X3762651Y10344420D1*
X3742609Y10350932D1*
X3730554Y10356735D1*
X3718391Y10350932D1*
X3698349Y10344420D1*
X3677536Y10341124D1*
X3656464D1*
X3635651Y10344420D1*
X3615609Y10350932D1*
X3603554Y10356735D1*
X3629176Y10328632D1*
X3642996Y10311102D1*
X3655397Y10292541D1*
X3666305Y10273065D1*
X3675650Y10252793D1*
X3683376Y10231851D1*
X3689435Y10210366D1*
X3693790Y10188473D1*
X3696414Y10166305D1*
X3697290Y10120667D1*
Y8991826D1*
X3784751Y8904296D1*
X7700659Y8904290D1*
X7700710Y10398000D1*
X7701586Y10420305D1*
X7704210Y10442473D1*
X7708565Y10464366D1*
X7714624Y10485851D1*
X7722350Y10506793D1*
X7731696Y10527065D1*
X7742603Y10546541D1*
X7755004Y10565102D1*
X7768824Y10582632D1*
X7783976Y10599024D1*
X7795822Y10609974D1*
X7779066Y10620357D1*
X7763043Y10634043D1*
X7749357Y10650066D1*
X7738347Y10668034D1*
X7730283Y10687502D1*
X7725363Y10707992D1*
X7723712Y10729041D1*
X7724124Y10839536D1*
X7727420Y10860349D1*
X7733932Y10880391D1*
X7743499Y10899166D1*
X7755885Y10916214D1*
X7770786Y10931115D1*
X7787834Y10943501D1*
X7806609Y10953068D1*
X7826651Y10959580D1*
X7847464Y10962876D1*
X7868536D1*
X7889349Y10959580D1*
X7909391Y10953068D1*
X7921446Y10947265D1*
X7933609Y10953068D1*
X7953651Y10959580D1*
X7974464Y10962876D1*
X7995536D1*
X8016349Y10959580D1*
X8036391Y10953068D1*
X8048446Y10947265D1*
X8060609Y10953068D1*
X8080651Y10959580D1*
X8101464Y10962876D1*
X8122536D1*
X8143349Y10959580D1*
X8163391Y10953068D1*
X8175446Y10947265D1*
X8187609Y10953068D1*
X8207651Y10959580D1*
X8228464Y10962876D1*
X8249536D1*
X8270349Y10959580D1*
X8290391Y10953068D1*
X8302446Y10947265D1*
X8314609Y10953068D1*
X8334651Y10959580D1*
X8355464Y10962876D1*
X8376536D1*
X8397349Y10959580D1*
X8417391Y10953068D1*
X8429446Y10947265D1*
X8441609Y10953068D1*
X8461651Y10959580D1*
X8482464Y10962876D1*
X8503536D1*
X8524349Y10959580D1*
X8544391Y10953068D1*
X8556446Y10947265D1*
X8568609Y10953068D1*
X8588651Y10959580D1*
X8609464Y10962876D1*
X8630536D1*
X8651349Y10959580D1*
X8671391Y10953068D1*
X8690166Y10943501D1*
X8707214Y10931115D1*
X8722115Y10916214D1*
X8734501Y10899166D1*
X8744068Y10880391D1*
X8750580Y10860349D1*
X8753876Y10839536D1*
X8754291Y10758999D1*
X8753876Y10718464D1*
X8750580Y10697651D1*
X8744068Y10677609D1*
X8734501Y10658834D1*
X8722115Y10641786D1*
X8707214Y10626885D1*
X8690166Y10614499D1*
X8671391Y10604932D1*
X8651349Y10598420D1*
X8630536Y10595124D1*
X8609464D1*
X8588651Y10598420D1*
X8568609Y10604932D1*
X8556554Y10610735D1*
X8544391Y10604932D1*
X8524349Y10598420D1*
X8503536Y10595124D1*
X8482464D1*
X8461651Y10598420D1*
X8441609Y10604932D1*
X8429554Y10610735D1*
X8417391Y10604932D1*
X8397349Y10598420D1*
X8376536Y10595124D1*
X8355464D1*
X8334651Y10598420D1*
X8314609Y10604932D1*
X8302554Y10610735D1*
X8290391Y10604932D1*
X8270349Y10598420D1*
X8249536Y10595124D1*
X8228464D1*
X8207651Y10598420D1*
X8187609Y10604932D1*
X8175554Y10610735D1*
X8201176Y10582632D1*
X8214996Y10565102D1*
X8227397Y10546541D1*
X8238304Y10527065D1*
X8247650Y10506793D1*
X8255376Y10485851D1*
X8261435Y10464366D1*
X8265790Y10442473D1*
X8268414Y10420305D1*
X8269290Y10374667D1*
Y8904211D1*
X11931159Y8904290D1*
X12018704Y8991751D1*
X12018710Y10017000D1*
X12019586Y10039305D1*
X12022210Y10061473D1*
X12026565Y10083366D1*
X12032624Y10104850D1*
X12040350Y10125793D1*
X12049696Y10146065D1*
X12060603Y10165541D1*
X12073004Y10184102D1*
X12086824Y10201632D1*
X12118476Y10234523D1*
X12272704Y10388751D1*
X12272710Y10779000D1*
X12273586Y10801305D1*
X12276210Y10823473D1*
X12280565Y10845366D1*
X12286624Y10866850D1*
X12294350Y10887793D1*
X12303696Y10908065D1*
X12314603Y10927541D1*
X12327004Y10946102D1*
X12340824Y10963632D1*
X12355977Y10980023D1*
X12367822Y10990973D1*
X12351066Y11001357D1*
X12335043Y11015043D1*
X12321357Y11031066D1*
X12310347Y11049034D1*
X12302283Y11068502D1*
X12297363Y11088992D1*
X12295712Y11110041D1*
X12296124Y11220536D1*
X12299420Y11241349D1*
X12305932Y11261391D1*
X12315499Y11280166D1*
X12327885Y11297214D1*
X12342786Y11312115D1*
X12359834Y11324501D1*
X12378609Y11334068D1*
X12398651Y11340580D1*
X12419464Y11343876D1*
X12440536D1*
X12461349Y11340580D1*
X12481391Y11334068D1*
X12493446Y11328265D1*
X12505609Y11334068D1*
X12525651Y11340580D1*
X12546464Y11343876D1*
X12567536D1*
X12588349Y11340580D1*
X12608391Y11334068D1*
X12620446Y11328265D1*
X12632609Y11334068D1*
X12652651Y11340580D1*
X12673464Y11343876D1*
X12694536D1*
X12715349Y11340580D1*
X12735391Y11334068D1*
X12747446Y11328265D1*
X12759609Y11334068D1*
X12779651Y11340580D1*
X12800464Y11343876D1*
X12821536D1*
X12842349Y11340580D1*
X12862391Y11334068D1*
X12874446Y11328265D1*
X12886609Y11334068D1*
X12906651Y11340580D1*
X12927464Y11343876D1*
X12948536D1*
X12969349Y11340580D1*
X12989391Y11334068D1*
X13001446Y11328265D1*
X13013609Y11334068D1*
X13033651Y11340580D1*
X13054464Y11343876D1*
X13075536D1*
X13096349Y11340580D1*
X13116391Y11334068D1*
X13128446Y11328265D1*
X13140609Y11334068D1*
X13160651Y11340580D1*
X13181464Y11343876D1*
X13202536D1*
X13223349Y11340580D1*
X13243391Y11334068D1*
X13262166Y11324501D1*
X13279214Y11312115D1*
X13294115Y11297214D1*
X13306501Y11280166D1*
X13316068Y11261391D1*
X13322580Y11241349D1*
X13325876Y11220536D1*
X13326290Y11140000D1*
X13325876Y11099464D1*
X13322580Y11078651D1*
X13316068Y11058609D1*
X13306501Y11039834D1*
X13294115Y11022786D1*
X13279214Y11007885D1*
X13262166Y10995499D1*
X13243391Y10985932D1*
X13223349Y10979420D1*
X13202536Y10976124D1*
X13181464D1*
X13160651Y10979420D1*
X13140609Y10985932D1*
X13128554Y10991735D1*
X13116391Y10985932D1*
X13096349Y10979420D1*
X13075536Y10976124D1*
X13054464D1*
X13033651Y10979420D1*
X13013609Y10985932D1*
X13001554Y10991735D1*
X12989391Y10985932D1*
X12969349Y10979420D1*
X12948536Y10976124D1*
X12927464D1*
X12906651Y10979420D1*
X12886609Y10985932D1*
X12874554Y10991735D1*
X12862391Y10985932D1*
X12842349Y10979420D1*
X12821536Y10976124D1*
X12800464D1*
X12779651Y10979420D1*
X12759609Y10985932D1*
X12747554Y10991735D1*
X12773176Y10963632D1*
X12786996Y10946102D1*
X12799397Y10927541D1*
X12810304Y10908065D1*
X12819650Y10887793D1*
X12827376Y10866850D1*
X12833435Y10845366D1*
X12837790Y10823473D1*
X12840414Y10801305D1*
X12841290Y10755667D1*
Y10271000D1*
X12840414Y10248695D1*
X12837790Y10226527D1*
X12833435Y10204634D1*
X12827376Y10183150D1*
X12819650Y10162207D1*
X12810304Y10141935D1*
X12799397Y10122459D1*
X12786996Y10103898D1*
X12773176Y10086368D1*
X12741524Y10053477D1*
X12587296Y9899249D1*
X12587290Y8874000D1*
X12586414Y8851695D1*
X12583790Y8829527D1*
X12579435Y8807634D1*
X12573376Y8786149D1*
X12565650Y8765207D1*
X12556304Y8744935D1*
X12545397Y8725459D1*
X12532996Y8706898D1*
X12519176Y8689368D1*
X12487524Y8656477D1*
X12250024Y8418976D1*
X12233632Y8403824D1*
X12216102Y8390004D1*
X12197541Y8377603D1*
X12178065Y8366696D1*
X12157793Y8357350D1*
X12136851Y8349624D1*
X12115366Y8343565D1*
X12093473Y8339210D1*
X12071305Y8336586D1*
X12025667Y8335710D1*
X11444247D1*
X11444290Y4586341D1*
X13328164Y4586290D1*
X13542670Y4800717D1*
X13542710Y5699000D1*
X13543586Y5721305D1*
X13546210Y5743473D1*
X13550565Y5765366D1*
X13556624Y5786851D1*
X13564350Y5807793D1*
X13573696Y5828065D1*
X13584603Y5847541D1*
X13597004Y5866102D1*
X13610824Y5883632D1*
X13625976Y5900024D1*
X13637822Y5910974D1*
X13633966Y5910347D1*
X13614498Y5902283D1*
X13594008Y5897363D1*
X13573000Y5895710D1*
X13551992Y5897363D1*
X13531502Y5902283D1*
X13512034Y5910347D1*
X13509554Y5911735D1*
X13497391Y5905932D1*
X13477349Y5899420D1*
X13456536Y5896124D1*
X13435464D1*
X13414651Y5899420D1*
X13394609Y5905932D1*
X13382554Y5911735D1*
X13370391Y5905932D1*
X13350349Y5899420D1*
X13329536Y5896124D1*
X13308464D1*
X13287651Y5899420D1*
X13267609Y5905932D1*
X13255554Y5911735D1*
X13243391Y5905932D1*
X13223349Y5899420D1*
X13202536Y5896124D1*
X13181464D1*
X13160651Y5899420D1*
X13140609Y5905932D1*
X13121834Y5915499D1*
X13104786Y5927885D1*
X13089885Y5942786D1*
X13077499Y5959834D1*
X13067932Y5978609D1*
X13061420Y5998651D1*
X13058124Y6019464D1*
X13057710Y6100000D1*
X13058124Y6140536D1*
X13061420Y6161349D1*
X13067932Y6181391D1*
X13077499Y6200166D1*
X13089885Y6217214D1*
X13104786Y6232115D1*
X13121834Y6244501D1*
X13140609Y6254068D1*
X13160651Y6260580D1*
X13181464Y6263876D1*
X13202536D1*
X13223349Y6260580D1*
X13243391Y6254068D1*
X13255446Y6248265D1*
X13267609Y6254068D1*
X13287651Y6260580D1*
X13308464Y6263876D1*
X13329536D1*
X13350349Y6260580D1*
X13370391Y6254068D1*
X13382446Y6248265D1*
X13394609Y6254068D1*
X13414651Y6260580D1*
X13435464Y6263876D1*
X13456536D1*
X13477349Y6260580D1*
X13497391Y6254068D1*
X13509446Y6248265D1*
X13521609Y6254068D1*
X13541651Y6260580D1*
X13562464Y6263876D1*
X13583536D1*
X13604349Y6260580D1*
X13624391Y6254068D1*
X13636446Y6248265D1*
X13648609Y6254068D1*
X13668651Y6260580D1*
X13689464Y6263876D1*
X13710536D1*
X13731349Y6260580D1*
X13751391Y6254068D1*
X13763446Y6248265D1*
X13775609Y6254068D1*
X13795651Y6260580D1*
X13816464Y6263876D1*
X13837536D1*
X13858349Y6260580D1*
X13878391Y6254068D1*
X13890446Y6248265D1*
X13902609Y6254068D1*
X13922651Y6260580D1*
X13943464Y6263876D1*
X13964536D1*
X13985349Y6260580D1*
X14005391Y6254068D1*
X14024166Y6244501D1*
X14041214Y6232115D1*
X14056115Y6217214D1*
X14068501Y6200166D1*
X14078068Y6181391D1*
X14084580Y6161349D1*
X14087876Y6140536D1*
X14088291Y6059999D1*
X14087876Y6019464D1*
X14084580Y5998651D1*
X14078068Y5978609D1*
X14068501Y5959834D1*
X14056115Y5942786D1*
X14041214Y5927885D1*
X14024166Y5915499D1*
X14016296Y5911091D1*
X14028024Y5900024D1*
X14043176Y5883632D1*
X14056996Y5866102D1*
X14069397Y5847541D1*
X14080304Y5828065D1*
X14089650Y5807793D1*
X14097376Y5786851D1*
X14103435Y5765366D1*
X14107790Y5743473D1*
X14110414Y5721305D1*
X14111290Y5675667D1*
Y4683000D1*
X14110414Y4660695D1*
X14107790Y4638527D1*
X14103435Y4616634D1*
X14097376Y4595149D1*
X14089650Y4574207D1*
X14080304Y4553935D1*
X14069397Y4534459D1*
X14056996Y4515898D1*
X14043176Y4498368D1*
X14011524Y4465477D1*
X13647024Y4100976D1*
X13630632Y4085824D1*
X13613102Y4072004D1*
X13594541Y4059603D1*
X13575065Y4048696D1*
X13554793Y4039350D1*
X13533851Y4031624D1*
X13512366Y4025565D1*
X13490473Y4021210D1*
X13468305Y4018586D1*
X13422667Y4017710D1*
X11444346D1*
X11444290Y3032000D1*
X11443414Y3009695D1*
X11440790Y2987527D1*
X11436435Y2965634D1*
X11430376Y2944150D1*
X11422650Y2923207D1*
X11413304Y2902935D1*
X11402397Y2883459D1*
X11389995Y2864899D1*
X11376176Y2847368D1*
X11361023Y2830977D1*
X11344632Y2815824D1*
X11327101Y2802005D1*
X11308541Y2789603D1*
X11294314Y2781636D1*
X11294290Y2581102D1*
X11308008Y2579637D1*
X11328498Y2574717D1*
X11347966Y2566653D1*
X11365934Y2555643D1*
X11381957Y2541957D1*
X11395643Y2525934D1*
X11406653Y2507966D1*
X11414717Y2488498D1*
X11419637Y2468008D1*
X11421290Y2447000D1*
X11420876Y2336464D1*
X11417580Y2315651D1*
X11411068Y2295609D1*
X11401501Y2276834D1*
X11389115Y2259786D1*
X11374214Y2244885D1*
X11357166Y2232499D1*
X11338391Y2222932D1*
X11318349Y2216420D1*
X11297536Y2213124D1*
X11276464D1*
X11255651Y2216420D1*
X11235609Y2222932D1*
X11223554Y2228735D1*
X11211391Y2222932D1*
X11191349Y2216420D1*
X11170536Y2213124D1*
X11149464D1*
X11128651Y2216420D1*
X11108609Y2222932D1*
X11096554Y2228735D1*
X11084391Y2222932D1*
X11064349Y2216420D1*
X11043536Y2213124D1*
X11022464D1*
X11001651Y2216420D1*
X10981609Y2222932D1*
X10969554Y2228735D1*
X10957391Y2222932D1*
X10937349Y2216420D1*
X10916536Y2213124D1*
X10895464D1*
X10874651Y2216420D1*
X10854609Y2222932D1*
X10842554Y2228735D1*
X10830391Y2222932D1*
X10810349Y2216420D1*
X10789536Y2213124D1*
X10768464D1*
X10747651Y2216420D1*
X10727609Y2222932D1*
X10715554Y2228735D1*
X10703391Y2222932D1*
X10683349Y2216420D1*
X10662536Y2213124D1*
X10641464D1*
X10620651Y2216420D1*
X10600609Y2222932D1*
X10588554Y2228735D1*
X10576391Y2222932D1*
X10556349Y2216420D1*
X10535536Y2213124D1*
X10514464D1*
X10493651Y2216420D1*
X10473609Y2222932D1*
X10454834Y2232499D1*
X10437786Y2244885D1*
X10422885Y2259786D1*
X10410499Y2276834D1*
X10400932Y2295609D1*
X10394420Y2315651D1*
X10391124Y2336464D1*
X10390710Y2417000D1*
X10391124Y2457536D1*
X10394420Y2478349D1*
X10400932Y2498391D1*
X10410499Y2517166D1*
X10422885Y2534214D1*
X10437786Y2549115D1*
X10454834Y2561501D1*
X10473609Y2571068D1*
X10493651Y2577580D1*
X10514464Y2580876D1*
X10535536D1*
X10556349Y2577580D1*
X10576391Y2571068D1*
X10588446Y2565265D1*
X10600609Y2571068D1*
X10620651Y2577580D1*
X10641464Y2580876D1*
X10662536D1*
X10683349Y2577580D1*
X10703391Y2571068D1*
X10715446Y2565265D1*
X10727609Y2571068D1*
X10747651Y2577580D1*
X10768464Y2580876D1*
X10789536D1*
X10810349Y2577580D1*
X10830391Y2571068D1*
X10842446Y2565265D1*
X10854609Y2571068D1*
X10874651Y2577580D1*
X10895464Y2580876D1*
X10916536D1*
X10937349Y2577580D1*
X10957391Y2571068D1*
X10969446Y2565265D1*
X10981609Y2571068D1*
X11001651Y2577580D1*
X11022464Y2580876D1*
X11025715Y2581004D1*
X11025710Y2781362D1*
X11011459Y2789603D1*
X10992899Y2802005D1*
X10975368Y2815824D1*
X10958977Y2830977D1*
X10943824Y2847368D1*
X10930005Y2864899D1*
X10917603Y2883459D1*
X10906696Y2902935D1*
X10897350Y2923207D1*
X10889624Y2944150D1*
X10883565Y2965634D1*
X10879210Y2987527D1*
X10876586Y3009695D1*
X10875710Y3055333D1*
Y4017742D1*
X7586872Y4017710D1*
X7566176Y3990368D1*
X7551024Y3973976D1*
X7534632Y3958824D1*
X7517102Y3945004D1*
X7498465Y3932560D1*
X7497790Y3889036D1*
Y3206263D1*
X7524290Y3206290D1*
Y2857710D1*
X7175710D1*
Y3206290D1*
X7202234D1*
X7202210Y3890685D1*
X6334000Y3890710D1*
X6311695Y3891586D1*
X6289527Y3894210D1*
X6267634Y3898565D1*
X6246149Y3904624D1*
X6225207Y3912350D1*
X6204935Y3921696D1*
X6185459Y3932603D1*
X6166898Y3945004D1*
X6141877Y3965749D1*
X6542645Y3650579D2*
X6540713Y3634260D1*
X6537507Y3618142D1*
X6533047Y3602326D1*
X6527359Y3586908D1*
X6520479Y3571984D1*
X6512449Y3557646D1*
X6503319Y3543982D1*
X6493145Y3531077D1*
X6481990Y3519010D1*
X6469923Y3507855D1*
X6457018Y3497681D1*
X6443354Y3488551D1*
X6429016Y3480521D1*
X6414092Y3473641D1*
X6398674Y3467953D1*
X6382858Y3463493D1*
X6366740Y3460287D1*
X6350421Y3458355D1*
X6334000Y3457710D1*
X6317579Y3458355D1*
X6301260Y3460287D1*
X6285142Y3463493D1*
X6269326Y3467953D1*
X6253908Y3473641D1*
X6238984Y3480521D1*
X6224646Y3488551D1*
X6210982Y3497681D1*
X6198077Y3507855D1*
X6186010Y3519010D1*
X6174855Y3531077D1*
X6164681Y3543982D1*
X6155551Y3557646D1*
X6147521Y3571984D1*
X6140641Y3586908D1*
X6134953Y3602326D1*
X6130493Y3618142D1*
X6127287Y3634260D1*
X6125355Y3650579D1*
X6124710Y3667000D1*
X6125355Y3683421D1*
X6127287Y3699740D1*
X6130493Y3715858D1*
X6134953Y3731674D1*
X6140641Y3747092D1*
X6147521Y3762016D1*
X6155551Y3776354D1*
X6164681Y3790018D1*
X6174855Y3802923D1*
X6186010Y3814990D1*
X6198077Y3826145D1*
X6210982Y3836319D1*
X6224646Y3845449D1*
X6238984Y3853479D1*
X6253908Y3860359D1*
X6269326Y3866047D1*
X6285142Y3870507D1*
X6301260Y3873713D1*
X6317579Y3875645D1*
X6334000Y3876290D1*
X6350421Y3875645D1*
X6366740Y3873713D1*
X6382858Y3870507D1*
X6398674Y3866047D1*
X6414092Y3860359D1*
X6429016Y3853479D1*
X6443354Y3845449D1*
X6457018Y3836319D1*
X6469923Y3826145D1*
X6481990Y3814990D1*
X6493145Y3802923D1*
X6503319Y3790018D1*
X6512449Y3776354D1*
X6520479Y3762016D1*
X6527359Y3747092D1*
X6533047Y3731674D1*
X6537507Y3715858D1*
X6540713Y3699740D1*
X6542645Y3683421D1*
X6543290Y3667000D1*
X6542645Y3650579D1*
X6623963Y2195290D2*
X6640290D1*
Y1836710D1*
X6281710D1*
Y2195290D1*
X6298025D1*
X6290485Y2214596D1*
X6283917Y2241953D1*
X6281710Y2270000D1*
X6283917Y2298047D1*
X6290485Y2325404D1*
X6301251Y2351396D1*
X6315951Y2375384D1*
X6334223Y2396777D1*
X6324667Y2407560D1*
X6308130Y2430321D1*
X6295358Y2455389D1*
X6286664Y2482146D1*
X6282263Y2509933D1*
Y2538067D1*
X6286664Y2565854D1*
X6295358Y2592611D1*
X6308130Y2617679D1*
X6324667Y2640440D1*
X6344560Y2660333D1*
X6367321Y2676870D1*
X6392389Y2689642D1*
X6419146Y2698336D1*
X6446933Y2702737D1*
X6475067D1*
X6502854Y2698336D1*
X6529611Y2689642D1*
X6554679Y2676870D1*
X6577440Y2660333D1*
X6597333Y2640440D1*
X6613870Y2617679D1*
X6626642Y2592611D1*
X6635336Y2565854D1*
X6639737Y2538067D1*
Y2509933D1*
X6635336Y2482146D1*
X6626642Y2455389D1*
X6613870Y2430321D1*
X6597333Y2407560D1*
X6587777Y2396777D1*
X6606049Y2375384D1*
X6620749Y2351396D1*
X6631515Y2325404D1*
X6638083Y2298047D1*
X6640290Y2270000D1*
X6638083Y2241953D1*
X6631515Y2214596D1*
X6623811Y2195246D1*
X4928044Y5096290D2*
X5223290D1*
Y4777710D1*
X4904710D1*
Y4808973D1*
X4893229Y4801183D1*
X4870958Y4789835D1*
X4847186Y4782111D1*
X4822498Y4778201D1*
X4797502D1*
X4772814Y4782111D1*
X4749042Y4789835D1*
X4726771Y4801183D1*
X4706549Y4815875D1*
X4688875Y4833549D1*
X4683037Y4840954D1*
X4668635Y4824365D1*
X4649628Y4808132D1*
X4628316Y4795072D1*
X4605223Y4785506D1*
X4580918Y4779671D1*
X4556000Y4777710D1*
X4531082Y4779671D1*
X4506777Y4785506D1*
X4483684Y4795072D1*
X4462372Y4808132D1*
X4443365Y4824365D1*
X4429037Y4840954D1*
X4414635Y4824365D1*
X4395628Y4808132D1*
X4374316Y4795072D1*
X4351223Y4785506D1*
X4326918Y4779671D1*
X4302000Y4777710D1*
X4277082Y4779671D1*
X4252777Y4785506D1*
X4229684Y4795072D1*
X4208372Y4808132D1*
X4189365Y4824365D1*
X4175037Y4840954D1*
X4160635Y4824365D1*
X4141628Y4808132D1*
X4120316Y4795072D1*
X4097223Y4785506D1*
X4072918Y4779671D1*
X4048000Y4777710D1*
X4023082Y4779671D1*
X3998777Y4785506D1*
X3975684Y4795072D1*
X3954372Y4808132D1*
X3935365Y4824365D1*
X3921037Y4840954D1*
X3906635Y4824365D1*
X3887628Y4808132D1*
X3866316Y4795072D1*
X3843223Y4785506D1*
X3818918Y4779671D1*
X3794000Y4777710D1*
X3769082Y4779671D1*
X3744777Y4785506D1*
X3721684Y4795072D1*
X3700372Y4808132D1*
X3681365Y4824365D1*
X3667037Y4840954D1*
X3652635Y4824365D1*
X3633628Y4808132D1*
X3612316Y4795072D1*
X3589223Y4785506D1*
X3564918Y4779671D1*
X3540000Y4777710D1*
X3515082Y4779671D1*
X3490777Y4785506D1*
X3467684Y4795072D1*
X3446372Y4808132D1*
X3427365Y4824365D1*
X3413037Y4840954D1*
X3398635Y4824365D1*
X3379628Y4808132D1*
X3358316Y4795072D1*
X3335223Y4785506D1*
X3310918Y4779671D1*
X3286000Y4777710D1*
X3261082Y4779671D1*
X3236777Y4785506D1*
X3213684Y4795072D1*
X3192372Y4808132D1*
X3173365Y4824365D1*
X3157132Y4843372D1*
X3144072Y4864684D1*
X3134506Y4887777D1*
X3128671Y4912082D1*
X3126710Y4937000D1*
X3128671Y4961918D1*
X3134506Y4986223D1*
X3144072Y5009316D1*
X3157132Y5030628D1*
X3173365Y5049635D1*
X3192372Y5065868D1*
X3213684Y5078928D1*
X3236777Y5088494D1*
X3261082Y5094329D1*
X3286000Y5096290D1*
X3310918Y5094329D1*
X3335223Y5088494D1*
X3358316Y5078928D1*
X3379628Y5065868D1*
X3398635Y5049635D1*
X3412963Y5033046D1*
X3427365Y5049635D1*
X3446372Y5065868D1*
X3467684Y5078928D1*
X3490777Y5088494D1*
X3515082Y5094329D1*
X3540000Y5096290D1*
X3564918Y5094329D1*
X3589223Y5088494D1*
X3612316Y5078928D1*
X3633628Y5065868D1*
X3652635Y5049635D1*
X3666963Y5033046D1*
X3681365Y5049635D1*
X3700372Y5065868D1*
X3721684Y5078928D1*
X3744777Y5088494D1*
X3769082Y5094329D1*
X3794000Y5096290D1*
X3818918Y5094329D1*
X3843223Y5088494D1*
X3866316Y5078928D1*
X3887628Y5065868D1*
X3906635Y5049635D1*
X3920963Y5033046D1*
X3935365Y5049635D1*
X3954372Y5065868D1*
X3975684Y5078928D1*
X3998777Y5088494D1*
X4023082Y5094329D1*
X4048000Y5096290D1*
X4072918Y5094329D1*
X4097223Y5088494D1*
X4120316Y5078928D1*
X4141628Y5065868D1*
X4160635Y5049635D1*
X4174963Y5033046D1*
X4189365Y5049635D1*
X4208372Y5065868D1*
X4229684Y5078928D1*
X4252777Y5088494D1*
X4277082Y5094329D1*
X4302000Y5096290D1*
X4326918Y5094329D1*
X4351223Y5088494D1*
X4374316Y5078928D1*
X4395628Y5065868D1*
X4414635Y5049635D1*
X4428963Y5033046D1*
X4443365Y5049635D1*
X4462372Y5065868D1*
X4483684Y5078928D1*
X4506777Y5088494D1*
X4531082Y5094329D1*
X4556000Y5096290D1*
X4580918Y5094329D1*
X4605223Y5088494D1*
X4628316Y5078928D1*
X4649628Y5065868D1*
X4668635Y5049635D1*
X4682963Y5033046D1*
X4697365Y5049635D1*
X4716372Y5065868D1*
X4737684Y5078928D1*
X4760777Y5088494D1*
X4785082Y5094329D1*
X4810000Y5096290D1*
X4834918Y5094329D1*
X4859223Y5088494D1*
X4882316Y5078928D1*
X4903628Y5065868D1*
X4904741Y5064991D1*
X4904710Y5096290D1*
X4928044D1*
X2680414Y10153695D2*
X2677790Y10131527D1*
X2673435Y10109634D1*
X2667376Y10088150D1*
X2659650Y10067207D1*
X2650304Y10046935D1*
X2639397Y10027459D1*
X2626995Y10008899D1*
X2613176Y9991368D1*
X2598023Y9974977D1*
X2581632Y9959824D1*
X2564101Y9946005D1*
X2545541Y9933603D1*
X2526065Y9922696D1*
X2505793Y9913350D1*
X2484850Y9905624D1*
X2463366Y9899565D1*
X2441473Y9895210D1*
X2419305Y9892586D1*
X2397000Y9891710D1*
X2374695Y9892586D1*
X2352527Y9895210D1*
X2330634Y9899565D1*
X2309150Y9905624D1*
X2288207Y9913350D1*
X2267935Y9922696D1*
X2248459Y9933603D1*
X2229899Y9946005D1*
X2212368Y9959824D1*
X2195977Y9974977D1*
X2180824Y9991368D1*
X2167005Y10008899D1*
X2154603Y10027459D1*
X2143696Y10046935D1*
X2134350Y10067207D1*
X2126624Y10088150D1*
X2120565Y10109634D1*
X2116210Y10131527D1*
X2113586Y10153695D1*
X2112710Y10176000D1*
X2113586Y10198305D1*
X2116210Y10220473D1*
X2120565Y10242366D1*
X2126624Y10263850D1*
X2134350Y10284793D1*
X2143696Y10305065D1*
X2154603Y10324541D1*
X2167005Y10343101D1*
X2180824Y10360632D1*
X2195977Y10377023D1*
X2212368Y10392176D1*
X2229899Y10405995D1*
X2248459Y10418397D1*
X2267935Y10429304D1*
X2288207Y10438650D1*
X2309150Y10446376D1*
X2330634Y10452435D1*
X2352527Y10456790D1*
X2374695Y10459414D1*
X2397000Y10460290D1*
X2419305Y10459414D1*
X2441473Y10456790D1*
X2463366Y10452435D1*
X2484850Y10446376D1*
X2505793Y10438650D1*
X2526065Y10429304D1*
X2545541Y10418397D1*
X2564101Y10405995D1*
X2581632Y10392176D1*
X2598023Y10377023D1*
X2613176Y10360632D1*
X2626995Y10343101D1*
X2639397Y10324541D1*
X2650304Y10305065D1*
X2659650Y10284793D1*
X2667376Y10263850D1*
X2673435Y10242366D1*
X2677790Y10220473D1*
X2680414Y10198305D1*
X2681290Y10176000D1*
X2680414Y10153695D1*
X5220414D2*
X5217790Y10131527D1*
X5213435Y10109634D1*
X5207376Y10088150D1*
X5199650Y10067207D1*
X5190304Y10046935D1*
X5179397Y10027459D1*
X5166995Y10008899D1*
X5153176Y9991368D1*
X5138023Y9974977D1*
X5121632Y9959824D1*
X5104101Y9946005D1*
X5085541Y9933603D1*
X5066065Y9922696D1*
X5045793Y9913350D1*
X5024850Y9905624D1*
X5003366Y9899565D1*
X4981473Y9895210D1*
X4959305Y9892586D1*
X4937000Y9891710D1*
X4914695Y9892586D1*
X4892527Y9895210D1*
X4870634Y9899565D1*
X4849150Y9905624D1*
X4828207Y9913350D1*
X4807935Y9922696D1*
X4788459Y9933603D1*
X4769899Y9946005D1*
X4752368Y9959824D1*
X4735977Y9974977D1*
X4720824Y9991368D1*
X4707005Y10008899D1*
X4694603Y10027459D1*
X4683696Y10046935D1*
X4674350Y10067207D1*
X4666624Y10088150D1*
X4660565Y10109634D1*
X4656210Y10131527D1*
X4653586Y10153695D1*
X4652710Y10176000D1*
X4653586Y10198305D1*
X4656210Y10220473D1*
X4660565Y10242366D1*
X4666624Y10263850D1*
X4674350Y10284793D1*
X4683696Y10305065D1*
X4694603Y10324541D1*
X4707005Y10343101D1*
X4720824Y10360632D1*
X4735977Y10377023D1*
X4752368Y10392176D1*
X4769899Y10405995D1*
X4788459Y10418397D1*
X4807935Y10429304D1*
X4828207Y10438650D1*
X4849150Y10446376D1*
X4870634Y10452435D1*
X4892527Y10456790D1*
X4914695Y10459414D1*
X4937000Y10460290D1*
X4959305Y10459414D1*
X4981473Y10456790D1*
X5003366Y10452435D1*
X5024850Y10446376D1*
X5045793Y10438650D1*
X5066065Y10429304D1*
X5085541Y10418397D1*
X5104101Y10405995D1*
X5121632Y10392176D1*
X5138023Y10377023D1*
X5153176Y10360632D1*
X5166995Y10343101D1*
X5179397Y10324541D1*
X5190304Y10305065D1*
X5199650Y10284793D1*
X5207376Y10263850D1*
X5213435Y10242366D1*
X5217790Y10220473D1*
X5220414Y10198305D1*
X5221290Y10176000D1*
X5220414Y10153695D1*
X7252414Y10407695D2*
X7249790Y10385527D1*
X7245435Y10363634D1*
X7239376Y10342150D1*
X7231650Y10321207D1*
X7222304Y10300935D1*
X7211397Y10281459D1*
X7198995Y10262899D1*
X7185176Y10245368D1*
X7170023Y10228977D1*
X7153632Y10213824D1*
X7136101Y10200005D1*
X7117541Y10187603D1*
X7098065Y10176696D1*
X7077793Y10167350D1*
X7056850Y10159624D1*
X7035366Y10153565D1*
X7013473Y10149210D1*
X6991305Y10146586D1*
X6969000Y10145710D1*
X6946695Y10146586D1*
X6924527Y10149210D1*
X6902634Y10153565D1*
X6881150Y10159624D1*
X6860207Y10167350D1*
X6839935Y10176696D1*
X6820459Y10187603D1*
X6801899Y10200005D1*
X6784368Y10213824D1*
X6767977Y10228977D1*
X6752824Y10245368D1*
X6739005Y10262899D1*
X6726603Y10281459D1*
X6715696Y10300935D1*
X6706350Y10321207D1*
X6698624Y10342150D1*
X6692565Y10363634D1*
X6688210Y10385527D1*
X6685586Y10407695D1*
X6684710Y10430000D1*
X6685586Y10452305D1*
X6688210Y10474473D1*
X6692565Y10496366D1*
X6698624Y10517850D1*
X6706350Y10538793D1*
X6715696Y10559065D1*
X6726603Y10578541D1*
X6739005Y10597101D1*
X6752824Y10614632D1*
X6767977Y10631023D1*
X6784368Y10646176D1*
X6801899Y10659995D1*
X6820459Y10672397D1*
X6839935Y10683304D1*
X6860207Y10692650D1*
X6881150Y10700376D1*
X6902634Y10706435D1*
X6924527Y10710790D1*
X6946695Y10713414D1*
X6969000Y10714290D1*
X6991305Y10713414D1*
X7013473Y10710790D1*
X7035366Y10706435D1*
X7056850Y10700376D1*
X7077793Y10692650D1*
X7098065Y10683304D1*
X7117541Y10672397D1*
X7136101Y10659995D1*
X7153632Y10646176D1*
X7170023Y10631023D1*
X7185176Y10614632D1*
X7198995Y10597101D1*
X7211397Y10578541D1*
X7222304Y10559065D1*
X7231650Y10538793D1*
X7239376Y10517850D1*
X7245435Y10496366D1*
X7249790Y10474473D1*
X7252414Y10452305D1*
X7253290Y10430000D1*
X7252414Y10407695D1*
X9792414D2*
X9789790Y10385527D1*
X9785435Y10363634D1*
X9779376Y10342150D1*
X9771650Y10321207D1*
X9762304Y10300935D1*
X9751397Y10281459D1*
X9738995Y10262899D1*
X9725176Y10245368D1*
X9710023Y10228977D1*
X9693632Y10213824D1*
X9676101Y10200005D1*
X9657541Y10187603D1*
X9638065Y10176696D1*
X9617793Y10167350D1*
X9596850Y10159624D1*
X9575366Y10153565D1*
X9553473Y10149210D1*
X9531305Y10146586D1*
X9509000Y10145710D1*
X9486695Y10146586D1*
X9464527Y10149210D1*
X9442634Y10153565D1*
X9421150Y10159624D1*
X9400207Y10167350D1*
X9379935Y10176696D1*
X9360459Y10187603D1*
X9341899Y10200005D1*
X9324368Y10213824D1*
X9307977Y10228977D1*
X9292824Y10245368D1*
X9279005Y10262899D1*
X9266603Y10281459D1*
X9255696Y10300935D1*
X9246350Y10321207D1*
X9238624Y10342150D1*
X9232565Y10363634D1*
X9228210Y10385527D1*
X9225586Y10407695D1*
X9224710Y10430000D1*
X9225586Y10452305D1*
X9228210Y10474473D1*
X9232565Y10496366D1*
X9238624Y10517850D1*
X9246350Y10538793D1*
X9255696Y10559065D1*
X9266603Y10578541D1*
X9279005Y10597101D1*
X9292824Y10614632D1*
X9307977Y10631023D1*
X9324368Y10646176D1*
X9341899Y10659995D1*
X9360459Y10672397D1*
X9379935Y10683304D1*
X9400207Y10692650D1*
X9421150Y10700376D1*
X9442634Y10706435D1*
X9464527Y10710790D1*
X9486695Y10713414D1*
X9509000Y10714290D1*
X9531305Y10713414D1*
X9553473Y10710790D1*
X9575366Y10706435D1*
X9596850Y10700376D1*
X9617793Y10692650D1*
X9638065Y10683304D1*
X9657541Y10672397D1*
X9676101Y10659995D1*
X9693632Y10646176D1*
X9710023Y10631023D1*
X9725176Y10614632D1*
X9738995Y10597101D1*
X9751397Y10578541D1*
X9762304Y10559065D1*
X9771650Y10538793D1*
X9779376Y10517850D1*
X9785435Y10496366D1*
X9789790Y10474473D1*
X9792414Y10452305D1*
X9793290Y10430000D1*
X9792414Y10407695D1*
X11824414Y10788695D2*
X11821790Y10766527D1*
X11817435Y10744634D1*
X11811376Y10723150D1*
X11803650Y10702207D1*
X11794304Y10681935D1*
X11783397Y10662459D1*
X11770995Y10643899D1*
X11757176Y10626368D1*
X11742023Y10609977D1*
X11725632Y10594824D1*
X11708101Y10581005D1*
X11689541Y10568603D1*
X11670065Y10557696D1*
X11649793Y10548350D1*
X11628850Y10540624D1*
X11607366Y10534565D1*
X11585473Y10530210D1*
X11563305Y10527586D1*
X11541000Y10526710D1*
X11518695Y10527586D1*
X11496527Y10530210D1*
X11474634Y10534565D1*
X11453150Y10540624D1*
X11432207Y10548350D1*
X11411935Y10557696D1*
X11392459Y10568603D1*
X11373899Y10581005D1*
X11356368Y10594824D1*
X11339977Y10609977D1*
X11324824Y10626368D1*
X11311005Y10643899D1*
X11298603Y10662459D1*
X11287696Y10681935D1*
X11278350Y10702207D1*
X11270624Y10723150D1*
X11264565Y10744634D1*
X11260210Y10766527D1*
X11257586Y10788695D1*
X11256710Y10811000D1*
X11257586Y10833305D1*
X11260210Y10855473D1*
X11264565Y10877366D1*
X11270624Y10898850D1*
X11278350Y10919793D1*
X11287696Y10940065D1*
X11298603Y10959541D1*
X11311005Y10978101D1*
X11324824Y10995632D1*
X11339977Y11012023D1*
X11356368Y11027176D1*
X11373899Y11040995D1*
X11392459Y11053397D1*
X11411935Y11064304D1*
X11432207Y11073650D1*
X11453150Y11081376D1*
X11474634Y11087435D1*
X11496527Y11091790D1*
X11518695Y11094414D1*
X11541000Y11095290D1*
X11563305Y11094414D1*
X11585473Y11091790D1*
X11607366Y11087435D1*
X11628850Y11081376D1*
X11649793Y11073650D1*
X11670065Y11064304D1*
X11689541Y11053397D1*
X11708101Y11040995D1*
X11725632Y11027176D1*
X11742023Y11012023D1*
X11757176Y10995632D1*
X11770995Y10978101D1*
X11783397Y10959541D1*
X11794304Y10940065D1*
X11803650Y10919793D1*
X11811376Y10898850D1*
X11817435Y10877366D1*
X11821790Y10855473D1*
X11824414Y10833305D1*
X11825290Y10811000D1*
X11824414Y10788695D1*
X14364414D2*
X14361790Y10766527D1*
X14357435Y10744634D1*
X14351376Y10723150D1*
X14343650Y10702207D1*
X14334304Y10681935D1*
X14323397Y10662459D1*
X14310995Y10643899D1*
X14297176Y10626368D1*
X14282023Y10609977D1*
X14265632Y10594824D1*
X14248101Y10581005D1*
X14229541Y10568603D1*
X14210065Y10557696D1*
X14189793Y10548350D1*
X14168850Y10540624D1*
X14147366Y10534565D1*
X14125473Y10530210D1*
X14103305Y10527586D1*
X14081000Y10526710D1*
X14058695Y10527586D1*
X14036527Y10530210D1*
X14014634Y10534565D1*
X13993150Y10540624D1*
X13972207Y10548350D1*
X13951935Y10557696D1*
X13932459Y10568603D1*
X13913899Y10581005D1*
X13896368Y10594824D1*
X13879977Y10609977D1*
X13864824Y10626368D1*
X13851005Y10643899D1*
X13838603Y10662459D1*
X13827696Y10681935D1*
X13818350Y10702207D1*
X13810624Y10723150D1*
X13804565Y10744634D1*
X13800210Y10766527D1*
X13797586Y10788695D1*
X13796710Y10811000D1*
X13797586Y10833305D1*
X13800210Y10855473D1*
X13804565Y10877366D1*
X13810624Y10898850D1*
X13818350Y10919793D1*
X13827696Y10940065D1*
X13838603Y10959541D1*
X13851005Y10978101D1*
X13864824Y10995632D1*
X13879977Y11012023D1*
X13896368Y11027176D1*
X13913899Y11040995D1*
X13932459Y11053397D1*
X13951935Y11064304D1*
X13972207Y11073650D1*
X13993150Y11081376D1*
X14014634Y11087435D1*
X14036527Y11091790D1*
X14058695Y11094414D1*
X14081000Y11095290D1*
X14103305Y11094414D1*
X14125473Y11091790D1*
X14147366Y11087435D1*
X14168850Y11081376D1*
X14189793Y11073650D1*
X14210065Y11064304D1*
X14229541Y11053397D1*
X14248101Y11040995D1*
X14265632Y11027176D1*
X14282023Y11012023D1*
X14297176Y10995632D1*
X14310995Y10978101D1*
X14323397Y10959541D1*
X14334304Y10940065D1*
X14343650Y10919793D1*
X14351376Y10898850D1*
X14357435Y10877366D1*
X14361790Y10855473D1*
X14364414Y10833305D1*
X14365290Y10811000D1*
X14364414Y10788695D1*
X15126414Y6406695D2*
X15123790Y6384527D1*
X15119435Y6362634D1*
X15113376Y6341150D1*
X15105650Y6320207D1*
X15096304Y6299935D1*
X15085397Y6280459D1*
X15072995Y6261899D1*
X15059176Y6244368D1*
X15044023Y6227977D1*
X15027632Y6212824D1*
X15010101Y6199005D1*
X14991541Y6186603D1*
X14972065Y6175696D1*
X14951793Y6166350D1*
X14930850Y6158624D1*
X14909366Y6152565D1*
X14887473Y6148210D1*
X14865305Y6145586D1*
X14843000Y6144710D1*
X14820695Y6145586D1*
X14798527Y6148210D1*
X14776634Y6152565D1*
X14755150Y6158624D1*
X14734207Y6166350D1*
X14713935Y6175696D1*
X14694459Y6186603D1*
X14675899Y6199005D1*
X14658368Y6212824D1*
X14641977Y6227977D1*
X14626824Y6244368D1*
X14613005Y6261899D1*
X14600603Y6280459D1*
X14589696Y6299935D1*
X14580350Y6320207D1*
X14572624Y6341150D1*
X14566565Y6362634D1*
X14562210Y6384527D1*
X14559586Y6406695D1*
X14558710Y6429000D1*
X14559586Y6451305D1*
X14562210Y6473473D1*
X14566565Y6495366D1*
X14572624Y6516850D1*
X14580350Y6537793D1*
X14589696Y6558065D1*
X14600603Y6577541D1*
X14613005Y6596101D1*
X14626824Y6613632D1*
X14641977Y6630023D1*
X14658368Y6645176D1*
X14675899Y6658995D1*
X14694459Y6671397D1*
X14713935Y6682304D1*
X14734207Y6691650D1*
X14755150Y6699376D1*
X14776634Y6705435D1*
X14798527Y6709790D1*
X14820695Y6712414D1*
X14843000Y6713290D1*
X14865305Y6712414D1*
X14887473Y6709790D1*
X14909366Y6705435D1*
X14930850Y6699376D1*
X14951793Y6691650D1*
X14972065Y6682304D1*
X14991541Y6671397D1*
X15010101Y6658995D1*
X15027632Y6645176D1*
X15044023Y6630023D1*
X15059176Y6613632D1*
X15072995Y6596101D1*
X15085397Y6577541D1*
X15096304Y6558065D1*
X15105650Y6537793D1*
X15113376Y6516850D1*
X15119435Y6495366D1*
X15123790Y6473473D1*
X15126414Y6451305D1*
X15127290Y6429000D1*
X15126414Y6406695D1*
X12586414D2*
X12583790Y6384527D1*
X12579435Y6362634D1*
X12573376Y6341150D1*
X12565650Y6320207D1*
X12556304Y6299935D1*
X12545397Y6280459D1*
X12532995Y6261899D1*
X12519176Y6244368D1*
X12504023Y6227977D1*
X12487632Y6212824D1*
X12470101Y6199005D1*
X12451541Y6186603D1*
X12432065Y6175696D1*
X12411793Y6166350D1*
X12390850Y6158624D1*
X12369366Y6152565D1*
X12347473Y6148210D1*
X12325305Y6145586D1*
X12303000Y6144710D1*
X12280695Y6145586D1*
X12258527Y6148210D1*
X12236634Y6152565D1*
X12215150Y6158624D1*
X12194207Y6166350D1*
X12173935Y6175696D1*
X12154459Y6186603D1*
X12135899Y6199005D1*
X12118368Y6212824D1*
X12101977Y6227977D1*
X12086824Y6244368D1*
X12073005Y6261899D1*
X12060603Y6280459D1*
X12049696Y6299935D1*
X12040350Y6320207D1*
X12032624Y6341150D1*
X12026565Y6362634D1*
X12022210Y6384527D1*
X12019586Y6406695D1*
X12018710Y6429000D1*
X12019586Y6451305D1*
X12022210Y6473473D1*
X12026565Y6495366D1*
X12032624Y6516850D1*
X12040350Y6537793D1*
X12049696Y6558065D1*
X12060603Y6577541D1*
X12073005Y6596101D1*
X12086824Y6613632D1*
X12101977Y6630023D1*
X12118368Y6645176D1*
X12135899Y6658995D1*
X12154459Y6671397D1*
X12173935Y6682304D1*
X12194207Y6691650D1*
X12215150Y6699376D1*
X12236634Y6705435D1*
X12258527Y6709790D1*
X12280695Y6712414D1*
X12303000Y6713290D1*
X12325305Y6712414D1*
X12347473Y6709790D1*
X12369366Y6705435D1*
X12390850Y6699376D1*
X12411793Y6691650D1*
X12432065Y6682304D1*
X12451541Y6671397D1*
X12470101Y6658995D1*
X12487632Y6645176D1*
X12504023Y6630023D1*
X12519176Y6613632D1*
X12532995Y6596101D1*
X12545397Y6577541D1*
X12556304Y6558065D1*
X12565650Y6537793D1*
X12573376Y6516850D1*
X12579435Y6495366D1*
X12583790Y6473473D1*
X12586414Y6451305D1*
X12587290Y6429000D1*
X12586414Y6406695D1*
X9064554Y7518265D2*
X9076609Y7524068D1*
X9096651Y7530580D1*
X9117464Y7533876D1*
X9138536D1*
X9159349Y7530580D1*
X9179391Y7524068D1*
X9198166Y7514501D1*
X9215214Y7502115D1*
X9230115Y7487214D1*
X9242501Y7470166D1*
X9252068Y7451391D1*
X9258580Y7431349D1*
X9261876Y7410536D1*
X9262291Y7329999D1*
X9261876Y7289464D1*
X9258580Y7268651D1*
X9252068Y7248609D1*
X9242501Y7229834D1*
X9230115Y7212786D1*
X9215214Y7197885D1*
X9198166Y7185499D1*
X9179391Y7175932D1*
X9159349Y7169420D1*
X9138536Y7166124D1*
X9117464D1*
X9096651Y7169420D1*
X9076609Y7175932D1*
X9064554Y7181735D1*
X9052391Y7175932D1*
X9032349Y7169420D1*
X9011536Y7166124D1*
X8990464D1*
X8969651Y7169420D1*
X8949609Y7175932D1*
X8937554Y7181735D1*
X8925391Y7175932D1*
X8905349Y7169420D1*
X8884536Y7166124D1*
X8863464D1*
X8842651Y7169420D1*
X8822609Y7175932D1*
X8810554Y7181735D1*
X8798391Y7175932D1*
X8778349Y7169420D1*
X8757536Y7166124D1*
X8736464D1*
X8715651Y7169420D1*
X8695609Y7175932D1*
X8683554Y7181735D1*
X8709176Y7153632D1*
X8722996Y7136102D1*
X8735397Y7117541D1*
X8746305Y7098065D1*
X8755650Y7077793D1*
X8763376Y7056851D1*
X8769435Y7035366D1*
X8773790Y7013473D1*
X8776414Y6991305D1*
X8777290Y6945667D1*
Y4586357D1*
X10875794Y4586290D1*
X10875710Y8335659D1*
X8777357Y8335710D1*
X8777290Y7731000D1*
X8776414Y7708695D1*
X8773790Y7686527D1*
X8769435Y7664634D1*
X8763376Y7643150D1*
X8755650Y7622207D1*
X8746304Y7601935D1*
X8735397Y7582459D1*
X8722996Y7563898D1*
X8709176Y7546368D1*
X8694023Y7529977D1*
X8682178Y7519027D1*
X8686034Y7519653D1*
X8705502Y7527717D1*
X8725992Y7532637D1*
X8747000Y7534290D1*
X8768008Y7532637D1*
X8788498Y7527717D1*
X8807966Y7519653D1*
X8810446Y7518265D1*
X8822609Y7524068D1*
X8842651Y7530580D1*
X8863464Y7533876D1*
X8884536D1*
X8905349Y7530580D1*
X8925391Y7524068D1*
X8937446Y7518265D1*
X8949609Y7524068D1*
X8969651Y7530580D1*
X8990464Y7533876D1*
X9011536D1*
X9032349Y7530580D1*
X9052391Y7524068D1*
X9064446Y7518265D1*
X7760414Y6978695D2*
X7757790Y6956527D1*
X7753435Y6934634D1*
X7747376Y6913150D1*
X7739650Y6892207D1*
X7730304Y6871935D1*
X7719397Y6852459D1*
X7706995Y6833899D1*
X7693176Y6816368D1*
X7678023Y6799977D1*
X7661632Y6784824D1*
X7644101Y6771005D1*
X7625541Y6758603D1*
X7606065Y6747696D1*
X7585793Y6738350D1*
X7564850Y6730624D1*
X7543366Y6724565D1*
X7521473Y6720210D1*
X7499305Y6717586D1*
X7477000Y6716710D1*
X7454695Y6717586D1*
X7432527Y6720210D1*
X7410634Y6724565D1*
X7389150Y6730624D1*
X7368207Y6738350D1*
X7347935Y6747696D1*
X7328459Y6758603D1*
X7309899Y6771005D1*
X7292368Y6784824D1*
X7275977Y6799977D1*
X7260824Y6816368D1*
X7247005Y6833899D1*
X7234603Y6852459D1*
X7223696Y6871935D1*
X7214350Y6892207D1*
X7206624Y6913150D1*
X7200565Y6934634D1*
X7196210Y6956527D1*
X7193586Y6978695D1*
X7192710Y7001000D1*
X7193586Y7023305D1*
X7196210Y7045473D1*
X7200565Y7067366D1*
X7206624Y7088850D1*
X7214350Y7109793D1*
X7223696Y7130065D1*
X7234603Y7149541D1*
X7247005Y7168101D1*
X7260824Y7185632D1*
X7275977Y7202023D1*
X7292368Y7217176D1*
X7309899Y7230995D1*
X7328459Y7243397D1*
X7347935Y7254304D1*
X7368207Y7263650D1*
X7389150Y7271376D1*
X7410634Y7277435D1*
X7432527Y7281790D1*
X7454695Y7284414D1*
X7477000Y7285290D1*
X7499305Y7284414D1*
X7521473Y7281790D1*
X7543366Y7277435D1*
X7564850Y7271376D1*
X7585793Y7263650D1*
X7606065Y7254304D1*
X7625541Y7243397D1*
X7644101Y7230995D1*
X7661632Y7217176D1*
X7678023Y7202023D1*
X7693176Y7185632D1*
X7706995Y7168101D1*
X7719397Y7149541D1*
X7730304Y7130065D1*
X7739650Y7109793D1*
X7747376Y7088850D1*
X7753435Y7067366D1*
X7757790Y7045473D1*
X7760414Y7023305D1*
X7761290Y7001000D1*
X7760414Y6978695D1*
X10300414D2*
X10297790Y6956527D1*
X10293435Y6934634D1*
X10287376Y6913150D1*
X10279650Y6892207D1*
X10270304Y6871935D1*
X10259397Y6852459D1*
X10246995Y6833899D1*
X10233176Y6816368D1*
X10218023Y6799977D1*
X10201632Y6784824D1*
X10184101Y6771005D1*
X10165541Y6758603D1*
X10146065Y6747696D1*
X10125793Y6738350D1*
X10104850Y6730624D1*
X10083366Y6724565D1*
X10061473Y6720210D1*
X10039305Y6717586D1*
X10017000Y6716710D1*
X9994695Y6717586D1*
X9972527Y6720210D1*
X9950634Y6724565D1*
X9929150Y6730624D1*
X9908207Y6738350D1*
X9887935Y6747696D1*
X9868459Y6758603D1*
X9849899Y6771005D1*
X9832368Y6784824D1*
X9815977Y6799977D1*
X9800824Y6816368D1*
X9787005Y6833899D1*
X9774603Y6852459D1*
X9763696Y6871935D1*
X9754350Y6892207D1*
X9746624Y6913150D1*
X9740565Y6934634D1*
X9736210Y6956527D1*
X9733586Y6978695D1*
X9732710Y7001000D1*
X9733586Y7023305D1*
X9736210Y7045473D1*
X9740565Y7067366D1*
X9746624Y7088850D1*
X9754350Y7109793D1*
X9763696Y7130065D1*
X9774603Y7149541D1*
X9787005Y7168101D1*
X9800824Y7185632D1*
X9815977Y7202023D1*
X9832368Y7217176D1*
X9849899Y7230995D1*
X9868459Y7243397D1*
X9887935Y7254304D1*
X9908207Y7263650D1*
X9929150Y7271376D1*
X9950634Y7277435D1*
X9972527Y7281790D1*
X9994695Y7284414D1*
X10017000Y7285290D1*
X10039305Y7284414D1*
X10061473Y7281790D1*
X10083366Y7277435D1*
X10104850Y7271376D1*
X10125793Y7263650D1*
X10146065Y7254304D1*
X10165541Y7243397D1*
X10184101Y7230995D1*
X10201632Y7217176D1*
X10218023Y7202023D1*
X10233176Y7185632D1*
X10246995Y7168101D1*
X10259397Y7149541D1*
X10270304Y7130065D1*
X10279650Y7109793D1*
X10287376Y7088850D1*
X10293435Y7067366D1*
X10297790Y7045473D1*
X10300414Y7023305D1*
X10301290Y7001000D1*
X10300414Y6978695D1*
X12459414Y2723695D2*
X12456790Y2701527D1*
X12452435Y2679634D1*
X12446376Y2658150D1*
X12438650Y2637207D1*
X12429304Y2616935D1*
X12418397Y2597459D1*
X12405995Y2578899D1*
X12392176Y2561368D1*
X12377023Y2544977D1*
X12360632Y2529824D1*
X12343101Y2516005D1*
X12324541Y2503603D1*
X12305065Y2492696D1*
X12284793Y2483350D1*
X12263850Y2475624D1*
X12242366Y2469565D1*
X12220473Y2465210D1*
X12198305Y2462586D1*
X12176000Y2461710D1*
X12153695Y2462586D1*
X12131527Y2465210D1*
X12109634Y2469565D1*
X12088150Y2475624D1*
X12067207Y2483350D1*
X12046935Y2492696D1*
X12027459Y2503603D1*
X12008899Y2516005D1*
X11991368Y2529824D1*
X11974977Y2544977D1*
X11959824Y2561368D1*
X11946005Y2578899D1*
X11933603Y2597459D1*
X11922696Y2616935D1*
X11913350Y2637207D1*
X11905624Y2658150D1*
X11899565Y2679634D1*
X11895210Y2701527D1*
X11892586Y2723695D1*
X11891710Y2746000D1*
X11892586Y2768305D1*
X11895210Y2790473D1*
X11899565Y2812366D1*
X11905624Y2833850D1*
X11913350Y2854793D1*
X11922696Y2875065D1*
X11933603Y2894541D1*
X11946005Y2913101D1*
X11959824Y2930632D1*
X11974977Y2947023D1*
X11991368Y2962176D1*
X12008899Y2975995D1*
X12027459Y2988397D1*
X12046935Y2999304D1*
X12067207Y3008650D1*
X12088150Y3016376D1*
X12109634Y3022435D1*
X12131527Y3026790D1*
X12153695Y3029414D1*
X12176000Y3030290D1*
X12198305Y3029414D1*
X12220473Y3026790D1*
X12242366Y3022435D1*
X12263850Y3016376D1*
X12284793Y3008650D1*
X12305065Y2999304D1*
X12324541Y2988397D1*
X12343101Y2975995D1*
X12360632Y2962176D1*
X12377023Y2947023D1*
X12392176Y2930632D1*
X12405995Y2913101D1*
X12418397Y2894541D1*
X12429304Y2875065D1*
X12438650Y2854793D1*
X12446376Y2833850D1*
X12452435Y2812366D1*
X12456790Y2790473D1*
X12459414Y2768305D1*
X12460290Y2746000D1*
X12459414Y2723695D1*
X9919414D2*
X9916790Y2701527D1*
X9912435Y2679634D1*
X9906376Y2658150D1*
X9898650Y2637207D1*
X9889304Y2616935D1*
X9878397Y2597459D1*
X9865995Y2578899D1*
X9852176Y2561368D1*
X9837023Y2544977D1*
X9820632Y2529824D1*
X9803101Y2516005D1*
X9784541Y2503603D1*
X9765065Y2492696D1*
X9744793Y2483350D1*
X9723850Y2475624D1*
X9702366Y2469565D1*
X9680473Y2465210D1*
X9658305Y2462586D1*
X9636000Y2461710D1*
X9613695Y2462586D1*
X9591527Y2465210D1*
X9569634Y2469565D1*
X9548150Y2475624D1*
X9527207Y2483350D1*
X9506935Y2492696D1*
X9487459Y2503603D1*
X9468899Y2516005D1*
X9451368Y2529824D1*
X9434977Y2544977D1*
X9419824Y2561368D1*
X9406005Y2578899D1*
X9393603Y2597459D1*
X9382696Y2616935D1*
X9373350Y2637207D1*
X9365624Y2658150D1*
X9359565Y2679634D1*
X9355210Y2701527D1*
X9352586Y2723695D1*
X9351710Y2746000D1*
X9352586Y2768305D1*
X9355210Y2790473D1*
X9359565Y2812366D1*
X9365624Y2833850D1*
X9373350Y2854793D1*
X9382696Y2875065D1*
X9393603Y2894541D1*
X9406005Y2913101D1*
X9419824Y2930632D1*
X9434977Y2947023D1*
X9451368Y2962176D1*
X9468899Y2975995D1*
X9487459Y2988397D1*
X9506935Y2999304D1*
X9527207Y3008650D1*
X9548150Y3016376D1*
X9569634Y3022435D1*
X9591527Y3026790D1*
X9613695Y3029414D1*
X9636000Y3030290D1*
X9658305Y3029414D1*
X9680473Y3026790D1*
X9702366Y3022435D1*
X9723850Y3016376D1*
X9744793Y3008650D1*
X9765065Y2999304D1*
X9784541Y2988397D1*
X9803101Y2975995D1*
X9820632Y2962176D1*
X9837023Y2947023D1*
X9852176Y2930632D1*
X9865995Y2913101D1*
X9878397Y2894541D1*
X9889304Y2875065D1*
X9898650Y2854793D1*
X9906376Y2833850D1*
X9912435Y2812366D1*
X9916790Y2790473D1*
X9919414Y2768305D1*
X9920290Y2746000D1*
X9919414Y2723695D1*
X7523753Y1913325D2*
X7519474Y1886313D1*
X7511023Y1860302D1*
X7498607Y1835934D1*
X7482531Y1813808D1*
X7463192Y1794469D1*
X7441066Y1778393D1*
X7416698Y1765977D1*
X7390687Y1757526D1*
X7363675Y1753247D1*
X7336325D1*
X7309313Y1757526D1*
X7283302Y1765977D1*
X7258934Y1778393D1*
X7236808Y1794469D1*
X7217469Y1813808D1*
X7201393Y1835934D1*
X7188977Y1860302D1*
X7180526Y1886313D1*
X7176247Y1913325D1*
Y1940675D1*
X7180526Y1967687D1*
X7188977Y1993698D1*
X7201393Y2018066D1*
X7217469Y2040192D1*
X7236808Y2059531D1*
X7258934Y2075607D1*
X7283302Y2088023D1*
X7309313Y2096474D1*
X7336325Y2100753D1*
X7363675D1*
X7390687Y2096474D1*
X7416698Y2088023D1*
X7441066Y2075607D1*
X7463192Y2059531D1*
X7482531Y2040192D1*
X7498607Y2018066D1*
X7511023Y1993698D1*
X7519474Y1967687D1*
X7523753Y1940675D1*
Y1913325D1*
X14349757Y1790487D2*
X14352998Y1768414D1*
Y1755586D1*
X14347884Y1723293D1*
X14343919Y1711093D1*
X14329076Y1681961D1*
X14321536Y1671583D1*
X14298417Y1648464D1*
X14288039Y1640924D1*
X14258907Y1626081D1*
X14246707Y1622116D1*
X14214414Y1617002D1*
X14201586D1*
X14169293Y1622116D1*
X14157093Y1626080D1*
X14127961Y1640924D1*
X14117583Y1648464D1*
X14094464Y1671583D1*
X14086924Y1681961D1*
X14072080Y1711093D1*
X14068116Y1723293D1*
X14063002Y1755586D1*
Y1768414D1*
X14068116Y1800707D1*
X14072080Y1812907D1*
X14086924Y1842039D1*
X14094464Y1852417D1*
X14117583Y1875536D1*
X14127961Y1883076D1*
X14157093Y1897919D1*
X14169293Y1901883D1*
X14201586Y1906998D1*
X14214414D1*
X14246707Y1901883D1*
X14258907Y1897919D1*
X14288039Y1883076D1*
X14298417Y1875536D1*
X14321536Y1852417D1*
X14329076Y1842039D1*
X14343919Y1812907D1*
X14347883Y1800707D1*
X14349757Y1790487D1*
X14352232Y1774865D1*
X14341220Y1818758D2*
X14346141Y1806885D1*
X14349757Y1790487D1*
X10793757Y5346487D2*
X10796998Y5324414D1*
Y5311586D1*
X10791884Y5279293D1*
X10787919Y5267093D1*
X10773076Y5237961D1*
X10765536Y5227583D1*
X10742417Y5204464D1*
X10732039Y5196924D1*
X10702907Y5182081D1*
X10690707Y5178116D1*
X10658414Y5173002D1*
X10645586D1*
X10613293Y5178116D1*
X10601093Y5182080D1*
X10571961Y5196924D1*
X10561583Y5204464D1*
X10538464Y5227583D1*
X10530924Y5237961D1*
X10516080Y5267093D1*
X10512116Y5279293D1*
X10507002Y5311586D1*
Y5324414D1*
X10512116Y5356707D1*
X10516080Y5368907D1*
X10530924Y5398039D1*
X10538464Y5408417D1*
X10561583Y5431536D1*
X10571961Y5439076D1*
X10601093Y5453919D1*
X10613293Y5457883D1*
X10645586Y5462998D1*
X10658414D1*
X10690707Y5457883D1*
X10702907Y5453919D1*
X10732039Y5439076D1*
X10742417Y5431536D1*
X10765536Y5408417D1*
X10773076Y5398039D1*
X10787919Y5368907D1*
X10791883Y5356707D1*
X10793757Y5346487D1*
X10796232Y5330865D1*
X10785220Y5374758D2*
X10790141Y5362885D1*
X10793757Y5346487D1*
X15365757Y4076487D2*
X15368998Y4054414D1*
Y4041586D1*
X15363884Y4009293D1*
X15359919Y3997093D1*
X15345076Y3967961D1*
X15337536Y3957583D1*
X15314417Y3934464D1*
X15304039Y3926924D1*
X15274907Y3912081D1*
X15262707Y3908116D1*
X15230414Y3903002D1*
X15217586D1*
X15185293Y3908116D1*
X15173093Y3912080D1*
X15143961Y3926924D1*
X15133583Y3934464D1*
X15110464Y3957583D1*
X15102924Y3967961D1*
X15088080Y3997093D1*
X15084116Y4009293D1*
X15079002Y4041586D1*
Y4054414D1*
X15084116Y4086707D1*
X15088080Y4098907D1*
X15102924Y4128039D1*
X15110464Y4138417D1*
X15133583Y4161536D1*
X15143961Y4169076D1*
X15173093Y4183919D1*
X15185293Y4187883D1*
X15217586Y4192998D1*
X15230414D1*
X15262707Y4187883D1*
X15274907Y4183919D1*
X15304039Y4169076D1*
X15314417Y4161536D1*
X15337536Y4138417D1*
X15345076Y4128039D1*
X15359919Y4098907D1*
X15363883Y4086707D1*
X15365757Y4076487D1*
X15368232Y4060865D1*
X15357220Y4104758D2*
X15362141Y4092885D1*
X15365757Y4076487D1*
X13841757Y9283487D2*
X13844998Y9261414D1*
Y9248586D1*
X13839884Y9216293D1*
X13835919Y9204093D1*
X13821076Y9174961D1*
X13813536Y9164583D1*
X13790417Y9141464D1*
X13780039Y9133924D1*
X13750907Y9119081D1*
X13738707Y9115116D1*
X13706414Y9110002D1*
X13693586D1*
X13661293Y9115116D1*
X13649093Y9119080D1*
X13619961Y9133924D1*
X13609583Y9141464D1*
X13586464Y9164583D1*
X13578924Y9174961D1*
X13564080Y9204093D1*
X13560116Y9216293D1*
X13555002Y9248586D1*
Y9261414D1*
X13560116Y9293707D1*
X13564080Y9305907D1*
X13578924Y9335039D1*
X13586464Y9345417D1*
X13609583Y9368536D1*
X13619961Y9376076D1*
X13649093Y9390919D1*
X13661293Y9394883D1*
X13693586Y9399998D1*
X13706414D1*
X13738707Y9394883D1*
X13750907Y9390919D1*
X13780039Y9376076D1*
X13790417Y9368536D1*
X13813536Y9345417D1*
X13821076Y9335039D1*
X13835919Y9305907D1*
X13839883Y9293707D1*
X13841757Y9283487D1*
X8888757Y11823487D2*
X8891998Y11801414D1*
Y11788586D1*
X8886884Y11756293D1*
X8882919Y11744093D1*
X8868076Y11714961D1*
X8860536Y11704583D1*
X8837417Y11681464D1*
X8827039Y11673924D1*
X8797907Y11659081D1*
X8785707Y11655116D1*
X8753414Y11650002D1*
X8740586D1*
X8708293Y11655116D1*
X8696093Y11659080D1*
X8666961Y11673924D1*
X8656583Y11681464D1*
X8633464Y11704583D1*
X8625924Y11714961D1*
X8611080Y11744093D1*
X8607116Y11756293D1*
X8602002Y11788586D1*
Y11801414D1*
X8607116Y11833707D1*
X8611080Y11845907D1*
X8625924Y11875039D1*
X8633464Y11885417D1*
X8656583Y11908536D1*
X8666961Y11916076D1*
X8696093Y11930919D1*
X8708293Y11934883D1*
X8740586Y11939998D1*
X8753414D1*
X8785707Y11934883D1*
X8797907Y11930919D1*
X8827039Y11916076D1*
X8837417Y11908536D1*
X8860536Y11885417D1*
X8868076Y11875039D1*
X8882919Y11845907D1*
X8886883Y11833707D1*
X8888757Y11823487D1*
X8891232Y11807865D1*
X8880220Y11851758D2*
X8885141Y11839885D1*
X8888757Y11823487D1*
X4443757D2*
X4446998Y11801414D1*
Y11788586D1*
X4441884Y11756293D1*
X4437919Y11744093D1*
X4423076Y11714961D1*
X4415536Y11704583D1*
X4392417Y11681464D1*
X4382039Y11673924D1*
X4352907Y11659081D1*
X4340707Y11655116D1*
X4308414Y11650002D1*
X4295586D1*
X4263293Y11655116D1*
X4251093Y11659080D1*
X4221961Y11673924D1*
X4211583Y11681464D1*
X4188464Y11704583D1*
X4180924Y11714961D1*
X4166080Y11744093D1*
X4162116Y11756293D1*
X4157002Y11788586D1*
Y11801414D1*
X4162116Y11833707D1*
X4166080Y11845907D1*
X4180924Y11875039D1*
X4188464Y11885417D1*
X4211583Y11908536D1*
X4221961Y11916076D1*
X4251093Y11930919D1*
X4263293Y11934883D1*
X4295586Y11939998D1*
X4308414D1*
X4340707Y11934883D1*
X4352907Y11930919D1*
X4382039Y11916076D1*
X4392417Y11908536D1*
X4415536Y11885417D1*
X4423076Y11875039D1*
X4437919Y11845907D1*
X4441883Y11833707D1*
X4443757Y11823487D1*
X4446232Y11807865D1*
X4435220Y11851758D2*
X4440141Y11839885D1*
X4443757Y11823487D1*
X4824757Y3060487D2*
X4827998Y3038414D1*
Y3025586D1*
X4822884Y2993293D1*
X4818919Y2981093D1*
X4804076Y2951961D1*
X4796536Y2941583D1*
X4773417Y2918464D1*
X4763039Y2910924D1*
X4733907Y2896081D1*
X4721707Y2892116D1*
X4689414Y2887002D1*
X4676586D1*
X4644293Y2892116D1*
X4632093Y2896080D1*
X4602961Y2910924D1*
X4592583Y2918464D1*
X4569464Y2941583D1*
X4561924Y2951961D1*
X4547080Y2981093D1*
X4543116Y2993293D1*
X4538002Y3025586D1*
Y3038414D1*
X4543116Y3070707D1*
X4547080Y3082907D1*
X4561924Y3112039D1*
X4569464Y3122417D1*
X4592583Y3145536D1*
X4602961Y3153076D1*
X4632093Y3167919D1*
X4644293Y3171883D1*
X4676586Y3176998D1*
X4689414D1*
X4721707Y3171883D1*
X4733907Y3167919D1*
X4763039Y3153076D1*
X4773417Y3145536D1*
X4796536Y3122417D1*
X4804076Y3112039D1*
X4818919Y3082907D1*
X4822883Y3070707D1*
X4824757Y3060487D1*
X4827232Y3044865D1*
X4816220Y3088758D2*
X4821141Y3076885D1*
X4824757Y3060487D1*
X5967757Y4203487D2*
X5970998Y4181414D1*
Y4168586D1*
X5965884Y4136293D1*
X5961919Y4124093D1*
X5947076Y4094961D1*
X5939536Y4084583D1*
X5916417Y4061464D1*
X5906039Y4053924D1*
X5876907Y4039081D1*
X5864707Y4035116D1*
X5832414Y4030002D1*
X5819586D1*
X5787293Y4035116D1*
X5775093Y4039080D1*
X5745961Y4053924D1*
X5735583Y4061464D1*
X5712464Y4084583D1*
X5704924Y4094961D1*
X5690080Y4124093D1*
X5686116Y4136293D1*
X5681002Y4168586D1*
Y4181414D1*
X5686116Y4213707D1*
X5690080Y4225907D1*
X5704924Y4255039D1*
X5712464Y4265417D1*
X5735583Y4288536D1*
X5745961Y4296076D1*
X5775093Y4310919D1*
X5787293Y4314883D1*
X5819586Y4319998D1*
X5832414D1*
X5864707Y4314883D1*
X5876907Y4310919D1*
X5906039Y4296076D1*
X5916417Y4288536D1*
X5939536Y4265417D1*
X5947076Y4255039D1*
X5961919Y4225907D1*
X5965883Y4213707D1*
X5967757Y4203487D1*
X5970232Y4187865D1*
X5959220Y4231758D2*
X5964141Y4219885D1*
X5967757Y4203487D1*
X16185327Y7214636D2*
X16718257D1*
X16718250Y12718242D1*
X1281732Y12718250D1*
X1281750Y1281758D1*
X16161914Y1281750D1*
X16161994Y7214636D1*
X16185327D1*
X15528604Y9022665D2*
X15497318Y8955925D1*
X15489247Y8943524D1*
X15479336Y8932539D1*
X15467828Y8923239D1*
X15455007Y8915854D1*
X15441188Y8910566D1*
X15426713Y8907504D1*
X15411936Y8906744D1*
X15397223Y8908306D1*
X15382935Y8912150D1*
X15369425Y8918182D1*
X15357024Y8926253D1*
X15346039Y8936164D1*
X15336739Y8947672D1*
X15329354Y8960493D1*
X15296749Y9029198D1*
X15266861Y9099128D1*
X15240981Y9166726D1*
X15215419Y9242232D1*
X15193942Y9315186D1*
X15175342Y9388925D1*
X15159645Y9463337D1*
X15146877Y9538307D1*
X15137056Y9613719D1*
X15130199Y9689459D1*
X15126315Y9765409D1*
X15125411Y9841453D1*
X15127487Y9917473D1*
X15132541Y9993354D1*
X15140565Y10068979D1*
X15151547Y10144231D1*
X15165469Y10218995D1*
X15182310Y10293156D1*
X15202045Y10366600D1*
X15224644Y10439214D1*
X15250070Y10510887D1*
X15276827Y10578043D1*
X15265422Y10601751D1*
X15231471Y10656235D1*
X15195410Y10709346D1*
X15157296Y10761002D1*
X15117186Y10811126D1*
X15083892Y10851029D1*
X15076235Y10863690D1*
X15070654Y10877393D1*
X15067285Y10891800D1*
X15066211Y10906557D1*
X15067459Y10921300D1*
X15070998Y10935666D1*
X15076741Y10949302D1*
X15084546Y10961872D1*
X15094221Y10973066D1*
X15105529Y10982608D1*
X15118190Y10990265D1*
X15131921Y10995854D1*
X15645631Y11124475D1*
X15660223Y11126926D1*
X15675018Y11127065D1*
X15689653Y11124887D1*
X15703766Y11120447D1*
X15717012Y11113853D1*
X15729063Y11105269D1*
X15739623Y11094905D1*
X15748431Y11083017D1*
X15755271Y11069897D1*
X15759975Y11055869D1*
X15762426Y11041277D1*
X15762565Y11026482D1*
X15760387Y11011847D1*
X15755947Y10997734D1*
X15749353Y10984488D1*
X15745280Y10978271D1*
X15696026Y10918527D1*
X15654281Y10864018D1*
X15614705Y10807916D1*
X15577358Y10750305D1*
X15542297Y10691275D1*
X15509585Y10630932D1*
X15488288Y10587682D1*
X15505777Y10552821D1*
X15535464Y10487667D1*
X15562576Y10421399D1*
X15587070Y10354120D1*
X15608908Y10285933D1*
X15628058Y10216942D1*
X15644488Y10147254D1*
X15658175Y10076976D1*
X15669098Y10006215D1*
X15677239Y9935080D1*
X15682585Y9863681D1*
X15685186Y9788461D1*
X15684869Y9720529D1*
X15681802Y9648996D1*
X15675933Y9577638D1*
X15667273Y9506565D1*
X15655834Y9435885D1*
X15641633Y9365709D1*
X15624694Y9296142D1*
X15605041Y9227294D1*
X15582705Y9159268D1*
X15557720Y9092169D1*
X15530125Y9026102D1*
X16417604Y10419665D2*
X16385588Y10351609D1*
X16377321Y10339338D1*
X16367235Y10328513D1*
X16355580Y10319398D1*
X16342643Y10312218D1*
X16328742Y10307151D1*
X16314219Y10304321D1*
X16299432Y10303797D1*
X16284746Y10305594D1*
X16270521Y10309665D1*
X16257109Y10315912D1*
X16244838Y10324179D1*
X16234013Y10334265D1*
X16224898Y10345920D1*
X16208330Y10378564D1*
X16185749Y10426198D1*
X16155861Y10496128D1*
X16128737Y10567176D1*
X16104419Y10639232D1*
X16082942Y10712186D1*
X16064342Y10785925D1*
X16048645Y10860337D1*
X16035877Y10935307D1*
X16026056Y11010719D1*
X16019199Y11086459D1*
X16015315Y11162409D1*
X16014410Y11238453D1*
X16016487Y11314473D1*
X16021541Y11390355D1*
X16029565Y11465979D1*
X16040546Y11541231D1*
X16054469Y11615995D1*
X16070432Y11686596D1*
X16091046Y11763600D1*
X16113644Y11836214D1*
X16139070Y11907887D1*
X16165827Y11975042D1*
X16154422Y11998751D1*
X16120470Y12053235D1*
X16084410Y12106346D1*
X16046296Y12158003D1*
X16006187Y12208126D1*
X15973740Y12246866D1*
X15965891Y12259409D1*
X15960101Y12273025D1*
X15956513Y12287379D1*
X15955214Y12302118D1*
X15956237Y12316878D1*
X15959556Y12331297D1*
X15965090Y12345019D1*
X15972702Y12357706D1*
X15982206Y12369046D1*
X15993366Y12378760D1*
X16005909Y12386609D1*
X16019525Y12392399D1*
X16139815Y12422771D1*
X16541879Y12522987D1*
X16556618Y12524286D1*
X16571378Y12523263D1*
X16585797Y12519944D1*
X16599519Y12514410D1*
X16612206Y12506798D1*
X16623546Y12497294D1*
X16633260Y12486134D1*
X16641109Y12473591D1*
X16646899Y12459975D1*
X16650487Y12445621D1*
X16651786Y12430882D1*
X16650763Y12416122D1*
X16647444Y12401703D1*
X16641910Y12387981D1*
X16634280Y12375271D1*
X16585026Y12315527D1*
X16543281Y12261018D1*
X16503705Y12204915D1*
X16466358Y12147305D1*
X16431297Y12088275D1*
X16398576Y12027916D1*
X16377288Y11984682D1*
X16394777Y11949821D1*
X16424465Y11884667D1*
X16451576Y11818399D1*
X16476070Y11751120D1*
X16497908Y11682933D1*
X16517058Y11613942D1*
X16533488Y11544254D1*
X16547176Y11473976D1*
X16558098Y11403215D1*
X16566239Y11332080D1*
X16571586Y11260681D1*
X16574130Y11189128D1*
X16573869Y11117529D1*
X16570801Y11045996D1*
X16564933Y10974638D1*
X16556272Y10903565D1*
X16544833Y10832885D1*
X16529833Y10759130D1*
X16513694Y10693142D1*
X16494041Y10624293D1*
X16471705Y10556268D1*
X16446720Y10489169D1*
X16419125Y10423102D1*
X16290604Y7752665D2*
X16259318Y7685925D1*
X16251247Y7673524D1*
X16241336Y7662539D1*
X16229828Y7653239D1*
X16217007Y7645854D1*
X16203188Y7640566D1*
X16188713Y7637504D1*
X16173936Y7636745D1*
X16159223Y7638306D1*
X16144935Y7642150D1*
X16131425Y7648182D1*
X16119024Y7656253D1*
X16108039Y7666164D1*
X16098739Y7677672D1*
X16091354Y7690493D1*
X16058749Y7759198D1*
X16028861Y7829128D1*
X16001737Y7900176D1*
X15977418Y7972232D1*
X15955942Y8045186D1*
X15937341Y8118925D1*
X15921645Y8193337D1*
X15908877Y8268307D1*
X15899056Y8343719D1*
X15892199Y8419459D1*
X15888315Y8495409D1*
X15887386Y8567786D1*
X15889487Y8647473D1*
X15894541Y8723354D1*
X15902565Y8798979D1*
X15913547Y8874231D1*
X15927469Y8948995D1*
X15944311Y9023156D1*
X15964046Y9096600D1*
X15986644Y9169214D1*
X16012070Y9240887D1*
X16038827Y9308042D1*
X16027422Y9331751D1*
X15993471Y9386235D1*
X15957410Y9439346D1*
X15919296Y9491002D1*
X15879186Y9541126D1*
X15846740Y9579866D1*
X15838891Y9592409D1*
X15833101Y9606025D1*
X15829513Y9620379D1*
X15828214Y9635118D1*
X15829237Y9649878D1*
X15832556Y9664297D1*
X15838090Y9678019D1*
X15845702Y9690706D1*
X15855206Y9702046D1*
X15866366Y9711760D1*
X15878909Y9719609D1*
X15892525Y9725399D1*
X16012815Y9755771D1*
X16414879Y9855987D1*
X16429618Y9857286D1*
X16444378Y9856263D1*
X16458797Y9852944D1*
X16472519Y9847410D1*
X16485206Y9839798D1*
X16496546Y9830294D1*
X16506260Y9819134D1*
X16514109Y9806591D1*
X16519899Y9792975D1*
X16523487Y9778621D1*
X16524786Y9763882D1*
X16523763Y9749122D1*
X16520444Y9734703D1*
X16514910Y9720981D1*
X16507280Y9708271D1*
X16458026Y9648527D1*
X16416281Y9594018D1*
X16376705Y9537915D1*
X16339358Y9480305D1*
X16304297Y9421274D1*
X16271576Y9360916D1*
X16250288Y9317682D1*
X16267776Y9282821D1*
X16297464Y9217667D1*
X16325895Y9147978D1*
X16349070Y9084120D1*
X16370908Y9015933D1*
X16390058Y8946943D1*
X16406489Y8877254D1*
X16420176Y8806976D1*
X16431098Y8736215D1*
X16439239Y8665080D1*
X16444586Y8593681D1*
X16447130Y8522128D1*
X16446869Y8450529D1*
X16443801Y8378996D1*
X16437933Y8307638D1*
X16429273Y8236565D1*
X16417833Y8165885D1*
X16403633Y8095709D1*
X16386694Y8026142D1*
X16367041Y7957294D1*
X16344705Y7889268D1*
X16319720Y7822170D1*
X16292125Y7756102D1*
D22*
X5826000Y7477000D3*
D23*
X5572000D3*
X5318000D3*
X5064000D3*
X4810000D3*
X4556000D3*
X4302000D3*
X4048000D3*
X3794000D3*
X3540000D3*
X3286000D3*
X3032000D3*
X2778000D3*
X2524000D3*
X2270000D3*
Y5953000D3*
X2524000D3*
X2778000D3*
X3032000D3*
X3286000D3*
X3540000D3*
X3794000D3*
X4048000D3*
X4302000D3*
X4556000D3*
X4810000D3*
X5064000D3*
X5318000D3*
X5572000D3*
X5826000D3*
D24*
X8239000Y2524000D3*
D25*
Y3032000D3*
D26*
X5762500Y4937000D3*
D27*
X6867500D3*
D28*
X3667000Y12303000D3*
D29*
Y11795000D3*
D28*
X8112000Y12303000D3*
D29*
Y11795000D3*
D28*
X13065000Y8747000D3*
D29*
Y9255000D3*
D28*
X14589000Y4556000D3*
D29*
Y4048000D3*
D28*
X10017000Y4810000D3*
D29*
Y5318000D3*
D28*
X13573000Y2270000D3*
D29*
Y1762000D3*
D30*
X2594500Y4206500D3*
D31*
Y3952500D3*
D30*
Y3571500D3*
D31*
Y3317500D3*
D30*
Y2936500D3*
D31*
Y2682500D3*
D30*
X3864500Y4206500D3*
D31*
Y3952500D3*
D30*
Y3571500D3*
D31*
Y3317500D3*
D30*
Y2936500D3*
D31*
Y2682500D3*
D30*
X5134500Y4206500D3*
D31*
Y3952500D3*
D28*
X5191000Y2524000D3*
D29*
Y3032000D3*
D28*
X6334000Y4175000D3*
D29*
Y3667000D3*
D32*
X6461000Y2016000D3*
D33*
Y2270000D3*
Y2524000D3*
D22*
X5064000Y4937000D3*
D23*
X4810000D3*
X4556000D3*
X4302000D3*
X4048000D3*
X3794000D3*
X3540000D3*
X3286000D3*
D34*
X4048000Y10525000D3*
X3921000D3*
X3794000D3*
X3667000D3*
X3540000D3*
X3413000D3*
X3286000D3*
D68*
X2397000Y10176000D3*
X4937000D3*
D34*
X8620000Y10779000D3*
X8493000D3*
X8366000D3*
X8239000D3*
X8112000D3*
X7985000D3*
X7858000D3*
D68*
X6969000Y10430000D3*
X9509000D3*
D34*
X13192000Y11160000D3*
X13065000D3*
X12938000D3*
X12811000D3*
X12684000D3*
X12557000D3*
X12430000D3*
D68*
X11541000Y10811000D3*
X14081000D3*
D34*
X13192000Y6080000D3*
X13319000D3*
X13446000D3*
X13573000D3*
X13700000D3*
X13827000D3*
X13954000D3*
D68*
X14843000Y6429000D3*
X12303000D3*
D34*
X9128000Y7350000D3*
X9001000D3*
X8874000D3*
X8747000D3*
X8620000D3*
X8493000D3*
X8366000D3*
D68*
X7477000Y7001000D3*
X10017000D3*
D34*
X10525000Y2397000D3*
X10652000D3*
X10779000D3*
X10906000D3*
X11033000D3*
X11160000D3*
X11287000D3*
D68*
X12176000Y2746000D3*
X9636000D3*
D26*
X7350000Y3032000D3*
D27*
Y1927000D3*
X15414500Y9001000D2*
D20*
G03X15160500Y10906000I-1555750J762000D01*
G01*
X15414500Y9001000D2*
G02X15668500Y11033000I1651000J825500D01*
G01*
X15160500Y10906000D2*
X15668500Y11033000D1*
X15541500Y9382000D2*
G03X15414500Y9572500I-349250J-95250D01*
G01*
X15351000Y9350250D2*
G02X15351000Y9350250I31750J0D01*
G01*
Y9699500D2*
D21*
Y10271000D1*
X15478000Y9699500D2*
Y10080500D1*
X15414500Y10779000D2*
Y10906000D1*
X16303500Y10398000D2*
D20*
G03X16049500Y12303000I-1555750J762000D01*
G01*
X16303500Y10398000D2*
G02X16557500Y12430000I1651000J825500D01*
G01*
X16049500Y12303000D2*
X16557500Y12430000D1*
X16430500Y10779000D2*
G03X16303500Y10969500I-349250J-95250D01*
G01*
X16240000Y10747250D2*
G02X16240000Y10747250I31750J0D01*
G01*
Y11096500D2*
D21*
Y11668000D1*
X16367000Y11096500D2*
Y11477500D1*
X16303500Y12176000D2*
Y12303000D1*
X16176500Y7731000D2*
D20*
G03X15922500Y9636000I-1555750J762000D01*
G01*
X16176500Y7731000D2*
G02X16430500Y9763000I1651000J825500D01*
G01*
X15922500Y9636000D2*
X16430500Y9763000D1*
X16303500Y8112000D2*
G03X16176500Y8302500I-349250J-95250D01*
G01*
X16113000Y8080250D2*
G02X16113000Y8080250I31750J0D01*
G01*
Y8429500D2*
D21*
Y9001000D1*
X16240000Y8429500D2*
Y8810500D1*
X16176500Y9509000D2*
Y9636000D1*
X16393080Y1461297D2*
D67*
X16368934Y1449224D1*
X16344507Y1424797D1*
X16332434Y1400651D1*
Y1352078D1*
X16344507Y1327651D1*
X16368934Y1303505D1*
X16393080Y1291151D1*
X16429580Y1279078D1*
X16490507D1*
X16526726Y1291151D1*
X16551153Y1303505D1*
X16575299Y1327651D1*
X16587653Y1352078D1*
Y1400651D1*
X16575299Y1424797D1*
X16551153Y1449224D1*
X16526726Y1461297D1*
X16417507Y1600375D2*
X16429580Y1576229D1*
X16454007Y1551802D1*
X16490507Y1539729D1*
X16514653D1*
X16551153Y1551802D1*
X16575299Y1576228D1*
X16587653Y1600375D1*
Y1636875D1*
X16575299Y1661302D1*
X16551153Y1685448D1*
X16514653Y1697802D1*
X16490507D1*
X16454007Y1685448D1*
X16429580Y1661302D1*
X16417507Y1636875D1*
Y1600375D1*
Y1776233D2*
Y1909879D1*
X16587653Y1776233D1*
Y1909879D1*
X16417507Y2000664D2*
X16587653Y2073384D1*
X16636226Y2049237D1*
X16660653Y2024810D1*
X16672726Y2000664D1*
Y1988310D1*
X16417507Y2146384D2*
X16587653Y2073384D1*
X16332434Y2382888D2*
Y2224815D1*
X16587653D1*
X16454007D2*
Y2321961D1*
X16332434Y2461319D2*
X16344507Y2473392D1*
X16332434Y2485746D1*
X16320080Y2473392D1*
X16332434Y2461319D1*
X16417507Y2473392D2*
X16587653D1*
X16454007Y2697824D2*
X16429580Y2685751D1*
X16417507Y2649251D1*
Y2612751D1*
X16429580Y2576251D1*
X16454007Y2564178D1*
X16478153Y2576251D1*
X16490507Y2600678D1*
X16502580Y2661324D1*
X16514653Y2685751D1*
X16539080Y2697824D1*
X16551153D1*
X16575299Y2685751D1*
X16587653Y2649251D1*
Y2612751D1*
X16575299Y2576251D1*
X16551153Y2564178D1*
X16332434Y2776255D2*
X16587653D1*
X16466080D2*
X16429580Y2812755D1*
X16417507Y2837182D1*
Y2873682D1*
X16429580Y2897828D1*
X16466080Y2909901D1*
X16587653D1*
X16417507Y3235226D2*
X16587653D1*
X16466080D2*
X16429580Y3271726D1*
X16417507Y3296153D1*
Y3332372D1*
X16429580Y3356799D1*
X16466080Y3368872D1*
X16587653D1*
X16466080D2*
X16429580Y3405372D1*
X16417507Y3429799D1*
Y3466018D1*
X16429580Y3490445D1*
X16466080Y3502799D1*
X16587653D1*
X16417507Y3726949D2*
X16587653D1*
X16454007D2*
X16429580Y3702803D1*
X16417507Y3678376D1*
Y3642157D1*
X16429580Y3617730D1*
X16454007Y3593584D1*
X16490507Y3581230D1*
X16514653D1*
X16551153Y3593584D1*
X16575299Y3617730D1*
X16587653Y3642157D1*
Y3678376D1*
X16575299Y3702803D1*
X16551153Y3726949D1*
X16332434Y3805381D2*
X16344507Y3817454D1*
X16332434Y3829808D1*
X16320080Y3817454D1*
X16332434Y3805381D1*
X16417507Y3817454D2*
X16587653D1*
X16417507Y3908239D2*
X16587653D1*
X16466080D2*
X16429580Y3944739D1*
X16417507Y3969166D1*
Y4005385D1*
X16429580Y4029812D1*
X16466080Y4041885D1*
X16587653D1*
X16332434Y4120316D2*
X16587653D1*
X16454007D2*
X16429580Y4144743D1*
X16417507Y4168890D1*
Y4205390D1*
X16429580Y4229536D1*
X16454007Y4253963D1*
X16490507Y4266036D1*
X16514653D1*
X16551153Y4253963D1*
X16575299Y4229536D1*
X16587653Y4205390D1*
Y4168890D1*
X16575299Y4144743D1*
X16551153Y4120316D1*
X16417507Y4405113D2*
X16429580Y4380967D1*
X16454007Y4356540D1*
X16490507Y4344467D1*
X16514653D1*
X16551153Y4356540D1*
X16575299Y4380967D1*
X16587653Y4405113D1*
Y4441613D1*
X16575299Y4466040D1*
X16551153Y4490186D1*
X16514653Y4502540D1*
X16490507D1*
X16454007Y4490186D1*
X16429580Y4466040D1*
X16417507Y4441613D1*
Y4405113D1*
Y4726691D2*
X16587653D1*
X16454007D2*
X16429580Y4702545D1*
X16417507Y4678118D1*
Y4641898D1*
X16429580Y4617472D1*
X16454007Y4593325D1*
X16490507Y4580972D1*
X16514653D1*
X16551153Y4593325D1*
X16575299Y4617472D1*
X16587653Y4641898D1*
Y4678118D1*
X16575299Y4702545D1*
X16551153Y4726691D1*
X16417507Y4805122D2*
X16587653D1*
X16490507D2*
X16454007Y4817476D1*
X16429580Y4841622D1*
X16417507Y4866049D1*
Y4902549D1*
X16332434Y5126700D2*
X16587653D1*
X16454007D2*
X16429580Y5102553D1*
X16417507Y5078127D1*
Y5041627D1*
X16429580Y5017480D1*
X16454007Y4993053D1*
X16490507Y4980980D1*
X16514653D1*
X16551153Y4993053D1*
X16575299Y5017480D1*
X16587653Y5041627D1*
Y5078127D1*
X16575299Y5102553D1*
X16551153Y5126700D1*
X16381287Y5452024D2*
X16368934Y5476451D1*
X16332714Y5512951D1*
X16587653D1*
X16332714Y5652028D2*
X16344787Y5615809D1*
X16368934Y5603455D1*
X16393360D1*
X16417507Y5615809D1*
X16429860Y5639955D1*
X16441934Y5688528D1*
X16454007Y5725028D1*
X16478433Y5749175D1*
X16502580Y5761248D1*
X16539080D1*
X16563226Y5749175D1*
X16575580Y5737101D1*
X16587653Y5700601D1*
Y5652028D1*
X16575580Y5615809D1*
X16563226Y5603455D1*
X16539080Y5591382D1*
X16502580D1*
X16478434Y5603455D1*
X16454007Y5627882D1*
X16441934Y5664101D1*
X16429860Y5712675D1*
X16417507Y5737101D1*
X16393360Y5749175D1*
X16368934D1*
X16344787Y5737101D1*
X16332714Y5700601D1*
Y5652028D1*
X16563226Y5851752D2*
X16575580Y5839679D1*
X16587653Y5851752D1*
X16575580Y5864106D1*
X16563226Y5851752D1*
X16332714Y6015537D2*
X16344787Y5979037D1*
X16381287Y5954610D1*
X16441934Y5942537D1*
X16478433D1*
X16539080Y5954610D1*
X16575580Y5979037D1*
X16587653Y6015537D1*
Y6039683D1*
X16575580Y6076183D1*
X16539080Y6100330D1*
X16478433Y6112683D1*
X16441934D1*
X16381287Y6100330D1*
X16344787Y6076183D1*
X16332714Y6039683D1*
Y6015537D1*
X16381287Y6100330D2*
X16539080Y5954610D1*
X16587653Y6312688D2*
X16332714D1*
X16502580Y6191115D1*
Y6373334D1*
X16563226Y6463838D2*
X16575580Y6451765D1*
X16587653Y6463838D1*
X16575580Y6476192D1*
X16563226Y6463838D1*
X16381287Y6554624D2*
X16368934Y6579051D1*
X16332714Y6615551D1*
X16587653D1*
X16332714Y6754628D2*
X16344787Y6718409D1*
X16368934Y6706055D1*
X16393360D1*
X16417507Y6718409D1*
X16429860Y6742555D1*
X16441933Y6791128D1*
X16454007Y6827628D1*
X16478433Y6851774D1*
X16502580Y6863847D1*
X16539080D1*
X16563226Y6851774D1*
X16575580Y6839701D1*
X16587653Y6803201D1*
Y6754628D1*
X16575580Y6718409D1*
X16563226Y6706055D1*
X16539080Y6693982D1*
X16502580D1*
X16478433Y6706055D1*
X16454007Y6730482D1*
X16441933Y6766701D1*
X16429860Y6815274D1*
X16417507Y6839701D1*
X16393360Y6851774D1*
X16368934D1*
X16344787Y6839701D1*
X16332714Y6803201D1*
Y6754628D1*
M02*
