%TF.GenerationSoftware,Novarm,DipTrace,3.2.0.1*%
%TF.CreationDate,2018-04-17T18:39:52+00:00*%
%FSLAX35Y35*%
%MOMM*%
%TF.FileFunction,Soldermask,Top*%
%TF.Part,Single*%
%ADD26R,1.8X1.8*%
%ADD35C,1.651*%
%ADD36C,1.1*%
%ADD42C,4.2*%
%ADD44O,1.2X2.2*%
%ADD46C,2.1*%
%ADD47C,1.7*%
%ADD48R,2.1X2.1*%
%ADD49R,1.7X1.7*%
%ADD50O,2.6X1.9*%
%ADD52R,2.6X1.9*%
%ADD54C,2.7*%
%ADD56R,2.7X2.7*%
%ADD58C,2.0*%
%ADD60R,2.0X2.0*%
%ADD62C,1.8*%
G75*
G01*
%LPD*%
D49*
X5826000Y7477000D3*
D47*
X5572000D3*
X5318000D3*
X5064000D3*
X4810000D3*
X4556000D3*
X4302000D3*
X4048000D3*
X3794000D3*
X3540000D3*
X3286000D3*
X3032000D3*
X2778000D3*
X2524000D3*
X2270000D3*
Y5953000D3*
X2524000D3*
X2778000D3*
X3032000D3*
X3286000D3*
X3540000D3*
X3794000D3*
X4048000D3*
X4302000D3*
X4556000D3*
X4810000D3*
X5064000D3*
X5318000D3*
X5572000D3*
X5826000D3*
D35*
X6080000Y7477000D3*
Y5953000D3*
X2016000D3*
Y7477000D3*
D62*
X8239000Y2524000D3*
D26*
Y3032000D3*
D60*
X5762500Y4937000D3*
D58*
X6867500D3*
D56*
X3667000Y12303000D3*
D54*
Y11795000D3*
D56*
X8112000Y12303000D3*
D54*
Y11795000D3*
D56*
X13065000Y8747000D3*
D54*
Y9255000D3*
D56*
X14589000Y4556000D3*
D54*
Y4048000D3*
D56*
X10017000Y4810000D3*
D54*
Y5318000D3*
D56*
X13573000Y2270000D3*
D54*
Y1762000D3*
D52*
X2594500Y4206500D3*
D50*
Y3952500D3*
D36*
X2340500Y4206500D3*
Y3952500D3*
D52*
X2594500Y3571500D3*
D50*
Y3317500D3*
D36*
X2340500Y3571500D3*
Y3317500D3*
D52*
X2594500Y2936500D3*
D50*
Y2682500D3*
D36*
X2340500Y2936500D3*
Y2682500D3*
D52*
X3864500Y4206500D3*
D50*
Y3952500D3*
D36*
X3610500Y4206500D3*
Y3952500D3*
D52*
X3864500Y3571500D3*
D50*
Y3317500D3*
D36*
X3610500Y3571500D3*
Y3317500D3*
D52*
X3864500Y2936500D3*
D50*
Y2682500D3*
D36*
X3610500Y2936500D3*
Y2682500D3*
D52*
X5134500Y4206500D3*
D50*
Y3952500D3*
D36*
X4880500Y4206500D3*
Y3952500D3*
D56*
X5191000Y2524000D3*
D54*
Y3032000D3*
D56*
X6334000Y4175000D3*
D54*
Y3667000D3*
D48*
X6461000Y2016000D3*
D46*
Y2270000D3*
Y2524000D3*
D49*
X5064000Y4937000D3*
D47*
X4810000D3*
X4556000D3*
X4302000D3*
X4048000D3*
X3794000D3*
X3540000D3*
X3286000D3*
D44*
X4048000Y10525000D3*
X3921000D3*
X3794000D3*
X3667000D3*
X3540000D3*
X3413000D3*
X3286000D3*
D42*
X2397000Y10176000D3*
X4937000D3*
D44*
X8620000Y10779000D3*
X8493000D3*
X8366000D3*
X8239000D3*
X8112000D3*
X7985000D3*
X7858000D3*
D42*
X6969000Y10430000D3*
X9509000D3*
D44*
X13192000Y11160000D3*
X13065000D3*
X12938000D3*
X12811000D3*
X12684000D3*
X12557000D3*
X12430000D3*
D42*
X11541000Y10811000D3*
X14081000D3*
D44*
X13192000Y6080000D3*
X13319000D3*
X13446000D3*
X13573000D3*
X13700000D3*
X13827000D3*
X13954000D3*
D42*
X14843000Y6429000D3*
X12303000D3*
D44*
X9128000Y7350000D3*
X9001000D3*
X8874000D3*
X8747000D3*
X8620000D3*
X8493000D3*
X8366000D3*
D42*
X7477000Y7001000D3*
X10017000D3*
D44*
X10525000Y2397000D3*
X10652000D3*
X10779000D3*
X10906000D3*
X11033000D3*
X11160000D3*
X11287000D3*
D42*
X12176000Y2746000D3*
X9636000D3*
D60*
X7350000Y3032000D3*
D58*
Y1927000D3*
M02*
